<?xml version="1.0" standalone="no"?>
<svg width="567.429" height="545.624" viewBox="0 0 567.429 545.624" xmlns="http://www.w3.org/2000/svg" shape-rendering="crispEdges">
<title>
/Users/georgebakas/Documents/HEP-NTUA_ul/VariationHandling/FinalResults/results/FinalResult_jetY1_normalized.svg
</title>
<desc>
Creator: ROOT Version 6.22/02
CreationDate: Wed Nov 24 08:11:45 2021</desc>
<defs>
</defs>
<rect x="0.5" y="0" width="566.929" height="545.124" fill="white"/>
<rect x="0.5" y="0" width="566.929" height="381.587" fill="white"/>
<rect x="57.1929" y="38.1587" width="453.543" height="324.349" fill="white"/>
<rect x="57.1929" y="38.1587" width="453.543" height="324.349" fill="none" stroke="black"/>
<rect x="57.1929" y="38.1587" width="453.543" height="324.349" fill="white"/>
<rect x="57.1929" y="38.1587" width="453.543" height="324.349" fill="none" stroke="black"/>
<rect x="57.1929" y="308.213" width="37.7953" height="18.8705" fill="#cccccc"/>
<g fill="black">
<circle cx="76.0906" cy="317.648" r="3.79217"/>
</g>
<rect x="94.9882" y="314.934" width="37.7953" height="13.3004" fill="#cccccc"/>
<g fill="black">
<circle cx="113.886" cy="321.584" r="3.79217"/>
</g>
<rect x="132.783" y="314.649" width="37.7953" height="7.80008" fill="#cccccc"/>
<g fill="black">
<circle cx="151.681" cy="318.549" r="3.79217"/>
</g>
<rect x="170.579" y="322.493" width="37.7953" height="6.02132" fill="#cccccc"/>
<g fill="black">
<circle cx="189.476" cy="325.503" r="3.79217"/>
</g>
<rect x="208.374" y="327.794" width="37.7953" height="5.01841" fill="#cccccc"/>
<g fill="black">
<circle cx="227.272" cy="330.303" r="3.79217"/>
</g>
<rect x="246.169" y="330.015" width="37.7953" height="13.1087" fill="#cccccc"/>
<g fill="black">
<circle cx="265.067" cy="336.569" r="3.79217"/>
</g>
<rect x="283.965" y="338.121" width="37.7953" height="7.97451" fill="#cccccc"/>
<g fill="black">
<circle cx="302.862" cy="342.109" r="3.79217"/>
</g>
<rect x="321.76" y="345.887" width="37.7953" height="5.02952" fill="#cccccc"/>
<g fill="black">
<circle cx="340.657" cy="348.402" r="3.79217"/>
</g>
<rect x="359.555" y="348.71" width="37.7953" height="8.42335" fill="#cccccc"/>
<g fill="black">
<circle cx="378.453" cy="352.922" r="3.79217"/>
</g>
<rect x="397.35" y="359.926" width="113.386" height="2.53779" fill="#cccccc"/>
<g fill="black">
<circle cx="454.043" cy="361.195" r="3.79217"/>
</g>
<path d="M57.1929,362.508h 453.543" fill="none" stroke="black"/>
<path d="M57.1929,353.349v 9.15809" fill="none" stroke="black"/>
<path d="M66.6417,357.929v 4.57904" fill="none" stroke="black"/>
<path d="M76.0906,357.929v 4.57904" fill="none" stroke="black"/>
<path d="M85.5394,357.929v 4.57904" fill="none" stroke="black"/>
<path d="M94.9882,353.349v 9.15809" fill="none" stroke="black"/>
<path d="M104.437,357.929v 4.57904" fill="none" stroke="black"/>
<path d="M113.886,357.929v 4.57904" fill="none" stroke="black"/>
<path d="M123.335,357.929v 4.57904" fill="none" stroke="black"/>
<path d="M132.783,353.349v 9.15809" fill="none" stroke="black"/>
<path d="M142.232,357.929v 4.57904" fill="none" stroke="black"/>
<path d="M151.681,357.929v 4.57904" fill="none" stroke="black"/>
<path d="M161.13,357.929v 4.57904" fill="none" stroke="black"/>
<path d="M170.579,353.349v 9.15809" fill="none" stroke="black"/>
<path d="M180.028,357.929v 4.57904" fill="none" stroke="black"/>
<path d="M189.476,357.929v 4.57904" fill="none" stroke="black"/>
<path d="M198.925,357.929v 4.57904" fill="none" stroke="black"/>
<path d="M208.374,353.349v 9.15809" fill="none" stroke="black"/>
<path d="M217.823,357.929v 4.57904" fill="none" stroke="black"/>
<path d="M227.272,357.929v 4.57904" fill="none" stroke="black"/>
<path d="M236.72,357.929v 4.57904" fill="none" stroke="black"/>
<path d="M246.169,353.349v 9.15809" fill="none" stroke="black"/>
<path d="M255.618,357.929v 4.57904" fill="none" stroke="black"/>
<path d="M265.067,357.929v 4.57904" fill="none" stroke="black"/>
<path d="M274.516,357.929v 4.57904" fill="none" stroke="black"/>
<path d="M283.965,353.349v 9.15809" fill="none" stroke="black"/>
<path d="M293.413,357.929v 4.57904" fill="none" stroke="black"/>
<path d="M302.862,357.929v 4.57904" fill="none" stroke="black"/>
<path d="M312.311,357.929v 4.57904" fill="none" stroke="black"/>
<path d="M321.76,353.349v 9.15809" fill="none" stroke="black"/>
<path d="M331.209,357.929v 4.57904" fill="none" stroke="black"/>
<path d="M340.657,357.929v 4.57904" fill="none" stroke="black"/>
<path d="M350.106,357.929v 4.57904" fill="none" stroke="black"/>
<path d="M359.555,353.349v 9.15809" fill="none" stroke="black"/>
<path d="M369.004,357.929v 4.57904" fill="none" stroke="black"/>
<path d="M378.453,357.929v 4.57904" fill="none" stroke="black"/>
<path d="M387.902,357.929v 4.57904" fill="none" stroke="black"/>
<path d="M397.35,353.349v 9.15809" fill="none" stroke="black"/>
<path d="M406.799,357.929v 4.57904" fill="none" stroke="black"/>
<path d="M416.248,357.929v 4.57904" fill="none" stroke="black"/>
<path d="M425.697,357.929v 4.57904" fill="none" stroke="black"/>
<path d="M435.146,353.349v 9.15809" fill="none" stroke="black"/>
<path d="M444.594,357.929v 4.57904" fill="none" stroke="black"/>
<path d="M454.043,357.929v 4.57904" fill="none" stroke="black"/>
<path d="M463.492,357.929v 4.57904" fill="none" stroke="black"/>
<path d="M472.941,353.349v 9.15809" fill="none" stroke="black"/>
<path d="M482.39,357.929v 4.57904" fill="none" stroke="black"/>
<path d="M491.839,357.929v 4.57904" fill="none" stroke="black"/>
<path d="M501.287,357.929v 4.57904" fill="none" stroke="black"/>
<path d="M510.736,353.349v 9.15809" fill="none" stroke="black"/>
<path d="M510.736,353.349v 9.15809" fill="none" stroke="black"/>
<text xml:space="preserve" x="51.6943" y="380.165" fill="black" font-size="18.004" font-family="Helvetica">0</text>
<text xml:space="preserve" x="82.0316" y="380.165" fill="black" font-size="18.004" font-family="Helvetica">0.2</text>
<text xml:space="preserve" x="119.953" y="380.165" fill="black" font-size="18.004" font-family="Helvetica">0.4</text>
<text xml:space="preserve" x="157.875" y="380.165" fill="black" font-size="18.004" font-family="Helvetica">0.6</text>
<text xml:space="preserve" x="195.797" y="380.165" fill="black" font-size="18.004" font-family="Helvetica">0.8</text>
<text xml:space="preserve" x="242.251" y="380.165" fill="black" font-size="18.004" font-family="Helvetica">1</text>
<text xml:space="preserve" x="271.64" y="380.165" fill="black" font-size="18.004" font-family="Helvetica">1.2</text>
<text xml:space="preserve" x="308.614" y="380.165" fill="black" font-size="18.004" font-family="Helvetica">1.4</text>
<text xml:space="preserve" x="346.535" y="380.165" fill="black" font-size="18.004" font-family="Helvetica">1.6</text>
<text xml:space="preserve" x="384.457" y="380.165" fill="black" font-size="18.004" font-family="Helvetica">1.8</text>
<text xml:space="preserve" x="429.963" y="380.165" fill="black" font-size="18.004" font-family="Helvetica">2</text>
<text xml:space="preserve" x="460.3" y="380.165" fill="black" font-size="18.004" font-family="Helvetica">2.2</text>
<text xml:space="preserve" x="498.222" y="380.165" fill="black" font-size="18.004" font-family="Helvetica">2.4</text>
<text xml:space="preserve" x="426.171" y="401.022" fill="black" font-size="21.5048" font-family="Helvetica">partonY1</text>
<path d="M57.1929,362.508v -324.349" fill="none" stroke="black"/>
<path d="M71.6496,362.508h -14.4567" fill="none" stroke="black"/>
<path d="M64.4213,348.993h -7.22835" fill="none" stroke="black"/>
<path d="M64.4213,335.479h -7.22835" fill="none" stroke="black"/>
<path d="M64.4213,321.964h -7.22835" fill="none" stroke="black"/>
<path d="M71.6496,308.449h -14.4567" fill="none" stroke="black"/>
<path d="M64.4213,294.935h -7.22835" fill="none" stroke="black"/>
<path d="M64.4213,281.42h -7.22835" fill="none" stroke="black"/>
<path d="M64.4213,267.906h -7.22835" fill="none" stroke="black"/>
<path d="M71.6496,254.391h -14.4567" fill="none" stroke="black"/>
<path d="M64.4213,240.877h -7.22835" fill="none" stroke="black"/>
<path d="M64.4213,227.362h -7.22835" fill="none" stroke="black"/>
<path d="M64.4213,213.848h -7.22835" fill="none" stroke="black"/>
<path d="M71.6496,200.333h -14.4567" fill="none" stroke="black"/>
<path d="M64.4213,186.819h -7.22835" fill="none" stroke="black"/>
<path d="M64.4213,173.304h -7.22835" fill="none" stroke="black"/>
<path d="M64.4213,159.79h -7.22835" fill="none" stroke="black"/>
<path d="M71.6496,146.275h -14.4567" fill="none" stroke="black"/>
<path d="M64.4213,132.76h -7.22835" fill="none" stroke="black"/>
<path d="M64.4213,119.246h -7.22835" fill="none" stroke="black"/>
<path d="M64.4213,105.731h -7.22835" fill="none" stroke="black"/>
<path d="M71.6496,92.2169h -14.4567" fill="none" stroke="black"/>
<path d="M64.4213,78.7023h -7.22835" fill="none" stroke="black"/>
<path d="M64.4213,65.1878h -7.22835" fill="none" stroke="black"/>
<path d="M64.4213,51.6732h -7.22835" fill="none" stroke="black"/>
<path d="M71.6496,38.1587h -14.4567" fill="none" stroke="black"/>
<path d="M71.6496,38.1587h -14.4567" fill="none" stroke="black"/>
<text xml:space="preserve" x="43.1619" y="368.788" fill="black" font-size="18.004" font-family="Helvetica">0</text>
<text xml:space="preserve" x="27.9932" y="314.75" fill="black" font-size="18.004" font-family="Helvetica">0.2</text>
<text xml:space="preserve" x="27.9932" y="260.712" fill="black" font-size="18.004" font-family="Helvetica">0.4</text>
<text xml:space="preserve" x="27.9932" y="206.673" fill="black" font-size="18.004" font-family="Helvetica">0.6</text>
<text xml:space="preserve" x="27.9932" y="152.635" fill="black" font-size="18.004" font-family="Helvetica">0.8</text>
<text xml:space="preserve" x="46.006" y="99.5444" fill="black" font-size="18.004" font-family="Helvetica">1</text>
<text xml:space="preserve" x="27.9932" y="45.506" fill="black" font-size="18.004" font-family="Helvetica">1.2</text>
<g transform="rotate(-90,0.5,50.2462)">
<text xml:space="preserve" x="0.5" y="50.2462" fill="black" font-size="21.5048" font-family="Times">&#0967;</text>
</g>
<g transform="rotate(-90,0.5,61.6227)">
<text xml:space="preserve" x="0.5" y="61.6227" fill="black" font-size="21.5048" font-family="Helvetica">d</text>
</g>
<g transform="rotate(-90,-23.201,51.1943)">
<text xml:space="preserve" x="-23.201" y="51.1943" fill="black" font-size="21.5048" font-family="Times">&#0963;</text>
</g>
<g transform="rotate(-90,-23.201,62.5708)">
<text xml:space="preserve" x="-23.201" y="62.5708" fill="black" font-size="21.5048" font-family="Helvetica">d</text>
</g>
<g transform="rotate(-90,-12.7726,70.1551)">
<text xml:space="preserve" x="-12.7726" y="70.1551" fill="black" font-size="21.5048" font-family="Helvetica"> </text>
</g>
<g transform="rotate(-90,-4.24021,83.4277)">
<text xml:space="preserve" x="-4.24021" y="83.4277" fill="black" font-size="21.5048" font-family="Times">&#0963;</text>
</g>
<g transform="rotate(-90,-22.253,80.5836)">
<text xml:space="preserve" x="-22.253" y="80.5836" fill="black" font-size="21.5048" font-family="Helvetica">1</text>
</g>
<path d="M76.0906,319.862v -2.21397" fill="none" stroke="black" stroke-width="2"/>
<path d="M76.0906,317.648v -2.21397" fill="none" stroke="black" stroke-width="2"/>
<path d="M57.1929,317.648h 18.8976" fill="none" stroke="black" stroke-width="2"/>
<path d="M76.0906,317.648h 18.8976" fill="none" stroke="black" stroke-width="2"/>
<g stroke="black" stroke-width="1" fill="none">
<line x1="75.0906" y1="317.648" x2="76.0906" y2="317.648"/>
</g>
<path d="M113.886,323.816v -2.23123" fill="none" stroke="black" stroke-width="2"/>
<path d="M113.886,321.584v -2.23123" fill="none" stroke="black" stroke-width="2"/>
<path d="M94.9882,321.584h 18.8976" fill="none" stroke="black" stroke-width="2"/>
<path d="M113.886,321.584h 18.8976" fill="none" stroke="black" stroke-width="2"/>
<g stroke="black" stroke-width="1" fill="none">
<line x1="112.886" y1="321.584" x2="113.886" y2="321.584"/>
</g>
<path d="M151.681,320.876v -2.32682" fill="none" stroke="black" stroke-width="2"/>
<path d="M151.681,318.549v -2.32682" fill="none" stroke="black" stroke-width="2"/>
<path d="M132.783,318.549h 18.8976" fill="none" stroke="black" stroke-width="2"/>
<path d="M151.681,318.549h 18.8976" fill="none" stroke="black" stroke-width="2"/>
<g stroke="black" stroke-width="1" fill="none">
<line x1="150.681" y1="318.549" x2="151.681" y2="318.549"/>
</g>
<path d="M189.476,327.674v -2.17013" fill="none" stroke="black" stroke-width="2"/>
<path d="M189.476,325.503v -2.17013" fill="none" stroke="black" stroke-width="2"/>
<path d="M170.579,325.503h 18.8976" fill="none" stroke="black" stroke-width="2"/>
<path d="M189.476,325.503h 18.8976" fill="none" stroke="black" stroke-width="2"/>
<g stroke="black" stroke-width="1" fill="none">
<line x1="188.476" y1="325.503" x2="189.476" y2="325.503"/>
</g>
<path d="M227.272,332.436v -2.13329" fill="none" stroke="black" stroke-width="2"/>
<path d="M227.272,330.303v -2.13329" fill="none" stroke="black" stroke-width="2"/>
<path d="M208.374,330.303h 18.8976" fill="none" stroke="black" stroke-width="2"/>
<path d="M227.272,330.303h 18.8976" fill="none" stroke="black" stroke-width="2"/>
<g stroke="black" stroke-width="1" fill="none">
<line x1="226.272" y1="330.303" x2="227.272" y2="330.303"/>
</g>
<path d="M265.067,338.605v -2.03611" fill="none" stroke="black" stroke-width="2"/>
<path d="M265.067,336.569v -2.03611" fill="none" stroke="black" stroke-width="2"/>
<path d="M246.169,336.569h 18.8976" fill="none" stroke="black" stroke-width="2"/>
<path d="M265.067,336.569h 18.8976" fill="none" stroke="black" stroke-width="2"/>
<g stroke="black" stroke-width="1" fill="none">
<line x1="264.067" y1="336.569" x2="265.067" y2="336.569"/>
</g>
<path d="M302.862,343.889v -1.78033" fill="none" stroke="black" stroke-width="2"/>
<path d="M302.862,342.109v -1.78033" fill="none" stroke="black" stroke-width="2"/>
<path d="M283.965,342.109h 18.8976" fill="none" stroke="black" stroke-width="2"/>
<path d="M302.862,342.109h 18.8976" fill="none" stroke="black" stroke-width="2"/>
<g stroke="black" stroke-width="1" fill="none">
<line x1="301.862" y1="342.109" x2="302.862" y2="342.109"/>
</g>
<path d="M340.657,350.022v -1.62007" fill="none" stroke="black" stroke-width="2"/>
<path d="M340.657,348.402v -1.62007" fill="none" stroke="black" stroke-width="2"/>
<path d="M321.76,348.402h 18.8976" fill="none" stroke="black" stroke-width="2"/>
<path d="M340.657,348.402h 18.8976" fill="none" stroke="black" stroke-width="2"/>
<g stroke="black" stroke-width="1" fill="none">
<line x1="339.657" y1="348.402" x2="340.657" y2="348.402"/>
</g>
<path d="M378.453,354.364v -1.4422" fill="none" stroke="black" stroke-width="2"/>
<path d="M378.453,352.922v -1.4422" fill="none" stroke="black" stroke-width="2"/>
<path d="M359.555,352.922h 18.8976" fill="none" stroke="black" stroke-width="2"/>
<path d="M378.453,352.922h 18.8976" fill="none" stroke="black" stroke-width="2"/>
<g stroke="black" stroke-width="1" fill="none">
<line x1="377.453" y1="352.922" x2="378.453" y2="352.922"/>
</g>
<path d="M454.043,361.832v -0.637113" fill="none" stroke="black" stroke-width="2"/>
<path d="M454.043,361.195v -0.637113" fill="none" stroke="black" stroke-width="2"/>
<path d="M397.35,361.195h 56.6929" fill="none" stroke="black" stroke-width="2"/>
<path d="M454.043,361.195h 56.6929" fill="none" stroke="black" stroke-width="2"/>
<g stroke="black" stroke-width="1" fill="none">
<line x1="453.043" y1="361.195" x2="454.043" y2="361.195"/>
</g>
<path d="M85.8322,317.748l 0.923009, 2.5328" fill="none" stroke="#ff0000"/>
<path d="M74.9725,317.748l 0.923009, 2.5328" fill="none" stroke="#ff0000"/>
<path d="M64.1129,317.748l 0.923009, 2.5328" fill="none" stroke="#ff0000"/>
<g stroke="#ff0000" stroke-width="1" fill="none">
<line x1="75.0906" y1="319.015" x2="76.0906" y2="319.015"/>
</g>
<path d="M129.881,319.422l 0.685945, 1.88228" fill="none" stroke="#ff0000"/>
<path d="M119.021,319.422l 0.685945, 1.88228" fill="none" stroke="#ff0000"/>
<path d="M108.162,319.422l 0.685945, 1.88228" fill="none" stroke="#ff0000"/>
<path d="M97.3019,319.422l 0.685945, 1.88228" fill="none" stroke="#ff0000"/>
<g stroke="#ff0000" stroke-width="1" fill="none">
<line x1="112.886" y1="320.364" x2="113.886" y2="320.364"/>
</g>
<path d="M163.521,322.333l 0.522255, 1.4331" fill="none" stroke="#ff0000"/>
<path d="M152.661,322.333l 0.522255, 1.4331" fill="none" stroke="#ff0000"/>
<path d="M141.801,322.333l 0.522255, 1.4331" fill="none" stroke="#ff0000"/>
<g stroke="#ff0000" stroke-width="1" fill="none">
<line x1="150.681" y1="323.05" x2="151.681" y2="323.05"/>
</g>
<path d="M197.62,326.506l 0.166672, 0.457361" fill="none" stroke="#ff0000"/>
<path d="M186.76,326.506l 0.166672, 0.457361" fill="none" stroke="#ff0000"/>
<path d="M175.901,326.506l 0.166672, 0.457361" fill="none" stroke="#ff0000"/>
<g stroke="#ff0000" stroke-width="1" fill="none">
<line x1="188.476" y1="326.735" x2="189.476" y2="326.735"/>
</g>
<path d="M242.664,330.912l 0.206396, 0.566364" fill="none" stroke="#ff0000"/>
<path d="M231.805,330.912l 0.206396, 0.566364" fill="none" stroke="#ff0000"/>
<path d="M220.945,330.912l 0.206396, 0.566364" fill="none" stroke="#ff0000"/>
<path d="M210.085,330.912l 0.206396, 0.566364" fill="none" stroke="#ff0000"/>
<g stroke="#ff0000" stroke-width="1" fill="none">
<line x1="226.272" y1="331.195" x2="227.272" y2="331.195"/>
</g>
<path d="M277.04,335.842l 0.33188, 0.910701" fill="none" stroke="#ff0000"/>
<path d="M266.18,335.842l 0.33188, 0.910701" fill="none" stroke="#ff0000"/>
<path d="M255.321,335.842l 0.33188, 0.910701" fill="none" stroke="#ff0000"/>
<g stroke="#ff0000" stroke-width="1" fill="none">
<line x1="264.067" y1="336.298" x2="265.067" y2="336.298"/>
</g>
<path d="M311.43,340.811l 0.524374, 1.43892" fill="none" stroke="#ff0000"/>
<path d="M300.57,340.811l 0.524374, 1.43892" fill="none" stroke="#ff0000"/>
<path d="M289.71,340.811l 0.524374, 1.43892" fill="none" stroke="#ff0000"/>
<g stroke="#ff0000" stroke-width="1" fill="none">
<line x1="301.862" y1="341.531" x2="302.862" y2="341.531"/>
</g>
<path d="M356.763,346.012l 0.598488, 1.64229" fill="none" stroke="#ff0000"/>
<path d="M345.904,346.012l 0.598488, 1.64229" fill="none" stroke="#ff0000"/>
<path d="M335.044,346.012l 0.598488, 1.64229" fill="none" stroke="#ff0000"/>
<path d="M324.184,346.012l 0.598488, 1.64229" fill="none" stroke="#ff0000"/>
<g stroke="#ff0000" stroke-width="1" fill="none">
<line x1="339.657" y1="346.833" x2="340.657" y2="346.833"/>
</g>
<path d="M391.102,350.841l 0.440542, 1.20888" fill="none" stroke="#ff0000"/>
<path d="M380.243,350.841l 0.440542, 1.20888" fill="none" stroke="#ff0000"/>
<path d="M369.383,350.841l 0.440542, 1.20888" fill="none" stroke="#ff0000"/>
<g stroke="#ff0000" stroke-width="1" fill="none">
<line x1="377.453" y1="351.445" x2="378.453" y2="351.445"/>
</g>
<path d="M502.266,357.885l 0.317532, 0.871331" fill="none" stroke="#ff0000"/>
<path d="M491.406,357.885l 0.317532, 0.871331" fill="none" stroke="#ff0000"/>
<path d="M480.546,357.885l 0.317532, 0.871331" fill="none" stroke="#ff0000"/>
<path d="M469.687,357.885l 0.317532, 0.871331" fill="none" stroke="#ff0000"/>
<path d="M458.827,357.885l 0.317532, 0.871331" fill="none" stroke="#ff0000"/>
<path d="M447.967,357.885l 0.317532, 0.871331" fill="none" stroke="#ff0000"/>
<path d="M437.108,357.885l 0.317532, 0.871331" fill="none" stroke="#ff0000"/>
<path d="M426.248,357.885l 0.317532, 0.871331" fill="none" stroke="#ff0000"/>
<path d="M415.389,357.885l 0.317532, 0.871331" fill="none" stroke="#ff0000"/>
<path d="M404.529,357.885l 0.317532, 0.871331" fill="none" stroke="#ff0000"/>
<g stroke="#ff0000" stroke-width="1" fill="none">
<line x1="453.043" y1="358.321" x2="454.043" y2="358.321"/>
</g>
<path d="M76.0906,319.078v -0.063786" fill="none" stroke="#ff0000" stroke-width="2"/>
<path d="M76.0906,319.015v -0.063786" fill="none" stroke="#ff0000" stroke-width="2"/>
<path d="M57.1929,319.015h 18.8976" fill="none" stroke="#ff0000" stroke-width="2"/>
<path d="M76.0906,319.015h 18.8976" fill="none" stroke="#ff0000" stroke-width="2"/>
<g stroke="#ff0000" stroke-width="1" fill="none">
<line x1="75.0906" y1="319.015" x2="76.0906" y2="319.015"/>
</g>
<path d="M113.886,320.426v -0.0628268" fill="none" stroke="#ff0000" stroke-width="2"/>
<path d="M113.886,320.364v -0.0628268" fill="none" stroke="#ff0000" stroke-width="2"/>
<path d="M94.9882,320.364h 18.8976" fill="none" stroke="#ff0000" stroke-width="2"/>
<path d="M113.886,320.364h 18.8976" fill="none" stroke="#ff0000" stroke-width="2"/>
<g stroke="#ff0000" stroke-width="1" fill="none">
<line x1="112.886" y1="320.364" x2="113.886" y2="320.364"/>
</g>
<path d="M151.681,323.111v -0.0608224" fill="none" stroke="#ff0000" stroke-width="2"/>
<path d="M151.681,323.05v -0.0608224" fill="none" stroke="#ff0000" stroke-width="2"/>
<path d="M132.783,323.05h 18.8976" fill="none" stroke="#ff0000" stroke-width="2"/>
<path d="M151.681,323.05h 18.8976" fill="none" stroke="#ff0000" stroke-width="2"/>
<g stroke="#ff0000" stroke-width="1" fill="none">
<line x1="150.681" y1="323.05" x2="151.681" y2="323.05"/>
</g>
<path d="M189.476,326.793v -0.0579543" fill="none" stroke="#ff0000" stroke-width="2"/>
<path d="M189.476,326.735v -0.0579543" fill="none" stroke="#ff0000" stroke-width="2"/>
<path d="M170.579,326.735h 18.8976" fill="none" stroke="#ff0000" stroke-width="2"/>
<path d="M189.476,326.735h 18.8976" fill="none" stroke="#ff0000" stroke-width="2"/>
<g stroke="#ff0000" stroke-width="1" fill="none">
<line x1="188.476" y1="326.735" x2="189.476" y2="326.735"/>
</g>
<path d="M227.272,331.25v -0.0543663" fill="none" stroke="#ff0000" stroke-width="2"/>
<path d="M227.272,331.195v -0.0543663" fill="none" stroke="#ff0000" stroke-width="2"/>
<path d="M208.374,331.195h 18.8976" fill="none" stroke="#ff0000" stroke-width="2"/>
<path d="M227.272,331.195h 18.8976" fill="none" stroke="#ff0000" stroke-width="2"/>
<g stroke="#ff0000" stroke-width="1" fill="none">
<line x1="226.272" y1="331.195" x2="227.272" y2="331.195"/>
</g>
<path d="M265.067,336.347v -0.0497625" fill="none" stroke="#ff0000" stroke-width="2"/>
<path d="M265.067,336.298v -0.0497625" fill="none" stroke="#ff0000" stroke-width="2"/>
<path d="M246.169,336.298h 18.8976" fill="none" stroke="#ff0000" stroke-width="2"/>
<path d="M265.067,336.298h 18.8976" fill="none" stroke="#ff0000" stroke-width="2"/>
<g stroke="#ff0000" stroke-width="1" fill="none">
<line x1="264.067" y1="336.298" x2="265.067" y2="336.298"/>
</g>
<path d="M302.862,341.576v -0.0446846" fill="none" stroke="#ff0000" stroke-width="2"/>
<path d="M302.862,341.531v -0.0446846" fill="none" stroke="#ff0000" stroke-width="2"/>
<path d="M283.965,341.531h 18.8976" fill="none" stroke="#ff0000" stroke-width="2"/>
<path d="M302.862,341.531h 18.8976" fill="none" stroke="#ff0000" stroke-width="2"/>
<g stroke="#ff0000" stroke-width="1" fill="none">
<line x1="301.862" y1="341.531" x2="302.862" y2="341.531"/>
</g>
<path d="M340.657,346.871v -0.0386363" fill="none" stroke="#ff0000" stroke-width="2"/>
<path d="M340.657,346.833v -0.0386363" fill="none" stroke="#ff0000" stroke-width="2"/>
<path d="M321.76,346.833h 18.8976" fill="none" stroke="#ff0000" stroke-width="2"/>
<path d="M340.657,346.833h 18.8976" fill="none" stroke="#ff0000" stroke-width="2"/>
<g stroke="#ff0000" stroke-width="1" fill="none">
<line x1="339.657" y1="346.833" x2="340.657" y2="346.833"/>
</g>
<path d="M378.453,351.478v -0.0325261" fill="none" stroke="#ff0000" stroke-width="2"/>
<path d="M378.453,351.445v -0.0325261" fill="none" stroke="#ff0000" stroke-width="2"/>
<path d="M359.555,351.445h 18.8976" fill="none" stroke="#ff0000" stroke-width="2"/>
<path d="M378.453,351.445h 18.8976" fill="none" stroke="#ff0000" stroke-width="2"/>
<g stroke="#ff0000" stroke-width="1" fill="none">
<line x1="377.453" y1="351.445" x2="378.453" y2="351.445"/>
</g>
<path d="M454.043,358.332v -0.0116108" fill="none" stroke="#ff0000" stroke-width="2"/>
<path d="M454.043,358.321v -0.0116108" fill="none" stroke="#ff0000" stroke-width="2"/>
<path d="M397.35,358.321h 56.6929" fill="none" stroke="#ff0000" stroke-width="2"/>
<path d="M454.043,358.321h 56.6929" fill="none" stroke="#ff0000" stroke-width="2"/>
<g stroke="#ff0000" stroke-width="1" fill="none">
<line x1="453.043" y1="358.321" x2="454.043" y2="358.321"/>
</g>
<rect x="334.988" y="41.9746" width="170.079" height="114.476" fill="white"/>
<text xml:space="preserve" x="376.873" y="60.6747" fill="black" font-size="12.4517" font-family="Helvetica">Data</text>
<path d="M356.248,52.4919v -4.79354" fill="none" stroke="black" stroke-width="2"/>
<path d="M356.248,60.0762v 4.79354" fill="none" stroke="black" stroke-width="2"/>
<g fill="black">
<circle cx="356.248" cy="56.2841" r="3.79217"/>
</g>
<text xml:space="preserve" x="376.873" y="89.116" fill="black" font-size="12.4517" font-family="Helvetica">Total unc.</text>
<path d="M341.366,94.9198h 29.7638v -20.0333h -29.7638z" fill="#cccccc"/>
<path d="M341.366,74.8864h 29.7638" fill="none" stroke="black" stroke-width="2"/>
<path d="M341.366,94.9198h 29.7638" fill="none" stroke="black" stroke-width="2"/>
<path d="M371.13,94.9198v -20.0333" fill="none" stroke="black" stroke-width="2"/>
<path d="M341.366,94.9198v -20.0333" fill="none" stroke="black" stroke-width="2"/>
<text xml:space="preserve" x="376.873" y="116.609" fill="black" font-size="12.4517" font-family="Helvetica">Powheg+Pythia8</text>
<path d="M341.366,113.522h 29.7638" fill="none" stroke="#ff0000" stroke-width="2"/>
<path d="M356.248,122.108v -17.1714" fill="none" stroke="#ff0000" stroke-width="2"/>
<text xml:space="preserve" x="376.873" y="145.05" fill="black" font-size="12.4517" font-family="Helvetica">Powheg+Pythia8 unc</text>
<path d="M365.695,132.124l 5.43468, 14.9131" fill="none" stroke="#ff0000"/>
<path d="M354.836,132.124l 7.30059, 20.0333" fill="none" stroke="#ff0000"/>
<path d="M343.976,132.124l 7.30059, 20.0333" fill="none" stroke="#ff0000"/>
<path d="M341.366,132.124h 29.7638" fill="none" stroke="#ff0000" stroke-width="2"/>
<path d="M341.366,152.158h 29.7638" fill="none" stroke="#ff0000" stroke-width="2"/>
<path d="M371.13,152.158v -20.0333" fill="none" stroke="#ff0000" stroke-width="2"/>
<path d="M341.366,152.158v -20.0333" fill="none" stroke="#ff0000" stroke-width="2"/>
<text xml:space="preserve" x="420.483" y="30.3373" fill="black" font-size="21.5048" font-family="Helvetica"> (13 TeV)</text>
<text xml:space="preserve" x="410.054" y="19.9089" fill="black" font-size="14.5032" font-family="Helvetica">-1</text>
<text xml:space="preserve" x="343.691" y="30.3373" fill="black" font-size="21.5048" font-family="Helvetica">20.1 fb</text>
<text xml:space="preserve" x="57.1929" y="30.527" fill="black" font-size="26.756" font-family="Helvetica" font-weight="bold">CMS</text>
<text xml:space="preserve" x="77.2914" y="64.4669" fill="black" font-size="20.4545" font-family="Helvetica" font-style="oblique">Work in progress</text>
<rect x="0.5" y="381.587" width="566.929" height="136.281" fill="white"/>
<rect x="57.1929" y="385.675" width="453.543" height="102.211" fill="white"/>
<rect x="57.1929" y="385.675" width="453.543" height="102.211" fill="none" stroke="black"/>
<rect x="57.1929" y="385.675" width="453.543" height="102.211" fill="white"/>
<rect x="57.1929" y="385.675" width="453.543" height="102.211" fill="none" stroke="black"/>
<path d="M57.1929,487.886h 453.543" fill="none" stroke="black"/>
<path d="M57.1929,487.886v -102.211" fill="none" stroke="black"/>
<path d="M510.736,487.886h -453.543" fill="none" stroke="black" stroke-dasharray=" 1, 2"/>
<path d="M510.736,462.333h -453.543" fill="none" stroke="black" stroke-dasharray=" 1, 2"/>
<path d="M510.736,436.781h -453.543" fill="none" stroke="black" stroke-dasharray=" 1, 2"/>
<path d="M510.736,411.228h -453.543" fill="none" stroke="black" stroke-dasharray=" 1, 2"/>
<path d="M510.736,385.675h -453.543" fill="none" stroke="black" stroke-dasharray=" 1, 2"/>
<rect x="57.1929" y="431.26" width="37.7953" height="11.0409" fill="#cccccc"/>
<g fill="black">
<circle cx="76.0906" cy="436.781" r="3.79217"/>
</g>
<rect x="94.9882" y="432.401" width="37.7953" height="8.75985" fill="#cccccc"/>
<g fill="black">
<circle cx="113.886" cy="436.781" r="3.79217"/>
</g>
<rect x="132.783" y="434.141" width="37.7953" height="5.27974" fill="#cccccc"/>
<g fill="black">
<circle cx="151.681" cy="436.781" r="3.79217"/>
</g>
<rect x="170.579" y="434.218" width="37.7953" height="5.12552" fill="#cccccc"/>
<g fill="black">
<circle cx="189.476" cy="436.781" r="3.79217"/>
</g>
<rect x="208.374" y="434.168" width="37.7953" height="5.22644" fill="#cccccc"/>
<g fill="black">
<circle cx="227.272" cy="436.781" r="3.79217"/>
</g>
<rect x="246.169" y="430.02" width="37.7953" height="13.5225" fill="#cccccc"/>
<g fill="black">
<circle cx="265.067" cy="436.781" r="3.79217"/>
</g>
<rect x="283.965" y="431.311" width="37.7953" height="10.9398" fill="#cccccc"/>
<g fill="black">
<circle cx="302.862" cy="436.781" r="3.79217"/>
</g>
<rect x="321.76" y="431.362" width="37.7953" height="10.8382" fill="#cccccc"/>
<g fill="black">
<circle cx="340.657" cy="436.781" r="3.79217"/>
</g>
<rect x="359.555" y="424.913" width="37.7953" height="23.7347" fill="#cccccc"/>
<g fill="black">
<circle cx="378.453" cy="436.781" r="3.79217"/>
</g>
<rect x="397.35" y="409.14" width="113.386" height="55.2814" fill="#cccccc"/>
<g fill="black">
<circle cx="454.043" cy="436.781" r="3.79217"/>
</g>
<path d="M57.1929,487.886h 453.543" fill="none" stroke="black"/>
<path d="M57.1929,484.615v 3.27075" fill="none" stroke="black"/>
<path d="M66.6417,486.251v 1.63537" fill="none" stroke="black"/>
<path d="M76.0906,486.251v 1.63537" fill="none" stroke="black"/>
<path d="M85.5394,486.251v 1.63537" fill="none" stroke="black"/>
<path d="M94.9882,484.615v 3.27075" fill="none" stroke="black"/>
<path d="M104.437,486.251v 1.63537" fill="none" stroke="black"/>
<path d="M113.886,486.251v 1.63537" fill="none" stroke="black"/>
<path d="M123.335,486.251v 1.63537" fill="none" stroke="black"/>
<path d="M132.783,484.615v 3.27075" fill="none" stroke="black"/>
<path d="M142.232,486.251v 1.63537" fill="none" stroke="black"/>
<path d="M151.681,486.251v 1.63537" fill="none" stroke="black"/>
<path d="M161.13,486.251v 1.63537" fill="none" stroke="black"/>
<path d="M170.579,484.615v 3.27075" fill="none" stroke="black"/>
<path d="M180.028,486.251v 1.63537" fill="none" stroke="black"/>
<path d="M189.476,486.251v 1.63537" fill="none" stroke="black"/>
<path d="M198.925,486.251v 1.63537" fill="none" stroke="black"/>
<path d="M208.374,484.615v 3.27075" fill="none" stroke="black"/>
<path d="M217.823,486.251v 1.63537" fill="none" stroke="black"/>
<path d="M227.272,486.251v 1.63537" fill="none" stroke="black"/>
<path d="M236.72,486.251v 1.63537" fill="none" stroke="black"/>
<path d="M246.169,484.615v 3.27075" fill="none" stroke="black"/>
<path d="M255.618,486.251v 1.63537" fill="none" stroke="black"/>
<path d="M265.067,486.251v 1.63537" fill="none" stroke="black"/>
<path d="M274.516,486.251v 1.63537" fill="none" stroke="black"/>
<path d="M283.965,484.615v 3.27075" fill="none" stroke="black"/>
<path d="M293.413,486.251v 1.63537" fill="none" stroke="black"/>
<path d="M302.862,486.251v 1.63537" fill="none" stroke="black"/>
<path d="M312.311,486.251v 1.63537" fill="none" stroke="black"/>
<path d="M321.76,484.615v 3.27075" fill="none" stroke="black"/>
<path d="M331.209,486.251v 1.63537" fill="none" stroke="black"/>
<path d="M340.657,486.251v 1.63537" fill="none" stroke="black"/>
<path d="M350.106,486.251v 1.63537" fill="none" stroke="black"/>
<path d="M359.555,484.615v 3.27075" fill="none" stroke="black"/>
<path d="M369.004,486.251v 1.63537" fill="none" stroke="black"/>
<path d="M378.453,486.251v 1.63537" fill="none" stroke="black"/>
<path d="M387.902,486.251v 1.63537" fill="none" stroke="black"/>
<path d="M397.35,484.615v 3.27075" fill="none" stroke="black"/>
<path d="M406.799,486.251v 1.63537" fill="none" stroke="black"/>
<path d="M416.248,486.251v 1.63537" fill="none" stroke="black"/>
<path d="M425.697,486.251v 1.63537" fill="none" stroke="black"/>
<path d="M435.146,484.615v 3.27075" fill="none" stroke="black"/>
<path d="M444.594,486.251v 1.63537" fill="none" stroke="black"/>
<path d="M454.043,486.251v 1.63537" fill="none" stroke="black"/>
<path d="M463.492,486.251v 1.63537" fill="none" stroke="black"/>
<path d="M472.941,484.615v 3.27075" fill="none" stroke="black"/>
<path d="M482.39,486.251v 1.63537" fill="none" stroke="black"/>
<path d="M491.839,486.251v 1.63537" fill="none" stroke="black"/>
<path d="M501.287,486.251v 1.63537" fill="none" stroke="black"/>
<path d="M510.736,484.615v 3.27075" fill="none" stroke="black"/>
<path d="M510.736,484.615v 3.27075" fill="none" stroke="black"/>
<text xml:space="preserve" x="51.6943" y="502.462" fill="black" font-size="15.5034" font-family="Helvetica">0</text>
<text xml:space="preserve" x="83.9277" y="502.462" fill="black" font-size="15.5034" font-family="Helvetica">0.2</text>
<text xml:space="preserve" x="121.849" y="502.462" fill="black" font-size="15.5034" font-family="Helvetica">0.4</text>
<text xml:space="preserve" x="159.771" y="502.462" fill="black" font-size="15.5034" font-family="Helvetica">0.6</text>
<text xml:space="preserve" x="197.693" y="502.462" fill="black" font-size="15.5034" font-family="Helvetica">0.8</text>
<text xml:space="preserve" x="243.199" y="502.462" fill="black" font-size="15.5034" font-family="Helvetica">1</text>
<text xml:space="preserve" x="273.536" y="502.462" fill="black" font-size="15.5034" font-family="Helvetica">1.2</text>
<text xml:space="preserve" x="310.51" y="502.462" fill="black" font-size="15.5034" font-family="Helvetica">1.4</text>
<text xml:space="preserve" x="348.431" y="502.462" fill="black" font-size="15.5034" font-family="Helvetica">1.6</text>
<text xml:space="preserve" x="386.353" y="502.462" fill="black" font-size="15.5034" font-family="Helvetica">1.8</text>
<text xml:space="preserve" x="429.963" y="502.462" fill="black" font-size="15.5034" font-family="Helvetica">2</text>
<text xml:space="preserve" x="462.196" y="502.462" fill="black" font-size="15.5034" font-family="Helvetica">2.2</text>
<text xml:space="preserve" x="500.118" y="502.462" fill="black" font-size="15.5034" font-family="Helvetica">2.4</text>
<text xml:space="preserve" x="374.977" y="517.631" fill="black" font-size="14.8783" font-family="Helvetica">Subleading parton |Y|</text>
<path d="M57.1929,487.886v -102.211" fill="none" stroke="black"/>
<path d="M69.9488,487.886h -12.7559" fill="none" stroke="black"/>
<path d="M63.5709,482.776h -6.37795" fill="none" stroke="black"/>
<path d="M63.5709,477.665h -6.37795" fill="none" stroke="black"/>
<path d="M63.5709,472.555h -6.37795" fill="none" stroke="black"/>
<path d="M63.5709,467.444h -6.37795" fill="none" stroke="black"/>
<path d="M69.9488,462.333h -12.7559" fill="none" stroke="black"/>
<path d="M63.5709,457.223h -6.37795" fill="none" stroke="black"/>
<path d="M63.5709,452.112h -6.37795" fill="none" stroke="black"/>
<path d="M63.5709,447.002h -6.37795" fill="none" stroke="black"/>
<path d="M63.5709,441.891h -6.37795" fill="none" stroke="black"/>
<path d="M69.9488,436.781h -12.7559" fill="none" stroke="black"/>
<path d="M63.5709,431.67h -6.37795" fill="none" stroke="black"/>
<path d="M63.5709,426.56h -6.37795" fill="none" stroke="black"/>
<path d="M63.5709,421.449h -6.37795" fill="none" stroke="black"/>
<path d="M63.5709,416.339h -6.37795" fill="none" stroke="black"/>
<path d="M69.9488,411.228h -12.7559" fill="none" stroke="black"/>
<path d="M63.5709,406.118h -6.37795" fill="none" stroke="black"/>
<path d="M63.5709,401.007h -6.37795" fill="none" stroke="black"/>
<path d="M63.5709,395.896h -6.37795" fill="none" stroke="black"/>
<path d="M63.5709,390.786h -6.37795" fill="none" stroke="black"/>
<path d="M69.9488,385.675h -12.7559" fill="none" stroke="black"/>
<text xml:space="preserve" x="46.006" y="492.982" fill="black" font-size="13.0028" font-family="Helvetica">2</text>
<text xml:space="preserve" x="38.4217" y="492.982" fill="black" font-size="13.0028" font-family="Times">&#8722;</text>
<text xml:space="preserve" x="47.9021" y="467.385" fill="black" font-size="13.0028" font-family="Helvetica">1</text>
<text xml:space="preserve" x="40.3178" y="467.385" fill="black" font-size="13.0028" font-family="Times">&#8722;</text>
<text xml:space="preserve" x="46.006" y="440.84" fill="black" font-size="13.0028" font-family="Helvetica">0</text>
<text xml:space="preserve" x="47.9021" y="416.19" fill="black" font-size="13.0028" font-family="Helvetica">1</text>
<text xml:space="preserve" x="46.006" y="390.593" fill="black" font-size="13.0028" font-family="Helvetica">2</text>
<g transform="rotate(-90,26.0971,474.969)">
<text xml:space="preserve" x="26.0971" y="474.969" fill="black" font-size="14.8783" font-family="Helvetica">The./data - 1</text>
</g>
<path d="M76.0906,438.564v -1.78349" fill="none" stroke="black" stroke-width="2"/>
<path d="M76.0906,436.781v -1.78349" fill="none" stroke="black" stroke-width="2"/>
<path d="M57.1929,436.781h 18.8976" fill="none" stroke="black" stroke-width="2"/>
<path d="M76.0906,436.781h 18.8976" fill="none" stroke="black" stroke-width="2"/>
<g stroke="black" stroke-width="1" fill="none">
<line x1="75.0906" y1="436.781" x2="76.0906" y2="436.781"/>
</g>
<path d="M113.886,438.751v -1.97028" fill="none" stroke="black" stroke-width="2"/>
<path d="M113.886,436.781v -1.97028" fill="none" stroke="black" stroke-width="2"/>
<path d="M94.9882,436.781h 18.8976" fill="none" stroke="black" stroke-width="2"/>
<path d="M113.886,436.781h 18.8976" fill="none" stroke="black" stroke-width="2"/>
<g stroke="black" stroke-width="1" fill="none">
<line x1="112.886" y1="436.781" x2="113.886" y2="436.781"/>
</g>
<path d="M151.681,438.694v -1.9128" fill="none" stroke="black" stroke-width="2"/>
<path d="M151.681,436.781v -1.9128" fill="none" stroke="black" stroke-width="2"/>
<path d="M132.783,436.781h 18.8976" fill="none" stroke="black" stroke-width="2"/>
<path d="M151.681,436.781h 18.8976" fill="none" stroke="black" stroke-width="2"/>
<g stroke="black" stroke-width="1" fill="none">
<line x1="150.681" y1="436.781" x2="151.681" y2="436.781"/>
</g>
<path d="M189.476,438.9v -2.11927" fill="none" stroke="black" stroke-width="2"/>
<path d="M189.476,436.781v -2.11927" fill="none" stroke="black" stroke-width="2"/>
<path d="M170.579,436.781h 18.8976" fill="none" stroke="black" stroke-width="2"/>
<path d="M189.476,436.781h 18.8976" fill="none" stroke="black" stroke-width="2"/>
<g stroke="black" stroke-width="1" fill="none">
<line x1="188.476" y1="436.781" x2="189.476" y2="436.781"/>
</g>
<path d="M227.272,439.175v -2.39379" fill="none" stroke="black" stroke-width="2"/>
<path d="M227.272,436.781v -2.39379" fill="none" stroke="black" stroke-width="2"/>
<path d="M208.374,436.781h 18.8976" fill="none" stroke="black" stroke-width="2"/>
<path d="M227.272,436.781h 18.8976" fill="none" stroke="black" stroke-width="2"/>
<g stroke="black" stroke-width="1" fill="none">
<line x1="226.272" y1="436.781" x2="227.272" y2="436.781"/>
</g>
<path d="M265.067,439.617v -2.83668" fill="none" stroke="black" stroke-width="2"/>
<path d="M265.067,436.781v -2.83668" fill="none" stroke="black" stroke-width="2"/>
<path d="M246.169,436.781h 18.8976" fill="none" stroke="black" stroke-width="2"/>
<path d="M265.067,436.781h 18.8976" fill="none" stroke="black" stroke-width="2"/>
<g stroke="black" stroke-width="1" fill="none">
<line x1="264.067" y1="436.781" x2="265.067" y2="436.781"/>
</g>
<path d="M302.862,439.935v -3.15389" fill="none" stroke="black" stroke-width="2"/>
<path d="M302.862,436.781v -3.15389" fill="none" stroke="black" stroke-width="2"/>
<path d="M283.965,436.781h 18.8976" fill="none" stroke="black" stroke-width="2"/>
<path d="M302.862,436.781h 18.8976" fill="none" stroke="black" stroke-width="2"/>
<g stroke="black" stroke-width="1" fill="none">
<line x1="301.862" y1="436.781" x2="302.862" y2="436.781"/>
</g>
<path d="M340.657,440.931v -4.15045" fill="none" stroke="black" stroke-width="2"/>
<path d="M340.657,436.781v -4.15045" fill="none" stroke="black" stroke-width="2"/>
<path d="M321.76,436.781h 18.8976" fill="none" stroke="black" stroke-width="2"/>
<path d="M340.657,436.781h 18.8976" fill="none" stroke="black" stroke-width="2"/>
<g stroke="black" stroke-width="1" fill="none">
<line x1="339.657" y1="436.781" x2="340.657" y2="436.781"/>
</g>
<path d="M378.453,442.218v -5.43705" fill="none" stroke="black" stroke-width="2"/>
<path d="M378.453,436.781v -5.43705" fill="none" stroke="black" stroke-width="2"/>
<path d="M359.555,436.781h 18.8976" fill="none" stroke="black" stroke-width="2"/>
<path d="M378.453,436.781h 18.8976" fill="none" stroke="black" stroke-width="2"/>
<g stroke="black" stroke-width="1" fill="none">
<line x1="377.453" y1="436.781" x2="378.453" y2="436.781"/>
</g>
<path d="M454.043,454.321v -17.5402" fill="none" stroke="black" stroke-width="2"/>
<path d="M454.043,436.781v -17.5402" fill="none" stroke="black" stroke-width="2"/>
<path d="M397.35,436.781h 56.6929" fill="none" stroke="black" stroke-width="2"/>
<path d="M454.043,436.781h 56.6929" fill="none" stroke="black" stroke-width="2"/>
<g stroke="black" stroke-width="1" fill="none">
<line x1="453.043" y1="436.781" x2="454.043" y2="436.781"/>
</g>
<path d="M90.1576,436.139l 1.03521, 2.83928" fill="none" stroke="#ff0000"/>
<path d="M79.2979,436.139l 1.03521, 2.83928" fill="none" stroke="#ff0000"/>
<path d="M68.4383,436.139l 1.03521, 2.83928" fill="none" stroke="#ff0000"/>
<path d="M57.5786,436.139l 1.03521, 2.83928" fill="none" stroke="#ff0000"/>
<g stroke="#ff0000" stroke-width="1" fill="none">
<line x1="75.0906" y1="437.559" x2="76.0906" y2="437.559"/>
</g>
<path d="M122.127,434.468l 1.1306, 3.10089" fill="none" stroke="#ff0000"/>
<path d="M111.267,434.468l 1.1306, 3.10089" fill="none" stroke="#ff0000"/>
<path d="M100.408,434.468l 1.1306, 3.10089" fill="none" stroke="#ff0000"/>
<g stroke="#ff0000" stroke-width="1" fill="none">
<line x1="112.886" y1="436.018" x2="113.886" y2="436.018"/>
</g>
<path d="M166.895,438.114l 0.935961, 2.56707" fill="none" stroke="#ff0000"/>
<path d="M156.035,438.114l 0.935961, 2.56707" fill="none" stroke="#ff0000"/>
<path d="M145.176,438.114l 0.935961, 2.56707" fill="none" stroke="#ff0000"/>
<path d="M134.316,438.114l 0.935961, 2.56707" fill="none" stroke="#ff0000"/>
<g stroke="#ff0000" stroke-width="1" fill="none">
<line x1="150.681" y1="439.397" x2="151.681" y2="439.397"/>
</g>
<path d="M198.766,436.174l 1.06265, 2.91453" fill="none" stroke="#ff0000"/>
<path d="M187.907,436.174l 1.06265, 2.91453" fill="none" stroke="#ff0000"/>
<path d="M177.047,436.174l 1.06265, 2.91453" fill="none" stroke="#ff0000"/>
<g stroke="#ff0000" stroke-width="1" fill="none">
<line x1="188.476" y1="437.631" x2="189.476" y2="437.631"/>
</g>
<path d="M242.079,435.828l 1.21124, 3.32207" fill="none" stroke="#ff0000"/>
<path d="M231.219,435.828l 1.21124, 3.32207" fill="none" stroke="#ff0000"/>
<path d="M220.36,435.828l 1.21124, 3.32207" fill="none" stroke="#ff0000"/>
<path d="M209.5,435.828l 1.21124, 3.32207" fill="none" stroke="#ff0000"/>
<g stroke="#ff0000" stroke-width="1" fill="none">
<line x1="226.272" y1="437.489" x2="227.272" y2="437.489"/>
</g>
<path d="M274.151,434.437l 1.51374, 4.15176" fill="none" stroke="#ff0000"/>
<path d="M263.291,434.437l 1.51374, 4.15176" fill="none" stroke="#ff0000"/>
<path d="M252.432,434.437l 1.51374, 4.15176" fill="none" stroke="#ff0000"/>
<g stroke="#ff0000" stroke-width="1" fill="none">
<line x1="264.067" y1="436.513" x2="265.067" y2="436.513"/>
</g>
<path d="M317.282,433.593l 1.79679, 4.92807" fill="none" stroke="#ff0000"/>
<path d="M306.422,433.593l 1.79679, 4.92807" fill="none" stroke="#ff0000"/>
<path d="M295.562,433.593l 1.79679, 4.92807" fill="none" stroke="#ff0000"/>
<path d="M284.703,433.593l 1.79679, 4.92807" fill="none" stroke="#ff0000"/>
<g stroke="#ff0000" stroke-width="1" fill="none">
<line x1="301.862" y1="436.057" x2="302.862" y2="436.057"/>
</g>
<path d="M359.539,430.353l 0.0162363, 0.0445315" fill="none" stroke="#ff0000"/>
<path d="M348.679,430.353l 2.61389, 7.16914" fill="none" stroke="#ff0000"/>
<path d="M337.82,430.353l 2.61389, 7.16914" fill="none" stroke="#ff0000"/>
<path d="M326.96,430.353l 2.61389, 7.16914" fill="none" stroke="#ff0000"/>
<g stroke="#ff0000" stroke-width="1" fill="none">
<line x1="339.657" y1="433.938" x2="340.657" y2="433.938"/>
</g>
<path d="M391.305,428.123l 3.44216, 9.44085" fill="none" stroke="#ff0000"/>
<path d="M380.445,428.123l 3.44216, 9.44085" fill="none" stroke="#ff0000"/>
<path d="M369.586,428.123l 3.44216, 9.44085" fill="none" stroke="#ff0000"/>
<path d="M359.555,430.398l 2.61299, 7.16667" fill="none" stroke="#ff0000"/>
<g stroke="#ff0000" stroke-width="1" fill="none">
<line x1="377.453" y1="432.844" x2="378.453" y2="432.844"/>
</g>
<path d="M76.0906,438.782v -1.22325" fill="none" stroke="#ff0000" stroke-width="2"/>
<path d="M76.0906,437.559v -1.22325" fill="none" stroke="#ff0000" stroke-width="2"/>
<path d="M57.1929,437.559h 18.8976" fill="none" stroke="#ff0000" stroke-width="2"/>
<path d="M76.0906,437.559h 18.8976" fill="none" stroke="#ff0000" stroke-width="2"/>
<g stroke="#ff0000" stroke-width="1" fill="none">
<line x1="75.0906" y1="437.559" x2="76.0906" y2="437.559"/>
</g>
<path d="M113.886,437.454v -1.4353" fill="none" stroke="#ff0000" stroke-width="2"/>
<path d="M113.886,436.018v -1.4353" fill="none" stroke="#ff0000" stroke-width="2"/>
<path d="M94.9882,436.018h 18.8976" fill="none" stroke="#ff0000" stroke-width="2"/>
<path d="M113.886,436.018h 18.8976" fill="none" stroke="#ff0000" stroke-width="2"/>
<g stroke="#ff0000" stroke-width="1" fill="none">
<line x1="112.886" y1="436.018" x2="113.886" y2="436.018"/>
</g>
<path d="M151.681,440.612v -1.21459" fill="none" stroke="#ff0000" stroke-width="2"/>
<path d="M151.681,439.397v -1.21459" fill="none" stroke="#ff0000" stroke-width="2"/>
<path d="M132.783,439.397h 18.8976" fill="none" stroke="#ff0000" stroke-width="2"/>
<path d="M151.681,439.397h 18.8976" fill="none" stroke="#ff0000" stroke-width="2"/>
<g stroke="#ff0000" stroke-width="1" fill="none">
<line x1="150.681" y1="439.397" x2="151.681" y2="439.397"/>
</g>
<path d="M189.476,439.08v -1.44924" fill="none" stroke="#ff0000" stroke-width="2"/>
<path d="M189.476,437.631v -1.44924" fill="none" stroke="#ff0000" stroke-width="2"/>
<path d="M170.579,437.631h 18.8976" fill="none" stroke="#ff0000" stroke-width="2"/>
<path d="M189.476,437.631h 18.8976" fill="none" stroke="#ff0000" stroke-width="2"/>
<g stroke="#ff0000" stroke-width="1" fill="none">
<line x1="188.476" y1="437.631" x2="189.476" y2="437.631"/>
</g>
<path d="M227.272,439.135v -1.64633" fill="none" stroke="#ff0000" stroke-width="2"/>
<path d="M227.272,437.489v -1.64633" fill="none" stroke="#ff0000" stroke-width="2"/>
<path d="M208.374,437.489h 18.8976" fill="none" stroke="#ff0000" stroke-width="2"/>
<path d="M227.272,437.489h 18.8976" fill="none" stroke="#ff0000" stroke-width="2"/>
<g stroke="#ff0000" stroke-width="1" fill="none">
<line x1="226.272" y1="437.489" x2="227.272" y2="437.489"/>
</g>
<path d="M265.067,438.541v -2.02743" fill="none" stroke="#ff0000" stroke-width="2"/>
<path d="M265.067,436.513v -2.02743" fill="none" stroke="#ff0000" stroke-width="2"/>
<path d="M246.169,436.513h 18.8976" fill="none" stroke="#ff0000" stroke-width="2"/>
<path d="M265.067,436.513h 18.8976" fill="none" stroke="#ff0000" stroke-width="2"/>
<g stroke="#ff0000" stroke-width="1" fill="none">
<line x1="264.067" y1="436.513" x2="265.067" y2="436.513"/>
</g>
<path d="M302.862,438.351v -2.29399" fill="none" stroke="#ff0000" stroke-width="2"/>
<path d="M302.862,436.057v -2.29399" fill="none" stroke="#ff0000" stroke-width="2"/>
<path d="M283.965,436.057h 18.8976" fill="none" stroke="#ff0000" stroke-width="2"/>
<path d="M302.862,436.057h 18.8976" fill="none" stroke="#ff0000" stroke-width="2"/>
<g stroke="#ff0000" stroke-width="1" fill="none">
<line x1="301.862" y1="436.057" x2="302.862" y2="436.057"/>
</g>
<path d="M340.657,437.2v -3.2621" fill="none" stroke="#ff0000" stroke-width="2"/>
<path d="M340.657,433.938v -3.2621" fill="none" stroke="#ff0000" stroke-width="2"/>
<path d="M321.76,433.938h 18.8976" fill="none" stroke="#ff0000" stroke-width="2"/>
<path d="M340.657,433.938h 18.8976" fill="none" stroke="#ff0000" stroke-width="2"/>
<g stroke="#ff0000" stroke-width="1" fill="none">
<line x1="339.657" y1="433.938" x2="340.657" y2="433.938"/>
</g>
<path d="M378.453,437.282v -4.43775" fill="none" stroke="#ff0000" stroke-width="2"/>
<path d="M378.453,432.844v -4.43775" fill="none" stroke="#ff0000" stroke-width="2"/>
<path d="M359.555,432.844h 18.8976" fill="none" stroke="#ff0000" stroke-width="2"/>
<path d="M378.453,432.844h 18.8976" fill="none" stroke="#ff0000" stroke-width="2"/>
<g stroke="#ff0000" stroke-width="1" fill="none">
<line x1="377.453" y1="432.844" x2="378.453" y2="432.844"/>
</g></svg>
