<?xml version="1.0" standalone="no"?>
<svg width="567.429" height="545.624" viewBox="0 0 567.429 545.624" xmlns="http://www.w3.org/2000/svg" shape-rendering="crispEdges">
<title>
/Users/georgebakas/Documents/HEP-NTUA_ul/VariationHandling/FinalResults/results/FinalResult_jetPt1.svg
</title>
<desc>
Creator: ROOT Version 6.22/02
CreationDate: Wed Nov 24 08:11:21 2021</desc>
<defs>
</defs>
<rect x="0.5" y="0" width="566.929" height="545.124" fill="white"/>
<rect x="0.5" y="0" width="566.929" height="381.587" fill="white"/>
<rect x="57.1929" y="38.1587" width="453.543" height="324.349" fill="white"/>
<rect x="57.1929" y="38.1587" width="453.543" height="324.349" fill="none" stroke="black"/>
<rect x="57.1929" y="38.1587" width="453.543" height="324.349" fill="white"/>
<rect x="57.1929" y="38.1587" width="453.543" height="324.349" fill="none" stroke="black"/>
<rect x="57.1929" y="72.5301" width="20.6156" height="18.8782" fill="#cccccc"/>
<g fill="black">
<circle cx="67.5007" cy="80.507" r="3.79217"/>
</g>
<rect x="77.8085" y="71.2872" width="20.6156" height="13.2667" fill="#cccccc"/>
<g fill="black">
<circle cx="88.1163" cy="77.1925" r="3.79217"/>
</g>
<rect x="98.4241" y="88.3997" width="28.8618" height="25.9577" fill="#cccccc"/>
<g fill="black">
<circle cx="112.855" cy="98.6526" r="3.79217"/>
</g>
<rect x="127.286" y="117.934" width="32.985" height="26.2501" fill="#cccccc"/>
<g fill="black">
<circle cx="143.778" cy="128.273" r="3.79217"/>
</g>
<rect x="160.271" y="147.247" width="61.8468" height="30.947" fill="#cccccc"/>
<g fill="black">
<circle cx="191.194" cy="158.893" r="3.79217"/>
</g>
<rect x="222.118" y="196.082" width="123.694" height="75.8057" fill="#cccccc"/>
<g fill="black">
<circle cx="283.965" cy="214.56" r="3.79217"/>
</g>
<rect x="345.811" y="247.62" width="164.925" height="114.887" fill="#cccccc"/>
<g fill="black">
<circle cx="428.274" cy="274.774" r="3.79217"/>
</g>
<path d="M57.1929,362.508h 453.543" fill="none" stroke="black"/>
<path d="M57.1929,353.349v 9.15809" fill="none" stroke="black"/>
<path d="M77.8085,357.929v 4.57904" fill="none" stroke="black"/>
<path d="M98.4241,357.929v 4.57904" fill="none" stroke="black"/>
<path d="M119.04,357.929v 4.57904" fill="none" stroke="black"/>
<path d="M139.655,353.349v 9.15809" fill="none" stroke="black"/>
<path d="M160.271,357.929v 4.57904" fill="none" stroke="black"/>
<path d="M180.887,357.929v 4.57904" fill="none" stroke="black"/>
<path d="M201.502,357.929v 4.57904" fill="none" stroke="black"/>
<path d="M222.118,353.349v 9.15809" fill="none" stroke="black"/>
<path d="M242.733,357.929v 4.57904" fill="none" stroke="black"/>
<path d="M263.349,357.929v 4.57904" fill="none" stroke="black"/>
<path d="M283.965,357.929v 4.57904" fill="none" stroke="black"/>
<path d="M304.58,353.349v 9.15809" fill="none" stroke="black"/>
<path d="M325.196,357.929v 4.57904" fill="none" stroke="black"/>
<path d="M345.811,357.929v 4.57904" fill="none" stroke="black"/>
<path d="M366.427,357.929v 4.57904" fill="none" stroke="black"/>
<path d="M387.043,353.349v 9.15809" fill="none" stroke="black"/>
<path d="M407.658,357.929v 4.57904" fill="none" stroke="black"/>
<path d="M428.274,357.929v 4.57904" fill="none" stroke="black"/>
<path d="M448.889,357.929v 4.57904" fill="none" stroke="black"/>
<path d="M469.505,353.349v 9.15809" fill="none" stroke="black"/>
<path d="M469.505,353.349v 9.15809" fill="none" stroke="black"/>
<path d="M490.121,357.929v 4.57904" fill="none" stroke="black"/>
<path d="M510.736,357.929v 4.57904" fill="none" stroke="black"/>
<text xml:space="preserve" x="41.2658" y="380.165" fill="black" font-size="18.004" font-family="Helvetica">400</text>
<text xml:space="preserve" x="123.745" y="380.165" fill="black" font-size="18.004" font-family="Helvetica">600</text>
<text xml:space="preserve" x="206.225" y="380.165" fill="black" font-size="18.004" font-family="Helvetica">800</text>
<text xml:space="preserve" x="283.965" y="380.165" fill="black" font-size="18.004" font-family="Helvetica">1000</text>
<text xml:space="preserve" x="366.444" y="380.165" fill="black" font-size="18.004" font-family="Helvetica">1200</text>
<text xml:space="preserve" x="448.924" y="380.165" fill="black" font-size="18.004" font-family="Helvetica">1400</text>
<text xml:space="preserve" x="420.483" y="401.022" fill="black" font-size="21.5048" font-family="Helvetica">partonPt1</text>
<path d="M57.1929,362.508v -324.349" fill="none" stroke="black"/>
<path d="M71.6496,362.508h -14.4567" fill="none" stroke="black"/>
<text xml:space="preserve" x="44.1099" y="362.152" fill="black" font-size="12.1693" font-family="Helvetica">6</text>
<text xml:space="preserve" x="37.4736" y="362.152" fill="black" font-size="12.1693" font-family="Times">&#8722;</text>
<text xml:space="preserve" x="17.5648" y="370.684" fill="black" font-size="18.004" font-family="Helvetica">10</text>
<path d="M64.4213,341.729h -7.22835" fill="none" stroke="black"/>
<path d="M64.4213,329.574h -7.22835" fill="none" stroke="black"/>
<path d="M64.4213,320.95h -7.22835" fill="none" stroke="black"/>
<path d="M64.4213,314.261h -7.22835" fill="none" stroke="black"/>
<path d="M64.4213,308.795h -7.22835" fill="none" stroke="black"/>
<path d="M64.4213,304.174h -7.22835" fill="none" stroke="black"/>
<path d="M64.4213,300.171h -7.22835" fill="none" stroke="black"/>
<path d="M64.4213,296.64h -7.22835" fill="none" stroke="black"/>
<path d="M71.6496,293.482h -14.4567" fill="none" stroke="black"/>
<text xml:space="preserve" x="44.1099" y="292.945" fill="black" font-size="12.1693" font-family="Helvetica">5</text>
<text xml:space="preserve" x="37.4736" y="292.945" fill="black" font-size="12.1693" font-family="Times">&#8722;</text>
<text xml:space="preserve" x="17.5648" y="301.477" fill="black" font-size="18.004" font-family="Helvetica">10</text>
<path d="M64.4213,272.703h -7.22835" fill="none" stroke="black"/>
<path d="M64.4213,260.548h -7.22835" fill="none" stroke="black"/>
<path d="M64.4213,251.924h -7.22835" fill="none" stroke="black"/>
<path d="M64.4213,245.235h -7.22835" fill="none" stroke="black"/>
<path d="M64.4213,239.77h -7.22835" fill="none" stroke="black"/>
<path d="M64.4213,235.149h -7.22835" fill="none" stroke="black"/>
<path d="M64.4213,231.146h -7.22835" fill="none" stroke="black"/>
<path d="M64.4213,227.615h -7.22835" fill="none" stroke="black"/>
<path d="M71.6496,224.456h -14.4567" fill="none" stroke="black"/>
<text xml:space="preserve" x="44.1099" y="224.686" fill="black" font-size="12.1693" font-family="Helvetica">4</text>
<text xml:space="preserve" x="37.4736" y="224.686" fill="black" font-size="12.1693" font-family="Times">&#8722;</text>
<text xml:space="preserve" x="17.5648" y="232.27" fill="black" font-size="18.004" font-family="Helvetica">10</text>
<path d="M64.4213,203.678h -7.22835" fill="none" stroke="black"/>
<path d="M64.4213,191.523h -7.22835" fill="none" stroke="black"/>
<path d="M64.4213,182.899h -7.22835" fill="none" stroke="black"/>
<path d="M64.4213,176.21h -7.22835" fill="none" stroke="black"/>
<path d="M64.4213,170.744h -7.22835" fill="none" stroke="black"/>
<path d="M64.4213,166.123h -7.22835" fill="none" stroke="black"/>
<path d="M64.4213,162.12h -7.22835" fill="none" stroke="black"/>
<path d="M64.4213,158.589h -7.22835" fill="none" stroke="black"/>
<path d="M71.6496,155.431h -14.4567" fill="none" stroke="black"/>
<text xml:space="preserve" x="44.1099" y="154.531" fill="black" font-size="12.1693" font-family="Helvetica">3</text>
<text xml:space="preserve" x="37.4736" y="154.531" fill="black" font-size="12.1693" font-family="Times">&#8722;</text>
<text xml:space="preserve" x="17.5648" y="163.063" fill="black" font-size="18.004" font-family="Helvetica">10</text>
<path d="M64.4213,134.652h -7.22835" fill="none" stroke="black"/>
<path d="M64.4213,122.497h -7.22835" fill="none" stroke="black"/>
<path d="M64.4213,113.873h -7.22835" fill="none" stroke="black"/>
<path d="M64.4213,107.184h -7.22835" fill="none" stroke="black"/>
<path d="M64.4213,101.719h -7.22835" fill="none" stroke="black"/>
<path d="M64.4213,97.0976h -7.22835" fill="none" stroke="black"/>
<path d="M64.4213,93.0947h -7.22835" fill="none" stroke="black"/>
<path d="M64.4213,89.5639h -7.22835" fill="none" stroke="black"/>
<path d="M71.6496,86.4055h -14.4567" fill="none" stroke="black"/>
<text xml:space="preserve" x="44.1099" y="87.2199" fill="black" font-size="12.1693" font-family="Helvetica">2</text>
<text xml:space="preserve" x="37.4736" y="87.2199" fill="black" font-size="12.1693" font-family="Times">&#8722;</text>
<text xml:space="preserve" x="17.5648" y="94.8042" fill="black" font-size="18.004" font-family="Helvetica">10</text>
<path d="M64.4213,65.6267h -7.22835" fill="none" stroke="black"/>
<path d="M64.4213,53.4719h -7.22835" fill="none" stroke="black"/>
<path d="M64.4213,44.848h -7.22835" fill="none" stroke="black"/>
<path d="M64.4213,38.1587h -7.22835" fill="none" stroke="black"/>
<g transform="rotate(-90,-12.7726,107.129)">
<text xml:space="preserve" x="-12.7726" y="107.129" fill="black" font-size="21.5048" font-family="Helvetica"> Parton</text>
</g>
<g transform="rotate(-90,0.5,119.453)">
<text xml:space="preserve" x="0.5" y="119.453" fill="black" font-size="21.5048" font-family="Times">&#0967;</text>
</g>
<g transform="rotate(-90,0.5,130.83)">
<text xml:space="preserve" x="0.5" y="130.83" fill="black" font-size="21.5048" font-family="Helvetica">d</text>
</g>
<g transform="rotate(-90,-23.201,120.401)">
<text xml:space="preserve" x="-23.201" y="120.401" fill="black" font-size="21.5048" font-family="Times">&#0963;</text>
</g>
<g transform="rotate(-90,-23.201,131.778)">
<text xml:space="preserve" x="-23.201" y="131.778" fill="black" font-size="21.5048" font-family="Helvetica">d</text>
</g>
<path d="M67.5007,84.9232v -4.41614" fill="none" stroke="black" stroke-width="2"/>
<path d="M67.5007,80.507v -3.84833" fill="none" stroke="black" stroke-width="2"/>
<path d="M57.1929,80.507h 10.3078" fill="none" stroke="black" stroke-width="2"/>
<path d="M67.5007,80.507h 10.3078" fill="none" stroke="black" stroke-width="2"/>
<g stroke="black" stroke-width="1" fill="none">
<line x1="66.5007" y1="80.507" x2="67.5007" y2="80.507"/>
</g>
<path d="M88.1163,80.9916v -3.79905" fill="none" stroke="black" stroke-width="2"/>
<path d="M88.1163,77.1925v -3.3713" fill="none" stroke="black" stroke-width="2"/>
<path d="M77.8085,77.1925h 10.3078" fill="none" stroke="black" stroke-width="2"/>
<path d="M88.1163,77.1925h 10.3078" fill="none" stroke="black" stroke-width="2"/>
<g stroke="black" stroke-width="1" fill="none">
<line x1="87.1163" y1="77.1925" x2="88.1163" y2="77.1925"/>
</g>
<path d="M112.855,102.021v -3.36841" fill="none" stroke="black" stroke-width="2"/>
<path d="M112.855,98.6526v -3.02786" fill="none" stroke="black" stroke-width="2"/>
<path d="M98.4241,98.6526h 14.4309" fill="none" stroke="black" stroke-width="2"/>
<path d="M112.855,98.6526h 14.4309" fill="none" stroke="black" stroke-width="2"/>
<g stroke="black" stroke-width="1" fill="none">
<line x1="111.855" y1="98.6526" x2="112.855" y2="98.6526"/>
</g>
<path d="M143.778,132.323v -4.04937" fill="none" stroke="black" stroke-width="2"/>
<path d="M143.778,128.273v -3.5669" fill="none" stroke="black" stroke-width="2"/>
<path d="M127.286,128.273h 16.4925" fill="none" stroke="black" stroke-width="2"/>
<path d="M143.778,128.273h 16.4925" fill="none" stroke="black" stroke-width="2"/>
<g stroke="black" stroke-width="1" fill="none">
<line x1="142.778" y1="128.273" x2="143.778" y2="128.273"/>
</g>
<path d="M191.194,161.731v -2.83822" fill="none" stroke="black" stroke-width="2"/>
<path d="M191.194,158.893v -2.59259" fill="none" stroke="black" stroke-width="2"/>
<path d="M160.271,158.893h 30.9234" fill="none" stroke="black" stroke-width="2"/>
<path d="M191.194,158.893h 30.9234" fill="none" stroke="black" stroke-width="2"/>
<g stroke="black" stroke-width="1" fill="none">
<line x1="190.194" y1="158.893" x2="191.194" y2="158.893"/>
</g>
<path d="M283.965,219.003v -4.44257" fill="none" stroke="black" stroke-width="2"/>
<path d="M283.965,214.56v -3.86838" fill="none" stroke="black" stroke-width="2"/>
<path d="M222.118,214.56h 61.8468" fill="none" stroke="black" stroke-width="2"/>
<path d="M283.965,214.56h 61.8468" fill="none" stroke="black" stroke-width="2"/>
<g stroke="black" stroke-width="1" fill="none">
<line x1="282.965" y1="214.56" x2="283.965" y2="214.56"/>
</g>
<path d="M428.274,286.905v -12.1313" fill="none" stroke="black" stroke-width="2"/>
<path d="M428.274,274.774v -8.61222" fill="none" stroke="black" stroke-width="2"/>
<path d="M345.811,274.774h 82.4624" fill="none" stroke="black" stroke-width="2"/>
<path d="M428.274,274.774h 82.4624" fill="none" stroke="black" stroke-width="2"/>
<g stroke="black" stroke-width="1" fill="none">
<line x1="427.274" y1="274.774" x2="428.274" y2="274.774"/>
</g>
<path d="M77.4364,56.3129l 0.372101, 1.02107" fill="none" stroke="#ff0000"/>
<path d="M66.5768,56.3129l 7.15714, 19.6397" fill="none" stroke="#ff0000"/>
<path d="M57.1929,60.3626l 5.68136, 15.59" fill="none" stroke="#ff0000"/>
<g stroke="#ff0000" stroke-width="1" fill="none">
<line x1="66.5007" y1="64.5524" x2="67.5007" y2="64.5524"/>
</g>
<path d="M90.492,62.3387l 6.18327, 16.9673" fill="none" stroke="#ff0000"/>
<path d="M79.6323,62.3387l 6.18327, 16.9673" fill="none" stroke="#ff0000"/>
<g stroke="#ff0000" stroke-width="1" fill="none">
<line x1="87.1163" y1="69.6376" x2="88.1163" y2="69.6376"/>
</g>
<path d="M119.116,81.2855l 7.54899, 20.7149" fill="none" stroke="#ff0000"/>
<path d="M108.256,81.2855l 7.54899, 20.7149" fill="none" stroke="#ff0000"/>
<path d="M98.4241,84.105l 6.52147, 17.8954" fill="none" stroke="#ff0000"/>
<g stroke="#ff0000" stroke-width="1" fill="none">
<line x1="111.855" y1="89.8881" x2="112.855" y2="89.8881"/>
</g>
<path d="M160.051,104.215l 0.22025, 0.60438" fill="none" stroke="#ff0000"/>
<path d="M149.191,104.215l 10.4002, 28.539" fill="none" stroke="#ff0000"/>
<path d="M138.331,104.215l 10.4002, 28.539" fill="none" stroke="#ff0000"/>
<path d="M127.472,104.215l 10.4002, 28.539" fill="none" stroke="#ff0000"/>
<g stroke="#ff0000" stroke-width="1" fill="none">
<line x1="142.778" y1="115.209" x2="143.778" y2="115.209"/>
</g>
<path d="M214.2,133.606l 7.91751, 21.7262" fill="none" stroke="#ff0000"/>
<path d="M203.341,133.606l 17.4746, 47.9514" fill="none" stroke="#ff0000"/>
<path d="M192.481,133.606l 17.4746, 47.9514" fill="none" stroke="#ff0000"/>
<path d="M181.621,133.606l 17.4746, 47.9514" fill="none" stroke="#ff0000"/>
<path d="M170.762,133.606l 17.4746, 47.9514" fill="none" stroke="#ff0000"/>
<path d="M160.271,134.619l 17.1057, 46.9391" fill="none" stroke="#ff0000"/>
<path d="M160.271,164.418l 6.24602, 17.1395" fill="none" stroke="#ff0000"/>
<g stroke="#ff0000" stroke-width="1" fill="none">
<line x1="190.194" y1="148.87" x2="191.194" y2="148.87"/>
</g>
<path d="M340.413,181.946l 5.39876, 14.8146" fill="none" stroke="#ff0000"/>
<path d="M329.553,181.946l 16.2584, 44.6142" fill="none" stroke="#ff0000"/>
<path d="M318.693,181.946l 27.118, 74.4138" fill="none" stroke="#ff0000"/>
<path d="M307.834,181.946l 37.9777, 104.213" fill="none" stroke="#ff0000"/>
<path d="M296.974,181.946l 48.8373, 134.013" fill="none" stroke="#ff0000"/>
<path d="M286.114,181.946l 59.697, 163.813" fill="none" stroke="#ff0000"/>
<path d="M275.255,181.946l 65.8008, 180.562" fill="none" stroke="#ff0000"/>
<path d="M264.395,181.946l 65.8008, 180.562" fill="none" stroke="#ff0000"/>
<path d="M253.535,181.946l 65.8008, 180.562" fill="none" stroke="#ff0000"/>
<path d="M242.676,181.946l 65.8008, 180.562" fill="none" stroke="#ff0000"/>
<path d="M231.816,181.946l 65.8008, 180.562" fill="none" stroke="#ff0000"/>
<path d="M222.118,185.132l 64.6396, 177.376" fill="none" stroke="#ff0000"/>
<path d="M222.118,214.932l 53.78, 147.576" fill="none" stroke="#ff0000"/>
<path d="M222.118,244.731l 42.9203, 117.776" fill="none" stroke="#ff0000"/>
<path d="M222.118,274.531l 32.0607, 87.9767" fill="none" stroke="#ff0000"/>
<path d="M222.118,304.33l 21.201, 58.1771" fill="none" stroke="#ff0000"/>
<path d="M222.118,334.13l 10.3414, 28.3775" fill="none" stroke="#ff0000"/>
<g stroke="#ff0000" stroke-width="1" fill="none">
<line x1="282.965" y1="203.879" x2="283.965" y2="203.879"/>
</g>
<path d="M505.769,248.299l 4.96755, 13.6313" fill="none" stroke="#ff0000"/>
<path d="M494.909,248.299l 15.8272, 43.4309" fill="none" stroke="#ff0000"/>
<path d="M484.049,248.299l 26.6868, 73.2305" fill="none" stroke="#ff0000"/>
<path d="M473.19,248.299l 37.5465, 103.03" fill="none" stroke="#ff0000"/>
<path d="M462.33,248.299l 41.6201, 114.208" fill="none" stroke="#ff0000"/>
<path d="M451.47,248.299l 41.6201, 114.208" fill="none" stroke="#ff0000"/>
<path d="M440.611,248.299l 41.6201, 114.208" fill="none" stroke="#ff0000"/>
<path d="M429.751,248.299l 41.6201, 114.208" fill="none" stroke="#ff0000"/>
<path d="M418.892,248.299l 41.6201, 114.208" fill="none" stroke="#ff0000"/>
<path d="M408.032,248.299l 41.6201, 114.208" fill="none" stroke="#ff0000"/>
<path d="M397.172,248.299l 41.6201, 114.208" fill="none" stroke="#ff0000"/>
<path d="M386.313,248.299l 41.6201, 114.208" fill="none" stroke="#ff0000"/>
<path d="M375.453,248.299l 41.6201, 114.208" fill="none" stroke="#ff0000"/>
<path d="M364.593,248.299l 41.6201, 114.208" fill="none" stroke="#ff0000"/>
<path d="M353.734,248.299l 41.6201, 114.208" fill="none" stroke="#ff0000"/>
<path d="M345.811,256.359l 38.6828, 106.148" fill="none" stroke="#ff0000"/>
<path d="M345.811,286.159l 27.8231, 76.3485" fill="none" stroke="#ff0000"/>
<path d="M345.811,315.959l 16.9635, 46.5489" fill="none" stroke="#ff0000"/>
<path d="M345.811,345.758l 6.10383, 16.7493" fill="none" stroke="#ff0000"/>
<g stroke="#ff0000" stroke-width="1" fill="none">
<line x1="427.274" y1="280.807" x2="428.274" y2="280.807"/>
</g>
<path d="M67.5007,64.5822v -0.0298436" fill="none" stroke="#ff0000" stroke-width="2"/>
<path d="M67.5007,64.5524v -0.0298139" fill="none" stroke="#ff0000" stroke-width="2"/>
<path d="M57.1929,64.5524h 10.3078" fill="none" stroke="#ff0000" stroke-width="2"/>
<path d="M67.5007,64.5524h 10.3078" fill="none" stroke="#ff0000" stroke-width="2"/>
<g stroke="#ff0000" stroke-width="1" fill="none">
<line x1="66.5007" y1="64.5524" x2="67.5007" y2="64.5524"/>
</g>
<path d="M88.1163,69.67v -0.0324315" fill="none" stroke="#ff0000" stroke-width="2"/>
<path d="M88.1163,69.6376v -0.0323964" fill="none" stroke="#ff0000" stroke-width="2"/>
<path d="M77.8085,69.6376h 10.3078" fill="none" stroke="#ff0000" stroke-width="2"/>
<path d="M88.1163,69.6376h 10.3078" fill="none" stroke="#ff0000" stroke-width="2"/>
<g stroke="#ff0000" stroke-width="1" fill="none">
<line x1="87.1163" y1="69.6376" x2="88.1163" y2="69.6376"/>
</g>
<path d="M112.855,89.9269v -0.0387901" fill="none" stroke="#ff0000" stroke-width="2"/>
<path d="M112.855,89.8881v -0.03874" fill="none" stroke="#ff0000" stroke-width="2"/>
<path d="M98.4241,89.8881h 14.4309" fill="none" stroke="#ff0000" stroke-width="2"/>
<path d="M112.855,89.8881h 14.4309" fill="none" stroke="#ff0000" stroke-width="2"/>
<g stroke="#ff0000" stroke-width="1" fill="none">
<line x1="111.855" y1="89.8881" x2="112.855" y2="89.8881"/>
</g>
<path d="M143.778,115.265v -0.0562772" fill="none" stroke="#ff0000" stroke-width="2"/>
<path d="M143.778,115.209v -0.0561718" fill="none" stroke="#ff0000" stroke-width="2"/>
<path d="M127.286,115.209h 16.4925" fill="none" stroke="#ff0000" stroke-width="2"/>
<path d="M143.778,115.209h 16.4925" fill="none" stroke="#ff0000" stroke-width="2"/>
<g stroke="#ff0000" stroke-width="1" fill="none">
<line x1="142.778" y1="115.209" x2="143.778" y2="115.209"/>
</g>
<path d="M191.194,148.944v -0.0741515" fill="none" stroke="#ff0000" stroke-width="2"/>
<path d="M191.194,148.87v -0.0739685" fill="none" stroke="#ff0000" stroke-width="2"/>
<path d="M160.271,148.87h 30.9234" fill="none" stroke="#ff0000" stroke-width="2"/>
<path d="M191.194,148.87h 30.9234" fill="none" stroke="#ff0000" stroke-width="2"/>
<g stroke="#ff0000" stroke-width="1" fill="none">
<line x1="190.194" y1="148.87" x2="191.194" y2="148.87"/>
</g>
<path d="M283.965,204.018v -0.138556" fill="none" stroke="#ff0000" stroke-width="2"/>
<path d="M283.965,203.879v -0.137918" fill="none" stroke="#ff0000" stroke-width="2"/>
<path d="M222.118,203.879h 61.8468" fill="none" stroke="#ff0000" stroke-width="2"/>
<path d="M283.965,203.879h 61.8468" fill="none" stroke="#ff0000" stroke-width="2"/>
<g stroke="#ff0000" stroke-width="1" fill="none">
<line x1="282.965" y1="203.879" x2="283.965" y2="203.879"/>
</g>
<path d="M428.274,281.282v -0.474815" fill="none" stroke="#ff0000" stroke-width="2"/>
<path d="M428.274,280.807v -0.467411" fill="none" stroke="#ff0000" stroke-width="2"/>
<path d="M345.811,280.807h 82.4624" fill="none" stroke="#ff0000" stroke-width="2"/>
<path d="M428.274,280.807h 82.4624" fill="none" stroke="#ff0000" stroke-width="2"/>
<g stroke="#ff0000" stroke-width="1" fill="none">
<line x1="427.274" y1="280.807" x2="428.274" y2="280.807"/>
</g>
<rect x="334.988" y="41.9746" width="170.079" height="114.476" fill="white"/>
<text xml:space="preserve" x="376.873" y="60.6747" fill="black" font-size="12.4517" font-family="Helvetica">Data</text>
<path d="M356.248,52.4919v -4.79354" fill="none" stroke="black" stroke-width="2"/>
<path d="M356.248,60.0762v 4.79354" fill="none" stroke="black" stroke-width="2"/>
<g fill="black">
<circle cx="356.248" cy="56.2841" r="3.79217"/>
</g>
<text xml:space="preserve" x="376.873" y="89.116" fill="black" font-size="12.4517" font-family="Helvetica">Total unc.</text>
<path d="M341.366,94.9198h 29.7638v -20.0333h -29.7638z" fill="#cccccc"/>
<path d="M341.366,74.8864h 29.7638" fill="none" stroke="black" stroke-width="2"/>
<path d="M341.366,94.9198h 29.7638" fill="none" stroke="black" stroke-width="2"/>
<path d="M371.13,94.9198v -20.0333" fill="none" stroke="black" stroke-width="2"/>
<path d="M341.366,94.9198v -20.0333" fill="none" stroke="black" stroke-width="2"/>
<text xml:space="preserve" x="376.873" y="116.609" fill="black" font-size="12.4517" font-family="Helvetica">Powheg+Pythia8</text>
<path d="M341.366,113.522h 29.7638" fill="none" stroke="#ff0000" stroke-width="2"/>
<path d="M356.248,122.108v -17.1714" fill="none" stroke="#ff0000" stroke-width="2"/>
<text xml:space="preserve" x="376.873" y="145.05" fill="black" font-size="12.4517" font-family="Helvetica">Powheg+Pythia8 unc</text>
<path d="M365.695,132.124l 5.43468, 14.9131" fill="none" stroke="#ff0000"/>
<path d="M354.836,132.124l 7.30059, 20.0333" fill="none" stroke="#ff0000"/>
<path d="M343.976,132.124l 7.30059, 20.0333" fill="none" stroke="#ff0000"/>
<path d="M341.366,132.124h 29.7638" fill="none" stroke="#ff0000" stroke-width="2"/>
<path d="M341.366,152.158h 29.7638" fill="none" stroke="#ff0000" stroke-width="2"/>
<path d="M371.13,152.158v -20.0333" fill="none" stroke="#ff0000" stroke-width="2"/>
<path d="M341.366,152.158v -20.0333" fill="none" stroke="#ff0000" stroke-width="2"/>
<text xml:space="preserve" x="420.483" y="30.3373" fill="black" font-size="21.5048" font-family="Helvetica"> (13 TeV)</text>
<text xml:space="preserve" x="410.054" y="19.9089" fill="black" font-size="14.5032" font-family="Helvetica">-1</text>
<text xml:space="preserve" x="343.691" y="30.3373" fill="black" font-size="21.5048" font-family="Helvetica">20.1 fb</text>
<text xml:space="preserve" x="57.1929" y="30.527" fill="black" font-size="26.756" font-family="Helvetica" font-weight="bold">CMS</text>
<text xml:space="preserve" x="77.2914" y="64.4669" fill="black" font-size="20.4545" font-family="Helvetica" font-style="oblique">Work in progress</text>
<rect x="0.5" y="381.587" width="566.929" height="136.281" fill="white"/>
<rect x="57.1929" y="385.675" width="453.543" height="102.211" fill="white"/>
<rect x="57.1929" y="385.675" width="453.543" height="102.211" fill="none" stroke="black"/>
<rect x="57.1929" y="385.675" width="453.543" height="102.211" fill="white"/>
<rect x="57.1929" y="385.675" width="453.543" height="102.211" fill="none" stroke="black"/>
<path d="M57.1929,487.886h 453.543" fill="none" stroke="black"/>
<path d="M57.1929,487.886v -102.211" fill="none" stroke="black"/>
<path d="M510.736,487.886h -453.543" fill="none" stroke="black" stroke-dasharray=" 1, 2"/>
<path d="M510.736,462.333h -453.543" fill="none" stroke="black" stroke-dasharray=" 1, 2"/>
<path d="M510.736,436.781h -453.543" fill="none" stroke="black" stroke-dasharray=" 1, 2"/>
<path d="M510.736,411.228h -453.543" fill="none" stroke="black" stroke-dasharray=" 1, 2"/>
<path d="M510.736,385.675h -453.543" fill="none" stroke="black" stroke-dasharray=" 1, 2"/>
<rect x="57.1929" y="428.24" width="20.6156" height="17.0806" fill="#cccccc"/>
<g fill="black">
<circle cx="67.5007" cy="436.781" r="3.79217"/>
</g>
<rect x="77.8085" y="430.44" width="20.6156" height="12.6816" fill="#cccccc"/>
<g fill="black">
<circle cx="88.1163" cy="436.781" r="3.79217"/>
</g>
<rect x="98.4241" y="426.013" width="28.8618" height="21.5364" fill="#cccccc"/>
<g fill="black">
<circle cx="112.855" cy="436.781" r="3.79217"/>
</g>
<rect x="127.286" y="425.773" width="32.985" height="22.0158" fill="#cccccc"/>
<g fill="black">
<circle cx="143.778" cy="436.781" r="3.79217"/>
</g>
<rect x="160.271" y="424.432" width="61.8468" height="24.6971" fill="#cccccc"/>
<g fill="black">
<circle cx="191.194" cy="436.781" r="3.79217"/>
</g>
<rect x="222.118" y="414.72" width="123.694" height="44.1206" fill="#cccccc"/>
<g fill="black">
<circle cx="283.965" cy="436.781" r="3.79217"/>
</g>
<rect x="345.811" y="398.17" width="164.925" height="77.2218" fill="#cccccc"/>
<g fill="black">
<circle cx="428.274" cy="436.781" r="3.79217"/>
</g>
<path d="M57.1929,487.886h 453.543" fill="none" stroke="black"/>
<path d="M57.1929,484.615v 3.27075" fill="none" stroke="black"/>
<path d="M77.8085,486.251v 1.63537" fill="none" stroke="black"/>
<path d="M98.4241,486.251v 1.63537" fill="none" stroke="black"/>
<path d="M119.04,486.251v 1.63537" fill="none" stroke="black"/>
<path d="M139.655,484.615v 3.27075" fill="none" stroke="black"/>
<path d="M160.271,486.251v 1.63537" fill="none" stroke="black"/>
<path d="M180.887,486.251v 1.63537" fill="none" stroke="black"/>
<path d="M201.502,486.251v 1.63537" fill="none" stroke="black"/>
<path d="M222.118,484.615v 3.27075" fill="none" stroke="black"/>
<path d="M242.733,486.251v 1.63537" fill="none" stroke="black"/>
<path d="M263.349,486.251v 1.63537" fill="none" stroke="black"/>
<path d="M283.965,486.251v 1.63537" fill="none" stroke="black"/>
<path d="M304.58,484.615v 3.27075" fill="none" stroke="black"/>
<path d="M325.196,486.251v 1.63537" fill="none" stroke="black"/>
<path d="M345.811,486.251v 1.63537" fill="none" stroke="black"/>
<path d="M366.427,486.251v 1.63537" fill="none" stroke="black"/>
<path d="M387.043,484.615v 3.27075" fill="none" stroke="black"/>
<path d="M407.658,486.251v 1.63537" fill="none" stroke="black"/>
<path d="M428.274,486.251v 1.63537" fill="none" stroke="black"/>
<path d="M448.889,486.251v 1.63537" fill="none" stroke="black"/>
<path d="M469.505,484.615v 3.27075" fill="none" stroke="black"/>
<path d="M469.505,484.615v 3.27075" fill="none" stroke="black"/>
<path d="M490.121,486.251v 1.63537" fill="none" stroke="black"/>
<path d="M510.736,486.251v 1.63537" fill="none" stroke="black"/>
<text xml:space="preserve" x="43.1619" y="502.462" fill="black" font-size="15.5034" font-family="Helvetica">400</text>
<text xml:space="preserve" x="125.642" y="502.462" fill="black" font-size="15.5034" font-family="Helvetica">600</text>
<text xml:space="preserve" x="208.121" y="502.462" fill="black" font-size="15.5034" font-family="Helvetica">800</text>
<text xml:space="preserve" x="286.809" y="502.462" fill="black" font-size="15.5034" font-family="Helvetica">1000</text>
<text xml:space="preserve" x="369.288" y="502.462" fill="black" font-size="15.5034" font-family="Helvetica">1200</text>
<text xml:space="preserve" x="451.768" y="502.462" fill="black" font-size="15.5034" font-family="Helvetica">1400</text>
<text xml:space="preserve" x="336.107" y="517.631" fill="black" font-size="14.8783" font-family="Helvetica">Subleading parton Pt (GeV)</text>
<path d="M57.1929,487.886v -102.211" fill="none" stroke="black"/>
<path d="M69.9488,487.886h -12.7559" fill="none" stroke="black"/>
<path d="M63.5709,482.776h -6.37795" fill="none" stroke="black"/>
<path d="M63.5709,477.665h -6.37795" fill="none" stroke="black"/>
<path d="M63.5709,472.555h -6.37795" fill="none" stroke="black"/>
<path d="M63.5709,467.444h -6.37795" fill="none" stroke="black"/>
<path d="M69.9488,462.333h -12.7559" fill="none" stroke="black"/>
<path d="M63.5709,457.223h -6.37795" fill="none" stroke="black"/>
<path d="M63.5709,452.112h -6.37795" fill="none" stroke="black"/>
<path d="M63.5709,447.002h -6.37795" fill="none" stroke="black"/>
<path d="M63.5709,441.891h -6.37795" fill="none" stroke="black"/>
<path d="M69.9488,436.781h -12.7559" fill="none" stroke="black"/>
<path d="M63.5709,431.67h -6.37795" fill="none" stroke="black"/>
<path d="M63.5709,426.56h -6.37795" fill="none" stroke="black"/>
<path d="M63.5709,421.449h -6.37795" fill="none" stroke="black"/>
<path d="M63.5709,416.339h -6.37795" fill="none" stroke="black"/>
<path d="M69.9488,411.228h -12.7559" fill="none" stroke="black"/>
<path d="M63.5709,406.118h -6.37795" fill="none" stroke="black"/>
<path d="M63.5709,401.007h -6.37795" fill="none" stroke="black"/>
<path d="M63.5709,395.896h -6.37795" fill="none" stroke="black"/>
<path d="M63.5709,390.786h -6.37795" fill="none" stroke="black"/>
<path d="M69.9488,385.675h -12.7559" fill="none" stroke="black"/>
<text xml:space="preserve" x="46.006" y="492.982" fill="black" font-size="13.0028" font-family="Helvetica">2</text>
<text xml:space="preserve" x="38.4217" y="492.982" fill="black" font-size="13.0028" font-family="Times">&#8722;</text>
<text xml:space="preserve" x="47.9021" y="467.385" fill="black" font-size="13.0028" font-family="Helvetica">1</text>
<text xml:space="preserve" x="40.3178" y="467.385" fill="black" font-size="13.0028" font-family="Times">&#8722;</text>
<text xml:space="preserve" x="46.006" y="440.84" fill="black" font-size="13.0028" font-family="Helvetica">0</text>
<text xml:space="preserve" x="47.9021" y="416.19" fill="black" font-size="13.0028" font-family="Helvetica">1</text>
<text xml:space="preserve" x="46.006" y="390.593" fill="black" font-size="13.0028" font-family="Helvetica">2</text>
<g transform="rotate(-90,26.0971,474.969)">
<text xml:space="preserve" x="26.0971" y="474.969" fill="black" font-size="14.8783" font-family="Helvetica">The./data - 1</text>
</g>
<path d="M67.5007,441.731v -4.94998" fill="none" stroke="black" stroke-width="2"/>
<path d="M67.5007,436.781v -4.94998" fill="none" stroke="black" stroke-width="2"/>
<path d="M57.1929,436.781h 10.3078" fill="none" stroke="black" stroke-width="2"/>
<path d="M67.5007,436.781h 10.3078" fill="none" stroke="black" stroke-width="2"/>
<g stroke="black" stroke-width="1" fill="none">
<line x1="66.5007" y1="436.781" x2="67.5007" y2="436.781"/>
</g>
<path d="M88.1163,441.082v -4.30135" fill="none" stroke="black" stroke-width="2"/>
<path d="M88.1163,436.781v -4.30135" fill="none" stroke="black" stroke-width="2"/>
<path d="M77.8085,436.781h 10.3078" fill="none" stroke="black" stroke-width="2"/>
<path d="M88.1163,436.781h 10.3078" fill="none" stroke="black" stroke-width="2"/>
<g stroke="black" stroke-width="1" fill="none">
<line x1="87.1163" y1="436.781" x2="88.1163" y2="436.781"/>
</g>
<path d="M112.855,440.621v -3.84071" fill="none" stroke="black" stroke-width="2"/>
<path d="M112.855,436.781v -3.84071" fill="none" stroke="black" stroke-width="2"/>
<path d="M98.4241,436.781h 14.4309" fill="none" stroke="black" stroke-width="2"/>
<path d="M112.855,436.781h 14.4309" fill="none" stroke="black" stroke-width="2"/>
<g stroke="black" stroke-width="1" fill="none">
<line x1="111.855" y1="436.781" x2="112.855" y2="436.781"/>
</g>
<path d="M143.778,441.347v -4.56607" fill="none" stroke="black" stroke-width="2"/>
<path d="M143.778,436.781v -4.56607" fill="none" stroke="black" stroke-width="2"/>
<path d="M127.286,436.781h 16.4925" fill="none" stroke="black" stroke-width="2"/>
<path d="M143.778,436.781h 16.4925" fill="none" stroke="black" stroke-width="2"/>
<g stroke="black" stroke-width="1" fill="none">
<line x1="142.778" y1="436.781" x2="143.778" y2="436.781"/>
</g>
<path d="M191.194,440.045v -3.26442" fill="none" stroke="black" stroke-width="2"/>
<path d="M191.194,436.781v -3.26442" fill="none" stroke="black" stroke-width="2"/>
<path d="M160.271,436.781h 30.9234" fill="none" stroke="black" stroke-width="2"/>
<path d="M191.194,436.781h 30.9234" fill="none" stroke="black" stroke-width="2"/>
<g stroke="black" stroke-width="1" fill="none">
<line x1="190.194" y1="436.781" x2="191.194" y2="436.781"/>
</g>
<path d="M283.965,441.758v -4.97747" fill="none" stroke="black" stroke-width="2"/>
<path d="M283.965,436.781v -4.97747" fill="none" stroke="black" stroke-width="2"/>
<path d="M222.118,436.781h 61.8468" fill="none" stroke="black" stroke-width="2"/>
<path d="M283.965,436.781h 61.8468" fill="none" stroke="black" stroke-width="2"/>
<g stroke="black" stroke-width="1" fill="none">
<line x1="282.965" y1="436.781" x2="283.965" y2="436.781"/>
</g>
<path d="M428.274,448.808v -12.0268" fill="none" stroke="black" stroke-width="2"/>
<path d="M428.274,436.781v -12.0268" fill="none" stroke="black" stroke-width="2"/>
<path d="M345.811,436.781h 82.4624" fill="none" stroke="black" stroke-width="2"/>
<path d="M428.274,436.781h 82.4624" fill="none" stroke="black" stroke-width="2"/>
<g stroke="black" stroke-width="1" fill="none">
<line x1="427.274" y1="436.781" x2="428.274" y2="436.781"/>
</g>
<path d="M67.5163,403.826l 10.2922, 28.2284" fill="none" stroke="#ff0000"/>
<path d="M57.1929,405.297l 10.4008, 28.5264" fill="none" stroke="#ff0000"/>
<g stroke="#ff0000" stroke-width="1" fill="none">
<line x1="66.5007" y1="418.825" x2="67.5007" y2="418.825"/>
</g>
<path d="M94.9812,419.585l 3.44291, 9.44289" fill="none" stroke="#ff0000"/>
<path d="M84.1216,419.585l 7.19889, 19.7444" fill="none" stroke="#ff0000"/>
<path d="M77.8085,432.054l 2.6523, 7.27449" fill="none" stroke="#ff0000"/>
<g stroke="#ff0000" stroke-width="1" fill="none">
<line x1="87.1163" y1="429.457" x2="88.1163" y2="429.457"/>
</g>
<path d="M126.311,416.158l 0.975162, 2.67459" fill="none" stroke="#ff0000"/>
<path d="M115.451,416.158l 8.71051, 23.8904" fill="none" stroke="#ff0000"/>
<path d="M104.592,416.158l 8.71051, 23.8904" fill="none" stroke="#ff0000"/>
<path d="M98.4241,429.027l 4.01828, 11.021" fill="none" stroke="#ff0000"/>
<g stroke="#ff0000" stroke-width="1" fill="none">
<line x1="111.855" y1="428.103" x2="112.855" y2="428.103"/>
</g>
<path d="M154.683,404.621l 5.58755, 15.325" fill="none" stroke="#ff0000"/>
<path d="M143.824,404.621l 13.2733, 36.4049" fill="none" stroke="#ff0000"/>
<path d="M132.964,404.621l 13.2733, 36.4049" fill="none" stroke="#ff0000"/>
<path d="M127.286,418.833l 8.09184, 22.1936" fill="none" stroke="#ff0000"/>
<g stroke="#ff0000" stroke-width="1" fill="none">
<line x1="142.778" y1="422.824" x2="143.778" y2="422.824"/>
</g>
<path d="M219.147,402.717l 2.97089, 8.14829" fill="none" stroke="#ff0000"/>
<path d="M208.287,402.717l 13.8305, 37.9331" fill="none" stroke="#ff0000"/>
<path d="M197.428,402.717l 17.4418, 47.8378" fill="none" stroke="#ff0000"/>
<path d="M186.568,402.717l 17.4418, 47.8378" fill="none" stroke="#ff0000"/>
<path d="M175.708,402.717l 17.4418, 47.8378" fill="none" stroke="#ff0000"/>
<path d="M164.849,402.717l 17.4418, 47.8378" fill="none" stroke="#ff0000"/>
<path d="M160.271,419.946l 11.1599, 30.6083" fill="none" stroke="#ff0000"/>
<path d="M160.271,449.731l 0.300258, 0.823519" fill="none" stroke="#ff0000"/>
<g stroke="#ff0000" stroke-width="1" fill="none">
<line x1="190.194" y1="426.636" x2="191.194" y2="426.636"/>
</g>
<path d="M343.428,386.167l 2.38307, 6.53606" fill="none" stroke="#ff0000"/>
<path d="M332.569,386.167l 13.2427, 36.3209" fill="none" stroke="#ff0000"/>
<path d="M321.709,386.167l 24.1024, 66.1057" fill="none" stroke="#ff0000"/>
<path d="M310.849,386.167l 28.9321, 79.3523" fill="none" stroke="#ff0000"/>
<path d="M299.99,386.167l 28.9321, 79.3523" fill="none" stroke="#ff0000"/>
<path d="M289.13,386.167l 28.9321, 79.3523" fill="none" stroke="#ff0000"/>
<path d="M278.27,386.167l 28.9321, 79.3523" fill="none" stroke="#ff0000"/>
<path d="M267.411,386.167l 28.9321, 79.3523" fill="none" stroke="#ff0000"/>
<path d="M256.551,386.167l 28.9321, 79.3523" fill="none" stroke="#ff0000"/>
<path d="M245.692,386.167l 28.9321, 79.3523" fill="none" stroke="#ff0000"/>
<path d="M234.832,386.167l 28.9321, 79.3523" fill="none" stroke="#ff0000"/>
<path d="M223.972,386.167l 28.9321, 79.3523" fill="none" stroke="#ff0000"/>
<path d="M222.118,410.865l 19.927, 54.6539" fill="none" stroke="#ff0000"/>
<path d="M222.118,440.65l 9.06734, 24.8691" fill="none" stroke="#ff0000"/>
<g stroke="#ff0000" stroke-width="1" fill="none">
<line x1="282.965" y1="425.843" x2="283.965" y2="425.843"/>
</g>
<path d="M500.488,399.947l 10.2487, 28.1091" fill="none" stroke="#ff0000"/>
<path d="M489.628,399.947l 21.1083, 57.8939" fill="none" stroke="#ff0000"/>
<path d="M478.768,399.947l 30.2563, 82.9841" fill="none" stroke="#ff0000"/>
<path d="M467.909,399.947l 30.2563, 82.9841" fill="none" stroke="#ff0000"/>
<path d="M457.049,399.947l 30.2563, 82.9841" fill="none" stroke="#ff0000"/>
<path d="M446.189,399.947l 30.2563, 82.9841" fill="none" stroke="#ff0000"/>
<path d="M435.33,399.947l 30.2563, 82.9841" fill="none" stroke="#ff0000"/>
<path d="M424.47,399.947l 30.2563, 82.9841" fill="none" stroke="#ff0000"/>
<path d="M413.61,399.947l 30.2563, 82.9841" fill="none" stroke="#ff0000"/>
<path d="M402.751,399.947l 30.2563, 82.9841" fill="none" stroke="#ff0000"/>
<path d="M391.891,399.947l 30.2563, 82.9841" fill="none" stroke="#ff0000"/>
<path d="M381.031,399.947l 30.2563, 82.9841" fill="none" stroke="#ff0000"/>
<path d="M370.172,399.947l 30.2563, 82.9841" fill="none" stroke="#ff0000"/>
<path d="M359.312,399.947l 30.2563, 82.9841" fill="none" stroke="#ff0000"/>
<path d="M348.453,399.947l 30.2563, 82.9841" fill="none" stroke="#ff0000"/>
<path d="M345.811,422.487l 22.0378, 60.4433" fill="none" stroke="#ff0000"/>
<path d="M345.811,452.272l 11.1782, 30.6585" fill="none" stroke="#ff0000"/>
<path d="M345.811,482.057l 0.318546, 0.873678" fill="none" stroke="#ff0000"/>
<g stroke="#ff0000" stroke-width="1" fill="none">
<line x1="427.274" y1="441.439" x2="428.274" y2="441.439"/>
</g>
<path d="M67.5007,424.784v -5.95994" fill="none" stroke="#ff0000" stroke-width="2"/>
<path d="M67.5007,418.825v -5.95994" fill="none" stroke="#ff0000" stroke-width="2"/>
<path d="M57.1929,418.825h 10.3078" fill="none" stroke="#ff0000" stroke-width="2"/>
<path d="M67.5007,418.825h 10.3078" fill="none" stroke="#ff0000" stroke-width="2"/>
<g stroke="#ff0000" stroke-width="1" fill="none">
<line x1="66.5007" y1="418.825" x2="67.5007" y2="418.825"/>
</g>
<path d="M88.1163,433.37v -3.91345" fill="none" stroke="#ff0000" stroke-width="2"/>
<path d="M88.1163,429.457v -3.91345" fill="none" stroke="#ff0000" stroke-width="2"/>
<path d="M77.8085,429.457h 10.3078" fill="none" stroke="#ff0000" stroke-width="2"/>
<path d="M88.1163,429.457h 10.3078" fill="none" stroke="#ff0000" stroke-width="2"/>
<g stroke="#ff0000" stroke-width="1" fill="none">
<line x1="87.1163" y1="429.457" x2="88.1163" y2="429.457"/>
</g>
<path d="M112.855,431.741v -3.63833" fill="none" stroke="#ff0000" stroke-width="2"/>
<path d="M112.855,428.103v -3.63833" fill="none" stroke="#ff0000" stroke-width="2"/>
<path d="M98.4241,428.103h 14.4309" fill="none" stroke="#ff0000" stroke-width="2"/>
<path d="M112.855,428.103h 14.4309" fill="none" stroke="#ff0000" stroke-width="2"/>
<g stroke="#ff0000" stroke-width="1" fill="none">
<line x1="111.855" y1="428.103" x2="112.855" y2="428.103"/>
</g>
<path d="M143.778,427.816v -4.9928" fill="none" stroke="#ff0000" stroke-width="2"/>
<path d="M143.778,422.824v -4.9928" fill="none" stroke="#ff0000" stroke-width="2"/>
<path d="M127.286,422.824h 16.4925" fill="none" stroke="#ff0000" stroke-width="2"/>
<path d="M143.778,422.824h 16.4925" fill="none" stroke="#ff0000" stroke-width="2"/>
<g stroke="#ff0000" stroke-width="1" fill="none">
<line x1="142.778" y1="422.824" x2="143.778" y2="422.824"/>
</g>
<path d="M191.194,429.862v -3.22596" fill="none" stroke="#ff0000" stroke-width="2"/>
<path d="M191.194,426.636v -3.22596" fill="none" stroke="#ff0000" stroke-width="2"/>
<path d="M160.271,426.636h 30.9234" fill="none" stroke="#ff0000" stroke-width="2"/>
<path d="M191.194,426.636h 30.9234" fill="none" stroke="#ff0000" stroke-width="2"/>
<g stroke="#ff0000" stroke-width="1" fill="none">
<line x1="190.194" y1="426.636" x2="191.194" y2="426.636"/>
</g>
<path d="M283.965,430.872v -5.02902" fill="none" stroke="#ff0000" stroke-width="2"/>
<path d="M283.965,425.843v -5.02902" fill="none" stroke="#ff0000" stroke-width="2"/>
<path d="M222.118,425.843h 61.8468" fill="none" stroke="#ff0000" stroke-width="2"/>
<path d="M283.965,425.843h 61.8468" fill="none" stroke="#ff0000" stroke-width="2"/>
<g stroke="#ff0000" stroke-width="1" fill="none">
<line x1="282.965" y1="425.843" x2="283.965" y2="425.843"/>
</g>
<path d="M428.274,448.4v -6.96175" fill="none" stroke="#ff0000" stroke-width="2"/>
<path d="M428.274,441.439v -6.96175" fill="none" stroke="#ff0000" stroke-width="2"/>
<path d="M345.811,441.439h 82.4624" fill="none" stroke="#ff0000" stroke-width="2"/>
<path d="M428.274,441.439h 82.4624" fill="none" stroke="#ff0000" stroke-width="2"/>
<g stroke="#ff0000" stroke-width="1" fill="none">
<line x1="427.274" y1="441.439" x2="428.274" y2="441.439"/>
</g></svg>
