<?xml version="1.0" standalone="no"?>
<svg width="567.429" height="545.624" viewBox="0 0 567.429 545.624" xmlns="http://www.w3.org/2000/svg" shape-rendering="crispEdges">
<title>
/Users/georgebakas/Documents/HEP-NTUA_ul/VariationHandling/FinalResults/results/FinalResult_chi.svg
</title>
<desc>
Creator: ROOT Version 6.22/02
CreationDate: Tue Nov 23 23:22:48 2021</desc>
<defs>
</defs>
<rect x="0.5" y="0" width="566.929" height="545.124" fill="white"/>
<rect x="0.5" y="0" width="566.929" height="381.587" fill="white"/>
<rect x="57.1929" y="38.1587" width="453.543" height="324.349" fill="white"/>
<rect x="57.1929" y="38.1587" width="453.543" height="324.349" fill="none" stroke="black"/>
<rect x="57.1929" y="38.1587" width="453.543" height="324.349" fill="white"/>
<rect x="57.1929" y="38.1587" width="453.543" height="324.349" fill="none" stroke="black"/>
<rect x="420.028" y="69.3365" width="90.7087" height="87.5761" fill="#cccccc"/>
<g fill="black">
<circle cx="465.382" cy="92.8111" r="3.79217"/>
</g>
<path d="M57.1929,362.508h 453.543" fill="none" stroke="black"/>
<path d="M87.4291,353.349v 9.15809" fill="none" stroke="black"/>
<path d="M102.547,357.929v 4.57904" fill="none" stroke="black"/>
<path d="M117.665,357.929v 4.57904" fill="none" stroke="black"/>
<path d="M132.783,357.929v 4.57904" fill="none" stroke="black"/>
<path d="M147.902,353.349v 9.15809" fill="none" stroke="black"/>
<path d="M163.02,357.929v 4.57904" fill="none" stroke="black"/>
<path d="M178.138,357.929v 4.57904" fill="none" stroke="black"/>
<path d="M193.256,357.929v 4.57904" fill="none" stroke="black"/>
<path d="M208.374,353.349v 9.15809" fill="none" stroke="black"/>
<path d="M223.492,357.929v 4.57904" fill="none" stroke="black"/>
<path d="M238.61,357.929v 4.57904" fill="none" stroke="black"/>
<path d="M253.728,357.929v 4.57904" fill="none" stroke="black"/>
<path d="M268.846,353.349v 9.15809" fill="none" stroke="black"/>
<path d="M283.965,357.929v 4.57904" fill="none" stroke="black"/>
<path d="M299.083,357.929v 4.57904" fill="none" stroke="black"/>
<path d="M314.201,357.929v 4.57904" fill="none" stroke="black"/>
<path d="M329.319,353.349v 9.15809" fill="none" stroke="black"/>
<path d="M344.437,357.929v 4.57904" fill="none" stroke="black"/>
<path d="M359.555,357.929v 4.57904" fill="none" stroke="black"/>
<path d="M374.673,357.929v 4.57904" fill="none" stroke="black"/>
<path d="M389.791,353.349v 9.15809" fill="none" stroke="black"/>
<path d="M404.909,357.929v 4.57904" fill="none" stroke="black"/>
<path d="M420.028,357.929v 4.57904" fill="none" stroke="black"/>
<path d="M435.146,357.929v 4.57904" fill="none" stroke="black"/>
<path d="M450.264,353.349v 9.15809" fill="none" stroke="black"/>
<path d="M465.382,357.929v 4.57904" fill="none" stroke="black"/>
<path d="M480.5,357.929v 4.57904" fill="none" stroke="black"/>
<path d="M495.618,357.929v 4.57904" fill="none" stroke="black"/>
<path d="M510.736,353.349v 9.15809" fill="none" stroke="black"/>
<path d="M87.4291,353.349v 9.15809" fill="none" stroke="black"/>
<path d="M72.311,357.929v 4.57904" fill="none" stroke="black"/>
<path d="M57.1929,357.929v 4.57904" fill="none" stroke="black"/>
<text xml:space="preserve" x="82.0316" y="380.165" fill="black" font-size="18.004" font-family="Helvetica">2</text>
<text xml:space="preserve" x="142.706" y="380.165" fill="black" font-size="18.004" font-family="Helvetica">4</text>
<text xml:space="preserve" x="203.381" y="380.165" fill="black" font-size="18.004" font-family="Helvetica">6</text>
<text xml:space="preserve" x="264.056" y="380.165" fill="black" font-size="18.004" font-family="Helvetica">8</text>
<text xml:space="preserve" x="318.094" y="380.165" fill="black" font-size="18.004" font-family="Helvetica">10</text>
<text xml:space="preserve" x="378.769" y="380.165" fill="black" font-size="18.004" font-family="Helvetica">12</text>
<text xml:space="preserve" x="439.443" y="380.165" fill="black" font-size="18.004" font-family="Helvetica">14</text>
<text xml:space="preserve" x="500.118" y="380.165" fill="black" font-size="18.004" font-family="Helvetica">16</text>
<text xml:space="preserve" x="419.535" y="403.866" fill="black" font-size="21.5048" font-family="Helvetica">chiParton</text>
<path d="M57.1929,362.508v -324.349" fill="none" stroke="black"/>
<path d="M64.4213,362.508h -7.22835" fill="none" stroke="black"/>
<path d="M64.4213,351.004h -7.22835" fill="none" stroke="black"/>
<path d="M64.4213,342.082h -7.22835" fill="none" stroke="black"/>
<path d="M64.4213,334.792h -7.22835" fill="none" stroke="black"/>
<path d="M64.4213,328.628h -7.22835" fill="none" stroke="black"/>
<path d="M64.4213,323.289h -7.22835" fill="none" stroke="black"/>
<path d="M64.4213,318.579h -7.22835" fill="none" stroke="black"/>
<path d="M71.6496,314.366h -14.4567" fill="none" stroke="black"/>
<text xml:space="preserve" x="44.1099" y="313.802" fill="black" font-size="12.1693" font-family="Helvetica">5</text>
<text xml:space="preserve" x="37.4736" y="313.802" fill="black" font-size="12.1693" font-family="Times">&#8722;</text>
<text xml:space="preserve" x="17.5648" y="322.334" fill="black" font-size="18.004" font-family="Helvetica">10</text>
<path d="M64.4213,286.651h -7.22835" fill="none" stroke="black"/>
<path d="M64.4213,270.438h -7.22835" fill="none" stroke="black"/>
<path d="M64.4213,258.935h -7.22835" fill="none" stroke="black"/>
<path d="M64.4213,250.013h -7.22835" fill="none" stroke="black"/>
<path d="M64.4213,242.723h -7.22835" fill="none" stroke="black"/>
<path d="M64.4213,236.559h -7.22835" fill="none" stroke="black"/>
<path d="M64.4213,231.22h -7.22835" fill="none" stroke="black"/>
<path d="M64.4213,226.51h -7.22835" fill="none" stroke="black"/>
<path d="M71.6496,222.297h -14.4567" fill="none" stroke="black"/>
<text xml:space="preserve" x="44.1099" y="222.79" fill="black" font-size="12.1693" font-family="Helvetica">4</text>
<text xml:space="preserve" x="37.4736" y="222.79" fill="black" font-size="12.1693" font-family="Times">&#8722;</text>
<text xml:space="preserve" x="17.5648" y="230.374" fill="black" font-size="18.004" font-family="Helvetica">10</text>
<path d="M64.4213,194.582h -7.22835" fill="none" stroke="black"/>
<path d="M64.4213,178.369h -7.22835" fill="none" stroke="black"/>
<path d="M64.4213,166.866h -7.22835" fill="none" stroke="black"/>
<path d="M64.4213,157.944h -7.22835" fill="none" stroke="black"/>
<path d="M64.4213,150.653h -7.22835" fill="none" stroke="black"/>
<path d="M64.4213,144.49h -7.22835" fill="none" stroke="black"/>
<path d="M64.4213,139.15h -7.22835" fill="none" stroke="black"/>
<path d="M64.4213,134.441h -7.22835" fill="none" stroke="black"/>
<path d="M71.6496,130.228h -14.4567" fill="none" stroke="black"/>
<text xml:space="preserve" x="44.1099" y="129.882" fill="black" font-size="12.1693" font-family="Helvetica">3</text>
<text xml:space="preserve" x="37.4736" y="129.882" fill="black" font-size="12.1693" font-family="Times">&#8722;</text>
<text xml:space="preserve" x="17.5648" y="138.414" fill="black" font-size="18.004" font-family="Helvetica">10</text>
<path d="M64.4213,102.512h -7.22835" fill="none" stroke="black"/>
<path d="M64.4213,86.2998h -7.22835" fill="none" stroke="black"/>
<path d="M64.4213,74.7967h -7.22835" fill="none" stroke="black"/>
<path d="M64.4213,65.8743h -7.22835" fill="none" stroke="black"/>
<path d="M64.4213,58.5841h -7.22835" fill="none" stroke="black"/>
<path d="M64.4213,52.4204h -7.22835" fill="none" stroke="black"/>
<path d="M64.4213,47.0811h -7.22835" fill="none" stroke="black"/>
<path d="M64.4213,42.3716h -7.22835" fill="none" stroke="black"/>
<path d="M71.6496,38.1587h -14.4567" fill="none" stroke="black"/>
<text xml:space="preserve" x="44.1099" y="38.8697" fill="black" font-size="12.1693" font-family="Helvetica">2</text>
<text xml:space="preserve" x="37.4736" y="38.8697" fill="black" font-size="12.1693" font-family="Times">&#8722;</text>
<text xml:space="preserve" x="17.5648" y="46.4541" fill="black" font-size="18.004" font-family="Helvetica">10</text>
<g transform="rotate(-90,-12.7726,107.129)">
<text xml:space="preserve" x="-12.7726" y="107.129" fill="black" font-size="21.5048" font-family="Helvetica"> Parton</text>
</g>
<g transform="rotate(-90,0.5,119.453)">
<text xml:space="preserve" x="0.5" y="119.453" fill="black" font-size="21.5048" font-family="Times">&#0967;</text>
</g>
<g transform="rotate(-90,0.5,130.83)">
<text xml:space="preserve" x="0.5" y="130.83" fill="black" font-size="21.5048" font-family="Helvetica">d</text>
</g>
<g transform="rotate(-90,-23.201,120.401)">
<text xml:space="preserve" x="-23.201" y="120.401" fill="black" font-size="21.5048" font-family="Times">&#0963;</text>
</g>
<g transform="rotate(-90,-23.201,131.778)">
<text xml:space="preserve" x="-23.201" y="131.778" fill="black" font-size="21.5048" font-family="Helvetica">d</text>
</g>
<path d="M465.382,124.336v -31.525" fill="none" stroke="black" stroke-width="2"/>
<path d="M465.382,92.8111v -17.4058" fill="none" stroke="black" stroke-width="2"/>
<path d="M420.028,92.8111h 45.3543" fill="none" stroke="black" stroke-width="2"/>
<path d="M465.382,92.8111h 45.3543" fill="none" stroke="black" stroke-width="2"/>
<g stroke="black" stroke-width="1" fill="none">
<line x1="464.382" y1="92.8111" x2="465.382" y2="92.8111"/>
</g>
<path d="M510.736,103.915l -0.84882, 2.32922" fill="none" stroke="#0000ff"/>
<path d="M510.736,93.9821l -4.4687, 12.2624" fill="none" stroke="#0000ff"/>
<path d="M510.736,84.0489l -8.08858, 22.1956" fill="none" stroke="#0000ff"/>
<path d="M510.736,74.1157l -11.7085, 32.1288" fill="none" stroke="#0000ff"/>
<path d="M510.736,64.1825l -15.3283, 42.062" fill="none" stroke="#0000ff"/>
<path d="M510.736,54.2493l -18.9482, 51.9952" fill="none" stroke="#0000ff"/>
<path d="M510.736,44.3161l -22.5681, 61.9284" fill="none" stroke="#0000ff"/>
<path d="M509.36,38.1587l -24.812, 68.0858" fill="none" stroke="#0000ff"/>
<path d="M505.74,38.1587l -24.812, 68.0858" fill="none" stroke="#0000ff"/>
<path d="M502.12,38.1587l -24.812, 68.0858" fill="none" stroke="#0000ff"/>
<path d="M498.501,38.1587l -24.812, 68.0858" fill="none" stroke="#0000ff"/>
<path d="M494.881,38.1587l -24.812, 68.0858" fill="none" stroke="#0000ff"/>
<path d="M491.261,38.1587l -24.812, 68.0858" fill="none" stroke="#0000ff"/>
<path d="M487.641,38.1587l -24.812, 68.0858" fill="none" stroke="#0000ff"/>
<path d="M484.021,38.1587l -24.812, 68.0858" fill="none" stroke="#0000ff"/>
<path d="M480.401,38.1587l -24.812, 68.0858" fill="none" stroke="#0000ff"/>
<path d="M476.781,38.1587l -24.812, 68.0858" fill="none" stroke="#0000ff"/>
<path d="M473.161,38.1587l -24.812, 68.0858" fill="none" stroke="#0000ff"/>
<path d="M469.542,38.1587l -24.812, 68.0858" fill="none" stroke="#0000ff"/>
<path d="M465.922,38.1587l -24.812, 68.0858" fill="none" stroke="#0000ff"/>
<path d="M462.302,38.1587l -24.812, 68.0858" fill="none" stroke="#0000ff"/>
<path d="M458.682,38.1587l -24.812, 68.0858" fill="none" stroke="#0000ff"/>
<path d="M455.062,38.1587l -24.812, 68.0858" fill="none" stroke="#0000ff"/>
<path d="M451.442,38.1587l -24.812, 68.0858" fill="none" stroke="#0000ff"/>
<path d="M447.822,38.1587l -24.812, 68.0858" fill="none" stroke="#0000ff"/>
<path d="M444.202,38.1587l -24.1748, 66.3374" fill="none" stroke="#0000ff"/>
<path d="M440.583,38.1587l -20.555, 56.4042" fill="none" stroke="#0000ff"/>
<path d="M436.963,38.1587l -16.9351, 46.471" fill="none" stroke="#0000ff"/>
<path d="M433.343,38.1587l -13.3152, 36.5378" fill="none" stroke="#0000ff"/>
<path d="M429.723,38.1587l -9.69532, 26.6046" fill="none" stroke="#0000ff"/>
<path d="M426.103,38.1587l -6.07544, 16.6714" fill="none" stroke="#0000ff"/>
<path d="M422.483,38.1587l -2.45555, 6.73821" fill="none" stroke="#0000ff"/>
<g stroke="#0000ff" stroke-width="1" fill="none">
<line x1="464.382" y1="49.967" x2="465.382" y2="49.967"/>
</g>
<path d="M465.382,50.2562v -0.289165" fill="none" stroke="#0000ff" stroke-width="2"/>
<path d="M465.382,49.967v -0.287089" fill="none" stroke="#0000ff" stroke-width="2"/>
<path d="M420.028,49.967h 45.3543" fill="none" stroke="#0000ff" stroke-width="2"/>
<path d="M465.382,49.967h 45.3543" fill="none" stroke="#0000ff" stroke-width="2"/>
<g stroke="#0000ff" stroke-width="1" fill="none">
<line x1="464.382" y1="49.967" x2="465.382" y2="49.967"/>
</g>
<rect x="334.988" y="41.9746" width="170.079" height="114.476" fill="white"/>
<text xml:space="preserve" x="376.873" y="54.9864" fill="black" font-size="11.3862" font-family="Helvetica">Data</text>
<path d="M356.248,47.7221v -1.93164" fill="none" stroke="black" stroke-width="2"/>
<path d="M356.248,55.3064v 1.93164" fill="none" stroke="black" stroke-width="2"/>
<g fill="black">
<circle cx="356.248" cy="51.5142" r="3.79217"/>
</g>
<text xml:space="preserve" x="376.873" y="73.9473" fill="black" font-size="11.3862" font-family="Helvetica">Total unc.</text>
<path d="M341.366,77.2714h 29.7638v -13.3555h -29.7638z" fill="#cccccc"/>
<path d="M341.366,63.9158h 29.7638" fill="none" stroke="black" stroke-width="2"/>
<path d="M341.366,77.2714h 29.7638" fill="none" stroke="black" stroke-width="2"/>
<path d="M371.13,77.2714v -13.3555" fill="none" stroke="black" stroke-width="2"/>
<path d="M341.366,77.2714v -13.3555" fill="none" stroke="black" stroke-width="2"/>
<text xml:space="preserve" x="376.873" y="93.8562" fill="black" font-size="11.3862" font-family="Helvetica">amc@NLO+Pythia8</text>
<path d="M341.366,89.6729h 29.7638" fill="none" stroke="#ff0000" stroke-width="2"/>
<path d="M356.248,95.3967v -11.4476" fill="none" stroke="#ff0000" stroke-width="2"/>
<text xml:space="preserve" x="376.873" y="112.817" fill="black" font-size="11.3862" font-family="Helvetica">amc@NLO+Pythia8 unc</text>
<path d="M365.604,102.075l 4.86706, 13.3555" fill="none" stroke="#ff0000"/>
<path d="M354.744,102.075l 4.86706, 13.3555" fill="none" stroke="#ff0000"/>
<path d="M343.885,102.075l 4.86706, 13.3555" fill="none" stroke="#ff0000"/>
<path d="M341.366,102.075h 29.7638" fill="none" stroke="#ff0000" stroke-width="2"/>
<path d="M341.366,115.43h 29.7638" fill="none" stroke="#ff0000" stroke-width="2"/>
<path d="M371.13,115.43v -13.3555" fill="none" stroke="#ff0000" stroke-width="2"/>
<path d="M341.366,115.43v -13.3555" fill="none" stroke="#ff0000" stroke-width="2"/>
<text xml:space="preserve" x="376.873" y="131.778" fill="black" font-size="11.3862" font-family="Helvetica">Powheg+Pythia8</text>
<path d="M341.366,127.832h 29.7638" fill="none" stroke="#0000ff" stroke-width="2"/>
<path d="M356.248,133.555v -11.4476" fill="none" stroke="#0000ff" stroke-width="2"/>
<text xml:space="preserve" x="376.873" y="150.739" fill="black" font-size="11.3862" font-family="Helvetica">Powheg+Pythia8 unc</text>
<path d="M371.13,149.276l -1.57173, 4.31293" fill="none" stroke="#0000ff"/>
<path d="M370.805,140.233l -4.86706, 13.3555" fill="none" stroke="#0000ff"/>
<path d="M367.185,140.233l -4.86706, 13.3555" fill="none" stroke="#0000ff"/>
<path d="M363.566,140.233l -4.86706, 13.3555" fill="none" stroke="#0000ff"/>
<path d="M359.946,140.233l -4.86706, 13.3555" fill="none" stroke="#0000ff"/>
<path d="M356.326,140.233l -4.86706, 13.3555" fill="none" stroke="#0000ff"/>
<path d="M352.706,140.233l -4.86706, 13.3555" fill="none" stroke="#0000ff"/>
<path d="M349.086,140.233l -4.86706, 13.3555" fill="none" stroke="#0000ff"/>
<path d="M345.466,140.233l -4.10007, 11.2509" fill="none" stroke="#0000ff"/>
<path d="M341.846,140.233l -0.480187, 1.31767" fill="none" stroke="#0000ff"/>
<path d="M341.366,140.233h 29.7638" fill="none" stroke="#0000ff" stroke-width="2"/>
<path d="M341.366,153.589h 29.7638" fill="none" stroke="#0000ff" stroke-width="2"/>
<path d="M371.13,153.589v -13.3555" fill="none" stroke="#0000ff" stroke-width="2"/>
<path d="M341.366,153.589v -13.3555" fill="none" stroke="#0000ff" stroke-width="2"/>
<text xml:space="preserve" x="57.1929" y="30.527" fill="black" font-size="26.756" font-family="Helvetica" font-weight="bold">CMS</text>
<text xml:space="preserve" x="77.2914" y="30.3373" fill="black" font-size="20.4545" font-family="Helvetica" font-style="oblique">Work in progress</text>
<text xml:space="preserve" x="212.861" y="18.0128" fill="black" font-size="17.356" font-family="Helvetica">unfoldedHistogram</text>
<rect x="0.5" y="381.587" width="566.929" height="136.281" fill="white"/>
<rect x="57.1929" y="385.675" width="453.543" height="102.211" fill="white"/>
<rect x="57.1929" y="385.675" width="453.543" height="102.211" fill="none" stroke="black"/>
<rect x="57.1929" y="385.675" width="453.543" height="102.211" fill="white"/>
<rect x="57.1929" y="385.675" width="453.543" height="102.211" fill="none" stroke="black"/>
<path d="M57.1929,487.886h 453.543" fill="none" stroke="black"/>
<path d="M57.1929,487.886v -102.211" fill="none" stroke="black"/>
<path d="M510.736,487.886h -453.543" fill="none" stroke="black" stroke-dasharray=" 1, 2"/>
<path d="M510.736,462.333h -453.543" fill="none" stroke="black" stroke-dasharray=" 1, 2"/>
<path d="M510.736,436.781h -453.543" fill="none" stroke="black" stroke-dasharray=" 1, 2"/>
<path d="M510.736,411.228h -453.543" fill="none" stroke="black" stroke-dasharray=" 1, 2"/>
<path d="M510.736,385.675h -453.543" fill="none" stroke="black" stroke-dasharray=" 1, 2"/>
<rect x="57.1929" y="430.342" width="30.2362" height="12.8767" fill="#cccccc"/>
<g fill="black">
<circle cx="72.311" cy="436.781" r="3.79217"/>
</g>
<rect x="87.4291" y="429.885" width="30.2362" height="13.7912" fill="#cccccc"/>
<g fill="black">
<circle cx="102.547" cy="436.781" r="3.79217"/>
</g>
<rect x="117.665" y="428.329" width="30.2362" height="16.9028" fill="#cccccc"/>
<g fill="black">
<circle cx="132.783" cy="436.781" r="3.79217"/>
</g>
<rect x="147.902" y="426.419" width="30.2362" height="20.7241" fill="#cccccc"/>
<g fill="black">
<circle cx="163.02" cy="436.781" r="3.79217"/>
</g>
<rect x="178.138" y="426.495" width="30.2362" height="20.5716" fill="#cccccc"/>
<g fill="black">
<circle cx="193.256" cy="436.781" r="3.79217"/>
</g>
<rect x="208.374" y="425.489" width="30.2362" height="22.5829" fill="#cccccc"/>
<g fill="black">
<circle cx="223.492" cy="436.781" r="3.79217"/>
</g>
<rect x="238.61" y="419.542" width="30.2362" height="34.4769" fill="#cccccc"/>
<g fill="black">
<circle cx="253.728" cy="436.781" r="3.79217"/>
</g>
<rect x="268.846" y="420.52" width="30.2362" height="32.5223" fill="#cccccc"/>
<g fill="black">
<circle cx="283.965" cy="436.781" r="3.79217"/>
</g>
<rect x="299.083" y="419.201" width="30.2362" height="35.1603" fill="#cccccc"/>
<g fill="black">
<circle cx="314.201" cy="436.781" r="3.79217"/>
</g>
<rect x="329.319" y="416.807" width="90.7087" height="39.9472" fill="#cccccc"/>
<g fill="black">
<circle cx="374.673" cy="436.781" r="3.79217"/>
</g>
<rect x="420.028" y="412.066" width="90.7087" height="49.4292" fill="#cccccc"/>
<g fill="black">
<circle cx="465.382" cy="436.781" r="3.79217"/>
</g>
<path d="M57.1929,487.886h 453.543" fill="none" stroke="black"/>
<path d="M87.4291,484.615v 3.27075" fill="none" stroke="black"/>
<path d="M102.547,486.251v 1.63537" fill="none" stroke="black"/>
<path d="M117.665,486.251v 1.63537" fill="none" stroke="black"/>
<path d="M132.783,486.251v 1.63537" fill="none" stroke="black"/>
<path d="M147.902,484.615v 3.27075" fill="none" stroke="black"/>
<path d="M163.02,486.251v 1.63537" fill="none" stroke="black"/>
<path d="M178.138,486.251v 1.63537" fill="none" stroke="black"/>
<path d="M193.256,486.251v 1.63537" fill="none" stroke="black"/>
<path d="M208.374,484.615v 3.27075" fill="none" stroke="black"/>
<path d="M223.492,486.251v 1.63537" fill="none" stroke="black"/>
<path d="M238.61,486.251v 1.63537" fill="none" stroke="black"/>
<path d="M253.728,486.251v 1.63537" fill="none" stroke="black"/>
<path d="M268.846,484.615v 3.27075" fill="none" stroke="black"/>
<path d="M283.965,486.251v 1.63537" fill="none" stroke="black"/>
<path d="M299.083,486.251v 1.63537" fill="none" stroke="black"/>
<path d="M314.201,486.251v 1.63537" fill="none" stroke="black"/>
<path d="M329.319,484.615v 3.27075" fill="none" stroke="black"/>
<path d="M344.437,486.251v 1.63537" fill="none" stroke="black"/>
<path d="M359.555,486.251v 1.63537" fill="none" stroke="black"/>
<path d="M374.673,486.251v 1.63537" fill="none" stroke="black"/>
<path d="M389.791,484.615v 3.27075" fill="none" stroke="black"/>
<path d="M404.909,486.251v 1.63537" fill="none" stroke="black"/>
<path d="M420.028,486.251v 1.63537" fill="none" stroke="black"/>
<path d="M435.146,486.251v 1.63537" fill="none" stroke="black"/>
<path d="M450.264,484.615v 3.27075" fill="none" stroke="black"/>
<path d="M465.382,486.251v 1.63537" fill="none" stroke="black"/>
<path d="M480.5,486.251v 1.63537" fill="none" stroke="black"/>
<path d="M495.618,486.251v 1.63537" fill="none" stroke="black"/>
<path d="M510.736,484.615v 3.27075" fill="none" stroke="black"/>
<path d="M87.4291,484.615v 3.27075" fill="none" stroke="black"/>
<path d="M72.311,486.251v 1.63537" fill="none" stroke="black"/>
<path d="M57.1929,486.251v 1.63537" fill="none" stroke="black"/>
<text xml:space="preserve" x="82.0316" y="502.462" fill="black" font-size="15.5034" font-family="Helvetica">2</text>
<text xml:space="preserve" x="142.706" y="502.462" fill="black" font-size="15.5034" font-family="Helvetica">4</text>
<text xml:space="preserve" x="203.381" y="502.462" fill="black" font-size="15.5034" font-family="Helvetica">6</text>
<text xml:space="preserve" x="264.056" y="502.462" fill="black" font-size="15.5034" font-family="Helvetica">8</text>
<text xml:space="preserve" x="319.99" y="502.462" fill="black" font-size="15.5034" font-family="Helvetica">10</text>
<text xml:space="preserve" x="380.665" y="502.462" fill="black" font-size="15.5034" font-family="Helvetica">12</text>
<text xml:space="preserve" x="441.34" y="502.462" fill="black" font-size="15.5034" font-family="Helvetica">14</text>
<text xml:space="preserve" x="502.014" y="502.462" fill="black" font-size="15.5034" font-family="Helvetica">16</text>
<text xml:space="preserve" x="351.276" y="517.631" fill="black" font-size="14.8783" font-family="Helvetica">Leading particle Pt (GeV)</text>
<path d="M57.1929,487.886v -102.211" fill="none" stroke="black"/>
<path d="M69.9488,487.886h -12.7559" fill="none" stroke="black"/>
<path d="M63.5709,482.776h -6.37795" fill="none" stroke="black"/>
<path d="M63.5709,477.665h -6.37795" fill="none" stroke="black"/>
<path d="M63.5709,472.555h -6.37795" fill="none" stroke="black"/>
<path d="M63.5709,467.444h -6.37795" fill="none" stroke="black"/>
<path d="M69.9488,462.333h -12.7559" fill="none" stroke="black"/>
<path d="M63.5709,457.223h -6.37795" fill="none" stroke="black"/>
<path d="M63.5709,452.112h -6.37795" fill="none" stroke="black"/>
<path d="M63.5709,447.002h -6.37795" fill="none" stroke="black"/>
<path d="M63.5709,441.891h -6.37795" fill="none" stroke="black"/>
<path d="M69.9488,436.781h -12.7559" fill="none" stroke="black"/>
<path d="M63.5709,431.67h -6.37795" fill="none" stroke="black"/>
<path d="M63.5709,426.56h -6.37795" fill="none" stroke="black"/>
<path d="M63.5709,421.449h -6.37795" fill="none" stroke="black"/>
<path d="M63.5709,416.339h -6.37795" fill="none" stroke="black"/>
<path d="M69.9488,411.228h -12.7559" fill="none" stroke="black"/>
<path d="M63.5709,406.118h -6.37795" fill="none" stroke="black"/>
<path d="M63.5709,401.007h -6.37795" fill="none" stroke="black"/>
<path d="M63.5709,395.896h -6.37795" fill="none" stroke="black"/>
<path d="M63.5709,390.786h -6.37795" fill="none" stroke="black"/>
<path d="M69.9488,385.675h -12.7559" fill="none" stroke="black"/>
<text xml:space="preserve" x="46.006" y="492.982" fill="black" font-size="13.0028" font-family="Helvetica">2</text>
<text xml:space="preserve" x="38.4217" y="492.982" fill="black" font-size="13.0028" font-family="Times">&#8722;</text>
<text xml:space="preserve" x="47.9021" y="467.385" fill="black" font-size="13.0028" font-family="Helvetica">1</text>
<text xml:space="preserve" x="40.3178" y="467.385" fill="black" font-size="13.0028" font-family="Times">&#8722;</text>
<text xml:space="preserve" x="46.006" y="440.84" fill="black" font-size="13.0028" font-family="Helvetica">0</text>
<text xml:space="preserve" x="47.9021" y="416.19" fill="black" font-size="13.0028" font-family="Helvetica">1</text>
<text xml:space="preserve" x="46.006" y="390.593" fill="black" font-size="13.0028" font-family="Helvetica">2</text>
<g transform="rotate(-90,26.0971,474.969)">
<text xml:space="preserve" x="26.0971" y="474.969" fill="black" font-size="14.8783" font-family="Helvetica">The./data - 1</text>
</g>
<path d="M72.311,437.708v -0.927604" fill="none" stroke="black" stroke-width="2"/>
<path d="M72.311,436.781v -0.927604" fill="none" stroke="black" stroke-width="2"/>
<path d="M57.1929,436.781h 15.1181" fill="none" stroke="black" stroke-width="2"/>
<path d="M72.311,436.781h 15.1181" fill="none" stroke="black" stroke-width="2"/>
<g stroke="black" stroke-width="1" fill="none">
<line x1="71.311" y1="436.781" x2="72.311" y2="436.781"/>
</g>
<path d="M102.547,438.007v -1.2266" fill="none" stroke="black" stroke-width="2"/>
<path d="M102.547,436.781v -1.2266" fill="none" stroke="black" stroke-width="2"/>
<path d="M87.4291,436.781h 15.1181" fill="none" stroke="black" stroke-width="2"/>
<path d="M102.547,436.781h 15.1181" fill="none" stroke="black" stroke-width="2"/>
<g stroke="black" stroke-width="1" fill="none">
<line x1="101.547" y1="436.781" x2="102.547" y2="436.781"/>
</g>
<path d="M132.783,438.508v -1.72752" fill="none" stroke="black" stroke-width="2"/>
<path d="M132.783,436.781v -1.72752" fill="none" stroke="black" stroke-width="2"/>
<path d="M117.665,436.781h 15.1181" fill="none" stroke="black" stroke-width="2"/>
<path d="M132.783,436.781h 15.1181" fill="none" stroke="black" stroke-width="2"/>
<g stroke="black" stroke-width="1" fill="none">
<line x1="131.783" y1="436.781" x2="132.783" y2="436.781"/>
</g>
<path d="M163.02,439.236v -2.4552" fill="none" stroke="black" stroke-width="2"/>
<path d="M163.02,436.781v -2.4552" fill="none" stroke="black" stroke-width="2"/>
<path d="M147.902,436.781h 15.1181" fill="none" stroke="black" stroke-width="2"/>
<path d="M163.02,436.781h 15.1181" fill="none" stroke="black" stroke-width="2"/>
<g stroke="black" stroke-width="1" fill="none">
<line x1="162.02" y1="436.781" x2="163.02" y2="436.781"/>
</g>
<path d="M193.256,440.149v -3.36791" fill="none" stroke="black" stroke-width="2"/>
<path d="M193.256,436.781v -3.36791" fill="none" stroke="black" stroke-width="2"/>
<path d="M178.138,436.781h 15.1181" fill="none" stroke="black" stroke-width="2"/>
<path d="M193.256,436.781h 15.1181" fill="none" stroke="black" stroke-width="2"/>
<g stroke="black" stroke-width="1" fill="none">
<line x1="192.256" y1="436.781" x2="193.256" y2="436.781"/>
</g>
<path d="M223.492,441.758v -4.97722" fill="none" stroke="black" stroke-width="2"/>
<path d="M223.492,436.781v -4.97722" fill="none" stroke="black" stroke-width="2"/>
<path d="M208.374,436.781h 15.1181" fill="none" stroke="black" stroke-width="2"/>
<path d="M223.492,436.781h 15.1181" fill="none" stroke="black" stroke-width="2"/>
<g stroke="black" stroke-width="1" fill="none">
<line x1="222.492" y1="436.781" x2="223.492" y2="436.781"/>
</g>
<path d="M253.728,443.518v -6.73764" fill="none" stroke="black" stroke-width="2"/>
<path d="M253.728,436.781v -6.73764" fill="none" stroke="black" stroke-width="2"/>
<path d="M238.61,436.781h 15.1181" fill="none" stroke="black" stroke-width="2"/>
<path d="M253.728,436.781h 15.1181" fill="none" stroke="black" stroke-width="2"/>
<g stroke="black" stroke-width="1" fill="none">
<line x1="252.728" y1="436.781" x2="253.728" y2="436.781"/>
</g>
<path d="M283.965,446.945v -10.1641" fill="none" stroke="black" stroke-width="2"/>
<path d="M283.965,436.781v -10.1641" fill="none" stroke="black" stroke-width="2"/>
<path d="M268.846,436.781h 15.1181" fill="none" stroke="black" stroke-width="2"/>
<path d="M283.965,436.781h 15.1181" fill="none" stroke="black" stroke-width="2"/>
<g stroke="black" stroke-width="1" fill="none">
<line x1="282.965" y1="436.781" x2="283.965" y2="436.781"/>
</g>
<path d="M314.201,450.321v -13.5407" fill="none" stroke="black" stroke-width="2"/>
<path d="M314.201,436.781v -13.5407" fill="none" stroke="black" stroke-width="2"/>
<path d="M299.083,436.781h 15.1181" fill="none" stroke="black" stroke-width="2"/>
<path d="M314.201,436.781h 15.1181" fill="none" stroke="black" stroke-width="2"/>
<g stroke="black" stroke-width="1" fill="none">
<line x1="313.201" y1="436.781" x2="314.201" y2="436.781"/>
</g>
<path d="M374.673,444.685v -7.90426" fill="none" stroke="black" stroke-width="2"/>
<path d="M374.673,436.781v -7.90426" fill="none" stroke="black" stroke-width="2"/>
<path d="M329.319,436.781h 45.3543" fill="none" stroke="black" stroke-width="2"/>
<path d="M374.673,436.781h 45.3543" fill="none" stroke="black" stroke-width="2"/>
<g stroke="black" stroke-width="1" fill="none">
<line x1="373.673" y1="436.781" x2="374.673" y2="436.781"/>
</g>
<path d="M465.382,456.491v -19.7104" fill="none" stroke="black" stroke-width="2"/>
<path d="M465.382,436.781v -19.7104" fill="none" stroke="black" stroke-width="2"/>
<path d="M420.028,436.781h 45.3543" fill="none" stroke="black" stroke-width="2"/>
<path d="M465.382,436.781h 45.3543" fill="none" stroke="black" stroke-width="2"/>
<g stroke="black" stroke-width="1" fill="none">
<line x1="464.382" y1="436.781" x2="465.382" y2="436.781"/>
</g>
<path d="M87.4291,428.371l -2.5344, 6.95113" fill="none" stroke="#0000ff"/>
<path d="M87.3818,418.572l -6.10696, 16.7496" fill="none" stroke="#0000ff"/>
<path d="M83.7619,418.572l -6.10696, 16.7496" fill="none" stroke="#0000ff"/>
<path d="M80.1421,418.572l -6.10696, 16.7496" fill="none" stroke="#0000ff"/>
<path d="M76.5222,418.572l -6.10696, 16.7496" fill="none" stroke="#0000ff"/>
<path d="M72.9023,418.572l -6.10696, 16.7496" fill="none" stroke="#0000ff"/>
<path d="M69.2824,418.572l -6.10696, 16.7496" fill="none" stroke="#0000ff"/>
<path d="M65.6625,418.572l -6.10696, 16.7496" fill="none" stroke="#0000ff"/>
<path d="M62.0426,418.572l -4.84973, 13.3014" fill="none" stroke="#0000ff"/>
<path d="M58.4228,418.572l -1.22985, 3.37313" fill="none" stroke="#0000ff"/>
<g stroke="#0000ff" stroke-width="1" fill="none">
<line x1="71.311" y1="426.947" x2="72.311" y2="426.947"/>
</g>
<path d="M117.665,434.796l -0.829463, 2.27498" fill="none" stroke="#0000ff"/>
<path d="M117.665,424.868l -4.44934, 12.2032" fill="none" stroke="#0000ff"/>
<path d="M117.665,414.94l -8.06922, 22.1315" fill="none" stroke="#0000ff"/>
<path d="M114.323,414.178l -8.34679, 22.8928" fill="none" stroke="#0000ff"/>
<path d="M110.703,414.178l -8.34679, 22.8928" fill="none" stroke="#0000ff"/>
<path d="M107.083,414.178l -8.34679, 22.8928" fill="none" stroke="#0000ff"/>
<path d="M103.463,414.178l -8.34679, 22.8928" fill="none" stroke="#0000ff"/>
<path d="M99.8435,414.178l -8.34679, 22.8928" fill="none" stroke="#0000ff"/>
<path d="M96.2236,414.178l -8.34679, 22.8928" fill="none" stroke="#0000ff"/>
<path d="M92.6038,414.178l -5.17462, 14.1925" fill="none" stroke="#0000ff"/>
<path d="M88.9839,414.178l -1.55474, 4.2642" fill="none" stroke="#0000ff"/>
<g stroke="#0000ff" stroke-width="1" fill="none">
<line x1="101.547" y1="425.625" x2="102.547" y2="425.625"/>
</g>
<path d="M147.902,431.293l -3.24613, 8.9032" fill="none" stroke="#0000ff"/>
<path d="M147.902,421.365l -6.86601, 18.8315" fill="none" stroke="#0000ff"/>
<path d="M147.895,411.455l -10.4792, 28.7415" fill="none" stroke="#0000ff"/>
<path d="M144.275,411.455l -10.4792, 28.7415" fill="none" stroke="#0000ff"/>
<path d="M140.655,411.455l -10.4792, 28.7415" fill="none" stroke="#0000ff"/>
<path d="M137.035,411.455l -10.4792, 28.7415" fill="none" stroke="#0000ff"/>
<path d="M133.415,411.455l -10.4792, 28.7415" fill="none" stroke="#0000ff"/>
<path d="M129.796,411.455l -10.4792, 28.7415" fill="none" stroke="#0000ff"/>
<path d="M126.176,411.455l -8.51028, 23.3412" fill="none" stroke="#0000ff"/>
<path d="M122.556,411.455l -4.8904, 13.4129" fill="none" stroke="#0000ff"/>
<path d="M118.936,411.455l -1.27052, 3.48466" fill="none" stroke="#0000ff"/>
<g stroke="#0000ff" stroke-width="1" fill="none">
<line x1="131.783" y1="425.826" x2="132.783" y2="425.826"/>
</g>
<path d="M178.138,437.719l -1.94538, 5.3356" fill="none" stroke="#0000ff"/>
<path d="M178.138,427.79l -5.56526, 15.2639" fill="none" stroke="#0000ff"/>
<path d="M178.138,417.862l -9.18514, 25.1921" fill="none" stroke="#0000ff"/>
<path d="M177.415,409.915l -12.0826, 33.139" fill="none" stroke="#0000ff"/>
<path d="M173.795,409.915l -12.0826, 33.139" fill="none" stroke="#0000ff"/>
<path d="M170.176,409.915l -12.0826, 33.139" fill="none" stroke="#0000ff"/>
<path d="M166.556,409.915l -12.0826, 33.139" fill="none" stroke="#0000ff"/>
<path d="M162.936,409.915l -12.0826, 33.139" fill="none" stroke="#0000ff"/>
<path d="M159.316,409.915l -11.4144, 31.3063" fill="none" stroke="#0000ff"/>
<path d="M155.696,409.915l -7.79451, 21.3781" fill="none" stroke="#0000ff"/>
<path d="M152.076,409.915l -4.17463, 11.4498" fill="none" stroke="#0000ff"/>
<path d="M148.456,409.915l -0.554751, 1.52152" fill="none" stroke="#0000ff"/>
<g stroke="#0000ff" stroke-width="1" fill="none">
<line x1="162.02" y1="426.485" x2="163.02" y2="426.485"/>
</g>
<path d="M208.374,444.144l -0.136008, 0.373031" fill="none" stroke="#0000ff"/>
<path d="M208.374,434.216l -3.75589, 10.3013" fill="none" stroke="#0000ff"/>
<path d="M208.374,424.287l -7.37577, 20.2296" fill="none" stroke="#0000ff"/>
<path d="M208.374,414.359l -10.9956, 30.1579" fill="none" stroke="#0000ff"/>
<path d="M207.581,406.605l -13.8229, 37.9122" fill="none" stroke="#0000ff"/>
<path d="M203.962,406.605l -13.8229, 37.9122" fill="none" stroke="#0000ff"/>
<path d="M200.342,406.605l -13.8229, 37.9122" fill="none" stroke="#0000ff"/>
<path d="M196.722,406.605l -13.8229, 37.9122" fill="none" stroke="#0000ff"/>
<path d="M193.102,406.605l -13.8229, 37.9122" fill="none" stroke="#0000ff"/>
<path d="M189.482,406.605l -11.3442, 31.1138" fill="none" stroke="#0000ff"/>
<path d="M185.862,406.605l -7.7243, 21.1855" fill="none" stroke="#0000ff"/>
<path d="M182.242,406.605l -4.10442, 11.2572" fill="none" stroke="#0000ff"/>
<path d="M178.622,406.605l -0.484544, 1.32896" fill="none" stroke="#0000ff"/>
<g stroke="#0000ff" stroke-width="1" fill="none">
<line x1="192.256" y1="425.561" x2="193.256" y2="425.561"/>
</g>
<path d="M238.61,440.641l -1.38438, 3.79694" fill="none" stroke="#0000ff"/>
<path d="M238.61,430.713l -5.00426, 13.7252" fill="none" stroke="#0000ff"/>
<path d="M238.61,420.785l -8.62414, 23.6535" fill="none" stroke="#0000ff"/>
<path d="M238.61,410.856l -12.244, 33.5818" fill="none" stroke="#0000ff"/>
<path d="M238.61,400.928l -15.8639, 43.51" fill="none" stroke="#0000ff"/>
<path d="M237.269,394.677l -18.1429, 49.7607" fill="none" stroke="#0000ff"/>
<path d="M233.65,394.677l -18.1429, 49.7607" fill="none" stroke="#0000ff"/>
<path d="M230.03,394.677l -18.1429, 49.7607" fill="none" stroke="#0000ff"/>
<path d="M226.41,394.677l -18.0357, 49.4667" fill="none" stroke="#0000ff"/>
<path d="M222.79,394.677l -14.4158, 39.5385" fill="none" stroke="#0000ff"/>
<path d="M219.17,394.677l -10.796, 29.6102" fill="none" stroke="#0000ff"/>
<path d="M215.55,394.677l -7.17609, 19.6819" fill="none" stroke="#0000ff"/>
<path d="M211.93,394.677l -3.55621, 9.75363" fill="none" stroke="#0000ff"/>
<g stroke="#0000ff" stroke-width="1" fill="none">
<line x1="222.492" y1="419.558" x2="223.492" y2="419.558"/>
</g>
<path d="M268.846,447.066l -0.48488, 1.32988" fill="none" stroke="#0000ff"/>
<path d="M268.846,437.138l -4.10476, 11.2582" fill="none" stroke="#0000ff"/>
<path d="M268.846,427.21l -7.72464, 21.1864" fill="none" stroke="#0000ff"/>
<path d="M268.846,417.282l -11.3445, 31.1147" fill="none" stroke="#0000ff"/>
<path d="M268.846,407.353l -14.9644, 41.043" fill="none" stroke="#0000ff"/>
<path d="M267.725,400.501l -17.4627, 47.8952" fill="none" stroke="#0000ff"/>
<path d="M264.105,400.501l -17.4627, 47.8952" fill="none" stroke="#0000ff"/>
<path d="M260.485,400.501l -17.4627, 47.8952" fill="none" stroke="#0000ff"/>
<path d="M256.865,400.501l -17.4627, 47.8952" fill="none" stroke="#0000ff"/>
<path d="M253.245,400.501l -14.6352, 40.1399" fill="none" stroke="#0000ff"/>
<path d="M249.626,400.501l -11.0153, 30.2117" fill="none" stroke="#0000ff"/>
<path d="M246.006,400.501l -7.39539, 20.2834" fill="none" stroke="#0000ff"/>
<path d="M242.386,400.501l -3.77551, 10.3551" fill="none" stroke="#0000ff"/>
<path d="M238.766,400.501l -0.155629, 0.426846" fill="none" stroke="#0000ff"/>
<g stroke="#0000ff" stroke-width="1" fill="none">
<line x1="252.728" y1="424.449" x2="253.728" y2="424.449"/>
</g>
<path d="M299.083,443.564l -2.26357, 6.2083" fill="none" stroke="#0000ff"/>
<path d="M299.083,433.635l -5.88345, 16.1366" fill="none" stroke="#0000ff"/>
<path d="M299.083,423.707l -9.50333, 26.0648" fill="none" stroke="#0000ff"/>
<path d="M299.083,413.779l -13.1232, 35.9931" fill="none" stroke="#0000ff"/>
<path d="M299.083,403.85l -16.7431, 45.9214" fill="none" stroke="#0000ff"/>
<path d="M299.083,393.922l -20.363, 55.8497" fill="none" stroke="#0000ff"/>
<path d="M297.252,389.014l -22.1525, 60.7579" fill="none" stroke="#0000ff"/>
<path d="M293.632,389.014l -22.1525, 60.7579" fill="none" stroke="#0000ff"/>
<path d="M290.013,389.014l -21.1661, 58.0525" fill="none" stroke="#0000ff"/>
<path d="M286.393,389.014l -17.5462, 48.1242" fill="none" stroke="#0000ff"/>
<path d="M282.773,389.014l -13.9264, 38.1959" fill="none" stroke="#0000ff"/>
<path d="M279.153,389.014l -10.3065, 28.2677" fill="none" stroke="#0000ff"/>
<path d="M275.533,389.014l -6.6866, 18.3394" fill="none" stroke="#0000ff"/>
<path d="M271.913,389.014l -3.06672, 8.41112" fill="none" stroke="#0000ff"/>
<g stroke="#0000ff" stroke-width="1" fill="none">
<line x1="282.965" y1="419.393" x2="283.965" y2="419.393"/>
</g>
<path d="M329.319,449.989l -0.377935, 1.03656" fill="none" stroke="#0000ff"/>
<path d="M329.319,440.061l -3.99782, 10.9648" fill="none" stroke="#0000ff"/>
<path d="M329.319,430.132l -7.6177, 20.8931" fill="none" stroke="#0000ff"/>
<path d="M329.319,420.204l -11.2376, 30.8214" fill="none" stroke="#0000ff"/>
<path d="M329.319,410.276l -14.8575, 40.7497" fill="none" stroke="#0000ff"/>
<path d="M329.319,400.347l -18.4773, 50.6779" fill="none" stroke="#0000ff"/>
<path d="M329.319,390.419l -22.0972, 60.6062" fill="none" stroke="#0000ff"/>
<path d="M327.429,385.675l -23.8268, 65.35" fill="none" stroke="#0000ff"/>
<path d="M323.809,385.675l -23.8268, 65.35" fill="none" stroke="#0000ff"/>
<path d="M320.189,385.675l -21.1062, 57.8881" fill="none" stroke="#0000ff"/>
<path d="M316.569,385.675l -17.4863, 47.9599" fill="none" stroke="#0000ff"/>
<path d="M312.949,385.675l -13.8664, 38.0316" fill="none" stroke="#0000ff"/>
<path d="M309.329,385.675l -10.2466, 28.1033" fill="none" stroke="#0000ff"/>
<path d="M305.709,385.675l -6.62668, 18.175" fill="none" stroke="#0000ff"/>
<path d="M302.089,385.675l -3.0068, 8.24676" fill="none" stroke="#0000ff"/>
<g stroke="#0000ff" stroke-width="1" fill="none">
<line x1="313.201" y1="411.069" x2="314.201" y2="411.069"/>
</g>
<path d="M420.028,449.408l -1.09205, 2.99519" fill="none" stroke="#0000ff"/>
<path d="M420.028,439.48l -4.71193, 12.9235" fill="none" stroke="#0000ff"/>
<path d="M420.028,429.552l -8.33181, 22.8517" fill="none" stroke="#0000ff"/>
<path d="M420.028,419.624l -11.9517, 32.78" fill="none" stroke="#0000ff"/>
<path d="M420.028,409.695l -15.5716, 42.7083" fill="none" stroke="#0000ff"/>
<path d="M420.028,399.767l -19.1915, 52.6366" fill="none" stroke="#0000ff"/>
<path d="M419.362,391.664l -22.1457, 60.7391" fill="none" stroke="#0000ff"/>
<path d="M415.742,391.664l -22.1457, 60.7391" fill="none" stroke="#0000ff"/>
<path d="M412.122,391.664l -22.1457, 60.7391" fill="none" stroke="#0000ff"/>
<path d="M408.502,391.664l -22.1457, 60.7391" fill="none" stroke="#0000ff"/>
<path d="M404.882,391.664l -22.1457, 60.7391" fill="none" stroke="#0000ff"/>
<path d="M401.262,391.664l -22.1457, 60.7391" fill="none" stroke="#0000ff"/>
<path d="M397.643,391.664l -22.1457, 60.7391" fill="none" stroke="#0000ff"/>
<path d="M394.023,391.664l -22.1457, 60.7391" fill="none" stroke="#0000ff"/>
<path d="M390.403,391.664l -22.1457, 60.7391" fill="none" stroke="#0000ff"/>
<path d="M386.783,391.664l -22.1457, 60.7391" fill="none" stroke="#0000ff"/>
<path d="M383.163,391.664l -22.1457, 60.7391" fill="none" stroke="#0000ff"/>
<path d="M379.543,391.664l -22.1457, 60.7391" fill="none" stroke="#0000ff"/>
<path d="M375.923,391.664l -22.1457, 60.7391" fill="none" stroke="#0000ff"/>
<path d="M372.303,391.664l -22.1457, 60.7391" fill="none" stroke="#0000ff"/>
<path d="M368.684,391.664l -22.1457, 60.7391" fill="none" stroke="#0000ff"/>
<path d="M365.064,391.664l -22.1457, 60.7391" fill="none" stroke="#0000ff"/>
<path d="M361.444,391.664l -22.1457, 60.7391" fill="none" stroke="#0000ff"/>
<path d="M357.824,391.664l -22.1457, 60.7391" fill="none" stroke="#0000ff"/>
<path d="M354.204,391.664l -22.1457, 60.7391" fill="none" stroke="#0000ff"/>
<path d="M350.584,391.664l -21.2653, 58.3244" fill="none" stroke="#0000ff"/>
<path d="M346.964,391.664l -17.6454, 48.3961" fill="none" stroke="#0000ff"/>
<path d="M343.344,391.664l -14.0255, 38.4679" fill="none" stroke="#0000ff"/>
<path d="M339.725,391.664l -10.4056, 28.5396" fill="none" stroke="#0000ff"/>
<path d="M336.105,391.664l -6.78575, 18.6113" fill="none" stroke="#0000ff"/>
<path d="M332.485,391.664l -3.16587, 8.68306" fill="none" stroke="#0000ff"/>
<g stroke="#0000ff" stroke-width="1" fill="none">
<line x1="373.673" y1="422.034" x2="374.673" y2="422.034"/>
</g>
<path d="M510.736,448.828l -3.0636, 8.40257" fill="none" stroke="#0000ff"/>
<path d="M510.736,438.9l -6.68348, 18.3308" fill="none" stroke="#0000ff"/>
<path d="M510.736,428.971l -10.3034, 28.2591" fill="none" stroke="#0000ff"/>
<path d="M510.736,419.043l -13.9232, 38.1874" fill="none" stroke="#0000ff"/>
<path d="M510.736,409.115l -17.5431, 48.1157" fill="none" stroke="#0000ff"/>
<path d="M510.736,399.186l -21.163, 58.0439" fill="none" stroke="#0000ff"/>
<path d="M510.736,389.258l -24.7829, 67.9722" fill="none" stroke="#0000ff"/>
<path d="M508.423,385.675l -26.0892, 71.555" fill="none" stroke="#0000ff"/>
<path d="M504.803,385.675l -26.0892, 71.555" fill="none" stroke="#0000ff"/>
<path d="M501.183,385.675l -26.0892, 71.555" fill="none" stroke="#0000ff"/>
<path d="M497.563,385.675l -26.0892, 71.555" fill="none" stroke="#0000ff"/>
<path d="M493.943,385.675l -26.0892, 71.555" fill="none" stroke="#0000ff"/>
<path d="M490.323,385.675l -26.0892, 71.555" fill="none" stroke="#0000ff"/>
<path d="M486.703,385.675l -26.0892, 71.555" fill="none" stroke="#0000ff"/>
<path d="M483.083,385.675l -26.0892, 71.555" fill="none" stroke="#0000ff"/>
<path d="M479.464,385.675l -26.0892, 71.555" fill="none" stroke="#0000ff"/>
<path d="M475.844,385.675l -26.0892, 71.555" fill="none" stroke="#0000ff"/>
<path d="M472.224,385.675l -26.0892, 71.555" fill="none" stroke="#0000ff"/>
<path d="M468.604,385.675l -26.0892, 71.555" fill="none" stroke="#0000ff"/>
<path d="M464.984,385.675l -26.0892, 71.555" fill="none" stroke="#0000ff"/>
<path d="M461.364,385.675l -26.0892, 71.555" fill="none" stroke="#0000ff"/>
<path d="M457.744,385.675l -26.0892, 71.555" fill="none" stroke="#0000ff"/>
<path d="M454.124,385.675l -26.0892, 71.555" fill="none" stroke="#0000ff"/>
<path d="M450.505,385.675l -26.0892, 71.555" fill="none" stroke="#0000ff"/>
<path d="M446.885,385.675l -26.0892, 71.555" fill="none" stroke="#0000ff"/>
<path d="M443.265,385.675l -23.2372, 63.733" fill="none" stroke="#0000ff"/>
<path d="M439.645,385.675l -19.6174, 53.8047" fill="none" stroke="#0000ff"/>
<path d="M436.025,385.675l -15.9975, 43.8764" fill="none" stroke="#0000ff"/>
<path d="M432.405,385.675l -12.3776, 33.9482" fill="none" stroke="#0000ff"/>
<path d="M428.785,385.675l -8.75773, 24.0199" fill="none" stroke="#0000ff"/>
<path d="M425.165,385.675l -5.13785, 14.0916" fill="none" stroke="#0000ff"/>
<path d="M421.546,385.675l -1.51797, 4.16334" fill="none" stroke="#0000ff"/>
<g stroke="#0000ff" stroke-width="1" fill="none">
<line x1="464.382" y1="387.726" x2="465.382" y2="387.726"/>
</g>
<path d="M72.311,427.856v -0.908963" fill="none" stroke="#0000ff" stroke-width="2"/>
<path d="M72.311,426.947v -0.908963" fill="none" stroke="#0000ff" stroke-width="2"/>
<path d="M57.1929,426.947h 15.1181" fill="none" stroke="#0000ff" stroke-width="2"/>
<path d="M72.311,426.947h 15.1181" fill="none" stroke="#0000ff" stroke-width="2"/>
<g stroke="#0000ff" stroke-width="1" fill="none">
<line x1="71.311" y1="426.947" x2="72.311" y2="426.947"/>
</g>
<path d="M102.547,426.872v -1.24674" fill="none" stroke="#0000ff" stroke-width="2"/>
<path d="M102.547,425.625v -1.24674" fill="none" stroke="#0000ff" stroke-width="2"/>
<path d="M87.4291,425.625h 15.1181" fill="none" stroke="#0000ff" stroke-width="2"/>
<path d="M102.547,425.625h 15.1181" fill="none" stroke="#0000ff" stroke-width="2"/>
<g stroke="#0000ff" stroke-width="1" fill="none">
<line x1="101.547" y1="425.625" x2="102.547" y2="425.625"/>
</g>
<path d="M132.783,427.572v -1.74612" fill="none" stroke="#0000ff" stroke-width="2"/>
<path d="M132.783,425.826v -1.74612" fill="none" stroke="#0000ff" stroke-width="2"/>
<path d="M117.665,425.826h 15.1181" fill="none" stroke="#0000ff" stroke-width="2"/>
<path d="M132.783,425.826h 15.1181" fill="none" stroke="#0000ff" stroke-width="2"/>
<g stroke="#0000ff" stroke-width="1" fill="none">
<line x1="131.783" y1="425.826" x2="132.783" y2="425.826"/>
</g>
<path d="M163.02,428.921v -2.43669" fill="none" stroke="#0000ff" stroke-width="2"/>
<path d="M163.02,426.485v -2.43669" fill="none" stroke="#0000ff" stroke-width="2"/>
<path d="M147.902,426.485h 15.1181" fill="none" stroke="#0000ff" stroke-width="2"/>
<path d="M163.02,426.485h 15.1181" fill="none" stroke="#0000ff" stroke-width="2"/>
<g stroke="#0000ff" stroke-width="1" fill="none">
<line x1="162.02" y1="426.485" x2="163.02" y2="426.485"/>
</g>
<path d="M193.256,428.989v -3.42849" fill="none" stroke="#0000ff" stroke-width="2"/>
<path d="M193.256,425.561v -3.42849" fill="none" stroke="#0000ff" stroke-width="2"/>
<path d="M178.138,425.561h 15.1181" fill="none" stroke="#0000ff" stroke-width="2"/>
<path d="M193.256,425.561h 15.1181" fill="none" stroke="#0000ff" stroke-width="2"/>
<g stroke="#0000ff" stroke-width="1" fill="none">
<line x1="192.256" y1="425.561" x2="193.256" y2="425.561"/>
</g>
<path d="M223.492,425.451v -5.89329" fill="none" stroke="#0000ff" stroke-width="2"/>
<path d="M223.492,419.558v -5.89329" fill="none" stroke="#0000ff" stroke-width="2"/>
<path d="M208.374,419.558h 15.1181" fill="none" stroke="#0000ff" stroke-width="2"/>
<path d="M223.492,419.558h 15.1181" fill="none" stroke="#0000ff" stroke-width="2"/>
<g stroke="#0000ff" stroke-width="1" fill="none">
<line x1="222.492" y1="419.558" x2="223.492" y2="419.558"/>
</g>
<path d="M253.728,431.514v -7.0652" fill="none" stroke="#0000ff" stroke-width="2"/>
<path d="M253.728,424.449v -7.0652" fill="none" stroke="#0000ff" stroke-width="2"/>
<path d="M238.61,424.449h 15.1181" fill="none" stroke="#0000ff" stroke-width="2"/>
<path d="M253.728,424.449h 15.1181" fill="none" stroke="#0000ff" stroke-width="2"/>
<g stroke="#0000ff" stroke-width="1" fill="none">
<line x1="252.728" y1="424.449" x2="253.728" y2="424.449"/>
</g>
<path d="M283.965,431.473v -12.0797" fill="none" stroke="#0000ff" stroke-width="2"/>
<path d="M283.965,419.393v -12.0797" fill="none" stroke="#0000ff" stroke-width="2"/>
<path d="M268.846,419.393h 15.1181" fill="none" stroke="#0000ff" stroke-width="2"/>
<path d="M283.965,419.393h 15.1181" fill="none" stroke="#0000ff" stroke-width="2"/>
<g stroke="#0000ff" stroke-width="1" fill="none">
<line x1="282.965" y1="419.393" x2="283.965" y2="419.393"/>
</g>
<path d="M314.201,430.281v -19.2113" fill="none" stroke="#0000ff" stroke-width="2"/>
<path d="M314.201,411.069v -19.2113" fill="none" stroke="#0000ff" stroke-width="2"/>
<path d="M299.083,411.069h 15.1181" fill="none" stroke="#0000ff" stroke-width="2"/>
<path d="M314.201,411.069h 15.1181" fill="none" stroke="#0000ff" stroke-width="2"/>
<g stroke="#0000ff" stroke-width="1" fill="none">
<line x1="313.201" y1="411.069" x2="314.201" y2="411.069"/>
</g>
<path d="M374.673,430.851v -8.81677" fill="none" stroke="#0000ff" stroke-width="2"/>
<path d="M374.673,422.034v -8.81677" fill="none" stroke="#0000ff" stroke-width="2"/>
<path d="M329.319,422.034h 45.3543" fill="none" stroke="#0000ff" stroke-width="2"/>
<path d="M374.673,422.034h 45.3543" fill="none" stroke="#0000ff" stroke-width="2"/>
<g stroke="#0000ff" stroke-width="1" fill="none">
<line x1="373.673" y1="422.034" x2="374.673" y2="422.034"/>
</g>
<path d="M465.382,428.423v -40.6972" fill="none" stroke="#0000ff" stroke-width="2"/>
<path d="M465.382,387.726v -2.05051" fill="none" stroke="#0000ff" stroke-width="2"/>
<path d="M420.028,387.726h 45.3543" fill="none" stroke="#0000ff" stroke-width="2"/>
<path d="M465.382,387.726h 45.3543" fill="none" stroke="#0000ff" stroke-width="2"/>
<g stroke="#0000ff" stroke-width="1" fill="none">
<line x1="464.382" y1="387.726" x2="465.382" y2="387.726"/>
</g>
<text xml:space="preserve" x="255.523" y="388.697" fill="black" font-size="6.71011" font-family="Helvetica">unfoldedHistogram</text></svg>
