<?xml version="1.0" standalone="no"?>
<svg width="567.429" height="545.624" viewBox="0 0 567.429 545.624" xmlns="http://www.w3.org/2000/svg" shape-rendering="crispEdges">
<title>
/Users/georgebakas/Documents/HEP-NTUA_ul/VariationHandling/FinalResults/results/FinalResult_ptJJ.svg
</title>
<desc>
Creator: ROOT Version 6.22/02
CreationDate: Wed Nov 24 08:11:22 2021</desc>
<defs>
</defs>
<rect x="0.5" y="0" width="566.929" height="545.124" fill="white"/>
<rect x="0.5" y="0" width="566.929" height="381.587" fill="white"/>
<rect x="57.1929" y="38.1587" width="453.543" height="324.349" fill="white"/>
<rect x="57.1929" y="38.1587" width="453.543" height="324.349" fill="none" stroke="black"/>
<rect x="57.1929" y="38.1587" width="453.543" height="324.349" fill="white"/>
<rect x="57.1929" y="38.1587" width="453.543" height="324.349" fill="none" stroke="black"/>
<rect x="57.1929" y="65.5772" width="20.9328" height="21.7723" fill="#cccccc"/>
<g fill="black">
<circle cx="67.6593" cy="74.7181" r="3.79217"/>
</g>
<rect x="78.1257" y="89.0764" width="31.3992" height="22.9323" fill="#cccccc"/>
<g fill="black">
<circle cx="93.8253" cy="98.61" r="3.79217"/>
</g>
<rect x="109.525" y="137.087" width="52.3319" height="14.2075" fill="#cccccc"/>
<g fill="black">
<circle cx="135.691" cy="143.44" r="3.79217"/>
</g>
<rect x="161.857" y="191.108" width="52.3319" height="16.6948" fill="#cccccc"/>
<g fill="black">
<circle cx="188.023" cy="198.422" r="3.79217"/>
</g>
<rect x="214.189" y="243.902" width="139.552" height="23.7921" fill="#cccccc"/>
<g fill="black">
<circle cx="283.965" cy="253.721" r="3.79217"/>
</g>
<rect x="353.74" y="288.963" width="156.996" height="38.5539" fill="#cccccc"/>
<g fill="black">
<circle cx="432.238" cy="302.956" r="3.79217"/>
</g>
<path d="M57.1929,362.508h 453.543" fill="none" stroke="black"/>
<path d="M57.1929,353.349v 9.15809" fill="none" stroke="black"/>
<path d="M74.6369,357.929v 4.57904" fill="none" stroke="black"/>
<path d="M92.0809,357.929v 4.57904" fill="none" stroke="black"/>
<path d="M109.525,357.929v 4.57904" fill="none" stroke="black"/>
<path d="M126.969,353.349v 9.15809" fill="none" stroke="black"/>
<path d="M144.413,357.929v 4.57904" fill="none" stroke="black"/>
<path d="M161.857,357.929v 4.57904" fill="none" stroke="black"/>
<path d="M179.301,357.929v 4.57904" fill="none" stroke="black"/>
<path d="M196.745,353.349v 9.15809" fill="none" stroke="black"/>
<path d="M214.189,357.929v 4.57904" fill="none" stroke="black"/>
<path d="M231.633,357.929v 4.57904" fill="none" stroke="black"/>
<path d="M249.077,357.929v 4.57904" fill="none" stroke="black"/>
<path d="M266.521,353.349v 9.15809" fill="none" stroke="black"/>
<path d="M283.965,357.929v 4.57904" fill="none" stroke="black"/>
<path d="M301.409,357.929v 4.57904" fill="none" stroke="black"/>
<path d="M318.853,357.929v 4.57904" fill="none" stroke="black"/>
<path d="M336.296,353.349v 9.15809" fill="none" stroke="black"/>
<path d="M353.74,357.929v 4.57904" fill="none" stroke="black"/>
<path d="M371.184,357.929v 4.57904" fill="none" stroke="black"/>
<path d="M388.628,357.929v 4.57904" fill="none" stroke="black"/>
<path d="M406.072,353.349v 9.15809" fill="none" stroke="black"/>
<path d="M423.516,357.929v 4.57904" fill="none" stroke="black"/>
<path d="M440.96,357.929v 4.57904" fill="none" stroke="black"/>
<path d="M458.404,357.929v 4.57904" fill="none" stroke="black"/>
<path d="M475.848,353.349v 9.15809" fill="none" stroke="black"/>
<path d="M475.848,353.349v 9.15809" fill="none" stroke="black"/>
<path d="M493.292,357.929v 4.57904" fill="none" stroke="black"/>
<text xml:space="preserve" x="51.6943" y="380.165" fill="black" font-size="18.004" font-family="Helvetica">0</text>
<text xml:space="preserve" x="111.421" y="380.165" fill="black" font-size="18.004" font-family="Helvetica">200</text>
<text xml:space="preserve" x="181.576" y="380.165" fill="black" font-size="18.004" font-family="Helvetica">400</text>
<text xml:space="preserve" x="250.783" y="380.165" fill="black" font-size="18.004" font-family="Helvetica">600</text>
<text xml:space="preserve" x="320.938" y="380.165" fill="black" font-size="18.004" font-family="Helvetica">800</text>
<text xml:space="preserve" x="385.405" y="380.165" fill="black" font-size="18.004" font-family="Helvetica">1000</text>
<text xml:space="preserve" x="455.56" y="380.165" fill="black" font-size="18.004" font-family="Helvetica">1200</text>
<text xml:space="preserve" x="371.184" y="401.022" fill="black" font-size="21.5048" font-family="Helvetica">ptTTbarParton</text>
<path d="M57.1929,362.508v -324.349" fill="none" stroke="black"/>
<path d="M64.4213,362.508h -7.22835" fill="none" stroke="black"/>
<path d="M64.4213,352.909h -7.22835" fill="none" stroke="black"/>
<path d="M64.4213,345.464h -7.22835" fill="none" stroke="black"/>
<path d="M64.4213,339.38h -7.22835" fill="none" stroke="black"/>
<path d="M64.4213,334.237h -7.22835" fill="none" stroke="black"/>
<path d="M64.4213,329.782h -7.22835" fill="none" stroke="black"/>
<path d="M64.4213,325.852h -7.22835" fill="none" stroke="black"/>
<path d="M71.6496,322.337h -14.4567" fill="none" stroke="black"/>
<text xml:space="preserve" x="44.1099" y="322.334" fill="black" font-size="12.1693" font-family="Helvetica">5</text>
<text xml:space="preserve" x="37.4736" y="322.334" fill="black" font-size="12.1693" font-family="Times">&#8722;</text>
<text xml:space="preserve" x="17.5648" y="330.867" fill="black" font-size="18.004" font-family="Helvetica">10</text>
<path d="M64.4213,299.21h -7.22835" fill="none" stroke="black"/>
<path d="M64.4213,285.681h -7.22835" fill="none" stroke="black"/>
<path d="M64.4213,276.083h -7.22835" fill="none" stroke="black"/>
<path d="M64.4213,268.637h -7.22835" fill="none" stroke="black"/>
<path d="M64.4213,262.554h -7.22835" fill="none" stroke="black"/>
<path d="M64.4213,257.411h -7.22835" fill="none" stroke="black"/>
<path d="M64.4213,252.956h -7.22835" fill="none" stroke="black"/>
<path d="M64.4213,249.026h -7.22835" fill="none" stroke="black"/>
<path d="M71.6496,245.51h -14.4567" fill="none" stroke="black"/>
<text xml:space="preserve" x="44.1099" y="245.543" fill="black" font-size="12.1693" font-family="Helvetica">4</text>
<text xml:space="preserve" x="37.4736" y="245.543" fill="black" font-size="12.1693" font-family="Times">&#8722;</text>
<text xml:space="preserve" x="17.5648" y="253.127" fill="black" font-size="18.004" font-family="Helvetica">10</text>
<path d="M64.4213,222.383h -7.22835" fill="none" stroke="black"/>
<path d="M64.4213,208.855h -7.22835" fill="none" stroke="black"/>
<path d="M64.4213,199.256h -7.22835" fill="none" stroke="black"/>
<path d="M64.4213,191.811h -7.22835" fill="none" stroke="black"/>
<path d="M64.4213,185.728h -7.22835" fill="none" stroke="black"/>
<path d="M64.4213,180.585h -7.22835" fill="none" stroke="black"/>
<path d="M64.4213,176.129h -7.22835" fill="none" stroke="black"/>
<path d="M64.4213,172.2h -7.22835" fill="none" stroke="black"/>
<path d="M71.6496,168.684h -14.4567" fill="none" stroke="black"/>
<text xml:space="preserve" x="44.1099" y="167.803" fill="black" font-size="12.1693" font-family="Helvetica">3</text>
<text xml:space="preserve" x="37.4736" y="167.803" fill="black" font-size="12.1693" font-family="Times">&#8722;</text>
<text xml:space="preserve" x="17.5648" y="176.336" fill="black" font-size="18.004" font-family="Helvetica">10</text>
<path d="M64.4213,145.557h -7.22835" fill="none" stroke="black"/>
<path d="M64.4213,132.029h -7.22835" fill="none" stroke="black"/>
<path d="M64.4213,122.43h -7.22835" fill="none" stroke="black"/>
<path d="M64.4213,114.985h -7.22835" fill="none" stroke="black"/>
<path d="M64.4213,108.902h -7.22835" fill="none" stroke="black"/>
<path d="M64.4213,103.758h -7.22835" fill="none" stroke="black"/>
<path d="M64.4213,99.3032h -7.22835" fill="none" stroke="black"/>
<path d="M64.4213,95.3733h -7.22835" fill="none" stroke="black"/>
<path d="M71.6496,91.8579h -14.4567" fill="none" stroke="black"/>
<text xml:space="preserve" x="44.1099" y="91.9601" fill="black" font-size="12.1693" font-family="Helvetica">2</text>
<text xml:space="preserve" x="37.4736" y="91.9601" fill="black" font-size="12.1693" font-family="Times">&#8722;</text>
<text xml:space="preserve" x="17.5648" y="99.5444" fill="black" font-size="18.004" font-family="Helvetica">10</text>
<path d="M64.4213,68.7309h -7.22835" fill="none" stroke="black"/>
<path d="M64.4213,55.2025h -7.22835" fill="none" stroke="black"/>
<path d="M64.4213,45.6039h -7.22835" fill="none" stroke="black"/>
<path d="M64.4213,38.1587h -7.22835" fill="none" stroke="black"/>
<g transform="rotate(-90,-12.7726,107.129)">
<text xml:space="preserve" x="-12.7726" y="107.129" fill="black" font-size="21.5048" font-family="Helvetica"> Parton</text>
</g>
<g transform="rotate(-90,0.5,119.453)">
<text xml:space="preserve" x="0.5" y="119.453" fill="black" font-size="21.5048" font-family="Times">&#0967;</text>
</g>
<g transform="rotate(-90,0.5,130.83)">
<text xml:space="preserve" x="0.5" y="130.83" fill="black" font-size="21.5048" font-family="Helvetica">d</text>
</g>
<g transform="rotate(-90,-23.201,120.401)">
<text xml:space="preserve" x="-23.201" y="120.401" fill="black" font-size="21.5048" font-family="Times">&#0963;</text>
</g>
<g transform="rotate(-90,-23.201,131.778)">
<text xml:space="preserve" x="-23.201" y="131.778" fill="black" font-size="21.5048" font-family="Helvetica">d</text>
</g>
<path d="M67.6593,76.3123v -1.59416" fill="none" stroke="black" stroke-width="2"/>
<path d="M67.6593,74.7181v -1.52145" fill="none" stroke="black" stroke-width="2"/>
<path d="M57.1929,74.7181h 10.4664" fill="none" stroke="black" stroke-width="2"/>
<path d="M67.6593,74.7181h 10.4664" fill="none" stroke="black" stroke-width="2"/>
<g stroke="black" stroke-width="1" fill="none">
<line x1="66.6593" y1="74.7181" x2="67.6593" y2="74.7181"/>
</g>
<path d="M93.8253,101.132v -2.52255" fill="none" stroke="black" stroke-width="2"/>
<path d="M93.8253,98.61v -2.34517" fill="none" stroke="black" stroke-width="2"/>
<path d="M78.1257,98.61h 15.6996" fill="none" stroke="black" stroke-width="2"/>
<path d="M93.8253,98.61h 15.6996" fill="none" stroke="black" stroke-width="2"/>
<g stroke="black" stroke-width="1" fill="none">
<line x1="92.8253" y1="98.61" x2="93.8253" y2="98.61"/>
</g>
<path d="M135.691,146.119v -2.67873" fill="none" stroke="black" stroke-width="2"/>
<path d="M135.691,143.44v -2.47956" fill="none" stroke="black" stroke-width="2"/>
<path d="M109.525,143.44h 26.166" fill="none" stroke="black" stroke-width="2"/>
<path d="M135.691,143.44h 26.166" fill="none" stroke="black" stroke-width="2"/>
<g stroke="black" stroke-width="1" fill="none">
<line x1="134.691" y1="143.44" x2="135.691" y2="143.44"/>
</g>
<path d="M188.023,203.13v -4.70787" fill="none" stroke="black" stroke-width="2"/>
<path d="M188.023,198.422v -4.12498" fill="none" stroke="black" stroke-width="2"/>
<path d="M161.857,198.422h 26.166" fill="none" stroke="black" stroke-width="2"/>
<path d="M188.023,198.422h 26.166" fill="none" stroke="black" stroke-width="2"/>
<g stroke="black" stroke-width="1" fill="none">
<line x1="187.023" y1="198.422" x2="188.023" y2="198.422"/>
</g>
<path d="M283.965,259.742v -6.02071" fill="none" stroke="black" stroke-width="2"/>
<path d="M283.965,253.721v -5.09857" fill="none" stroke="black" stroke-width="2"/>
<path d="M214.189,253.721h 69.7759" fill="none" stroke="black" stroke-width="2"/>
<path d="M283.965,253.721h 69.7759" fill="none" stroke="black" stroke-width="2"/>
<g stroke="black" stroke-width="1" fill="none">
<line x1="282.965" y1="253.721" x2="283.965" y2="253.721"/>
</g>
<path d="M432.238,315.183v -12.2266" fill="none" stroke="black" stroke-width="2"/>
<path d="M432.238,302.956v -8.9281" fill="none" stroke="black" stroke-width="2"/>
<path d="M353.74,302.956h 78.4979" fill="none" stroke="black" stroke-width="2"/>
<path d="M432.238,302.956h 78.4979" fill="none" stroke="black" stroke-width="2"/>
<g stroke="black" stroke-width="1" fill="none">
<line x1="431.238" y1="302.956" x2="432.238" y2="302.956"/>
</g>
<path d="M74.8364,49.1783l 3.28927, 9.02598" fill="none" stroke="#ff0000"/>
<path d="M63.9768,49.1783l 8.5667, 23.5076" fill="none" stroke="#ff0000"/>
<path d="M57.1929,60.3626l 4.49092, 12.3234" fill="none" stroke="#ff0000"/>
<g stroke="#ff0000" stroke-width="1" fill="none">
<line x1="66.6593" y1="58.9033" x2="67.6593" y2="58.9033"/>
</g>
<path d="M107.239,78.4949l 2.28554, 6.27168" fill="none" stroke="#ff0000"/>
<path d="M96.3797,78.4949l 9.4699, 25.986" fill="none" stroke="#ff0000"/>
<path d="M85.52,78.4949l 9.4699, 25.986" fill="none" stroke="#ff0000"/>
<path d="M78.1257,88.0039l 6.00459, 16.477" fill="none" stroke="#ff0000"/>
<g stroke="#ff0000" stroke-width="1" fill="none">
<line x1="92.8253" y1="89.0195" x2="93.8253" y2="89.0195"/>
</g>
<path d="M157.737,127.665l 4.11969, 11.3047" fill="none" stroke="#ff0000"/>
<path d="M146.877,127.665l 10.4813, 28.7615" fill="none" stroke="#ff0000"/>
<path d="M136.018,127.665l 10.4813, 28.7615" fill="none" stroke="#ff0000"/>
<path d="M125.158,127.665l 10.4813, 28.7615" fill="none" stroke="#ff0000"/>
<path d="M114.299,127.665l 10.4813, 28.7615" fill="none" stroke="#ff0000"/>
<path d="M109.525,144.366l 4.39535, 12.0611" fill="none" stroke="#ff0000"/>
<g stroke="#ff0000" stroke-width="1" fill="none">
<line x1="134.691" y1="139.038" x2="135.691" y2="139.038"/>
</g>
<path d="M207.682,175.32l 6.5064, 17.854" fill="none" stroke="#ff0000"/>
<path d="M196.823,175.32l 13.128, 36.0241" fill="none" stroke="#ff0000"/>
<path d="M185.963,175.32l 13.128, 36.0241" fill="none" stroke="#ff0000"/>
<path d="M175.103,175.32l 13.128, 36.0241" fill="none" stroke="#ff0000"/>
<path d="M164.244,175.32l 13.128, 36.0241" fill="none" stroke="#ff0000"/>
<path d="M161.857,198.569l 4.65531, 12.7745" fill="none" stroke="#ff0000"/>
<g stroke="#ff0000" stroke-width="1" fill="none">
<line x1="187.023" y1="188.689" x2="188.023" y2="188.689"/>
</g>
<path d="M345.222,224.943l 8.51839, 23.375" fill="none" stroke="#ff0000"/>
<path d="M334.362,224.943l 17.547, 48.1502" fill="none" stroke="#ff0000"/>
<path d="M323.503,224.943l 17.547, 48.1502" fill="none" stroke="#ff0000"/>
<path d="M312.643,224.943l 17.547, 48.1502" fill="none" stroke="#ff0000"/>
<path d="M301.784,224.943l 17.547, 48.1502" fill="none" stroke="#ff0000"/>
<path d="M290.924,224.943l 17.547, 48.1502" fill="none" stroke="#ff0000"/>
<path d="M280.064,224.943l 17.547, 48.1502" fill="none" stroke="#ff0000"/>
<path d="M269.205,224.943l 17.547, 48.1502" fill="none" stroke="#ff0000"/>
<path d="M258.345,224.943l 17.547, 48.1502" fill="none" stroke="#ff0000"/>
<path d="M247.485,224.943l 17.547, 48.1502" fill="none" stroke="#ff0000"/>
<path d="M236.626,224.943l 17.547, 48.1502" fill="none" stroke="#ff0000"/>
<path d="M225.766,224.943l 17.547, 48.1502" fill="none" stroke="#ff0000"/>
<path d="M214.906,224.943l 17.547, 48.1502" fill="none" stroke="#ff0000"/>
<path d="M214.189,252.773l 7.40507, 20.32" fill="none" stroke="#ff0000"/>
<g stroke="#ff0000" stroke-width="1" fill="none">
<line x1="282.965" y1="240.995" x2="283.965" y2="240.995"/>
</g>
<path d="M506.311,279.588l 4.4248, 12.142" fill="none" stroke="#ff0000"/>
<path d="M495.452,279.588l 15.2844, 41.9416" fill="none" stroke="#ff0000"/>
<path d="M484.592,279.588l 24.1141, 66.1707" fill="none" stroke="#ff0000"/>
<path d="M473.732,279.588l 24.1141, 66.1707" fill="none" stroke="#ff0000"/>
<path d="M462.873,279.588l 24.1141, 66.1707" fill="none" stroke="#ff0000"/>
<path d="M452.013,279.588l 24.1141, 66.1707" fill="none" stroke="#ff0000"/>
<path d="M441.154,279.588l 24.1141, 66.1707" fill="none" stroke="#ff0000"/>
<path d="M430.294,279.588l 24.1141, 66.1707" fill="none" stroke="#ff0000"/>
<path d="M419.434,279.588l 24.1141, 66.1707" fill="none" stroke="#ff0000"/>
<path d="M408.575,279.588l 24.1141, 66.1707" fill="none" stroke="#ff0000"/>
<path d="M397.715,279.588l 24.1141, 66.1707" fill="none" stroke="#ff0000"/>
<path d="M386.855,279.588l 24.1141, 66.1707" fill="none" stroke="#ff0000"/>
<path d="M375.996,279.588l 24.1141, 66.1707" fill="none" stroke="#ff0000"/>
<path d="M365.136,279.588l 24.1141, 66.1707" fill="none" stroke="#ff0000"/>
<path d="M354.276,279.588l 24.1141, 66.1707" fill="none" stroke="#ff0000"/>
<path d="M353.74,307.917l 13.7904, 37.8418" fill="none" stroke="#ff0000"/>
<path d="M353.74,337.717l 2.93077, 8.04224" fill="none" stroke="#ff0000"/>
<g stroke="#ff0000" stroke-width="1" fill="none">
<line x1="431.238" y1="298.413" x2="432.238" y2="298.413"/>
</g>
<path d="M67.6593,58.9302v -0.026905" fill="none" stroke="#ff0000" stroke-width="2"/>
<path d="M67.6593,58.9033v -0.0268833" fill="none" stroke="#ff0000" stroke-width="2"/>
<path d="M57.1929,58.9033h 10.4664" fill="none" stroke="#ff0000" stroke-width="2"/>
<path d="M67.6593,58.9033h 10.4664" fill="none" stroke="#ff0000" stroke-width="2"/>
<g stroke="#ff0000" stroke-width="1" fill="none">
<line x1="66.6593" y1="58.9033" x2="67.6593" y2="58.9033"/>
</g>
<path d="M93.8253,89.0541v -0.0345958" fill="none" stroke="#ff0000" stroke-width="2"/>
<path d="M93.8253,89.0195v -0.0345599" fill="none" stroke="#ff0000" stroke-width="2"/>
<path d="M78.1257,89.0195h 15.6996" fill="none" stroke="#ff0000" stroke-width="2"/>
<path d="M93.8253,89.0195h 15.6996" fill="none" stroke="#ff0000" stroke-width="2"/>
<g stroke="#ff0000" stroke-width="1" fill="none">
<line x1="92.8253" y1="89.0195" x2="93.8253" y2="89.0195"/>
</g>
<path d="M135.691,139.095v -0.0563881" fill="none" stroke="#ff0000" stroke-width="2"/>
<path d="M135.691,139.038v -0.056293" fill="none" stroke="#ff0000" stroke-width="2"/>
<path d="M109.525,139.038h 26.166" fill="none" stroke="#ff0000" stroke-width="2"/>
<path d="M135.691,139.038h 26.166" fill="none" stroke="#ff0000" stroke-width="2"/>
<g stroke="#ff0000" stroke-width="1" fill="none">
<line x1="134.691" y1="139.038" x2="135.691" y2="139.038"/>
</g>
<path d="M188.023,188.806v -0.117261" fill="none" stroke="#ff0000" stroke-width="2"/>
<path d="M188.023,188.689v -0.11685" fill="none" stroke="#ff0000" stroke-width="2"/>
<path d="M161.857,188.689h 26.166" fill="none" stroke="#ff0000" stroke-width="2"/>
<path d="M188.023,188.689h 26.166" fill="none" stroke="#ff0000" stroke-width="2"/>
<g stroke="#ff0000" stroke-width="1" fill="none">
<line x1="187.023" y1="188.689" x2="188.023" y2="188.689"/>
</g>
<path d="M283.965,241.15v -0.155037" fill="none" stroke="#ff0000" stroke-width="2"/>
<path d="M283.965,240.995v -0.15432" fill="none" stroke="#ff0000" stroke-width="2"/>
<path d="M214.189,240.995h 69.7759" fill="none" stroke="#ff0000" stroke-width="2"/>
<path d="M283.965,240.995h 69.7759" fill="none" stroke="#ff0000" stroke-width="2"/>
<g stroke="#ff0000" stroke-width="1" fill="none">
<line x1="282.965" y1="240.995" x2="283.965" y2="240.995"/>
</g>
<path d="M432.238,298.756v -0.342748" fill="none" stroke="#ff0000" stroke-width="2"/>
<path d="M432.238,298.413v -0.339262" fill="none" stroke="#ff0000" stroke-width="2"/>
<path d="M353.74,298.413h 78.4979" fill="none" stroke="#ff0000" stroke-width="2"/>
<path d="M432.238,298.413h 78.4979" fill="none" stroke="#ff0000" stroke-width="2"/>
<g stroke="#ff0000" stroke-width="1" fill="none">
<line x1="431.238" y1="298.413" x2="432.238" y2="298.413"/>
</g>
<rect x="334.988" y="41.9746" width="170.079" height="114.476" fill="white"/>
<text xml:space="preserve" x="376.873" y="60.6747" fill="black" font-size="12.4517" font-family="Helvetica">Data</text>
<path d="M356.248,52.4919v -4.79354" fill="none" stroke="black" stroke-width="2"/>
<path d="M356.248,60.0762v 4.79354" fill="none" stroke="black" stroke-width="2"/>
<g fill="black">
<circle cx="356.248" cy="56.2841" r="3.79217"/>
</g>
<text xml:space="preserve" x="376.873" y="89.116" fill="black" font-size="12.4517" font-family="Helvetica">Total unc.</text>
<path d="M341.366,94.9198h 29.7638v -20.0333h -29.7638z" fill="#cccccc"/>
<path d="M341.366,74.8864h 29.7638" fill="none" stroke="black" stroke-width="2"/>
<path d="M341.366,94.9198h 29.7638" fill="none" stroke="black" stroke-width="2"/>
<path d="M371.13,94.9198v -20.0333" fill="none" stroke="black" stroke-width="2"/>
<path d="M341.366,94.9198v -20.0333" fill="none" stroke="black" stroke-width="2"/>
<text xml:space="preserve" x="376.873" y="116.609" fill="black" font-size="12.4517" font-family="Helvetica">Powheg+Pythia8</text>
<path d="M341.366,113.522h 29.7638" fill="none" stroke="#ff0000" stroke-width="2"/>
<path d="M356.248,122.108v -17.1714" fill="none" stroke="#ff0000" stroke-width="2"/>
<text xml:space="preserve" x="376.873" y="145.05" fill="black" font-size="12.4517" font-family="Helvetica">Powheg+Pythia8 unc</text>
<path d="M365.695,132.124l 5.43468, 14.9131" fill="none" stroke="#ff0000"/>
<path d="M354.836,132.124l 7.30059, 20.0333" fill="none" stroke="#ff0000"/>
<path d="M343.976,132.124l 7.30059, 20.0333" fill="none" stroke="#ff0000"/>
<path d="M341.366,132.124h 29.7638" fill="none" stroke="#ff0000" stroke-width="2"/>
<path d="M341.366,152.158h 29.7638" fill="none" stroke="#ff0000" stroke-width="2"/>
<path d="M371.13,152.158v -20.0333" fill="none" stroke="#ff0000" stroke-width="2"/>
<path d="M341.366,152.158v -20.0333" fill="none" stroke="#ff0000" stroke-width="2"/>
<text xml:space="preserve" x="420.483" y="30.3373" fill="black" font-size="21.5048" font-family="Helvetica"> (13 TeV)</text>
<text xml:space="preserve" x="410.054" y="19.9089" fill="black" font-size="14.5032" font-family="Helvetica">-1</text>
<text xml:space="preserve" x="343.691" y="30.3373" fill="black" font-size="21.5048" font-family="Helvetica">20.1 fb</text>
<text xml:space="preserve" x="57.1929" y="30.527" fill="black" font-size="26.756" font-family="Helvetica" font-weight="bold">CMS</text>
<text xml:space="preserve" x="77.2914" y="64.4669" fill="black" font-size="20.4545" font-family="Helvetica" font-style="oblique">Work in progress</text>
<rect x="0.5" y="381.587" width="566.929" height="136.281" fill="white"/>
<rect x="57.1929" y="385.675" width="453.543" height="102.211" fill="white"/>
<rect x="57.1929" y="385.675" width="453.543" height="102.211" fill="none" stroke="black"/>
<rect x="57.1929" y="385.675" width="453.543" height="102.211" fill="white"/>
<rect x="57.1929" y="385.675" width="453.543" height="102.211" fill="none" stroke="black"/>
<path d="M57.1929,487.886h 453.543" fill="none" stroke="black"/>
<path d="M57.1929,487.886v -102.211" fill="none" stroke="black"/>
<path d="M510.736,487.886h -453.543" fill="none" stroke="black" stroke-dasharray=" 1, 2"/>
<path d="M510.736,462.333h -453.543" fill="none" stroke="black" stroke-dasharray=" 1, 2"/>
<path d="M510.736,436.781h -453.543" fill="none" stroke="black" stroke-dasharray=" 1, 2"/>
<path d="M510.736,411.228h -453.543" fill="none" stroke="black" stroke-dasharray=" 1, 2"/>
<path d="M510.736,385.675h -453.543" fill="none" stroke="black" stroke-dasharray=" 1, 2"/>
<rect x="57.1929" y="428.64" width="20.9328" height="16.2823" fill="#cccccc"/>
<g fill="black">
<circle cx="67.6593" cy="436.781" r="3.79217"/>
</g>
<rect x="78.1257" y="428.127" width="31.3992" height="17.3073" fill="#cccccc"/>
<g fill="black">
<circle cx="93.8253" cy="436.781" r="3.79217"/>
</g>
<rect x="109.525" y="431.07" width="52.3319" height="11.4214" fill="#cccccc"/>
<g fill="black">
<circle cx="135.691" cy="436.781" r="3.79217"/>
</g>
<rect x="161.857" y="429.672" width="52.3319" height="14.2168" fill="#cccccc"/>
<g fill="black">
<circle cx="188.023" cy="436.781" r="3.79217"/>
</g>
<rect x="214.189" y="427.073" width="139.552" height="19.4157" fill="#cccccc"/>
<g fill="black">
<circle cx="283.965" cy="436.781" r="3.79217"/>
</g>
<rect x="353.74" y="421.33" width="156.996" height="30.9011" fill="#cccccc"/>
<g fill="black">
<circle cx="432.238" cy="436.781" r="3.79217"/>
</g>
<path d="M57.1929,487.886h 453.543" fill="none" stroke="black"/>
<path d="M57.1929,484.615v 3.27075" fill="none" stroke="black"/>
<path d="M74.6369,486.251v 1.63537" fill="none" stroke="black"/>
<path d="M92.0809,486.251v 1.63537" fill="none" stroke="black"/>
<path d="M109.525,486.251v 1.63537" fill="none" stroke="black"/>
<path d="M126.969,484.615v 3.27075" fill="none" stroke="black"/>
<path d="M144.413,486.251v 1.63537" fill="none" stroke="black"/>
<path d="M161.857,486.251v 1.63537" fill="none" stroke="black"/>
<path d="M179.301,486.251v 1.63537" fill="none" stroke="black"/>
<path d="M196.745,484.615v 3.27075" fill="none" stroke="black"/>
<path d="M214.189,486.251v 1.63537" fill="none" stroke="black"/>
<path d="M231.633,486.251v 1.63537" fill="none" stroke="black"/>
<path d="M249.077,486.251v 1.63537" fill="none" stroke="black"/>
<path d="M266.521,484.615v 3.27075" fill="none" stroke="black"/>
<path d="M283.965,486.251v 1.63537" fill="none" stroke="black"/>
<path d="M301.409,486.251v 1.63537" fill="none" stroke="black"/>
<path d="M318.853,486.251v 1.63537" fill="none" stroke="black"/>
<path d="M336.296,484.615v 3.27075" fill="none" stroke="black"/>
<path d="M353.74,486.251v 1.63537" fill="none" stroke="black"/>
<path d="M371.184,486.251v 1.63537" fill="none" stroke="black"/>
<path d="M388.628,486.251v 1.63537" fill="none" stroke="black"/>
<path d="M406.072,484.615v 3.27075" fill="none" stroke="black"/>
<path d="M423.516,486.251v 1.63537" fill="none" stroke="black"/>
<path d="M440.96,486.251v 1.63537" fill="none" stroke="black"/>
<path d="M458.404,486.251v 1.63537" fill="none" stroke="black"/>
<path d="M475.848,484.615v 3.27075" fill="none" stroke="black"/>
<path d="M475.848,484.615v 3.27075" fill="none" stroke="black"/>
<path d="M493.292,486.251v 1.63537" fill="none" stroke="black"/>
<text xml:space="preserve" x="51.6943" y="502.462" fill="black" font-size="15.5034" font-family="Helvetica">0</text>
<text xml:space="preserve" x="113.317" y="502.462" fill="black" font-size="15.5034" font-family="Helvetica">200</text>
<text xml:space="preserve" x="183.472" y="502.462" fill="black" font-size="15.5034" font-family="Helvetica">400</text>
<text xml:space="preserve" x="252.679" y="502.462" fill="black" font-size="15.5034" font-family="Helvetica">600</text>
<text xml:space="preserve" x="322.834" y="502.462" fill="black" font-size="15.5034" font-family="Helvetica">800</text>
<text xml:space="preserve" x="388.249" y="502.462" fill="black" font-size="15.5034" font-family="Helvetica">1000</text>
<text xml:space="preserve" x="458.404" y="502.462" fill="black" font-size="15.5034" font-family="Helvetica">1200</text>
<text xml:space="preserve" x="443.236" y="517.631" fill="black" font-size="14.8783" font-family="Helvetica">ptJJ (GeV)</text>
<path d="M57.1929,487.886v -102.211" fill="none" stroke="black"/>
<path d="M69.9488,487.886h -12.7559" fill="none" stroke="black"/>
<path d="M63.5709,482.776h -6.37795" fill="none" stroke="black"/>
<path d="M63.5709,477.665h -6.37795" fill="none" stroke="black"/>
<path d="M63.5709,472.555h -6.37795" fill="none" stroke="black"/>
<path d="M63.5709,467.444h -6.37795" fill="none" stroke="black"/>
<path d="M69.9488,462.333h -12.7559" fill="none" stroke="black"/>
<path d="M63.5709,457.223h -6.37795" fill="none" stroke="black"/>
<path d="M63.5709,452.112h -6.37795" fill="none" stroke="black"/>
<path d="M63.5709,447.002h -6.37795" fill="none" stroke="black"/>
<path d="M63.5709,441.891h -6.37795" fill="none" stroke="black"/>
<path d="M69.9488,436.781h -12.7559" fill="none" stroke="black"/>
<path d="M63.5709,431.67h -6.37795" fill="none" stroke="black"/>
<path d="M63.5709,426.56h -6.37795" fill="none" stroke="black"/>
<path d="M63.5709,421.449h -6.37795" fill="none" stroke="black"/>
<path d="M63.5709,416.339h -6.37795" fill="none" stroke="black"/>
<path d="M69.9488,411.228h -12.7559" fill="none" stroke="black"/>
<path d="M63.5709,406.118h -6.37795" fill="none" stroke="black"/>
<path d="M63.5709,401.007h -6.37795" fill="none" stroke="black"/>
<path d="M63.5709,395.896h -6.37795" fill="none" stroke="black"/>
<path d="M63.5709,390.786h -6.37795" fill="none" stroke="black"/>
<path d="M69.9488,385.675h -12.7559" fill="none" stroke="black"/>
<text xml:space="preserve" x="46.006" y="492.982" fill="black" font-size="13.0028" font-family="Helvetica">2</text>
<text xml:space="preserve" x="38.4217" y="492.982" fill="black" font-size="13.0028" font-family="Times">&#8722;</text>
<text xml:space="preserve" x="47.9021" y="467.385" fill="black" font-size="13.0028" font-family="Helvetica">1</text>
<text xml:space="preserve" x="40.3178" y="467.385" fill="black" font-size="13.0028" font-family="Times">&#8722;</text>
<text xml:space="preserve" x="46.006" y="440.84" fill="black" font-size="13.0028" font-family="Helvetica">0</text>
<text xml:space="preserve" x="47.9021" y="416.19" fill="black" font-size="13.0028" font-family="Helvetica">1</text>
<text xml:space="preserve" x="46.006" y="390.593" fill="black" font-size="13.0028" font-family="Helvetica">2</text>
<g transform="rotate(-90,26.0971,474.969)">
<text xml:space="preserve" x="26.0971" y="474.969" fill="black" font-size="14.8783" font-family="Helvetica">The./data - 1</text>
</g>
<path d="M67.6593,438.467v -1.68599" fill="none" stroke="black" stroke-width="2"/>
<path d="M67.6593,436.781v -1.68599" fill="none" stroke="black" stroke-width="2"/>
<path d="M57.1929,436.781h 10.4664" fill="none" stroke="black" stroke-width="2"/>
<path d="M67.6593,436.781h 10.4664" fill="none" stroke="black" stroke-width="2"/>
<g stroke="black" stroke-width="1" fill="none">
<line x1="66.6593" y1="436.781" x2="67.6593" y2="436.781"/>
</g>
<path d="M93.8253,439.412v -2.63138" fill="none" stroke="black" stroke-width="2"/>
<path d="M93.8253,436.781v -2.63138" fill="none" stroke="black" stroke-width="2"/>
<path d="M78.1257,436.781h 15.6996" fill="none" stroke="black" stroke-width="2"/>
<path d="M93.8253,436.781h 15.6996" fill="none" stroke="black" stroke-width="2"/>
<g stroke="black" stroke-width="1" fill="none">
<line x1="92.8253" y1="436.781" x2="93.8253" y2="436.781"/>
</g>
<path d="M135.691,439.569v -2.78785" fill="none" stroke="black" stroke-width="2"/>
<path d="M135.691,436.781v -2.78785" fill="none" stroke="black" stroke-width="2"/>
<path d="M109.525,436.781h 26.166" fill="none" stroke="black" stroke-width="2"/>
<path d="M135.691,436.781h 26.166" fill="none" stroke="black" stroke-width="2"/>
<g stroke="black" stroke-width="1" fill="none">
<line x1="134.691" y1="436.781" x2="135.691" y2="436.781"/>
</g>
<path d="M188.023,441.536v -4.75557" fill="none" stroke="black" stroke-width="2"/>
<path d="M188.023,436.781v -4.75557" fill="none" stroke="black" stroke-width="2"/>
<path d="M161.857,436.781h 26.166" fill="none" stroke="black" stroke-width="2"/>
<path d="M188.023,436.781h 26.166" fill="none" stroke="black" stroke-width="2"/>
<g stroke="black" stroke-width="1" fill="none">
<line x1="187.023" y1="436.781" x2="188.023" y2="436.781"/>
</g>
<path d="M283.965,442.747v -5.96638" fill="none" stroke="black" stroke-width="2"/>
<path d="M283.965,436.781v -5.96638" fill="none" stroke="black" stroke-width="2"/>
<path d="M214.189,436.781h 69.7759" fill="none" stroke="black" stroke-width="2"/>
<path d="M283.965,436.781h 69.7759" fill="none" stroke="black" stroke-width="2"/>
<g stroke="black" stroke-width="1" fill="none">
<line x1="282.965" y1="436.781" x2="283.965" y2="436.781"/>
</g>
<path d="M432.238,447.868v -11.0871" fill="none" stroke="black" stroke-width="2"/>
<path d="M432.238,436.781v -11.0871" fill="none" stroke="black" stroke-width="2"/>
<path d="M353.74,436.781h 78.4979" fill="none" stroke="black" stroke-width="2"/>
<path d="M432.238,436.781h 78.4979" fill="none" stroke="black" stroke-width="2"/>
<g stroke="black" stroke-width="1" fill="none">
<line x1="431.238" y1="436.781" x2="432.238" y2="436.781"/>
</g>
<path d="M68.7699,407.264l 9.35578, 25.6602" fill="none" stroke="#ff0000"/>
<path d="M57.9103,407.264l 10.2247, 28.0433" fill="none" stroke="#ff0000"/>
<path d="M57.1929,435.082l 0.0823858, 0.22596" fill="none" stroke="#ff0000"/>
<g stroke="#ff0000" stroke-width="1" fill="none">
<line x1="66.6593" y1="421.286" x2="67.6593" y2="421.286"/>
</g>
<path d="M104.314,415.398l 5.21034, 14.2904" fill="none" stroke="#ff0000"/>
<path d="M93.4549,415.398l 9.38734, 25.7467" fill="none" stroke="#ff0000"/>
<path d="M82.5952,415.398l 9.38734, 25.7467" fill="none" stroke="#ff0000"/>
<path d="M78.1257,432.924l 2.99723, 8.22052" fill="none" stroke="#ff0000"/>
<g stroke="#ff0000" stroke-width="1" fill="none">
<line x1="92.8253" y1="428.271" x2="93.8253" y2="428.271"/>
</g>
<path d="M160.7,421.124l 1.15652, 3.172" fill="none" stroke="#ff0000"/>
<path d="M149.841,421.124l 8.78975, 24.1077" fill="none" stroke="#ff0000"/>
<path d="M138.981,421.124l 8.78975, 24.1077" fill="none" stroke="#ff0000"/>
<path d="M128.121,421.124l 8.78975, 24.1077" fill="none" stroke="#ff0000"/>
<path d="M117.262,421.124l 8.78975, 24.1077" fill="none" stroke="#ff0000"/>
<path d="M109.525,429.689l 5.66694, 15.5428" fill="none" stroke="#ff0000"/>
<g stroke="#ff0000" stroke-width="1" fill="none">
<line x1="134.691" y1="433.177" x2="135.691" y2="433.177"/>
</g>
<path d="M211.189,410.675l 2.99995, 8.22799" fill="none" stroke="#ff0000"/>
<path d="M200.329,410.675l 12.7252, 34.9015" fill="none" stroke="#ff0000"/>
<path d="M189.469,410.675l 12.7252, 34.9015" fill="none" stroke="#ff0000"/>
<path d="M178.61,410.675l 12.7252, 34.9015" fill="none" stroke="#ff0000"/>
<path d="M167.75,410.675l 12.7252, 34.9015" fill="none" stroke="#ff0000"/>
<path d="M161.857,424.296l 7.75897, 21.2806" fill="none" stroke="#ff0000"/>
<g stroke="#ff0000" stroke-width="1" fill="none">
<line x1="187.023" y1="428.125" x2="188.023" y2="428.125"/>
</g>
<path d="M348.831,400.984l 4.90953, 13.4654" fill="none" stroke="#ff0000"/>
<path d="M337.971,400.984l 15.7692, 43.2502" fill="none" stroke="#ff0000"/>
<path d="M327.112,400.984l 17.4506, 47.8619" fill="none" stroke="#ff0000"/>
<path d="M316.252,400.984l 17.4506, 47.8619" fill="none" stroke="#ff0000"/>
<path d="M305.392,400.984l 17.4506, 47.8619" fill="none" stroke="#ff0000"/>
<path d="M294.533,400.984l 17.4506, 47.8619" fill="none" stroke="#ff0000"/>
<path d="M283.673,400.984l 17.4506, 47.8619" fill="none" stroke="#ff0000"/>
<path d="M272.813,400.984l 17.4506, 47.8619" fill="none" stroke="#ff0000"/>
<path d="M261.954,400.984l 17.4506, 47.8619" fill="none" stroke="#ff0000"/>
<path d="M251.094,400.984l 17.4506, 47.8619" fill="none" stroke="#ff0000"/>
<path d="M240.235,400.984l 17.4506, 47.8619" fill="none" stroke="#ff0000"/>
<path d="M229.375,400.984l 17.4506, 47.8619" fill="none" stroke="#ff0000"/>
<path d="M218.515,400.984l 17.4506, 47.8619" fill="none" stroke="#ff0000"/>
<path d="M214.189,418.903l 10.9175, 29.9436" fill="none" stroke="#ff0000"/>
<path d="M214.189,448.688l 0.0578861, 0.158765" fill="none" stroke="#ff0000"/>
<g stroke="#ff0000" stroke-width="1" fill="none">
<line x1="282.965" y1="424.915" x2="283.965" y2="424.915"/>
</g>
<path d="M503.828,409.108l 6.90833, 18.9475" fill="none" stroke="#ff0000"/>
<path d="M492.968,409.108l 17.4608, 47.8898" fill="none" stroke="#ff0000"/>
<path d="M482.109,409.108l 17.4608, 47.8898" fill="none" stroke="#ff0000"/>
<path d="M471.249,409.108l 17.4608, 47.8898" fill="none" stroke="#ff0000"/>
<path d="M460.389,409.108l 17.4608, 47.8898" fill="none" stroke="#ff0000"/>
<path d="M449.53,409.108l 17.4608, 47.8898" fill="none" stroke="#ff0000"/>
<path d="M438.67,409.108l 17.4608, 47.8898" fill="none" stroke="#ff0000"/>
<path d="M427.81,409.108l 17.4608, 47.8898" fill="none" stroke="#ff0000"/>
<path d="M416.951,409.108l 17.4608, 47.8898" fill="none" stroke="#ff0000"/>
<path d="M406.091,409.108l 17.4608, 47.8898" fill="none" stroke="#ff0000"/>
<path d="M395.231,409.108l 17.4608, 47.8898" fill="none" stroke="#ff0000"/>
<path d="M384.372,409.108l 17.4608, 47.8898" fill="none" stroke="#ff0000"/>
<path d="M373.512,409.108l 17.4608, 47.8898" fill="none" stroke="#ff0000"/>
<path d="M362.653,409.108l 17.4608, 47.8898" fill="none" stroke="#ff0000"/>
<path d="M353.74,414.45l 15.5132, 42.5483" fill="none" stroke="#ff0000"/>
<path d="M353.74,444.235l 4.65361, 12.7635" fill="none" stroke="#ff0000"/>
<g stroke="#ff0000" stroke-width="1" fill="none">
<line x1="431.238" y1="433.053" x2="432.238" y2="433.053"/>
</g>
<path d="M67.6593,423.201v -1.91539" fill="none" stroke="#ff0000" stroke-width="2"/>
<path d="M67.6593,421.286v -1.91539" fill="none" stroke="#ff0000" stroke-width="2"/>
<path d="M57.1929,421.286h 10.4664" fill="none" stroke="#ff0000" stroke-width="2"/>
<path d="M67.6593,421.286h 10.4664" fill="none" stroke="#ff0000" stroke-width="2"/>
<g stroke="#ff0000" stroke-width="1" fill="none">
<line x1="66.6593" y1="421.286" x2="67.6593" y2="421.286"/>
</g>
<path d="M93.8253,430.752v -2.48053" fill="none" stroke="#ff0000" stroke-width="2"/>
<path d="M93.8253,428.271v -2.48053" fill="none" stroke="#ff0000" stroke-width="2"/>
<path d="M78.1257,428.271h 15.6996" fill="none" stroke="#ff0000" stroke-width="2"/>
<path d="M93.8253,428.271h 15.6996" fill="none" stroke="#ff0000" stroke-width="2"/>
<g stroke="#ff0000" stroke-width="1" fill="none">
<line x1="92.8253" y1="428.271" x2="93.8253" y2="428.271"/>
</g>
<path d="M135.691,435.427v -2.24983" fill="none" stroke="#ff0000" stroke-width="2"/>
<path d="M135.691,433.177v -2.24983" fill="none" stroke="#ff0000" stroke-width="2"/>
<path d="M109.525,433.177h 26.166" fill="none" stroke="#ff0000" stroke-width="2"/>
<path d="M135.691,433.177h 26.166" fill="none" stroke="#ff0000" stroke-width="2"/>
<g stroke="#ff0000" stroke-width="1" fill="none">
<line x1="134.691" y1="433.177" x2="135.691" y2="433.177"/>
</g>
<path d="M188.023,432.629v -4.50332" fill="none" stroke="#ff0000" stroke-width="2"/>
<path d="M188.023,428.125v -4.50332" fill="none" stroke="#ff0000" stroke-width="2"/>
<path d="M161.857,428.125h 26.166" fill="none" stroke="#ff0000" stroke-width="2"/>
<path d="M188.023,428.125h 26.166" fill="none" stroke="#ff0000" stroke-width="2"/>
<g stroke="#ff0000" stroke-width="1" fill="none">
<line x1="187.023" y1="428.125" x2="188.023" y2="428.125"/>
</g>
<path d="M283.965,431.096v -6.18034" fill="none" stroke="#ff0000" stroke-width="2"/>
<path d="M283.965,424.915v -6.18034" fill="none" stroke="#ff0000" stroke-width="2"/>
<path d="M214.189,424.915h 69.7759" fill="none" stroke="#ff0000" stroke-width="2"/>
<path d="M283.965,424.915h 69.7759" fill="none" stroke="#ff0000" stroke-width="2"/>
<g stroke="#ff0000" stroke-width="1" fill="none">
<line x1="282.965" y1="424.915" x2="283.965" y2="424.915"/>
</g>
<path d="M432.238,442.042v -8.98839" fill="none" stroke="#ff0000" stroke-width="2"/>
<path d="M432.238,433.053v -8.98839" fill="none" stroke="#ff0000" stroke-width="2"/>
<path d="M353.74,433.053h 78.4979" fill="none" stroke="#ff0000" stroke-width="2"/>
<path d="M432.238,433.053h 78.4979" fill="none" stroke="#ff0000" stroke-width="2"/>
<g stroke="#ff0000" stroke-width="1" fill="none">
<line x1="431.238" y1="433.053" x2="432.238" y2="433.053"/>
</g></svg>
