<?xml version="1.0" standalone="no"?>
<svg width="567.429" height="545.624" viewBox="0 0 567.429 545.624" xmlns="http://www.w3.org/2000/svg" shape-rendering="crispEdges">
<title>
/Users/georgebakas/Documents/HEP-NTUA_ul/VariationHandling/FinalResults/results/FinalResult_chi.svg
</title>
<desc>
Creator: ROOT Version 6.22/02
CreationDate: Wed Nov 24 08:11:24 2021</desc>
<defs>
</defs>
<rect x="0.5" y="0" width="566.929" height="545.124" fill="white"/>
<rect x="0.5" y="0" width="566.929" height="381.587" fill="white"/>
<rect x="57.1929" y="38.1587" width="453.543" height="324.349" fill="white"/>
<rect x="57.1929" y="38.1587" width="453.543" height="324.349" fill="none" stroke="black"/>
<rect x="57.1929" y="38.1587" width="453.543" height="324.349" fill="white"/>
<rect x="57.1929" y="38.1587" width="453.543" height="324.349" fill="none" stroke="black"/>
<rect x="57.1929" y="199.875" width="37.7953" height="65.189" fill="#cccccc"/>
<g fill="black">
<circle cx="76.0906" cy="232.469" r="3.79217"/>
</g>
<rect x="94.9882" y="253.844" width="37.7953" height="45.8949" fill="#cccccc"/>
<g fill="black">
<circle cx="113.886" cy="276.792" r="3.79217"/>
</g>
<rect x="132.783" y="293.728" width="37.7953" height="33.9185" fill="#cccccc"/>
<g fill="black">
<circle cx="151.681" cy="310.687" r="3.79217"/>
</g>
<rect x="170.579" y="320.139" width="37.7953" height="24.2015" fill="#cccccc"/>
<g fill="black">
<circle cx="189.476" cy="332.239" r="3.79217"/>
</g>
<rect x="208.374" y="337.443" width="37.7953" height="14.1063" fill="#cccccc"/>
<g fill="black">
<circle cx="227.272" cy="344.496" r="3.79217"/>
</g>
<rect x="246.169" y="348.549" width="37.7953" height="8.25567" fill="#cccccc"/>
<g fill="black">
<circle cx="265.067" cy="352.676" r="3.79217"/>
</g>
<rect x="283.965" y="350.485" width="37.7953" height="9.45763" fill="#cccccc"/>
<g fill="black">
<circle cx="302.862" cy="355.214" r="3.79217"/>
</g>
<rect x="321.76" y="355.633" width="37.7953" height="4.99634" fill="#cccccc"/>
<g fill="black">
<circle cx="340.657" cy="358.131" r="3.79217"/>
</g>
<rect x="359.555" y="358.447" width="37.7953" height="2.97107" fill="#cccccc"/>
<g fill="black">
<circle cx="378.453" cy="359.933" r="3.79217"/>
</g>
<rect x="397.35" y="359.421" width="113.386" height="2.64689" fill="#cccccc"/>
<g fill="black">
<circle cx="454.043" cy="360.744" r="3.79217"/>
</g>
<path d="M57.1929,362.508h 453.543" fill="none" stroke="black"/>
<path d="M94.9882,353.349v 9.15809" fill="none" stroke="black"/>
<path d="M113.886,357.929v 4.57904" fill="none" stroke="black"/>
<path d="M132.783,357.929v 4.57904" fill="none" stroke="black"/>
<path d="M151.681,357.929v 4.57904" fill="none" stroke="black"/>
<path d="M170.579,353.349v 9.15809" fill="none" stroke="black"/>
<path d="M189.476,357.929v 4.57904" fill="none" stroke="black"/>
<path d="M208.374,357.929v 4.57904" fill="none" stroke="black"/>
<path d="M227.272,357.929v 4.57904" fill="none" stroke="black"/>
<path d="M246.169,353.349v 9.15809" fill="none" stroke="black"/>
<path d="M265.067,357.929v 4.57904" fill="none" stroke="black"/>
<path d="M283.965,357.929v 4.57904" fill="none" stroke="black"/>
<path d="M302.862,357.929v 4.57904" fill="none" stroke="black"/>
<path d="M321.76,353.349v 9.15809" fill="none" stroke="black"/>
<path d="M340.657,357.929v 4.57904" fill="none" stroke="black"/>
<path d="M359.555,357.929v 4.57904" fill="none" stroke="black"/>
<path d="M378.453,357.929v 4.57904" fill="none" stroke="black"/>
<path d="M397.35,353.349v 9.15809" fill="none" stroke="black"/>
<path d="M416.248,357.929v 4.57904" fill="none" stroke="black"/>
<path d="M435.146,357.929v 4.57904" fill="none" stroke="black"/>
<path d="M454.043,357.929v 4.57904" fill="none" stroke="black"/>
<path d="M472.941,353.349v 9.15809" fill="none" stroke="black"/>
<path d="M94.9882,353.349v 9.15809" fill="none" stroke="black"/>
<path d="M76.0906,357.929v 4.57904" fill="none" stroke="black"/>
<path d="M57.1929,357.929v 4.57904" fill="none" stroke="black"/>
<path d="M472.941,353.349v 9.15809" fill="none" stroke="black"/>
<path d="M491.839,357.929v 4.57904" fill="none" stroke="black"/>
<text xml:space="preserve" x="89.616" y="380.165" fill="black" font-size="18.004" font-family="Helvetica">2</text>
<text xml:space="preserve" x="165.459" y="380.165" fill="black" font-size="18.004" font-family="Helvetica">4</text>
<text xml:space="preserve" x="241.303" y="380.165" fill="black" font-size="18.004" font-family="Helvetica">6</text>
<text xml:space="preserve" x="316.198" y="380.165" fill="black" font-size="18.004" font-family="Helvetica">8</text>
<text xml:space="preserve" x="386.353" y="380.165" fill="black" font-size="18.004" font-family="Helvetica">10</text>
<text xml:space="preserve" x="462.196" y="380.165" fill="black" font-size="18.004" font-family="Helvetica">12</text>
<text xml:space="preserve" x="419.535" y="403.866" fill="black" font-size="21.5048" font-family="Helvetica">chiParton</text>
<path d="M57.1929,362.508v -324.349" fill="none" stroke="black"/>
<path d="M71.6496,362.508h -14.4567" fill="none" stroke="black"/>
<path d="M64.4213,354.399h -7.22835" fill="none" stroke="black"/>
<path d="M64.4213,346.29h -7.22835" fill="none" stroke="black"/>
<path d="M64.4213,338.181h -7.22835" fill="none" stroke="black"/>
<path d="M71.6496,330.073h -14.4567" fill="none" stroke="black"/>
<path d="M64.4213,321.964h -7.22835" fill="none" stroke="black"/>
<path d="M64.4213,313.855h -7.22835" fill="none" stroke="black"/>
<path d="M64.4213,305.747h -7.22835" fill="none" stroke="black"/>
<path d="M71.6496,297.638h -14.4567" fill="none" stroke="black"/>
<path d="M64.4213,289.529h -7.22835" fill="none" stroke="black"/>
<path d="M64.4213,281.42h -7.22835" fill="none" stroke="black"/>
<path d="M64.4213,273.312h -7.22835" fill="none" stroke="black"/>
<path d="M71.6496,265.203h -14.4567" fill="none" stroke="black"/>
<path d="M64.4213,257.094h -7.22835" fill="none" stroke="black"/>
<path d="M64.4213,248.985h -7.22835" fill="none" stroke="black"/>
<path d="M64.4213,240.877h -7.22835" fill="none" stroke="black"/>
<path d="M71.6496,232.768h -14.4567" fill="none" stroke="black"/>
<path d="M64.4213,224.659h -7.22835" fill="none" stroke="black"/>
<path d="M64.4213,216.551h -7.22835" fill="none" stroke="black"/>
<path d="M64.4213,208.442h -7.22835" fill="none" stroke="black"/>
<path d="M71.6496,200.333h -14.4567" fill="none" stroke="black"/>
<path d="M64.4213,192.224h -7.22835" fill="none" stroke="black"/>
<path d="M64.4213,184.116h -7.22835" fill="none" stroke="black"/>
<path d="M64.4213,176.007h -7.22835" fill="none" stroke="black"/>
<path d="M71.6496,167.898h -14.4567" fill="none" stroke="black"/>
<path d="M64.4213,159.79h -7.22835" fill="none" stroke="black"/>
<path d="M64.4213,151.681h -7.22835" fill="none" stroke="black"/>
<path d="M64.4213,143.572h -7.22835" fill="none" stroke="black"/>
<path d="M71.6496,135.463h -14.4567" fill="none" stroke="black"/>
<path d="M64.4213,127.355h -7.22835" fill="none" stroke="black"/>
<path d="M64.4213,119.246h -7.22835" fill="none" stroke="black"/>
<path d="M64.4213,111.137h -7.22835" fill="none" stroke="black"/>
<path d="M71.6496,103.028h -14.4567" fill="none" stroke="black"/>
<path d="M64.4213,94.9198h -7.22835" fill="none" stroke="black"/>
<path d="M64.4213,86.811h -7.22835" fill="none" stroke="black"/>
<path d="M64.4213,78.7023h -7.22835" fill="none" stroke="black"/>
<path d="M71.6496,70.5936h -14.4567" fill="none" stroke="black"/>
<path d="M64.4213,62.4849h -7.22835" fill="none" stroke="black"/>
<path d="M64.4213,54.3761h -7.22835" fill="none" stroke="black"/>
<path d="M64.4213,46.2674h -7.22835" fill="none" stroke="black"/>
<path d="M71.6496,38.1587h -14.4567" fill="none" stroke="black"/>
<text xml:space="preserve" x="43.1619" y="368.788" fill="black" font-size="18.004" font-family="Helvetica">0</text>
<text xml:space="preserve" x="27.9932" y="336.555" fill="black" font-size="18.004" font-family="Helvetica">0.2</text>
<text xml:space="preserve" x="27.9932" y="303.373" fill="black" font-size="18.004" font-family="Helvetica">0.4</text>
<text xml:space="preserve" x="27.9932" y="271.14" fill="black" font-size="18.004" font-family="Helvetica">0.6</text>
<text xml:space="preserve" x="27.9932" y="238.907" fill="black" font-size="18.004" font-family="Helvetica">0.8</text>
<text xml:space="preserve" x="46.006" y="207.621" fill="black" font-size="18.004" font-family="Helvetica">1</text>
<text xml:space="preserve" x="27.9932" y="175.388" fill="black" font-size="18.004" font-family="Helvetica">1.2</text>
<text xml:space="preserve" x="27.9932" y="142.206" fill="black" font-size="18.004" font-family="Helvetica">1.4</text>
<text xml:space="preserve" x="27.9932" y="109.025" fill="black" font-size="18.004" font-family="Helvetica">1.6</text>
<text xml:space="preserve" x="27.9932" y="76.7914" fill="black" font-size="18.004" font-family="Helvetica">1.8</text>
<text xml:space="preserve" x="43.1619" y="45.506" fill="black" font-size="18.004" font-family="Helvetica">2</text>
<g transform="rotate(-90,-12.7726,107.129)">
<text xml:space="preserve" x="-12.7726" y="107.129" fill="black" font-size="21.5048" font-family="Helvetica"> Parton</text>
</g>
<g transform="rotate(-90,0.5,119.453)">
<text xml:space="preserve" x="0.5" y="119.453" fill="black" font-size="21.5048" font-family="Times">&#0967;</text>
</g>
<g transform="rotate(-90,0.5,130.83)">
<text xml:space="preserve" x="0.5" y="130.83" fill="black" font-size="21.5048" font-family="Helvetica">d</text>
</g>
<g transform="rotate(-90,-23.201,120.401)">
<text xml:space="preserve" x="-23.201" y="120.401" fill="black" font-size="21.5048" font-family="Times">&#0963;</text>
</g>
<g transform="rotate(-90,-23.201,131.778)">
<text xml:space="preserve" x="-23.201" y="131.778" fill="black" font-size="21.5048" font-family="Helvetica">d</text>
</g>
<path d="M76.0906,235.807v -3.33797" fill="none" stroke="black" stroke-width="2"/>
<path d="M76.0906,232.469v -3.33797" fill="none" stroke="black" stroke-width="2"/>
<path d="M57.1929,232.469h 18.8976" fill="none" stroke="black" stroke-width="2"/>
<path d="M76.0906,232.469h 18.8976" fill="none" stroke="black" stroke-width="2"/>
<g stroke="black" stroke-width="1" fill="none">
<line x1="75.0906" y1="232.469" x2="76.0906" y2="232.469"/>
</g>
<path d="M113.886,279.701v -2.90945" fill="none" stroke="black" stroke-width="2"/>
<path d="M113.886,276.792v -2.90945" fill="none" stroke="black" stroke-width="2"/>
<path d="M94.9882,276.792h 18.8976" fill="none" stroke="black" stroke-width="2"/>
<path d="M113.886,276.792h 18.8976" fill="none" stroke="black" stroke-width="2"/>
<g stroke="black" stroke-width="1" fill="none">
<line x1="112.886" y1="276.792" x2="113.886" y2="276.792"/>
</g>
<path d="M151.681,313.165v -2.47726" fill="none" stroke="black" stroke-width="2"/>
<path d="M151.681,310.687v -2.47726" fill="none" stroke="black" stroke-width="2"/>
<path d="M132.783,310.687h 18.8976" fill="none" stroke="black" stroke-width="2"/>
<path d="M151.681,310.687h 18.8976" fill="none" stroke="black" stroke-width="2"/>
<g stroke="black" stroke-width="1" fill="none">
<line x1="150.681" y1="310.687" x2="151.681" y2="310.687"/>
</g>
<path d="M189.476,334.296v -2.05646" fill="none" stroke="black" stroke-width="2"/>
<path d="M189.476,332.239v -2.05646" fill="none" stroke="black" stroke-width="2"/>
<path d="M170.579,332.239h 18.8976" fill="none" stroke="black" stroke-width="2"/>
<path d="M189.476,332.239h 18.8976" fill="none" stroke="black" stroke-width="2"/>
<g stroke="black" stroke-width="1" fill="none">
<line x1="188.476" y1="332.239" x2="189.476" y2="332.239"/>
</g>
<path d="M227.272,346.175v -1.67863" fill="none" stroke="black" stroke-width="2"/>
<path d="M227.272,344.496v -1.67863" fill="none" stroke="black" stroke-width="2"/>
<path d="M208.374,344.496h 18.8976" fill="none" stroke="black" stroke-width="2"/>
<path d="M227.272,344.496h 18.8976" fill="none" stroke="black" stroke-width="2"/>
<g stroke="black" stroke-width="1" fill="none">
<line x1="226.272" y1="344.496" x2="227.272" y2="344.496"/>
</g>
<path d="M265.067,354.031v -1.35406" fill="none" stroke="black" stroke-width="2"/>
<path d="M265.067,352.676v -1.35406" fill="none" stroke="black" stroke-width="2"/>
<path d="M246.169,352.676h 18.8976" fill="none" stroke="black" stroke-width="2"/>
<path d="M265.067,352.676h 18.8976" fill="none" stroke="black" stroke-width="2"/>
<g stroke="black" stroke-width="1" fill="none">
<line x1="264.067" y1="352.676" x2="265.067" y2="352.676"/>
</g>
<path d="M302.862,356.574v -1.35988" fill="none" stroke="black" stroke-width="2"/>
<path d="M302.862,355.214v -1.35988" fill="none" stroke="black" stroke-width="2"/>
<path d="M283.965,355.214h 18.8976" fill="none" stroke="black" stroke-width="2"/>
<path d="M302.862,355.214h 18.8976" fill="none" stroke="black" stroke-width="2"/>
<g stroke="black" stroke-width="1" fill="none">
<line x1="301.862" y1="355.214" x2="302.862" y2="355.214"/>
</g>
<path d="M340.657,359.362v -1.2309" fill="none" stroke="black" stroke-width="2"/>
<path d="M340.657,358.131v -1.2309" fill="none" stroke="black" stroke-width="2"/>
<path d="M321.76,358.131h 18.8976" fill="none" stroke="black" stroke-width="2"/>
<path d="M340.657,358.131h 18.8976" fill="none" stroke="black" stroke-width="2"/>
<g stroke="black" stroke-width="1" fill="none">
<line x1="339.657" y1="358.131" x2="340.657" y2="358.131"/>
</g>
<path d="M378.453,360.898v -0.964701" fill="none" stroke="black" stroke-width="2"/>
<path d="M378.453,359.933v -0.964701" fill="none" stroke="black" stroke-width="2"/>
<path d="M359.555,359.933h 18.8976" fill="none" stroke="black" stroke-width="2"/>
<path d="M378.453,359.933h 18.8976" fill="none" stroke="black" stroke-width="2"/>
<g stroke="black" stroke-width="1" fill="none">
<line x1="377.453" y1="359.933" x2="378.453" y2="359.933"/>
</g>
<path d="M454.043,361.13v -0.385745" fill="none" stroke="black" stroke-width="2"/>
<path d="M454.043,360.744v -0.385745" fill="none" stroke="black" stroke-width="2"/>
<path d="M397.35,360.744h 56.6929" fill="none" stroke="black" stroke-width="2"/>
<path d="M454.043,360.744h 56.6929" fill="none" stroke="black" stroke-width="2"/>
<g stroke="black" stroke-width="1" fill="none">
<line x1="453.043" y1="360.744" x2="454.043" y2="360.744"/>
</g>
<path d="M86.2356,140.058l 8.75259, 24.0177" fill="none" stroke="#ff0000"/>
<path d="M75.376,140.058l 19.6122, 53.8173" fill="none" stroke="#ff0000"/>
<path d="M64.5163,140.058l 30.4719, 83.6169" fill="none" stroke="#ff0000"/>
<path d="M57.1929,149.761l 27.3436, 75.0327" fill="none" stroke="#ff0000"/>
<path d="M57.1929,179.561l 16.4839, 45.2331" fill="none" stroke="#ff0000"/>
<path d="M57.1929,209.361l 5.62431, 15.4335" fill="none" stroke="#ff0000"/>
<g stroke="#ff0000" stroke-width="1" fill="none">
<line x1="75.0906" y1="182.426" x2="76.0906" y2="182.426"/>
</g>
<path d="M130.237,201.201l 2.54664, 6.98815" fill="none" stroke="#ff0000"/>
<path d="M119.377,201.201l 13.4063, 36.7878" fill="none" stroke="#ff0000"/>
<path d="M108.518,201.201l 24.2659, 66.5873" fill="none" stroke="#ff0000"/>
<path d="M97.6579,201.201l 27.8189, 76.337" fill="none" stroke="#ff0000"/>
<path d="M94.9882,223.675l 19.629, 53.8632" fill="none" stroke="#ff0000"/>
<path d="M94.9882,253.474l 8.76933, 24.0636" fill="none" stroke="#ff0000"/>
<g stroke="#ff0000" stroke-width="1" fill="none">
<line x1="112.886" y1="239.369" x2="113.886" y2="239.369"/>
</g>
<path d="M162.358,259.543l 8.22108, 22.5592" fill="none" stroke="#ff0000"/>
<path d="M151.498,259.543l 19.0807, 52.3588" fill="none" stroke="#ff0000"/>
<path d="M140.638,259.543l 21.0839, 57.8556" fill="none" stroke="#ff0000"/>
<path d="M132.783,267.788l 18.0791, 49.6104" fill="none" stroke="#ff0000"/>
<path d="M132.783,297.588l 7.2195, 19.8108" fill="none" stroke="#ff0000"/>
<g stroke="#ff0000" stroke-width="1" fill="none">
<line x1="150.681" y1="288.471" x2="151.681" y2="288.471"/>
</g>
<path d="M199.05,300.629l 9.32434, 25.5866" fill="none" stroke="#ff0000"/>
<path d="M188.19,300.629l 14.1498, 38.8281" fill="none" stroke="#ff0000"/>
<path d="M177.33,300.629l 14.1498, 38.8281" fill="none" stroke="#ff0000"/>
<path d="M170.579,311.902l 10.0418, 27.5555" fill="none" stroke="#ff0000"/>
<g stroke="#ff0000" stroke-width="1" fill="none">
<line x1="188.476" y1="320.043" x2="189.476" y2="320.043"/>
</g>
<path d="M239.944,323.446l 6.22559, 17.0834" fill="none" stroke="#ff0000"/>
<path d="M229.084,323.446l 9.578, 26.2827" fill="none" stroke="#ff0000"/>
<path d="M218.224,323.446l 9.578, 26.2827" fill="none" stroke="#ff0000"/>
<path d="M208.374,326.216l 8.56876, 23.5133" fill="none" stroke="#ff0000"/>
<g stroke="#ff0000" stroke-width="1" fill="none">
<line x1="226.272" y1="336.588" x2="227.272" y2="336.588"/>
</g>
<path d="M277.371,336.75l 6.59389, 18.0941" fill="none" stroke="#ff0000"/>
<path d="M266.511,336.75l 6.7784, 18.6004" fill="none" stroke="#ff0000"/>
<path d="M255.651,336.75l 6.7784, 18.6004" fill="none" stroke="#ff0000"/>
<path d="M246.169,340.53l 5.40086, 14.8203" fill="none" stroke="#ff0000"/>
<g stroke="#ff0000" stroke-width="1" fill="none">
<line x1="264.067" y1="346.05" x2="265.067" y2="346.05"/>
</g>
<path d="M313.015,345.163l 4.76036, 13.0627" fill="none" stroke="#ff0000"/>
<path d="M302.156,345.163l 4.76036, 13.0627" fill="none" stroke="#ff0000"/>
<path d="M291.296,345.163l 4.76036, 13.0627" fill="none" stroke="#ff0000"/>
<path d="M283.965,354.844l 1.23225, 3.38137" fill="none" stroke="#ff0000"/>
<g stroke="#ff0000" stroke-width="1" fill="none">
<line x1="301.862" y1="351.694" x2="302.862" y2="351.694"/>
</g>
<path d="M358.355,350.379l 1.20004, 3.29298" fill="none" stroke="#ff0000"/>
<path d="M347.495,350.379l 3.47948, 9.54793" fill="none" stroke="#ff0000"/>
<path d="M336.636,350.379l 3.47948, 9.54793" fill="none" stroke="#ff0000"/>
<path d="M325.776,350.379l 3.47948, 9.54793" fill="none" stroke="#ff0000"/>
<g stroke="#ff0000" stroke-width="1" fill="none">
<line x1="339.657" y1="355.153" x2="340.657" y2="355.153"/>
</g>
<path d="M392.185,353.812l 2.57284, 7.06006" fill="none" stroke="#ff0000"/>
<path d="M381.325,353.812l 2.57284, 7.06006" fill="none" stroke="#ff0000"/>
<path d="M370.466,353.812l 2.57284, 7.06006" fill="none" stroke="#ff0000"/>
<path d="M359.606,353.812l 2.57284, 7.06006" fill="none" stroke="#ff0000"/>
<g stroke="#ff0000" stroke-width="1" fill="none">
<line x1="377.453" y1="357.342" x2="378.453" y2="357.342"/>
</g>
<path d="M502.206,357.72l 1.4619, 4.01156" fill="none" stroke="#ff0000"/>
<path d="M491.346,357.72l 1.4619, 4.01156" fill="none" stroke="#ff0000"/>
<path d="M480.486,357.72l 1.4619, 4.01156" fill="none" stroke="#ff0000"/>
<path d="M469.627,357.72l 1.4619, 4.01156" fill="none" stroke="#ff0000"/>
<path d="M458.767,357.72l 1.4619, 4.01156" fill="none" stroke="#ff0000"/>
<path d="M447.907,357.72l 1.4619, 4.01156" fill="none" stroke="#ff0000"/>
<path d="M437.048,357.72l 1.4619, 4.01156" fill="none" stroke="#ff0000"/>
<path d="M426.188,357.72l 1.4619, 4.01156" fill="none" stroke="#ff0000"/>
<path d="M415.329,357.72l 1.4619, 4.01156" fill="none" stroke="#ff0000"/>
<path d="M404.469,357.72l 1.4619, 4.01156" fill="none" stroke="#ff0000"/>
<g stroke="#ff0000" stroke-width="1" fill="none">
<line x1="453.043" y1="359.726" x2="454.043" y2="359.726"/>
</g>
<path d="M76.0906,182.598v -0.172108" fill="none" stroke="#ff0000" stroke-width="2"/>
<path d="M76.0906,182.426v -0.172108" fill="none" stroke="#ff0000" stroke-width="2"/>
<path d="M57.1929,182.426h 18.8976" fill="none" stroke="#ff0000" stroke-width="2"/>
<path d="M76.0906,182.426h 18.8976" fill="none" stroke="#ff0000" stroke-width="2"/>
<g stroke="#ff0000" stroke-width="1" fill="none">
<line x1="75.0906" y1="182.426" x2="76.0906" y2="182.426"/>
</g>
<path d="M113.886,239.513v -0.143706" fill="none" stroke="#ff0000" stroke-width="2"/>
<path d="M113.886,239.369v -0.143706" fill="none" stroke="#ff0000" stroke-width="2"/>
<path d="M94.9882,239.369h 18.8976" fill="none" stroke="#ff0000" stroke-width="2"/>
<path d="M113.886,239.369h 18.8976" fill="none" stroke="#ff0000" stroke-width="2"/>
<g stroke="#ff0000" stroke-width="1" fill="none">
<line x1="112.886" y1="239.369" x2="113.886" y2="239.369"/>
</g>
<path d="M151.681,288.583v -0.112528" fill="none" stroke="#ff0000" stroke-width="2"/>
<path d="M151.681,288.471v -0.112528" fill="none" stroke="#ff0000" stroke-width="2"/>
<path d="M132.783,288.471h 18.8976" fill="none" stroke="#ff0000" stroke-width="2"/>
<path d="M151.681,288.471h 18.8976" fill="none" stroke="#ff0000" stroke-width="2"/>
<g stroke="#ff0000" stroke-width="1" fill="none">
<line x1="150.681" y1="288.471" x2="151.681" y2="288.471"/>
</g>
<path d="M189.476,320.129v -0.0859789" fill="none" stroke="#ff0000" stroke-width="2"/>
<path d="M189.476,320.043v -0.0859789" fill="none" stroke="#ff0000" stroke-width="2"/>
<path d="M170.579,320.043h 18.8976" fill="none" stroke="#ff0000" stroke-width="2"/>
<path d="M189.476,320.043h 18.8976" fill="none" stroke="#ff0000" stroke-width="2"/>
<g stroke="#ff0000" stroke-width="1" fill="none">
<line x1="188.476" y1="320.043" x2="189.476" y2="320.043"/>
</g>
<path d="M227.272,336.655v -0.0675803" fill="none" stroke="#ff0000" stroke-width="2"/>
<path d="M227.272,336.588v -0.0675803" fill="none" stroke="#ff0000" stroke-width="2"/>
<path d="M208.374,336.588h 18.8976" fill="none" stroke="#ff0000" stroke-width="2"/>
<path d="M227.272,336.588h 18.8976" fill="none" stroke="#ff0000" stroke-width="2"/>
<g stroke="#ff0000" stroke-width="1" fill="none">
<line x1="226.272" y1="336.588" x2="227.272" y2="336.588"/>
</g>
<path d="M265.067,346.104v -0.0542434" fill="none" stroke="#ff0000" stroke-width="2"/>
<path d="M265.067,346.05v -0.0542434" fill="none" stroke="#ff0000" stroke-width="2"/>
<path d="M246.169,346.05h 18.8976" fill="none" stroke="#ff0000" stroke-width="2"/>
<path d="M265.067,346.05h 18.8976" fill="none" stroke="#ff0000" stroke-width="2"/>
<g stroke="#ff0000" stroke-width="1" fill="none">
<line x1="264.067" y1="346.05" x2="265.067" y2="346.05"/>
</g>
<path d="M302.862,351.738v -0.0441725" fill="none" stroke="#ff0000" stroke-width="2"/>
<path d="M302.862,351.694v -0.0441725" fill="none" stroke="#ff0000" stroke-width="2"/>
<path d="M283.965,351.694h 18.8976" fill="none" stroke="#ff0000" stroke-width="2"/>
<path d="M302.862,351.694h 18.8976" fill="none" stroke="#ff0000" stroke-width="2"/>
<g stroke="#ff0000" stroke-width="1" fill="none">
<line x1="301.862" y1="351.694" x2="302.862" y2="351.694"/>
</g>
<path d="M340.657,355.19v -0.0366058" fill="none" stroke="#ff0000" stroke-width="2"/>
<path d="M340.657,355.153v -0.0366058" fill="none" stroke="#ff0000" stroke-width="2"/>
<path d="M321.76,355.153h 18.8976" fill="none" stroke="#ff0000" stroke-width="2"/>
<path d="M340.657,355.153h 18.8976" fill="none" stroke="#ff0000" stroke-width="2"/>
<g stroke="#ff0000" stroke-width="1" fill="none">
<line x1="339.657" y1="355.153" x2="340.657" y2="355.153"/>
</g>
<path d="M378.453,357.373v -0.030806" fill="none" stroke="#ff0000" stroke-width="2"/>
<path d="M378.453,357.342v -0.030806" fill="none" stroke="#ff0000" stroke-width="2"/>
<path d="M359.555,357.342h 18.8976" fill="none" stroke="#ff0000" stroke-width="2"/>
<path d="M378.453,357.342h 18.8976" fill="none" stroke="#ff0000" stroke-width="2"/>
<g stroke="#ff0000" stroke-width="1" fill="none">
<line x1="377.453" y1="357.342" x2="378.453" y2="357.342"/>
</g>
<path d="M454.043,359.739v -0.0130943" fill="none" stroke="#ff0000" stroke-width="2"/>
<path d="M454.043,359.726v -0.0130943" fill="none" stroke="#ff0000" stroke-width="2"/>
<path d="M397.35,359.726h 56.6929" fill="none" stroke="#ff0000" stroke-width="2"/>
<path d="M454.043,359.726h 56.6929" fill="none" stroke="#ff0000" stroke-width="2"/>
<g stroke="#ff0000" stroke-width="1" fill="none">
<line x1="453.043" y1="359.726" x2="454.043" y2="359.726"/>
</g>
<rect x="334.988" y="41.9746" width="170.079" height="114.476" fill="white"/>
<text xml:space="preserve" x="376.873" y="60.6747" fill="black" font-size="12.4517" font-family="Helvetica">Data</text>
<path d="M356.248,52.4919v -4.79354" fill="none" stroke="black" stroke-width="2"/>
<path d="M356.248,60.0762v 4.79354" fill="none" stroke="black" stroke-width="2"/>
<g fill="black">
<circle cx="356.248" cy="56.2841" r="3.79217"/>
</g>
<text xml:space="preserve" x="376.873" y="89.116" fill="black" font-size="12.4517" font-family="Helvetica">Total unc.</text>
<path d="M341.366,94.9198h 29.7638v -20.0333h -29.7638z" fill="#cccccc"/>
<path d="M341.366,74.8864h 29.7638" fill="none" stroke="black" stroke-width="2"/>
<path d="M341.366,94.9198h 29.7638" fill="none" stroke="black" stroke-width="2"/>
<path d="M371.13,94.9198v -20.0333" fill="none" stroke="black" stroke-width="2"/>
<path d="M341.366,94.9198v -20.0333" fill="none" stroke="black" stroke-width="2"/>
<text xml:space="preserve" x="376.873" y="116.609" fill="black" font-size="12.4517" font-family="Helvetica">Powheg+Pythia8</text>
<path d="M341.366,113.522h 29.7638" fill="none" stroke="#ff0000" stroke-width="2"/>
<path d="M356.248,122.108v -17.1714" fill="none" stroke="#ff0000" stroke-width="2"/>
<text xml:space="preserve" x="376.873" y="145.05" fill="black" font-size="12.4517" font-family="Helvetica">Powheg+Pythia8 unc</text>
<path d="M365.695,132.124l 5.43468, 14.9131" fill="none" stroke="#ff0000"/>
<path d="M354.836,132.124l 7.30059, 20.0333" fill="none" stroke="#ff0000"/>
<path d="M343.976,132.124l 7.30059, 20.0333" fill="none" stroke="#ff0000"/>
<path d="M341.366,132.124h 29.7638" fill="none" stroke="#ff0000" stroke-width="2"/>
<path d="M341.366,152.158h 29.7638" fill="none" stroke="#ff0000" stroke-width="2"/>
<path d="M371.13,152.158v -20.0333" fill="none" stroke="#ff0000" stroke-width="2"/>
<path d="M341.366,152.158v -20.0333" fill="none" stroke="#ff0000" stroke-width="2"/>
<text xml:space="preserve" x="420.483" y="30.3373" fill="black" font-size="21.5048" font-family="Helvetica"> (13 TeV)</text>
<text xml:space="preserve" x="410.054" y="19.9089" fill="black" font-size="14.5032" font-family="Helvetica">-1</text>
<text xml:space="preserve" x="343.691" y="30.3373" fill="black" font-size="21.5048" font-family="Helvetica">20.1 fb</text>
<text xml:space="preserve" x="57.1929" y="30.527" fill="black" font-size="26.756" font-family="Helvetica" font-weight="bold">CMS</text>
<text xml:space="preserve" x="77.2914" y="64.4669" fill="black" font-size="20.4545" font-family="Helvetica" font-style="oblique">Work in progress</text>
<rect x="0.5" y="381.587" width="566.929" height="136.281" fill="white"/>
<rect x="57.1929" y="385.675" width="453.543" height="102.211" fill="white"/>
<rect x="57.1929" y="385.675" width="453.543" height="102.211" fill="none" stroke="black"/>
<rect x="57.1929" y="385.675" width="453.543" height="102.211" fill="white"/>
<rect x="57.1929" y="385.675" width="453.543" height="102.211" fill="none" stroke="black"/>
<path d="M57.1929,487.886h 453.543" fill="none" stroke="black"/>
<path d="M57.1929,487.886v -102.211" fill="none" stroke="black"/>
<path d="M510.736,487.886h -453.543" fill="none" stroke="black" stroke-dasharray=" 1, 2"/>
<path d="M510.736,462.333h -453.543" fill="none" stroke="black" stroke-dasharray=" 1, 2"/>
<path d="M510.736,436.781h -453.543" fill="none" stroke="black" stroke-dasharray=" 1, 2"/>
<path d="M510.736,411.228h -453.543" fill="none" stroke="black" stroke-dasharray=" 1, 2"/>
<path d="M510.736,385.675h -453.543" fill="none" stroke="black" stroke-dasharray=" 1, 2"/>
<rect x="57.1929" y="430.342" width="37.7953" height="12.8767" fill="#cccccc"/>
<g fill="black">
<circle cx="76.0906" cy="436.781" r="3.79217"/>
</g>
<rect x="94.9882" y="429.885" width="37.7953" height="13.7912" fill="#cccccc"/>
<g fill="black">
<circle cx="113.886" cy="436.781" r="3.79217"/>
</g>
<rect x="132.783" y="428.329" width="37.7953" height="16.9028" fill="#cccccc"/>
<g fill="black">
<circle cx="151.681" cy="436.781" r="3.79217"/>
</g>
<rect x="170.579" y="426.419" width="37.7953" height="20.7241" fill="#cccccc"/>
<g fill="black">
<circle cx="189.476" cy="436.781" r="3.79217"/>
</g>
<rect x="208.374" y="426.495" width="37.7953" height="20.5716" fill="#cccccc"/>
<g fill="black">
<circle cx="227.272" cy="436.781" r="3.79217"/>
</g>
<rect x="246.169" y="425.489" width="37.7953" height="22.5829" fill="#cccccc"/>
<g fill="black">
<circle cx="265.067" cy="436.781" r="3.79217"/>
</g>
<rect x="283.965" y="419.542" width="37.7953" height="34.4769" fill="#cccccc"/>
<g fill="black">
<circle cx="302.862" cy="436.781" r="3.79217"/>
</g>
<rect x="321.76" y="420.52" width="37.7953" height="32.5223" fill="#cccccc"/>
<g fill="black">
<circle cx="340.657" cy="436.781" r="3.79217"/>
</g>
<rect x="359.555" y="419.201" width="37.7953" height="35.1603" fill="#cccccc"/>
<g fill="black">
<circle cx="378.453" cy="436.781" r="3.79217"/>
</g>
<rect x="397.35" y="416.807" width="113.386" height="39.9472" fill="#cccccc"/>
<g fill="black">
<circle cx="454.043" cy="436.781" r="3.79217"/>
</g>
<path d="M57.1929,487.886h 453.543" fill="none" stroke="black"/>
<path d="M94.9882,484.615v 3.27075" fill="none" stroke="black"/>
<path d="M113.886,486.251v 1.63537" fill="none" stroke="black"/>
<path d="M132.783,486.251v 1.63537" fill="none" stroke="black"/>
<path d="M151.681,486.251v 1.63537" fill="none" stroke="black"/>
<path d="M170.579,484.615v 3.27075" fill="none" stroke="black"/>
<path d="M189.476,486.251v 1.63537" fill="none" stroke="black"/>
<path d="M208.374,486.251v 1.63537" fill="none" stroke="black"/>
<path d="M227.272,486.251v 1.63537" fill="none" stroke="black"/>
<path d="M246.169,484.615v 3.27075" fill="none" stroke="black"/>
<path d="M265.067,486.251v 1.63537" fill="none" stroke="black"/>
<path d="M283.965,486.251v 1.63537" fill="none" stroke="black"/>
<path d="M302.862,486.251v 1.63537" fill="none" stroke="black"/>
<path d="M321.76,484.615v 3.27075" fill="none" stroke="black"/>
<path d="M340.657,486.251v 1.63537" fill="none" stroke="black"/>
<path d="M359.555,486.251v 1.63537" fill="none" stroke="black"/>
<path d="M378.453,486.251v 1.63537" fill="none" stroke="black"/>
<path d="M397.35,484.615v 3.27075" fill="none" stroke="black"/>
<path d="M416.248,486.251v 1.63537" fill="none" stroke="black"/>
<path d="M435.146,486.251v 1.63537" fill="none" stroke="black"/>
<path d="M454.043,486.251v 1.63537" fill="none" stroke="black"/>
<path d="M472.941,484.615v 3.27075" fill="none" stroke="black"/>
<path d="M94.9882,484.615v 3.27075" fill="none" stroke="black"/>
<path d="M76.0906,486.251v 1.63537" fill="none" stroke="black"/>
<path d="M57.1929,486.251v 1.63537" fill="none" stroke="black"/>
<path d="M472.941,484.615v 3.27075" fill="none" stroke="black"/>
<path d="M491.839,486.251v 1.63537" fill="none" stroke="black"/>
<text xml:space="preserve" x="89.616" y="502.462" fill="black" font-size="15.5034" font-family="Helvetica">2</text>
<text xml:space="preserve" x="165.459" y="502.462" fill="black" font-size="15.5034" font-family="Helvetica">4</text>
<text xml:space="preserve" x="241.303" y="502.462" fill="black" font-size="15.5034" font-family="Helvetica">6</text>
<text xml:space="preserve" x="316.198" y="502.462" fill="black" font-size="15.5034" font-family="Helvetica">8</text>
<text xml:space="preserve" x="388.249" y="502.462" fill="black" font-size="15.5034" font-family="Helvetica">10</text>
<text xml:space="preserve" x="464.093" y="502.462" fill="black" font-size="15.5034" font-family="Helvetica">12</text>
<text xml:space="preserve" x="505.806" y="517.631" fill="black" font-size="14.8783" font-family="Helvetica"> </text>
<text xml:space="preserve" x="498.222" y="517.631" fill="black" font-size="14.8783" font-family="Times">&#0967;</text>
<text xml:space="preserve" x="451.768" y="517.631" fill="black" font-size="14.8783" font-family="Helvetica">Parton </text>
<path d="M57.1929,487.886v -102.211" fill="none" stroke="black"/>
<path d="M69.9488,487.886h -12.7559" fill="none" stroke="black"/>
<path d="M63.5709,482.776h -6.37795" fill="none" stroke="black"/>
<path d="M63.5709,477.665h -6.37795" fill="none" stroke="black"/>
<path d="M63.5709,472.555h -6.37795" fill="none" stroke="black"/>
<path d="M63.5709,467.444h -6.37795" fill="none" stroke="black"/>
<path d="M69.9488,462.333h -12.7559" fill="none" stroke="black"/>
<path d="M63.5709,457.223h -6.37795" fill="none" stroke="black"/>
<path d="M63.5709,452.112h -6.37795" fill="none" stroke="black"/>
<path d="M63.5709,447.002h -6.37795" fill="none" stroke="black"/>
<path d="M63.5709,441.891h -6.37795" fill="none" stroke="black"/>
<path d="M69.9488,436.781h -12.7559" fill="none" stroke="black"/>
<path d="M63.5709,431.67h -6.37795" fill="none" stroke="black"/>
<path d="M63.5709,426.56h -6.37795" fill="none" stroke="black"/>
<path d="M63.5709,421.449h -6.37795" fill="none" stroke="black"/>
<path d="M63.5709,416.339h -6.37795" fill="none" stroke="black"/>
<path d="M69.9488,411.228h -12.7559" fill="none" stroke="black"/>
<path d="M63.5709,406.118h -6.37795" fill="none" stroke="black"/>
<path d="M63.5709,401.007h -6.37795" fill="none" stroke="black"/>
<path d="M63.5709,395.896h -6.37795" fill="none" stroke="black"/>
<path d="M63.5709,390.786h -6.37795" fill="none" stroke="black"/>
<path d="M69.9488,385.675h -12.7559" fill="none" stroke="black"/>
<text xml:space="preserve" x="46.006" y="492.982" fill="black" font-size="13.0028" font-family="Helvetica">2</text>
<text xml:space="preserve" x="38.4217" y="492.982" fill="black" font-size="13.0028" font-family="Times">&#8722;</text>
<text xml:space="preserve" x="47.9021" y="467.385" fill="black" font-size="13.0028" font-family="Helvetica">1</text>
<text xml:space="preserve" x="40.3178" y="467.385" fill="black" font-size="13.0028" font-family="Times">&#8722;</text>
<text xml:space="preserve" x="46.006" y="440.84" fill="black" font-size="13.0028" font-family="Helvetica">0</text>
<text xml:space="preserve" x="47.9021" y="416.19" fill="black" font-size="13.0028" font-family="Helvetica">1</text>
<text xml:space="preserve" x="46.006" y="390.593" fill="black" font-size="13.0028" font-family="Helvetica">2</text>
<g transform="rotate(-90,26.0971,474.969)">
<text xml:space="preserve" x="26.0971" y="474.969" fill="black" font-size="14.8783" font-family="Helvetica">The./data - 1</text>
</g>
<path d="M76.0906,437.708v -0.927604" fill="none" stroke="black" stroke-width="2"/>
<path d="M76.0906,436.781v -0.927604" fill="none" stroke="black" stroke-width="2"/>
<path d="M57.1929,436.781h 18.8976" fill="none" stroke="black" stroke-width="2"/>
<path d="M76.0906,436.781h 18.8976" fill="none" stroke="black" stroke-width="2"/>
<g stroke="black" stroke-width="1" fill="none">
<line x1="75.0906" y1="436.781" x2="76.0906" y2="436.781"/>
</g>
<path d="M113.886,438.007v -1.2266" fill="none" stroke="black" stroke-width="2"/>
<path d="M113.886,436.781v -1.2266" fill="none" stroke="black" stroke-width="2"/>
<path d="M94.9882,436.781h 18.8976" fill="none" stroke="black" stroke-width="2"/>
<path d="M113.886,436.781h 18.8976" fill="none" stroke="black" stroke-width="2"/>
<g stroke="black" stroke-width="1" fill="none">
<line x1="112.886" y1="436.781" x2="113.886" y2="436.781"/>
</g>
<path d="M151.681,438.508v -1.72752" fill="none" stroke="black" stroke-width="2"/>
<path d="M151.681,436.781v -1.72752" fill="none" stroke="black" stroke-width="2"/>
<path d="M132.783,436.781h 18.8976" fill="none" stroke="black" stroke-width="2"/>
<path d="M151.681,436.781h 18.8976" fill="none" stroke="black" stroke-width="2"/>
<g stroke="black" stroke-width="1" fill="none">
<line x1="150.681" y1="436.781" x2="151.681" y2="436.781"/>
</g>
<path d="M189.476,439.236v -2.4552" fill="none" stroke="black" stroke-width="2"/>
<path d="M189.476,436.781v -2.4552" fill="none" stroke="black" stroke-width="2"/>
<path d="M170.579,436.781h 18.8976" fill="none" stroke="black" stroke-width="2"/>
<path d="M189.476,436.781h 18.8976" fill="none" stroke="black" stroke-width="2"/>
<g stroke="black" stroke-width="1" fill="none">
<line x1="188.476" y1="436.781" x2="189.476" y2="436.781"/>
</g>
<path d="M227.272,440.149v -3.36791" fill="none" stroke="black" stroke-width="2"/>
<path d="M227.272,436.781v -3.36791" fill="none" stroke="black" stroke-width="2"/>
<path d="M208.374,436.781h 18.8976" fill="none" stroke="black" stroke-width="2"/>
<path d="M227.272,436.781h 18.8976" fill="none" stroke="black" stroke-width="2"/>
<g stroke="black" stroke-width="1" fill="none">
<line x1="226.272" y1="436.781" x2="227.272" y2="436.781"/>
</g>
<path d="M265.067,441.758v -4.97722" fill="none" stroke="black" stroke-width="2"/>
<path d="M265.067,436.781v -4.97722" fill="none" stroke="black" stroke-width="2"/>
<path d="M246.169,436.781h 18.8976" fill="none" stroke="black" stroke-width="2"/>
<path d="M265.067,436.781h 18.8976" fill="none" stroke="black" stroke-width="2"/>
<g stroke="black" stroke-width="1" fill="none">
<line x1="264.067" y1="436.781" x2="265.067" y2="436.781"/>
</g>
<path d="M302.862,443.518v -6.73764" fill="none" stroke="black" stroke-width="2"/>
<path d="M302.862,436.781v -6.73764" fill="none" stroke="black" stroke-width="2"/>
<path d="M283.965,436.781h 18.8976" fill="none" stroke="black" stroke-width="2"/>
<path d="M302.862,436.781h 18.8976" fill="none" stroke="black" stroke-width="2"/>
<g stroke="black" stroke-width="1" fill="none">
<line x1="301.862" y1="436.781" x2="302.862" y2="436.781"/>
</g>
<path d="M340.657,446.945v -10.1641" fill="none" stroke="black" stroke-width="2"/>
<path d="M340.657,436.781v -10.1641" fill="none" stroke="black" stroke-width="2"/>
<path d="M321.76,436.781h 18.8976" fill="none" stroke="black" stroke-width="2"/>
<path d="M340.657,436.781h 18.8976" fill="none" stroke="black" stroke-width="2"/>
<g stroke="black" stroke-width="1" fill="none">
<line x1="339.657" y1="436.781" x2="340.657" y2="436.781"/>
</g>
<path d="M378.453,450.321v -13.5407" fill="none" stroke="black" stroke-width="2"/>
<path d="M378.453,436.781v -13.5407" fill="none" stroke="black" stroke-width="2"/>
<path d="M359.555,436.781h 18.8976" fill="none" stroke="black" stroke-width="2"/>
<path d="M378.453,436.781h 18.8976" fill="none" stroke="black" stroke-width="2"/>
<g stroke="black" stroke-width="1" fill="none">
<line x1="377.453" y1="436.781" x2="378.453" y2="436.781"/>
</g>
<path d="M454.043,444.685v -7.90426" fill="none" stroke="black" stroke-width="2"/>
<path d="M454.043,436.781v -7.90426" fill="none" stroke="black" stroke-width="2"/>
<path d="M397.35,436.781h 56.6929" fill="none" stroke="black" stroke-width="2"/>
<path d="M454.043,436.781h 56.6929" fill="none" stroke="black" stroke-width="2"/>
<g stroke="black" stroke-width="1" fill="none">
<line x1="453.043" y1="436.781" x2="454.043" y2="436.781"/>
</g>
<path d="M94.6122,418.572l 0.375989, 1.03123" fill="none" stroke="#ff0000"/>
<path d="M83.7526,418.572l 6.10696, 16.7496" fill="none" stroke="#ff0000"/>
<path d="M72.8929,418.572l 6.10696, 16.7496" fill="none" stroke="#ff0000"/>
<path d="M62.0333,418.572l 6.10696, 16.7496" fill="none" stroke="#ff0000"/>
<path d="M57.1929,435.082l 0.0876814, 0.240485" fill="none" stroke="#ff0000"/>
<g stroke="#ff0000" stroke-width="1" fill="none">
<line x1="75.0906" y1="426.947" x2="76.0906" y2="426.947"/>
</g>
<path d="M125.589,414.178l 7.19441, 19.7322" fill="none" stroke="#ff0000"/>
<path d="M114.729,414.178l 8.34679, 22.8928" fill="none" stroke="#ff0000"/>
<path d="M103.87,414.178l 8.34679, 22.8928" fill="none" stroke="#ff0000"/>
<path d="M94.9882,419.604l 6.36873, 17.4676" fill="none" stroke="#ff0000"/>
<g stroke="#ff0000" stroke-width="1" fill="none">
<line x1="112.886" y1="425.625" x2="113.886" y2="425.625"/>
</g>
<path d="M168.035,411.455l 2.54407, 6.97765" fill="none" stroke="#ff0000"/>
<path d="M157.175,411.455l 10.4792, 28.7415" fill="none" stroke="#ff0000"/>
<path d="M146.315,411.455l 10.4792, 28.7415" fill="none" stroke="#ff0000"/>
<path d="M135.456,411.455l 10.4792, 28.7415" fill="none" stroke="#ff0000"/>
<path d="M132.783,433.911l 2.29187, 6.28594" fill="none" stroke="#ff0000"/>
<g stroke="#ff0000" stroke-width="1" fill="none">
<line x1="150.681" y1="425.826" x2="151.681" y2="425.826"/>
</g>
<path d="M200.052,409.915l 8.32184, 22.8244" fill="none" stroke="#ff0000"/>
<path d="M189.193,409.915l 12.0826, 33.139" fill="none" stroke="#ff0000"/>
<path d="M178.333,409.915l 12.0826, 33.139" fill="none" stroke="#ff0000"/>
<path d="M170.579,418.433l 8.97711, 24.6216" fill="none" stroke="#ff0000"/>
<g stroke="#ff0000" stroke-width="1" fill="none">
<line x1="188.476" y1="426.485" x2="189.476" y2="426.485"/>
</g>
<path d="M242.284,406.605l 3.88552, 10.6568" fill="none" stroke="#ff0000"/>
<path d="M231.424,406.605l 13.8229, 37.9122" fill="none" stroke="#ff0000"/>
<path d="M220.564,406.605l 13.8229, 37.9122" fill="none" stroke="#ff0000"/>
<path d="M209.705,406.605l 13.8229, 37.9122" fill="none" stroke="#ff0000"/>
<path d="M208.374,432.74l 4.29409, 11.7774" fill="none" stroke="#ff0000"/>
<g stroke="#ff0000" stroke-width="1" fill="none">
<line x1="226.272" y1="425.561" x2="227.272" y2="425.561"/>
</g>
<path d="M281.374,394.677l 2.59107, 7.10655" fill="none" stroke="#ff0000"/>
<path d="M270.514,394.677l 13.4507, 36.8914" fill="none" stroke="#ff0000"/>
<path d="M259.654,394.677l 18.1429, 49.7607" fill="none" stroke="#ff0000"/>
<path d="M248.795,394.677l 18.1429, 49.7607" fill="none" stroke="#ff0000"/>
<path d="M246.169,417.262l 9.90857, 27.1763" fill="none" stroke="#ff0000"/>
<g stroke="#ff0000" stroke-width="1" fill="none">
<line x1="264.067" y1="419.558" x2="265.067" y2="419.558"/>
</g>
<path d="M316.076,400.501l 5.68402, 15.5896" fill="none" stroke="#ff0000"/>
<path d="M305.216,400.501l 16.5437, 45.3744" fill="none" stroke="#ff0000"/>
<path d="M294.357,400.501l 17.4627, 47.8952" fill="none" stroke="#ff0000"/>
<path d="M283.965,401.784l 16.9951, 46.6125" fill="none" stroke="#ff0000"/>
<path d="M283.965,431.569l 6.13542, 16.8277" fill="none" stroke="#ff0000"/>
<g stroke="#ff0000" stroke-width="1" fill="none">
<line x1="301.862" y1="424.449" x2="302.862" y2="424.449"/>
</g>
<path d="M355.326,389.014l 4.22901, 11.5989" fill="none" stroke="#ff0000"/>
<path d="M344.466,389.014l 15.0886, 41.3837" fill="none" stroke="#ff0000"/>
<path d="M333.607,389.014l 22.1525, 60.7579" fill="none" stroke="#ff0000"/>
<path d="M322.747,389.014l 22.1525, 60.7579" fill="none" stroke="#ff0000"/>
<path d="M321.76,416.091l 12.2802, 33.681" fill="none" stroke="#ff0000"/>
<path d="M321.76,445.876l 1.42058, 3.89623" fill="none" stroke="#ff0000"/>
<g stroke="#ff0000" stroke-width="1" fill="none">
<line x1="339.657" y1="419.393" x2="340.657" y2="419.393"/>
</g>
<path d="M386.688,385.675l 10.6626, 29.2444" fill="none" stroke="#ff0000"/>
<path d="M375.828,385.675l 21.5222, 59.0292" fill="none" stroke="#ff0000"/>
<path d="M364.969,385.675l 23.8268, 65.35" fill="none" stroke="#ff0000"/>
<path d="M359.555,400.613l 18.3806, 50.4126" fill="none" stroke="#ff0000"/>
<path d="M359.555,430.398l 7.52094, 20.6277" fill="none" stroke="#ff0000"/>
<g stroke="#ff0000" stroke-width="1" fill="none">
<line x1="377.453" y1="411.069" x2="378.453" y2="411.069"/>
</g>
<path d="M508.327,391.664l 2.40876, 6.60651" fill="none" stroke="#ff0000"/>
<path d="M497.468,391.664l 13.2684, 36.3913" fill="none" stroke="#ff0000"/>
<path d="M486.608,391.664l 22.1457, 60.7391" fill="none" stroke="#ff0000"/>
<path d="M475.749,391.664l 22.1457, 60.7391" fill="none" stroke="#ff0000"/>
<path d="M464.889,391.664l 22.1457, 60.7391" fill="none" stroke="#ff0000"/>
<path d="M454.029,391.664l 22.1457, 60.7391" fill="none" stroke="#ff0000"/>
<path d="M443.17,391.664l 22.1457, 60.7391" fill="none" stroke="#ff0000"/>
<path d="M432.31,391.664l 22.1457, 60.7391" fill="none" stroke="#ff0000"/>
<path d="M421.45,391.664l 22.1457, 60.7391" fill="none" stroke="#ff0000"/>
<path d="M410.591,391.664l 22.1457, 60.7391" fill="none" stroke="#ff0000"/>
<path d="M399.731,391.664l 22.1457, 60.7391" fill="none" stroke="#ff0000"/>
<path d="M397.35,414.92l 13.6667, 37.4837" fill="none" stroke="#ff0000"/>
<path d="M397.35,444.705l 2.80705, 7.69892" fill="none" stroke="#ff0000"/>
<g stroke="#ff0000" stroke-width="1" fill="none">
<line x1="453.043" y1="422.034" x2="454.043" y2="422.034"/>
</g>
<path d="M76.0906,427.856v -0.908963" fill="none" stroke="#ff0000" stroke-width="2"/>
<path d="M76.0906,426.947v -0.908963" fill="none" stroke="#ff0000" stroke-width="2"/>
<path d="M57.1929,426.947h 18.8976" fill="none" stroke="#ff0000" stroke-width="2"/>
<path d="M76.0906,426.947h 18.8976" fill="none" stroke="#ff0000" stroke-width="2"/>
<g stroke="#ff0000" stroke-width="1" fill="none">
<line x1="75.0906" y1="426.947" x2="76.0906" y2="426.947"/>
</g>
<path d="M113.886,426.872v -1.24674" fill="none" stroke="#ff0000" stroke-width="2"/>
<path d="M113.886,425.625v -1.24674" fill="none" stroke="#ff0000" stroke-width="2"/>
<path d="M94.9882,425.625h 18.8976" fill="none" stroke="#ff0000" stroke-width="2"/>
<path d="M113.886,425.625h 18.8976" fill="none" stroke="#ff0000" stroke-width="2"/>
<g stroke="#ff0000" stroke-width="1" fill="none">
<line x1="112.886" y1="425.625" x2="113.886" y2="425.625"/>
</g>
<path d="M151.681,427.572v -1.74612" fill="none" stroke="#ff0000" stroke-width="2"/>
<path d="M151.681,425.826v -1.74612" fill="none" stroke="#ff0000" stroke-width="2"/>
<path d="M132.783,425.826h 18.8976" fill="none" stroke="#ff0000" stroke-width="2"/>
<path d="M151.681,425.826h 18.8976" fill="none" stroke="#ff0000" stroke-width="2"/>
<g stroke="#ff0000" stroke-width="1" fill="none">
<line x1="150.681" y1="425.826" x2="151.681" y2="425.826"/>
</g>
<path d="M189.476,428.921v -2.43669" fill="none" stroke="#ff0000" stroke-width="2"/>
<path d="M189.476,426.485v -2.43669" fill="none" stroke="#ff0000" stroke-width="2"/>
<path d="M170.579,426.485h 18.8976" fill="none" stroke="#ff0000" stroke-width="2"/>
<path d="M189.476,426.485h 18.8976" fill="none" stroke="#ff0000" stroke-width="2"/>
<g stroke="#ff0000" stroke-width="1" fill="none">
<line x1="188.476" y1="426.485" x2="189.476" y2="426.485"/>
</g>
<path d="M227.272,428.989v -3.42849" fill="none" stroke="#ff0000" stroke-width="2"/>
<path d="M227.272,425.561v -3.42849" fill="none" stroke="#ff0000" stroke-width="2"/>
<path d="M208.374,425.561h 18.8976" fill="none" stroke="#ff0000" stroke-width="2"/>
<path d="M227.272,425.561h 18.8976" fill="none" stroke="#ff0000" stroke-width="2"/>
<g stroke="#ff0000" stroke-width="1" fill="none">
<line x1="226.272" y1="425.561" x2="227.272" y2="425.561"/>
</g>
<path d="M265.067,425.451v -5.89329" fill="none" stroke="#ff0000" stroke-width="2"/>
<path d="M265.067,419.558v -5.89329" fill="none" stroke="#ff0000" stroke-width="2"/>
<path d="M246.169,419.558h 18.8976" fill="none" stroke="#ff0000" stroke-width="2"/>
<path d="M265.067,419.558h 18.8976" fill="none" stroke="#ff0000" stroke-width="2"/>
<g stroke="#ff0000" stroke-width="1" fill="none">
<line x1="264.067" y1="419.558" x2="265.067" y2="419.558"/>
</g>
<path d="M302.862,431.514v -7.0652" fill="none" stroke="#ff0000" stroke-width="2"/>
<path d="M302.862,424.449v -7.0652" fill="none" stroke="#ff0000" stroke-width="2"/>
<path d="M283.965,424.449h 18.8976" fill="none" stroke="#ff0000" stroke-width="2"/>
<path d="M302.862,424.449h 18.8976" fill="none" stroke="#ff0000" stroke-width="2"/>
<g stroke="#ff0000" stroke-width="1" fill="none">
<line x1="301.862" y1="424.449" x2="302.862" y2="424.449"/>
</g>
<path d="M340.657,431.473v -12.0797" fill="none" stroke="#ff0000" stroke-width="2"/>
<path d="M340.657,419.393v -12.0797" fill="none" stroke="#ff0000" stroke-width="2"/>
<path d="M321.76,419.393h 18.8976" fill="none" stroke="#ff0000" stroke-width="2"/>
<path d="M340.657,419.393h 18.8976" fill="none" stroke="#ff0000" stroke-width="2"/>
<g stroke="#ff0000" stroke-width="1" fill="none">
<line x1="339.657" y1="419.393" x2="340.657" y2="419.393"/>
</g>
<path d="M378.453,430.281v -19.2113" fill="none" stroke="#ff0000" stroke-width="2"/>
<path d="M378.453,411.069v -19.2113" fill="none" stroke="#ff0000" stroke-width="2"/>
<path d="M359.555,411.069h 18.8976" fill="none" stroke="#ff0000" stroke-width="2"/>
<path d="M378.453,411.069h 18.8976" fill="none" stroke="#ff0000" stroke-width="2"/>
<g stroke="#ff0000" stroke-width="1" fill="none">
<line x1="377.453" y1="411.069" x2="378.453" y2="411.069"/>
</g>
<path d="M454.043,430.851v -8.81677" fill="none" stroke="#ff0000" stroke-width="2"/>
<path d="M454.043,422.034v -8.81677" fill="none" stroke="#ff0000" stroke-width="2"/>
<path d="M397.35,422.034h 56.6929" fill="none" stroke="#ff0000" stroke-width="2"/>
<path d="M454.043,422.034h 56.6929" fill="none" stroke="#ff0000" stroke-width="2"/>
<g stroke="#ff0000" stroke-width="1" fill="none">
<line x1="453.043" y1="422.034" x2="454.043" y2="422.034"/>
</g></svg>
