<?xml version="1.0" standalone="no"?>
<svg width="567.429" height="545.624" viewBox="0 0 567.429 545.624" xmlns="http://www.w3.org/2000/svg" shape-rendering="crispEdges">
<title>
/Users/georgebakas/Documents/HEP-NTUA_ul/VariationHandling/FinalResults/results/FinalResult_jetPt0.svg
</title>
<desc>
Creator: ROOT Version 6.22/02
CreationDate: Wed Nov 24 08:11:21 2021</desc>
<defs>
</defs>
<rect x="0.5" y="0" width="566.929" height="545.124" fill="white"/>
<rect x="0.5" y="0" width="566.929" height="381.587" fill="white"/>
<rect x="57.1929" y="38.1587" width="453.543" height="324.349" fill="white"/>
<rect x="57.1929" y="38.1587" width="453.543" height="324.349" fill="none" stroke="black"/>
<rect x="57.1929" y="38.1587" width="453.543" height="324.349" fill="white"/>
<rect x="57.1929" y="38.1587" width="453.543" height="324.349" fill="none" stroke="black"/>
<rect x="57.1929" y="64.5182" width="21.5973" height="19.7231" fill="#cccccc"/>
<g fill="black">
<circle cx="67.9916" cy="73.1169" r="3.79217"/>
</g>
<rect x="78.7902" y="72.253" width="30.2362" height="22.4163" fill="#cccccc"/>
<g fill="black">
<circle cx="93.9083" cy="81.8351" r="3.79217"/>
</g>
<rect x="109.026" y="98.1695" width="34.5557" height="25.9419" fill="#cccccc"/>
<g fill="black">
<circle cx="126.304" cy="108.973" r="3.79217"/>
</g>
<rect x="143.582" y="132.746" width="64.7919" height="31.304" fill="#cccccc"/>
<g fill="black">
<circle cx="175.978" cy="145.269" r="3.79217"/>
</g>
<rect x="208.374" y="194.21" width="129.584" height="59.7057" fill="#cccccc"/>
<g fill="black">
<circle cx="273.166" cy="213.394" r="3.79217"/>
</g>
<rect x="337.958" y="253.633" width="172.778" height="108.874" fill="#cccccc"/>
<g fill="black">
<circle cx="424.347" cy="285.278" r="3.79217"/>
</g>
<path d="M57.1929,362.508h 453.543" fill="none" stroke="black"/>
<path d="M121.985,353.349v 9.15809" fill="none" stroke="black"/>
<path d="M143.582,357.929v 4.57904" fill="none" stroke="black"/>
<path d="M165.179,357.929v 4.57904" fill="none" stroke="black"/>
<path d="M186.777,357.929v 4.57904" fill="none" stroke="black"/>
<path d="M208.374,353.349v 9.15809" fill="none" stroke="black"/>
<path d="M229.971,357.929v 4.57904" fill="none" stroke="black"/>
<path d="M251.569,357.929v 4.57904" fill="none" stroke="black"/>
<path d="M273.166,357.929v 4.57904" fill="none" stroke="black"/>
<path d="M294.763,353.349v 9.15809" fill="none" stroke="black"/>
<path d="M316.361,357.929v 4.57904" fill="none" stroke="black"/>
<path d="M337.958,357.929v 4.57904" fill="none" stroke="black"/>
<path d="M359.555,357.929v 4.57904" fill="none" stroke="black"/>
<path d="M381.152,353.349v 9.15809" fill="none" stroke="black"/>
<path d="M402.75,357.929v 4.57904" fill="none" stroke="black"/>
<path d="M424.347,357.929v 4.57904" fill="none" stroke="black"/>
<path d="M445.944,357.929v 4.57904" fill="none" stroke="black"/>
<path d="M467.542,353.349v 9.15809" fill="none" stroke="black"/>
<path d="M121.985,353.349v 9.15809" fill="none" stroke="black"/>
<path d="M100.388,357.929v 4.57904" fill="none" stroke="black"/>
<path d="M78.7902,357.929v 4.57904" fill="none" stroke="black"/>
<path d="M57.1929,357.929v 4.57904" fill="none" stroke="black"/>
<path d="M467.542,353.349v 9.15809" fill="none" stroke="black"/>
<path d="M489.139,357.929v 4.57904" fill="none" stroke="black"/>
<text xml:space="preserve" x="106.681" y="380.165" fill="black" font-size="18.004" font-family="Helvetica">600</text>
<text xml:space="preserve" x="192.953" y="380.165" fill="black" font-size="18.004" font-family="Helvetica">800</text>
<text xml:space="preserve" x="274.484" y="380.165" fill="black" font-size="18.004" font-family="Helvetica">1000</text>
<text xml:space="preserve" x="360.756" y="380.165" fill="black" font-size="18.004" font-family="Helvetica">1200</text>
<text xml:space="preserve" x="447.028" y="380.165" fill="black" font-size="18.004" font-family="Helvetica">1400</text>
<text xml:space="preserve" x="416.69" y="401.022" fill="black" font-size="21.5048" font-family="Helvetica">partonPt0</text>
<path d="M57.1929,362.508v -324.349" fill="none" stroke="black"/>
<path d="M64.4213,362.508h -7.22835" fill="none" stroke="black"/>
<path d="M64.4213,356.637h -7.22835" fill="none" stroke="black"/>
<path d="M64.4213,351.552h -7.22835" fill="none" stroke="black"/>
<path d="M64.4213,347.067h -7.22835" fill="none" stroke="black"/>
<path d="M71.6496,343.054h -14.4567" fill="none" stroke="black"/>
<text xml:space="preserve" x="44.1099" y="342.243" fill="black" font-size="12.1693" font-family="Helvetica">5</text>
<text xml:space="preserve" x="37.4736" y="342.243" fill="black" font-size="12.1693" font-family="Times">&#8722;</text>
<text xml:space="preserve" x="17.5648" y="350.776" fill="black" font-size="18.004" font-family="Helvetica">10</text>
<path d="M64.4213,316.658h -7.22835" fill="none" stroke="black"/>
<path d="M64.4213,301.217h -7.22835" fill="none" stroke="black"/>
<path d="M64.4213,290.262h -7.22835" fill="none" stroke="black"/>
<path d="M64.4213,281.764h -7.22835" fill="none" stroke="black"/>
<path d="M64.4213,274.821h -7.22835" fill="none" stroke="black"/>
<path d="M64.4213,268.951h -7.22835" fill="none" stroke="black"/>
<path d="M64.4213,263.866h -7.22835" fill="none" stroke="black"/>
<path d="M64.4213,259.38h -7.22835" fill="none" stroke="black"/>
<path d="M71.6496,255.368h -14.4567" fill="none" stroke="black"/>
<text xml:space="preserve" x="44.1099" y="255.971" fill="black" font-size="12.1693" font-family="Helvetica">4</text>
<text xml:space="preserve" x="37.4736" y="255.971" fill="black" font-size="12.1693" font-family="Times">&#8722;</text>
<text xml:space="preserve" x="17.5648" y="263.556" fill="black" font-size="18.004" font-family="Helvetica">10</text>
<path d="M64.4213,228.972h -7.22835" fill="none" stroke="black"/>
<path d="M64.4213,213.531h -7.22835" fill="none" stroke="black"/>
<path d="M64.4213,202.576h -7.22835" fill="none" stroke="black"/>
<path d="M64.4213,194.078h -7.22835" fill="none" stroke="black"/>
<path d="M64.4213,187.135h -7.22835" fill="none" stroke="black"/>
<path d="M64.4213,181.265h -7.22835" fill="none" stroke="black"/>
<path d="M64.4213,176.18h -7.22835" fill="none" stroke="black"/>
<path d="M64.4213,171.694h -7.22835" fill="none" stroke="black"/>
<path d="M71.6496,167.682h -14.4567" fill="none" stroke="black"/>
<text xml:space="preserve" x="44.1099" y="166.855" fill="black" font-size="12.1693" font-family="Helvetica">3</text>
<text xml:space="preserve" x="37.4736" y="166.855" fill="black" font-size="12.1693" font-family="Times">&#8722;</text>
<text xml:space="preserve" x="17.5648" y="175.388" fill="black" font-size="18.004" font-family="Helvetica">10</text>
<path d="M64.4213,141.286h -7.22835" fill="none" stroke="black"/>
<path d="M64.4213,125.845h -7.22835" fill="none" stroke="black"/>
<path d="M64.4213,114.89h -7.22835" fill="none" stroke="black"/>
<path d="M64.4213,106.392h -7.22835" fill="none" stroke="black"/>
<path d="M64.4213,99.4488h -7.22835" fill="none" stroke="black"/>
<path d="M64.4213,93.5784h -7.22835" fill="none" stroke="black"/>
<path d="M64.4213,88.4933h -7.22835" fill="none" stroke="black"/>
<path d="M64.4213,84.008h -7.22835" fill="none" stroke="black"/>
<path d="M71.6496,79.9957h -14.4567" fill="none" stroke="black"/>
<text xml:space="preserve" x="44.1099" y="80.5836" fill="black" font-size="12.1693" font-family="Helvetica">2</text>
<text xml:space="preserve" x="37.4736" y="80.5836" fill="black" font-size="12.1693" font-family="Times">&#8722;</text>
<text xml:space="preserve" x="17.5648" y="88.1679" fill="black" font-size="18.004" font-family="Helvetica">10</text>
<path d="M64.4213,53.5995h -7.22835" fill="none" stroke="black"/>
<g transform="rotate(-90,-12.7726,107.129)">
<text xml:space="preserve" x="-12.7726" y="107.129" fill="black" font-size="21.5048" font-family="Helvetica"> Parton</text>
</g>
<g transform="rotate(-90,0.5,119.453)">
<text xml:space="preserve" x="0.5" y="119.453" fill="black" font-size="21.5048" font-family="Times">&#0967;</text>
</g>
<g transform="rotate(-90,0.5,130.83)">
<text xml:space="preserve" x="0.5" y="130.83" fill="black" font-size="21.5048" font-family="Helvetica">d</text>
</g>
<g transform="rotate(-90,-23.201,120.401)">
<text xml:space="preserve" x="-23.201" y="120.401" fill="black" font-size="21.5048" font-family="Times">&#0963;</text>
</g>
<g transform="rotate(-90,-23.201,131.778)">
<text xml:space="preserve" x="-23.201" y="131.778" fill="black" font-size="21.5048" font-family="Helvetica">d</text>
</g>
<path d="M67.9916,76.6315v -3.51454" fill="none" stroke="black" stroke-width="2"/>
<path d="M67.9916,73.1169v -3.21742" fill="none" stroke="black" stroke-width="2"/>
<path d="M57.1929,73.1169h 10.7986" fill="none" stroke="black" stroke-width="2"/>
<path d="M67.9916,73.1169h 10.7986" fill="none" stroke="black" stroke-width="2"/>
<g stroke="black" stroke-width="1" fill="none">
<line x1="66.9916" y1="73.1169" x2="67.9916" y2="73.1169"/>
</g>
<path d="M93.9083,84.4976v -2.66256" fill="none" stroke="black" stroke-width="2"/>
<path d="M93.9083,81.8351v -2.4885" fill="none" stroke="black" stroke-width="2"/>
<path d="M78.7902,81.8351h 15.1181" fill="none" stroke="black" stroke-width="2"/>
<path d="M93.9083,81.8351h 15.1181" fill="none" stroke="black" stroke-width="2"/>
<g stroke="black" stroke-width="1" fill="none">
<line x1="92.9083" y1="81.8351" x2="93.9083" y2="81.8351"/>
</g>
<path d="M126.304,112.299v -3.32579" fill="none" stroke="black" stroke-width="2"/>
<path d="M126.304,108.973v -3.05853" fill="none" stroke="black" stroke-width="2"/>
<path d="M109.026,108.973h 17.2778" fill="none" stroke="black" stroke-width="2"/>
<path d="M126.304,108.973h 17.2778" fill="none" stroke="black" stroke-width="2"/>
<g stroke="black" stroke-width="1" fill="none">
<line x1="125.304" y1="108.973" x2="126.304" y2="108.973"/>
</g>
<path d="M175.978,147.949v -2.68073" fill="none" stroke="black" stroke-width="2"/>
<path d="M175.978,145.269v -2.50437" fill="none" stroke="black" stroke-width="2"/>
<path d="M143.582,145.269h 32.396" fill="none" stroke="black" stroke-width="2"/>
<path d="M175.978,145.269h 32.396" fill="none" stroke="black" stroke-width="2"/>
<g stroke="black" stroke-width="1" fill="none">
<line x1="174.978" y1="145.269" x2="175.978" y2="145.269"/>
</g>
<path d="M273.166,217.53v -4.13571" fill="none" stroke="black" stroke-width="2"/>
<path d="M273.166,213.394v -3.73024" fill="none" stroke="black" stroke-width="2"/>
<path d="M208.374,213.394h 64.7919" fill="none" stroke="black" stroke-width="2"/>
<path d="M273.166,213.394h 64.7919" fill="none" stroke="black" stroke-width="2"/>
<g stroke="black" stroke-width="1" fill="none">
<line x1="272.166" y1="213.394" x2="273.166" y2="213.394"/>
</g>
<path d="M424.347,294.709v -9.43122" fill="none" stroke="black" stroke-width="2"/>
<path d="M424.347,285.278v -7.55299" fill="none" stroke="black" stroke-width="2"/>
<path d="M337.958,285.278h 86.3892" fill="none" stroke="black" stroke-width="2"/>
<path d="M424.347,285.278h 86.3892" fill="none" stroke="black" stroke-width="2"/>
<g stroke="black" stroke-width="1" fill="none">
<line x1="423.347" y1="285.278" x2="424.347" y2="285.278"/>
</g>
<path d="M76.5808,53.965l 2.20945, 6.06288" fill="none" stroke="#ff0000"/>
<path d="M65.7211,53.965l 8.04548, 22.0774" fill="none" stroke="#ff0000"/>
<path d="M57.1929,60.3626l 5.71405, 15.6798" fill="none" stroke="#ff0000"/>
<g stroke="#ff0000" stroke-width="1" fill="none">
<line x1="66.9916" y1="63.4257" x2="67.9916" y2="63.4257"/>
</g>
<path d="M100.773,60.7501l 8.25372, 22.6488" fill="none" stroke="#ff0000"/>
<path d="M89.9131,60.7501l 8.26611, 22.6828" fill="none" stroke="#ff0000"/>
<path d="M79.0534,60.7501l 8.26611, 22.6828" fill="none" stroke="#ff0000"/>
<g stroke="#ff0000" stroke-width="1" fill="none">
<line x1="92.9083" y1="70.4271" x2="93.9083" y2="70.4271"/>
</g>
<path d="M141.81,83.9602l 1.77221, 4.86307" fill="none" stroke="#ff0000"/>
<path d="M130.95,83.9602l 10.668, 29.2737" fill="none" stroke="#ff0000"/>
<path d="M120.091,83.9602l 10.668, 29.2737" fill="none" stroke="#ff0000"/>
<path d="M109.231,83.9602l 10.668, 29.2737" fill="none" stroke="#ff0000"/>
<path d="M109.026,113.199l 0.0128803, 0.0353443" fill="none" stroke="#ff0000"/>
<g stroke="#ff0000" stroke-width="1" fill="none">
<line x1="125.304" y1="95.8508" x2="126.304" y2="95.8508"/>
</g>
<path d="M197.832,118.49l 10.5421, 28.9284" fill="none" stroke="#ff0000"/>
<path d="M186.972,118.49l 15.7549, 43.2324" fill="none" stroke="#ff0000"/>
<path d="M176.113,118.49l 15.7549, 43.2324" fill="none" stroke="#ff0000"/>
<path d="M165.253,118.49l 15.7549, 43.2324" fill="none" stroke="#ff0000"/>
<path d="M154.393,118.49l 15.7549, 43.2324" fill="none" stroke="#ff0000"/>
<path d="M143.582,118.623l 15.7064, 43.0995" fill="none" stroke="#ff0000"/>
<path d="M143.582,148.422l 4.84678, 13.2999" fill="none" stroke="#ff0000"/>
<g stroke="#ff0000" stroke-width="1" fill="none">
<line x1="174.978" y1="134.275" x2="175.978" y2="134.275"/>
</g>
<path d="M328.081,177.907l 9.87653, 27.1019" fill="none" stroke="#ff0000"/>
<path d="M317.222,177.907l 20.7362, 56.9015" fill="none" stroke="#ff0000"/>
<path d="M306.362,177.907l 28.8733, 79.2303" fill="none" stroke="#ff0000"/>
<path d="M295.502,177.907l 28.8733, 79.2303" fill="none" stroke="#ff0000"/>
<path d="M284.643,177.907l 28.8733, 79.2303" fill="none" stroke="#ff0000"/>
<path d="M273.783,177.907l 28.8733, 79.2303" fill="none" stroke="#ff0000"/>
<path d="M262.923,177.907l 28.8733, 79.2303" fill="none" stroke="#ff0000"/>
<path d="M252.064,177.907l 28.8733, 79.2303" fill="none" stroke="#ff0000"/>
<path d="M241.204,177.907l 28.8733, 79.2303" fill="none" stroke="#ff0000"/>
<path d="M230.345,177.907l 28.8733, 79.2303" fill="none" stroke="#ff0000"/>
<path d="M219.485,177.907l 28.8733, 79.2303" fill="none" stroke="#ff0000"/>
<path d="M208.625,177.907l 28.8733, 79.2303" fill="none" stroke="#ff0000"/>
<path d="M208.374,207.018l 18.2649, 50.1201" fill="none" stroke="#ff0000"/>
<path d="M208.374,236.817l 7.40524, 20.3205" fill="none" stroke="#ff0000"/>
<g stroke="#ff0000" stroke-width="1" fill="none">
<line x1="272.166" y1="199.823" x2="273.166" y2="199.823"/>
</g>
<path d="M499.974,262.197l 10.7626, 29.5333" fill="none" stroke="#ff0000"/>
<path d="M489.114,262.197l 21.6223, 59.333" fill="none" stroke="#ff0000"/>
<path d="M478.254,262.197l 32.4819, 89.1326" fill="none" stroke="#ff0000"/>
<path d="M467.395,262.197l 36.5555, 100.311" fill="none" stroke="#ff0000"/>
<path d="M456.535,262.197l 36.5555, 100.311" fill="none" stroke="#ff0000"/>
<path d="M445.675,262.197l 36.5555, 100.311" fill="none" stroke="#ff0000"/>
<path d="M434.816,262.197l 36.5555, 100.311" fill="none" stroke="#ff0000"/>
<path d="M423.956,262.197l 36.5555, 100.311" fill="none" stroke="#ff0000"/>
<path d="M413.096,262.197l 36.5555, 100.311" fill="none" stroke="#ff0000"/>
<path d="M402.237,262.197l 36.5555, 100.311" fill="none" stroke="#ff0000"/>
<path d="M391.377,262.197l 36.5555, 100.311" fill="none" stroke="#ff0000"/>
<path d="M380.518,262.197l 36.5555, 100.311" fill="none" stroke="#ff0000"/>
<path d="M369.658,262.197l 36.5555, 100.311" fill="none" stroke="#ff0000"/>
<path d="M358.798,262.197l 36.5555, 100.311" fill="none" stroke="#ff0000"/>
<path d="M347.939,262.197l 36.5555, 100.311" fill="none" stroke="#ff0000"/>
<path d="M337.958,264.608l 35.6767, 97.8992" fill="none" stroke="#ff0000"/>
<path d="M337.958,294.408l 24.817, 68.0996" fill="none" stroke="#ff0000"/>
<path d="M337.958,324.208l 13.9574, 38.3" fill="none" stroke="#ff0000"/>
<path d="M337.958,354.007l 3.09775, 8.50044" fill="none" stroke="#ff0000"/>
<g stroke="#ff0000" stroke-width="1" fill="none">
<line x1="423.347" y1="293.039" x2="424.347" y2="293.039"/>
</g>
<path d="M67.9916,63.4696v -0.0438744" fill="none" stroke="#ff0000" stroke-width="2"/>
<path d="M67.9916,63.4257v -0.0438239" fill="none" stroke="#ff0000" stroke-width="2"/>
<path d="M57.1929,63.4257h 10.7986" fill="none" stroke="#ff0000" stroke-width="2"/>
<path d="M67.9916,63.4257h 10.7986" fill="none" stroke="#ff0000" stroke-width="2"/>
<g stroke="#ff0000" stroke-width="1" fill="none">
<line x1="66.9916" y1="63.4257" x2="67.9916" y2="63.4257"/>
</g>
<path d="M93.9083,70.4678v -0.0407251" fill="none" stroke="#ff0000" stroke-width="2"/>
<path d="M93.9083,70.4271v -0.0406816" fill="none" stroke="#ff0000" stroke-width="2"/>
<path d="M78.7902,70.4271h 15.1181" fill="none" stroke="#ff0000" stroke-width="2"/>
<path d="M93.9083,70.4271h 15.1181" fill="none" stroke="#ff0000" stroke-width="2"/>
<g stroke="#ff0000" stroke-width="1" fill="none">
<line x1="92.9083" y1="70.4271" x2="93.9083" y2="70.4271"/>
</g>
<path d="M126.304,95.9046v -0.053777" fill="none" stroke="#ff0000" stroke-width="2"/>
<path d="M126.304,95.8508v -0.0537012" fill="none" stroke="#ff0000" stroke-width="2"/>
<path d="M109.026,95.8508h 17.2778" fill="none" stroke="#ff0000" stroke-width="2"/>
<path d="M126.304,95.8508h 17.2778" fill="none" stroke="#ff0000" stroke-width="2"/>
<g stroke="#ff0000" stroke-width="1" fill="none">
<line x1="125.304" y1="95.8508" x2="126.304" y2="95.8508"/>
</g>
<path d="M175.978,134.341v -0.0662815" fill="none" stroke="#ff0000" stroke-width="2"/>
<path d="M175.978,134.275v -0.0661663" fill="none" stroke="#ff0000" stroke-width="2"/>
<path d="M143.582,134.275h 32.396" fill="none" stroke="#ff0000" stroke-width="2"/>
<path d="M175.978,134.275h 32.396" fill="none" stroke="#ff0000" stroke-width="2"/>
<g stroke="#ff0000" stroke-width="1" fill="none">
<line x1="174.978" y1="134.275" x2="175.978" y2="134.275"/>
</g>
<path d="M273.166,199.937v -0.114748" fill="none" stroke="#ff0000" stroke-width="2"/>
<path d="M273.166,199.823v -0.114404" fill="none" stroke="#ff0000" stroke-width="2"/>
<path d="M208.374,199.823h 64.7919" fill="none" stroke="#ff0000" stroke-width="2"/>
<path d="M273.166,199.823h 64.7919" fill="none" stroke="#ff0000" stroke-width="2"/>
<g stroke="#ff0000" stroke-width="1" fill="none">
<line x1="272.166" y1="199.823" x2="273.166" y2="199.823"/>
</g>
<path d="M424.347,293.396v -0.357744" fill="none" stroke="#ff0000" stroke-width="2"/>
<path d="M424.347,293.039v -0.354414" fill="none" stroke="#ff0000" stroke-width="2"/>
<path d="M337.958,293.039h 86.3892" fill="none" stroke="#ff0000" stroke-width="2"/>
<path d="M424.347,293.039h 86.3892" fill="none" stroke="#ff0000" stroke-width="2"/>
<g stroke="#ff0000" stroke-width="1" fill="none">
<line x1="423.347" y1="293.039" x2="424.347" y2="293.039"/>
</g>
<rect x="334.988" y="41.9746" width="170.079" height="114.476" fill="white"/>
<text xml:space="preserve" x="376.873" y="60.6747" fill="black" font-size="12.4517" font-family="Helvetica">Data</text>
<path d="M356.248,52.4919v -4.79354" fill="none" stroke="black" stroke-width="2"/>
<path d="M356.248,60.0762v 4.79354" fill="none" stroke="black" stroke-width="2"/>
<g fill="black">
<circle cx="356.248" cy="56.2841" r="3.79217"/>
</g>
<text xml:space="preserve" x="376.873" y="89.116" fill="black" font-size="12.4517" font-family="Helvetica">Total unc.</text>
<path d="M341.366,94.9198h 29.7638v -20.0333h -29.7638z" fill="#cccccc"/>
<path d="M341.366,74.8864h 29.7638" fill="none" stroke="black" stroke-width="2"/>
<path d="M341.366,94.9198h 29.7638" fill="none" stroke="black" stroke-width="2"/>
<path d="M371.13,94.9198v -20.0333" fill="none" stroke="black" stroke-width="2"/>
<path d="M341.366,94.9198v -20.0333" fill="none" stroke="black" stroke-width="2"/>
<text xml:space="preserve" x="376.873" y="116.609" fill="black" font-size="12.4517" font-family="Helvetica">Powheg+Pythia8</text>
<path d="M341.366,113.522h 29.7638" fill="none" stroke="#ff0000" stroke-width="2"/>
<path d="M356.248,122.108v -17.1714" fill="none" stroke="#ff0000" stroke-width="2"/>
<text xml:space="preserve" x="376.873" y="145.05" fill="black" font-size="12.4517" font-family="Helvetica">Powheg+Pythia8 unc</text>
<path d="M365.695,132.124l 5.43468, 14.9131" fill="none" stroke="#ff0000"/>
<path d="M354.836,132.124l 7.30059, 20.0333" fill="none" stroke="#ff0000"/>
<path d="M343.976,132.124l 7.30059, 20.0333" fill="none" stroke="#ff0000"/>
<path d="M341.366,132.124h 29.7638" fill="none" stroke="#ff0000" stroke-width="2"/>
<path d="M341.366,152.158h 29.7638" fill="none" stroke="#ff0000" stroke-width="2"/>
<path d="M371.13,152.158v -20.0333" fill="none" stroke="#ff0000" stroke-width="2"/>
<path d="M341.366,152.158v -20.0333" fill="none" stroke="#ff0000" stroke-width="2"/>
<text xml:space="preserve" x="420.483" y="30.3373" fill="black" font-size="21.5048" font-family="Helvetica"> (13 TeV)</text>
<text xml:space="preserve" x="410.054" y="19.9089" fill="black" font-size="14.5032" font-family="Helvetica">-1</text>
<text xml:space="preserve" x="343.691" y="30.3373" fill="black" font-size="21.5048" font-family="Helvetica">20.1 fb</text>
<text xml:space="preserve" x="57.1929" y="30.527" fill="black" font-size="26.756" font-family="Helvetica" font-weight="bold">CMS</text>
<text xml:space="preserve" x="77.2914" y="64.4669" fill="black" font-size="20.4545" font-family="Helvetica" font-style="oblique">Work in progress</text>
<rect x="0.5" y="381.587" width="566.929" height="136.281" fill="white"/>
<rect x="57.1929" y="385.675" width="453.543" height="102.211" fill="white"/>
<rect x="57.1929" y="385.675" width="453.543" height="102.211" fill="none" stroke="black"/>
<rect x="57.1929" y="385.675" width="453.543" height="102.211" fill="white"/>
<rect x="57.1929" y="385.675" width="453.543" height="102.211" fill="none" stroke="black"/>
<path d="M57.1929,487.886h 453.543" fill="none" stroke="black"/>
<path d="M57.1929,487.886v -102.211" fill="none" stroke="black"/>
<path d="M510.736,487.886h -453.543" fill="none" stroke="black" stroke-dasharray=" 1, 2"/>
<path d="M510.736,462.333h -453.543" fill="none" stroke="black" stroke-dasharray=" 1, 2"/>
<path d="M510.736,436.781h -453.543" fill="none" stroke="black" stroke-dasharray=" 1, 2"/>
<path d="M510.736,411.228h -453.543" fill="none" stroke="black" stroke-dasharray=" 1, 2"/>
<path d="M510.736,385.675h -453.543" fill="none" stroke="black" stroke-dasharray=" 1, 2"/>
<rect x="57.1929" y="429.927" width="21.5973" height="13.7076" fill="#cccccc"/>
<g fill="black">
<circle cx="67.9916" cy="436.781" r="3.79217"/>
</g>
<rect x="78.7902" y="429.269" width="30.2362" height="15.0233" fill="#cccccc"/>
<g fill="black">
<circle cx="93.9083" cy="436.781" r="3.79217"/>
</g>
<rect x="109.026" y="428.131" width="34.5557" height="17.2999" fill="#cccccc"/>
<g fill="black">
<circle cx="126.304" cy="436.781" r="3.79217"/>
</g>
<rect x="143.582" y="426.682" width="64.7919" height="20.1979" fill="#cccccc"/>
<g fill="black">
<circle cx="175.978" cy="436.781" r="3.79217"/>
</g>
<rect x="208.374" y="419.84" width="129.584" height="33.8821" fill="#cccccc"/>
<g fill="black">
<circle cx="273.166" cy="436.781" r="3.79217"/>
</g>
<rect x="337.958" y="403.205" width="172.778" height="67.151" fill="#cccccc"/>
<g fill="black">
<circle cx="424.347" cy="436.781" r="3.79217"/>
</g>
<path d="M57.1929,487.886h 453.543" fill="none" stroke="black"/>
<path d="M121.985,484.615v 3.27075" fill="none" stroke="black"/>
<path d="M143.582,486.251v 1.63537" fill="none" stroke="black"/>
<path d="M165.179,486.251v 1.63537" fill="none" stroke="black"/>
<path d="M186.777,486.251v 1.63537" fill="none" stroke="black"/>
<path d="M208.374,484.615v 3.27075" fill="none" stroke="black"/>
<path d="M229.971,486.251v 1.63537" fill="none" stroke="black"/>
<path d="M251.569,486.251v 1.63537" fill="none" stroke="black"/>
<path d="M273.166,486.251v 1.63537" fill="none" stroke="black"/>
<path d="M294.763,484.615v 3.27075" fill="none" stroke="black"/>
<path d="M316.361,486.251v 1.63537" fill="none" stroke="black"/>
<path d="M337.958,486.251v 1.63537" fill="none" stroke="black"/>
<path d="M359.555,486.251v 1.63537" fill="none" stroke="black"/>
<path d="M381.152,484.615v 3.27075" fill="none" stroke="black"/>
<path d="M402.75,486.251v 1.63537" fill="none" stroke="black"/>
<path d="M424.347,486.251v 1.63537" fill="none" stroke="black"/>
<path d="M445.944,486.251v 1.63537" fill="none" stroke="black"/>
<path d="M467.542,484.615v 3.27075" fill="none" stroke="black"/>
<path d="M121.985,484.615v 3.27075" fill="none" stroke="black"/>
<path d="M100.388,486.251v 1.63537" fill="none" stroke="black"/>
<path d="M78.7902,486.251v 1.63537" fill="none" stroke="black"/>
<path d="M57.1929,486.251v 1.63537" fill="none" stroke="black"/>
<path d="M467.542,484.615v 3.27075" fill="none" stroke="black"/>
<path d="M489.139,486.251v 1.63537" fill="none" stroke="black"/>
<text xml:space="preserve" x="108.577" y="502.462" fill="black" font-size="15.5034" font-family="Helvetica">600</text>
<text xml:space="preserve" x="194.849" y="502.462" fill="black" font-size="15.5034" font-family="Helvetica">800</text>
<text xml:space="preserve" x="277.328" y="502.462" fill="black" font-size="15.5034" font-family="Helvetica">1000</text>
<text xml:space="preserve" x="363.6" y="502.462" fill="black" font-size="15.5034" font-family="Helvetica">1200</text>
<text xml:space="preserve" x="449.872" y="502.462" fill="black" font-size="15.5034" font-family="Helvetica">1400</text>
<text xml:space="preserve" x="356.964" y="517.631" fill="black" font-size="14.8783" font-family="Helvetica">Leading parton Pt (GeV)</text>
<path d="M57.1929,487.886v -102.211" fill="none" stroke="black"/>
<path d="M69.9488,487.886h -12.7559" fill="none" stroke="black"/>
<path d="M63.5709,482.776h -6.37795" fill="none" stroke="black"/>
<path d="M63.5709,477.665h -6.37795" fill="none" stroke="black"/>
<path d="M63.5709,472.555h -6.37795" fill="none" stroke="black"/>
<path d="M63.5709,467.444h -6.37795" fill="none" stroke="black"/>
<path d="M69.9488,462.333h -12.7559" fill="none" stroke="black"/>
<path d="M63.5709,457.223h -6.37795" fill="none" stroke="black"/>
<path d="M63.5709,452.112h -6.37795" fill="none" stroke="black"/>
<path d="M63.5709,447.002h -6.37795" fill="none" stroke="black"/>
<path d="M63.5709,441.891h -6.37795" fill="none" stroke="black"/>
<path d="M69.9488,436.781h -12.7559" fill="none" stroke="black"/>
<path d="M63.5709,431.67h -6.37795" fill="none" stroke="black"/>
<path d="M63.5709,426.56h -6.37795" fill="none" stroke="black"/>
<path d="M63.5709,421.449h -6.37795" fill="none" stroke="black"/>
<path d="M63.5709,416.339h -6.37795" fill="none" stroke="black"/>
<path d="M69.9488,411.228h -12.7559" fill="none" stroke="black"/>
<path d="M63.5709,406.118h -6.37795" fill="none" stroke="black"/>
<path d="M63.5709,401.007h -6.37795" fill="none" stroke="black"/>
<path d="M63.5709,395.896h -6.37795" fill="none" stroke="black"/>
<path d="M63.5709,390.786h -6.37795" fill="none" stroke="black"/>
<path d="M69.9488,385.675h -12.7559" fill="none" stroke="black"/>
<text xml:space="preserve" x="46.006" y="492.982" fill="black" font-size="13.0028" font-family="Helvetica">2</text>
<text xml:space="preserve" x="38.4217" y="492.982" fill="black" font-size="13.0028" font-family="Times">&#8722;</text>
<text xml:space="preserve" x="47.9021" y="467.385" fill="black" font-size="13.0028" font-family="Helvetica">1</text>
<text xml:space="preserve" x="40.3178" y="467.385" fill="black" font-size="13.0028" font-family="Times">&#8722;</text>
<text xml:space="preserve" x="46.006" y="440.84" fill="black" font-size="13.0028" font-family="Helvetica">0</text>
<text xml:space="preserve" x="47.9021" y="416.19" fill="black" font-size="13.0028" font-family="Helvetica">1</text>
<text xml:space="preserve" x="46.006" y="390.593" fill="black" font-size="13.0028" font-family="Helvetica">2</text>
<g transform="rotate(-90,26.0971,474.969)">
<text xml:space="preserve" x="26.0971" y="474.969" fill="black" font-size="14.8783" font-family="Helvetica">The./data - 1</text>
</g>
<path d="M67.9916,439.967v -3.1858" fill="none" stroke="black" stroke-width="2"/>
<path d="M67.9916,436.781v -3.1858" fill="none" stroke="black" stroke-width="2"/>
<path d="M57.1929,436.781h 10.7986" fill="none" stroke="black" stroke-width="2"/>
<path d="M67.9916,436.781h 10.7986" fill="none" stroke="black" stroke-width="2"/>
<g stroke="black" stroke-width="1" fill="none">
<line x1="66.9916" y1="436.781" x2="67.9916" y2="436.781"/>
</g>
<path d="M93.9083,439.221v -2.44029" fill="none" stroke="black" stroke-width="2"/>
<path d="M93.9083,436.781v -2.44029" fill="none" stroke="black" stroke-width="2"/>
<path d="M78.7902,436.781h 15.1181" fill="none" stroke="black" stroke-width="2"/>
<path d="M93.9083,436.781h 15.1181" fill="none" stroke="black" stroke-width="2"/>
<g stroke="black" stroke-width="1" fill="none">
<line x1="92.9083" y1="436.781" x2="93.9083" y2="436.781"/>
</g>
<path d="M126.304,439.803v -3.02207" fill="none" stroke="black" stroke-width="2"/>
<path d="M126.304,436.781v -3.02207" fill="none" stroke="black" stroke-width="2"/>
<path d="M109.026,436.781h 17.2778" fill="none" stroke="black" stroke-width="2"/>
<path d="M126.304,436.781h 17.2778" fill="none" stroke="black" stroke-width="2"/>
<g stroke="black" stroke-width="1" fill="none">
<line x1="125.304" y1="436.781" x2="126.304" y2="436.781"/>
</g>
<path d="M175.978,439.237v -2.45636" fill="none" stroke="black" stroke-width="2"/>
<path d="M175.978,436.781v -2.45636" fill="none" stroke="black" stroke-width="2"/>
<path d="M143.582,436.781h 32.396" fill="none" stroke="black" stroke-width="2"/>
<path d="M175.978,436.781h 32.396" fill="none" stroke="black" stroke-width="2"/>
<g stroke="black" stroke-width="1" fill="none">
<line x1="174.978" y1="436.781" x2="175.978" y2="436.781"/>
</g>
<path d="M273.166,440.5v -3.71892" fill="none" stroke="black" stroke-width="2"/>
<path d="M273.166,436.781v -3.71892" fill="none" stroke="black" stroke-width="2"/>
<path d="M208.374,436.781h 64.7919" fill="none" stroke="black" stroke-width="2"/>
<path d="M273.166,436.781h 64.7919" fill="none" stroke="black" stroke-width="2"/>
<g stroke="black" stroke-width="1" fill="none">
<line x1="272.166" y1="436.781" x2="273.166" y2="436.781"/>
</g>
<path d="M424.347,444.708v -7.92747" fill="none" stroke="black" stroke-width="2"/>
<path d="M424.347,436.781v -7.92747" fill="none" stroke="black" stroke-width="2"/>
<path d="M337.958,436.781h 86.3892" fill="none" stroke="black" stroke-width="2"/>
<path d="M424.347,436.781h 86.3892" fill="none" stroke="black" stroke-width="2"/>
<g stroke="black" stroke-width="1" fill="none">
<line x1="423.347" y1="436.781" x2="424.347" y2="436.781"/>
</g>
<path d="M73.2813,419.638l 5.50895, 15.1095" fill="none" stroke="#ff0000"/>
<path d="M62.4216,419.638l 7.1011, 19.4762" fill="none" stroke="#ff0000"/>
<path d="M57.1929,435.082l 1.47017, 4.03223" fill="none" stroke="#ff0000"/>
<g stroke="#ff0000" stroke-width="1" fill="none">
<line x1="66.9916" y1="429.376" x2="67.9916" y2="429.376"/>
</g>
<path d="M105.122,417.613l 3.90442, 10.7087" fill="none" stroke="#ff0000"/>
<path d="M94.2624,417.613l 7.46923, 20.4859" fill="none" stroke="#ff0000"/>
<path d="M83.4027,417.613l 7.46923, 20.4859" fill="none" stroke="#ff0000"/>
<path d="M78.7902,434.747l 1.22211, 3.35189" fill="none" stroke="#ff0000"/>
<g stroke="#ff0000" stroke-width="1" fill="none">
<line x1="92.9083" y1="427.856" x2="93.9083" y2="427.856"/>
</g>
<path d="M135.914,412.712l 7.66821, 21.0317" fill="none" stroke="#ff0000"/>
<path d="M125.054,412.712l 9.88579, 27.1138" fill="none" stroke="#ff0000"/>
<path d="M114.195,412.712l 9.88579, 27.1138" fill="none" stroke="#ff0000"/>
<path d="M109.026,428.322l 4.19433, 11.5038" fill="none" stroke="#ff0000"/>
<g stroke="#ff0000" stroke-width="1" fill="none">
<line x1="125.304" y1="426.269" x2="126.304" y2="426.269"/>
</g>
<path d="M200.287,410.56l 8.08691, 22.18" fill="none" stroke="#ff0000"/>
<path d="M189.427,410.56l 12.8846, 35.3387" fill="none" stroke="#ff0000"/>
<path d="M178.568,410.56l 12.8846, 35.3387" fill="none" stroke="#ff0000"/>
<path d="M167.708,410.56l 12.8846, 35.3387" fill="none" stroke="#ff0000"/>
<path d="M156.849,410.56l 12.8846, 35.3387" fill="none" stroke="#ff0000"/>
<path d="M145.989,410.56l 12.8846, 35.3387" fill="none" stroke="#ff0000"/>
<path d="M143.582,433.743l 4.43174, 12.155" fill="none" stroke="#ff0000"/>
<g stroke="#ff0000" stroke-width="1" fill="none">
<line x1="174.978" y1="428.229" x2="175.978" y2="428.229"/>
</g>
<path d="M336.592,397.202l 1.36554, 3.74527" fill="none" stroke="#ff0000"/>
<path d="M325.733,397.202l 12.2252, 33.5301" fill="none" stroke="#ff0000"/>
<path d="M314.873,397.202l 20.8834, 57.277" fill="none" stroke="#ff0000"/>
<path d="M304.013,397.202l 20.8834, 57.277" fill="none" stroke="#ff0000"/>
<path d="M293.154,397.202l 20.8834, 57.277" fill="none" stroke="#ff0000"/>
<path d="M282.294,397.202l 20.8834, 57.277" fill="none" stroke="#ff0000"/>
<path d="M271.434,397.202l 20.8834, 57.277" fill="none" stroke="#ff0000"/>
<path d="M260.575,397.202l 20.8834, 57.277" fill="none" stroke="#ff0000"/>
<path d="M249.715,397.202l 20.8834, 57.277" fill="none" stroke="#ff0000"/>
<path d="M238.856,397.202l 20.8834, 57.277" fill="none" stroke="#ff0000"/>
<path d="M227.996,397.202l 20.8834, 57.277" fill="none" stroke="#ff0000"/>
<path d="M217.136,397.202l 20.8834, 57.277" fill="none" stroke="#ff0000"/>
<path d="M208.374,402.955l 18.7859, 51.5244" fill="none" stroke="#ff0000"/>
<path d="M208.374,432.74l 7.92631, 21.7395" fill="none" stroke="#ff0000"/>
<g stroke="#ff0000" stroke-width="1" fill="none">
<line x1="272.166" y1="425.841" x2="273.166" y2="425.841"/>
</g>
<path d="M506.009,415.09l 4.72727, 12.9655" fill="none" stroke="#ff0000"/>
<path d="M495.149,415.09l 15.5869, 42.7503" fill="none" stroke="#ff0000"/>
<path d="M484.29,415.09l 19.2523, 52.8035" fill="none" stroke="#ff0000"/>
<path d="M473.43,415.09l 19.2523, 52.8035" fill="none" stroke="#ff0000"/>
<path d="M462.57,415.09l 19.2523, 52.8035" fill="none" stroke="#ff0000"/>
<path d="M451.711,415.09l 19.2523, 52.8035" fill="none" stroke="#ff0000"/>
<path d="M440.851,415.09l 19.2523, 52.8035" fill="none" stroke="#ff0000"/>
<path d="M429.991,415.09l 19.2523, 52.8035" fill="none" stroke="#ff0000"/>
<path d="M419.132,415.09l 19.2523, 52.8035" fill="none" stroke="#ff0000"/>
<path d="M408.272,415.09l 19.2523, 52.8035" fill="none" stroke="#ff0000"/>
<path d="M397.413,415.09l 19.2523, 52.8035" fill="none" stroke="#ff0000"/>
<path d="M386.553,415.09l 19.2523, 52.8035" fill="none" stroke="#ff0000"/>
<path d="M375.693,415.09l 19.2523, 52.8035" fill="none" stroke="#ff0000"/>
<path d="M364.834,415.09l 19.2523, 52.8035" fill="none" stroke="#ff0000"/>
<path d="M353.974,415.09l 19.2523, 52.8035" fill="none" stroke="#ff0000"/>
<path d="M343.114,415.09l 19.2523, 52.8035" fill="none" stroke="#ff0000"/>
<path d="M337.958,430.732l 13.5492, 37.1615" fill="none" stroke="#ff0000"/>
<path d="M337.958,460.517l 2.68955, 7.37664" fill="none" stroke="#ff0000"/>
<g stroke="#ff0000" stroke-width="1" fill="none">
<line x1="423.347" y1="441.492" x2="424.347" y2="441.492"/>
</g>
<path d="M67.9916,432.281v -2.90578" fill="none" stroke="#ff0000" stroke-width="2"/>
<path d="M67.9916,429.376v -2.90578" fill="none" stroke="#ff0000" stroke-width="2"/>
<path d="M57.1929,429.376h 10.7986" fill="none" stroke="#ff0000" stroke-width="2"/>
<path d="M67.9916,429.376h 10.7986" fill="none" stroke="#ff0000" stroke-width="2"/>
<g stroke="#ff0000" stroke-width="1" fill="none">
<line x1="66.9916" y1="429.376" x2="67.9916" y2="429.376"/>
</g>
<path d="M93.9083,430.184v -2.32852" fill="none" stroke="#ff0000" stroke-width="2"/>
<path d="M93.9083,427.856v -2.32852" fill="none" stroke="#ff0000" stroke-width="2"/>
<path d="M78.7902,427.856h 15.1181" fill="none" stroke="#ff0000" stroke-width="2"/>
<path d="M93.9083,427.856h 15.1181" fill="none" stroke="#ff0000" stroke-width="2"/>
<g stroke="#ff0000" stroke-width="1" fill="none">
<line x1="92.9083" y1="427.856" x2="93.9083" y2="427.856"/>
</g>
<path d="M126.304,429.285v -3.01648" fill="none" stroke="#ff0000" stroke-width="2"/>
<path d="M126.304,426.269v -3.01648" fill="none" stroke="#ff0000" stroke-width="2"/>
<path d="M109.026,426.269h 17.2778" fill="none" stroke="#ff0000" stroke-width="2"/>
<path d="M126.304,426.269h 17.2778" fill="none" stroke="#ff0000" stroke-width="2"/>
<g stroke="#ff0000" stroke-width="1" fill="none">
<line x1="125.304" y1="426.269" x2="126.304" y2="426.269"/>
</g>
<path d="M175.978,430.548v -2.31897" fill="none" stroke="#ff0000" stroke-width="2"/>
<path d="M175.978,428.229v -2.31897" fill="none" stroke="#ff0000" stroke-width="2"/>
<path d="M143.582,428.229h 32.396" fill="none" stroke="#ff0000" stroke-width="2"/>
<path d="M175.978,428.229h 32.396" fill="none" stroke="#ff0000" stroke-width="2"/>
<g stroke="#ff0000" stroke-width="1" fill="none">
<line x1="174.978" y1="428.229" x2="175.978" y2="428.229"/>
</g>
<path d="M273.166,429.598v -3.75715" fill="none" stroke="#ff0000" stroke-width="2"/>
<path d="M273.166,425.841v -3.75715" fill="none" stroke="#ff0000" stroke-width="2"/>
<path d="M208.374,425.841h 64.7919" fill="none" stroke="#ff0000" stroke-width="2"/>
<path d="M273.166,425.841h 64.7919" fill="none" stroke="#ff0000" stroke-width="2"/>
<g stroke="#ff0000" stroke-width="1" fill="none">
<line x1="272.166" y1="425.841" x2="273.166" y2="425.841"/>
</g>
<path d="M424.347,446.068v -4.57621" fill="none" stroke="#ff0000" stroke-width="2"/>
<path d="M424.347,441.492v -4.57621" fill="none" stroke="#ff0000" stroke-width="2"/>
<path d="M337.958,441.492h 86.3892" fill="none" stroke="#ff0000" stroke-width="2"/>
<path d="M424.347,441.492h 86.3892" fill="none" stroke="#ff0000" stroke-width="2"/>
<g stroke="#ff0000" stroke-width="1" fill="none">
<line x1="423.347" y1="441.492" x2="424.347" y2="441.492"/>
</g></svg>
