<?xml version="1.0" standalone="no"?>
<svg width="567.429" height="545.624" viewBox="0 0 567.429 545.624" xmlns="http://www.w3.org/2000/svg" shape-rendering="crispEdges">
<title>
/Users/georgebakas/Documents/HEP-NTUA_ul/VariationHandling/FinalResults/results/FinalResult_jetPt0_normalized.svg
</title>
<desc>
Creator: ROOT Version 6.22/02
CreationDate: Wed Nov 24 08:11:43 2021</desc>
<defs>
</defs>
<rect x="0.5" y="0" width="566.929" height="545.124" fill="white"/>
<rect x="0.5" y="0" width="566.929" height="381.587" fill="white"/>
<rect x="57.1929" y="38.1587" width="453.543" height="324.349" fill="white"/>
<rect x="57.1929" y="38.1587" width="453.543" height="324.349" fill="none" stroke="black"/>
<rect x="57.1929" y="38.1587" width="453.543" height="324.349" fill="white"/>
<rect x="57.1929" y="38.1587" width="453.543" height="324.349" fill="none" stroke="black"/>
<rect x="208.374" y="62.8158" width="129.584" height="47.0012" fill="#cccccc"/>
<g fill="black">
<circle cx="273.166" cy="79.4835" r="3.79217"/>
</g>
<rect x="337.958" y="122.027" width="172.778" height="240.481" fill="#cccccc"/>
<g fill="black">
<circle cx="424.347" cy="151.367" r="3.79217"/>
</g>
<path d="M57.1929,362.508h 453.543" fill="none" stroke="black"/>
<path d="M121.985,353.349v 9.15809" fill="none" stroke="black"/>
<path d="M143.582,357.929v 4.57904" fill="none" stroke="black"/>
<path d="M165.179,357.929v 4.57904" fill="none" stroke="black"/>
<path d="M186.777,357.929v 4.57904" fill="none" stroke="black"/>
<path d="M208.374,353.349v 9.15809" fill="none" stroke="black"/>
<path d="M229.971,357.929v 4.57904" fill="none" stroke="black"/>
<path d="M251.569,357.929v 4.57904" fill="none" stroke="black"/>
<path d="M273.166,357.929v 4.57904" fill="none" stroke="black"/>
<path d="M294.763,353.349v 9.15809" fill="none" stroke="black"/>
<path d="M316.361,357.929v 4.57904" fill="none" stroke="black"/>
<path d="M337.958,357.929v 4.57904" fill="none" stroke="black"/>
<path d="M359.555,357.929v 4.57904" fill="none" stroke="black"/>
<path d="M381.152,353.349v 9.15809" fill="none" stroke="black"/>
<path d="M402.75,357.929v 4.57904" fill="none" stroke="black"/>
<path d="M424.347,357.929v 4.57904" fill="none" stroke="black"/>
<path d="M445.944,357.929v 4.57904" fill="none" stroke="black"/>
<path d="M467.542,353.349v 9.15809" fill="none" stroke="black"/>
<path d="M121.985,353.349v 9.15809" fill="none" stroke="black"/>
<path d="M100.388,357.929v 4.57904" fill="none" stroke="black"/>
<path d="M78.7902,357.929v 4.57904" fill="none" stroke="black"/>
<path d="M57.1929,357.929v 4.57904" fill="none" stroke="black"/>
<path d="M467.542,353.349v 9.15809" fill="none" stroke="black"/>
<path d="M489.139,357.929v 4.57904" fill="none" stroke="black"/>
<text xml:space="preserve" x="106.681" y="380.165" fill="black" font-size="18.004" font-family="Helvetica">600</text>
<text xml:space="preserve" x="192.953" y="380.165" fill="black" font-size="18.004" font-family="Helvetica">800</text>
<text xml:space="preserve" x="274.484" y="380.165" fill="black" font-size="18.004" font-family="Helvetica">1000</text>
<text xml:space="preserve" x="360.756" y="380.165" fill="black" font-size="18.004" font-family="Helvetica">1200</text>
<text xml:space="preserve" x="447.028" y="380.165" fill="black" font-size="18.004" font-family="Helvetica">1400</text>
<text xml:space="preserve" x="416.69" y="401.022" fill="black" font-size="21.5048" font-family="Helvetica">partonPt0</text>
<path d="M57.1929,362.508v -324.349" fill="none" stroke="black"/>
<path d="M64.4213,362.508h -7.22835" fill="none" stroke="black"/>
<path d="M64.4213,356.637h -7.22835" fill="none" stroke="black"/>
<path d="M64.4213,351.552h -7.22835" fill="none" stroke="black"/>
<path d="M64.4213,347.067h -7.22835" fill="none" stroke="black"/>
<path d="M71.6496,343.054h -14.4567" fill="none" stroke="black"/>
<text xml:space="preserve" x="44.1099" y="342.243" fill="black" font-size="12.1693" font-family="Helvetica">5</text>
<text xml:space="preserve" x="37.4736" y="342.243" fill="black" font-size="12.1693" font-family="Times">&#8722;</text>
<text xml:space="preserve" x="17.5648" y="350.776" fill="black" font-size="18.004" font-family="Helvetica">10</text>
<path d="M64.4213,316.658h -7.22835" fill="none" stroke="black"/>
<path d="M64.4213,301.217h -7.22835" fill="none" stroke="black"/>
<path d="M64.4213,290.262h -7.22835" fill="none" stroke="black"/>
<path d="M64.4213,281.764h -7.22835" fill="none" stroke="black"/>
<path d="M64.4213,274.821h -7.22835" fill="none" stroke="black"/>
<path d="M64.4213,268.951h -7.22835" fill="none" stroke="black"/>
<path d="M64.4213,263.866h -7.22835" fill="none" stroke="black"/>
<path d="M64.4213,259.38h -7.22835" fill="none" stroke="black"/>
<path d="M71.6496,255.368h -14.4567" fill="none" stroke="black"/>
<text xml:space="preserve" x="44.1099" y="255.971" fill="black" font-size="12.1693" font-family="Helvetica">4</text>
<text xml:space="preserve" x="37.4736" y="255.971" fill="black" font-size="12.1693" font-family="Times">&#8722;</text>
<text xml:space="preserve" x="17.5648" y="263.556" fill="black" font-size="18.004" font-family="Helvetica">10</text>
<path d="M64.4213,228.972h -7.22835" fill="none" stroke="black"/>
<path d="M64.4213,213.531h -7.22835" fill="none" stroke="black"/>
<path d="M64.4213,202.576h -7.22835" fill="none" stroke="black"/>
<path d="M64.4213,194.078h -7.22835" fill="none" stroke="black"/>
<path d="M64.4213,187.135h -7.22835" fill="none" stroke="black"/>
<path d="M64.4213,181.265h -7.22835" fill="none" stroke="black"/>
<path d="M64.4213,176.18h -7.22835" fill="none" stroke="black"/>
<path d="M64.4213,171.694h -7.22835" fill="none" stroke="black"/>
<path d="M71.6496,167.682h -14.4567" fill="none" stroke="black"/>
<text xml:space="preserve" x="44.1099" y="166.855" fill="black" font-size="12.1693" font-family="Helvetica">3</text>
<text xml:space="preserve" x="37.4736" y="166.855" fill="black" font-size="12.1693" font-family="Times">&#8722;</text>
<text xml:space="preserve" x="17.5648" y="175.388" fill="black" font-size="18.004" font-family="Helvetica">10</text>
<path d="M64.4213,141.286h -7.22835" fill="none" stroke="black"/>
<path d="M64.4213,125.845h -7.22835" fill="none" stroke="black"/>
<path d="M64.4213,114.89h -7.22835" fill="none" stroke="black"/>
<path d="M64.4213,106.392h -7.22835" fill="none" stroke="black"/>
<path d="M64.4213,99.4488h -7.22835" fill="none" stroke="black"/>
<path d="M64.4213,93.5784h -7.22835" fill="none" stroke="black"/>
<path d="M64.4213,88.4933h -7.22835" fill="none" stroke="black"/>
<path d="M64.4213,84.008h -7.22835" fill="none" stroke="black"/>
<path d="M71.6496,79.9957h -14.4567" fill="none" stroke="black"/>
<text xml:space="preserve" x="44.1099" y="80.5836" fill="black" font-size="12.1693" font-family="Helvetica">2</text>
<text xml:space="preserve" x="37.4736" y="80.5836" fill="black" font-size="12.1693" font-family="Times">&#8722;</text>
<text xml:space="preserve" x="17.5648" y="88.1679" fill="black" font-size="18.004" font-family="Helvetica">10</text>
<path d="M64.4213,53.5995h -7.22835" fill="none" stroke="black"/>
<g transform="rotate(-90,0.5,50.2462)">
<text xml:space="preserve" x="0.5" y="50.2462" fill="black" font-size="21.5048" font-family="Times">&#0967;</text>
</g>
<g transform="rotate(-90,0.5,61.6227)">
<text xml:space="preserve" x="0.5" y="61.6227" fill="black" font-size="21.5048" font-family="Helvetica">d</text>
</g>
<g transform="rotate(-90,-23.201,51.1943)">
<text xml:space="preserve" x="-23.201" y="51.1943" fill="black" font-size="21.5048" font-family="Times">&#0963;</text>
</g>
<g transform="rotate(-90,-23.201,62.5708)">
<text xml:space="preserve" x="-23.201" y="62.5708" fill="black" font-size="21.5048" font-family="Helvetica">d</text>
</g>
<g transform="rotate(-90,-12.7726,70.1551)">
<text xml:space="preserve" x="-12.7726" y="70.1551" fill="black" font-size="21.5048" font-family="Helvetica"> </text>
</g>
<g transform="rotate(-90,-4.24021,83.4277)">
<text xml:space="preserve" x="-4.24021" y="83.4277" fill="black" font-size="21.5048" font-family="Times">&#0963;</text>
</g>
<g transform="rotate(-90,-22.253,80.5836)">
<text xml:space="preserve" x="-22.253" y="80.5836" fill="black" font-size="21.5048" font-family="Helvetica">1</text>
</g>
<path d="M273.166,83.6192v -4.13571" fill="none" stroke="black" stroke-width="2"/>
<path d="M273.166,79.4835v -3.73024" fill="none" stroke="black" stroke-width="2"/>
<path d="M208.374,79.4835h 64.7919" fill="none" stroke="black" stroke-width="2"/>
<path d="M273.166,79.4835h 64.7919" fill="none" stroke="black" stroke-width="2"/>
<g stroke="black" stroke-width="1" fill="none">
<line x1="272.166" y1="79.4835" x2="273.166" y2="79.4835"/>
</g>
<path d="M424.347,160.798v -9.43122" fill="none" stroke="black" stroke-width="2"/>
<path d="M424.347,151.367v -7.55299" fill="none" stroke="black" stroke-width="2"/>
<path d="M337.958,151.367h 86.3892" fill="none" stroke="black" stroke-width="2"/>
<path d="M424.347,151.367h 86.3892" fill="none" stroke="black" stroke-width="2"/>
<g stroke="black" stroke-width="1" fill="none">
<line x1="423.347" y1="151.367" x2="424.347" y2="151.367"/>
</g>
<path d="M331.401,67.8182l 6.55687, 17.9925" fill="none" stroke="#ff0000"/>
<path d="M320.541,67.8182l 13.7154, 37.6361" fill="none" stroke="#ff0000"/>
<path d="M309.682,67.8182l 13.7154, 37.6361" fill="none" stroke="#ff0000"/>
<path d="M298.822,67.8182l 13.7154, 37.6361" fill="none" stroke="#ff0000"/>
<path d="M287.962,67.8182l 13.7154, 37.6361" fill="none" stroke="#ff0000"/>
<path d="M277.103,67.8182l 13.7154, 37.6361" fill="none" stroke="#ff0000"/>
<path d="M266.243,67.8182l 13.7154, 37.6361" fill="none" stroke="#ff0000"/>
<path d="M255.383,67.8182l 13.7154, 37.6361" fill="none" stroke="#ff0000"/>
<path d="M244.524,67.8182l 13.7154, 37.6361" fill="none" stroke="#ff0000"/>
<path d="M233.664,67.8182l 13.7154, 37.6361" fill="none" stroke="#ff0000"/>
<path d="M222.805,67.8182l 13.7154, 37.6361" fill="none" stroke="#ff0000"/>
<path d="M211.945,67.8182l 13.7154, 37.6361" fill="none" stroke="#ff0000"/>
<path d="M208.374,87.8191l 6.42666, 17.6352" fill="none" stroke="#ff0000"/>
<g stroke="#ff0000" stroke-width="1" fill="none">
<line x1="272.166" y1="82.1646" x2="273.166" y2="82.1646"/>
</g>
<path d="M502.708,150.501l 8.02853, 22.0308" fill="none" stroke="#ff0000"/>
<path d="M491.848,150.501l 18.8882, 51.8304" fill="none" stroke="#ff0000"/>
<path d="M480.988,150.501l 29.7478, 81.63" fill="none" stroke="#ff0000"/>
<path d="M470.129,150.501l 40.6074, 111.43" fill="none" stroke="#ff0000"/>
<path d="M459.269,150.501l 44.4532, 121.983" fill="none" stroke="#ff0000"/>
<path d="M448.409,150.501l 44.4532, 121.983" fill="none" stroke="#ff0000"/>
<path d="M437.55,150.501l 44.4532, 121.983" fill="none" stroke="#ff0000"/>
<path d="M426.69,150.501l 44.4532, 121.983" fill="none" stroke="#ff0000"/>
<path d="M415.831,150.501l 44.4532, 121.983" fill="none" stroke="#ff0000"/>
<path d="M404.971,150.501l 44.4532, 121.983" fill="none" stroke="#ff0000"/>
<path d="M394.111,150.501l 44.4532, 121.983" fill="none" stroke="#ff0000"/>
<path d="M383.252,150.501l 44.4532, 121.983" fill="none" stroke="#ff0000"/>
<path d="M372.392,150.501l 44.4532, 121.983" fill="none" stroke="#ff0000"/>
<path d="M361.532,150.501l 44.4532, 121.983" fill="none" stroke="#ff0000"/>
<path d="M350.673,150.501l 44.4532, 121.983" fill="none" stroke="#ff0000"/>
<path d="M339.813,150.501l 44.4532, 121.983" fill="none" stroke="#ff0000"/>
<path d="M337.958,175.21l 35.4488, 97.274" fill="none" stroke="#ff0000"/>
<path d="M337.958,205.009l 24.5892, 67.4744" fill="none" stroke="#ff0000"/>
<path d="M337.958,234.809l 13.7295, 37.6748" fill="none" stroke="#ff0000"/>
<path d="M337.958,264.608l 2.86991, 7.87522" fill="none" stroke="#ff0000"/>
<g stroke="#ff0000" stroke-width="1" fill="none">
<line x1="423.347" y1="175.38" x2="424.347" y2="175.38"/>
</g>
<path d="M273.166,82.2793v -0.114748" fill="none" stroke="#ff0000" stroke-width="2"/>
<path d="M273.166,82.1646v -0.114404" fill="none" stroke="#ff0000" stroke-width="2"/>
<path d="M208.374,82.1646h 64.7919" fill="none" stroke="#ff0000" stroke-width="2"/>
<path d="M273.166,82.1646h 64.7919" fill="none" stroke="#ff0000" stroke-width="2"/>
<g stroke="#ff0000" stroke-width="1" fill="none">
<line x1="272.166" y1="82.1646" x2="273.166" y2="82.1646"/>
</g>
<path d="M424.347,175.738v -0.357744" fill="none" stroke="#ff0000" stroke-width="2"/>
<path d="M424.347,175.38v -0.354414" fill="none" stroke="#ff0000" stroke-width="2"/>
<path d="M337.958,175.38h 86.3892" fill="none" stroke="#ff0000" stroke-width="2"/>
<path d="M424.347,175.38h 86.3892" fill="none" stroke="#ff0000" stroke-width="2"/>
<g stroke="#ff0000" stroke-width="1" fill="none">
<line x1="423.347" y1="175.38" x2="424.347" y2="175.38"/>
</g>
<rect x="334.988" y="41.9746" width="170.079" height="114.476" fill="white"/>
<text xml:space="preserve" x="376.873" y="60.6747" fill="black" font-size="12.4517" font-family="Helvetica">Data</text>
<path d="M356.248,52.4919v -4.79354" fill="none" stroke="black" stroke-width="2"/>
<path d="M356.248,60.0762v 4.79354" fill="none" stroke="black" stroke-width="2"/>
<g fill="black">
<circle cx="356.248" cy="56.2841" r="3.79217"/>
</g>
<text xml:space="preserve" x="376.873" y="89.116" fill="black" font-size="12.4517" font-family="Helvetica">Total unc.</text>
<path d="M341.366,94.9198h 29.7638v -20.0333h -29.7638z" fill="#cccccc"/>
<path d="M341.366,74.8864h 29.7638" fill="none" stroke="black" stroke-width="2"/>
<path d="M341.366,94.9198h 29.7638" fill="none" stroke="black" stroke-width="2"/>
<path d="M371.13,94.9198v -20.0333" fill="none" stroke="black" stroke-width="2"/>
<path d="M341.366,94.9198v -20.0333" fill="none" stroke="black" stroke-width="2"/>
<text xml:space="preserve" x="376.873" y="116.609" fill="black" font-size="12.4517" font-family="Helvetica">Powheg+Pythia8</text>
<path d="M341.366,113.522h 29.7638" fill="none" stroke="#ff0000" stroke-width="2"/>
<path d="M356.248,122.108v -17.1714" fill="none" stroke="#ff0000" stroke-width="2"/>
<text xml:space="preserve" x="376.873" y="145.05" fill="black" font-size="12.4517" font-family="Helvetica">Powheg+Pythia8 unc</text>
<path d="M365.695,132.124l 5.43468, 14.9131" fill="none" stroke="#ff0000"/>
<path d="M354.836,132.124l 7.30059, 20.0333" fill="none" stroke="#ff0000"/>
<path d="M343.976,132.124l 7.30059, 20.0333" fill="none" stroke="#ff0000"/>
<path d="M341.366,132.124h 29.7638" fill="none" stroke="#ff0000" stroke-width="2"/>
<path d="M341.366,152.158h 29.7638" fill="none" stroke="#ff0000" stroke-width="2"/>
<path d="M371.13,152.158v -20.0333" fill="none" stroke="#ff0000" stroke-width="2"/>
<path d="M341.366,152.158v -20.0333" fill="none" stroke="#ff0000" stroke-width="2"/>
<text xml:space="preserve" x="420.483" y="30.3373" fill="black" font-size="21.5048" font-family="Helvetica"> (13 TeV)</text>
<text xml:space="preserve" x="410.054" y="19.9089" fill="black" font-size="14.5032" font-family="Helvetica">-1</text>
<text xml:space="preserve" x="343.691" y="30.3373" fill="black" font-size="21.5048" font-family="Helvetica">20.1 fb</text>
<text xml:space="preserve" x="57.1929" y="30.527" fill="black" font-size="26.756" font-family="Helvetica" font-weight="bold">CMS</text>
<text xml:space="preserve" x="77.2914" y="64.4669" fill="black" font-size="20.4545" font-family="Helvetica" font-style="oblique">Work in progress</text>
<rect x="0.5" y="381.587" width="566.929" height="136.281" fill="white"/>
<rect x="57.1929" y="385.675" width="453.543" height="102.211" fill="white"/>
<rect x="57.1929" y="385.675" width="453.543" height="102.211" fill="none" stroke="black"/>
<rect x="57.1929" y="385.675" width="453.543" height="102.211" fill="white"/>
<rect x="57.1929" y="385.675" width="453.543" height="102.211" fill="none" stroke="black"/>
<path d="M57.1929,487.886h 453.543" fill="none" stroke="black"/>
<path d="M57.1929,487.886v -102.211" fill="none" stroke="black"/>
<path d="M510.736,487.886h -453.543" fill="none" stroke="black" stroke-dasharray=" 1, 2"/>
<path d="M510.736,462.333h -453.543" fill="none" stroke="black" stroke-dasharray=" 1, 2"/>
<path d="M510.736,436.781h -453.543" fill="none" stroke="black" stroke-dasharray=" 1, 2"/>
<path d="M510.736,411.228h -453.543" fill="none" stroke="black" stroke-dasharray=" 1, 2"/>
<path d="M510.736,385.675h -453.543" fill="none" stroke="black" stroke-dasharray=" 1, 2"/>
<rect x="57.1929" y="431.484" width="21.5973" height="10.5937" fill="#cccccc"/>
<g fill="black">
<circle cx="67.9916" cy="436.781" r="3.79217"/>
</g>
<rect x="78.7902" y="431.839" width="30.2362" height="9.88438" fill="#cccccc"/>
<g fill="black">
<circle cx="93.9083" cy="436.781" r="3.79217"/>
</g>
<rect x="109.026" y="432.006" width="34.5557" height="9.54877" fill="#cccccc"/>
<g fill="black">
<circle cx="126.304" cy="436.781" r="3.79217"/>
</g>
<rect x="143.582" y="431.467" width="64.7919" height="10.6269" fill="#cccccc"/>
<g fill="black">
<circle cx="175.978" cy="436.781" r="3.79217"/>
</g>
<rect x="208.374" y="422.505" width="129.584" height="28.5512" fill="#cccccc"/>
<g fill="black">
<circle cx="273.166" cy="436.781" r="3.79217"/>
</g>
<rect x="337.958" y="406.596" width="172.778" height="60.3704" fill="#cccccc"/>
<g fill="black">
<circle cx="424.347" cy="436.781" r="3.79217"/>
</g>
<path d="M57.1929,487.886h 453.543" fill="none" stroke="black"/>
<path d="M121.985,484.615v 3.27075" fill="none" stroke="black"/>
<path d="M143.582,486.251v 1.63537" fill="none" stroke="black"/>
<path d="M165.179,486.251v 1.63537" fill="none" stroke="black"/>
<path d="M186.777,486.251v 1.63537" fill="none" stroke="black"/>
<path d="M208.374,484.615v 3.27075" fill="none" stroke="black"/>
<path d="M229.971,486.251v 1.63537" fill="none" stroke="black"/>
<path d="M251.569,486.251v 1.63537" fill="none" stroke="black"/>
<path d="M273.166,486.251v 1.63537" fill="none" stroke="black"/>
<path d="M294.763,484.615v 3.27075" fill="none" stroke="black"/>
<path d="M316.361,486.251v 1.63537" fill="none" stroke="black"/>
<path d="M337.958,486.251v 1.63537" fill="none" stroke="black"/>
<path d="M359.555,486.251v 1.63537" fill="none" stroke="black"/>
<path d="M381.152,484.615v 3.27075" fill="none" stroke="black"/>
<path d="M402.75,486.251v 1.63537" fill="none" stroke="black"/>
<path d="M424.347,486.251v 1.63537" fill="none" stroke="black"/>
<path d="M445.944,486.251v 1.63537" fill="none" stroke="black"/>
<path d="M467.542,484.615v 3.27075" fill="none" stroke="black"/>
<path d="M121.985,484.615v 3.27075" fill="none" stroke="black"/>
<path d="M100.388,486.251v 1.63537" fill="none" stroke="black"/>
<path d="M78.7902,486.251v 1.63537" fill="none" stroke="black"/>
<path d="M57.1929,486.251v 1.63537" fill="none" stroke="black"/>
<path d="M467.542,484.615v 3.27075" fill="none" stroke="black"/>
<path d="M489.139,486.251v 1.63537" fill="none" stroke="black"/>
<text xml:space="preserve" x="108.577" y="502.462" fill="black" font-size="15.5034" font-family="Helvetica">600</text>
<text xml:space="preserve" x="194.849" y="502.462" fill="black" font-size="15.5034" font-family="Helvetica">800</text>
<text xml:space="preserve" x="277.328" y="502.462" fill="black" font-size="15.5034" font-family="Helvetica">1000</text>
<text xml:space="preserve" x="363.6" y="502.462" fill="black" font-size="15.5034" font-family="Helvetica">1200</text>
<text xml:space="preserve" x="449.872" y="502.462" fill="black" font-size="15.5034" font-family="Helvetica">1400</text>
<text xml:space="preserve" x="356.964" y="517.631" fill="black" font-size="14.8783" font-family="Helvetica">Leading parton Pt (GeV)</text>
<path d="M57.1929,487.886v -102.211" fill="none" stroke="black"/>
<path d="M69.9488,487.886h -12.7559" fill="none" stroke="black"/>
<path d="M63.5709,482.776h -6.37795" fill="none" stroke="black"/>
<path d="M63.5709,477.665h -6.37795" fill="none" stroke="black"/>
<path d="M63.5709,472.555h -6.37795" fill="none" stroke="black"/>
<path d="M63.5709,467.444h -6.37795" fill="none" stroke="black"/>
<path d="M69.9488,462.333h -12.7559" fill="none" stroke="black"/>
<path d="M63.5709,457.223h -6.37795" fill="none" stroke="black"/>
<path d="M63.5709,452.112h -6.37795" fill="none" stroke="black"/>
<path d="M63.5709,447.002h -6.37795" fill="none" stroke="black"/>
<path d="M63.5709,441.891h -6.37795" fill="none" stroke="black"/>
<path d="M69.9488,436.781h -12.7559" fill="none" stroke="black"/>
<path d="M63.5709,431.67h -6.37795" fill="none" stroke="black"/>
<path d="M63.5709,426.56h -6.37795" fill="none" stroke="black"/>
<path d="M63.5709,421.449h -6.37795" fill="none" stroke="black"/>
<path d="M63.5709,416.339h -6.37795" fill="none" stroke="black"/>
<path d="M69.9488,411.228h -12.7559" fill="none" stroke="black"/>
<path d="M63.5709,406.118h -6.37795" fill="none" stroke="black"/>
<path d="M63.5709,401.007h -6.37795" fill="none" stroke="black"/>
<path d="M63.5709,395.896h -6.37795" fill="none" stroke="black"/>
<path d="M63.5709,390.786h -6.37795" fill="none" stroke="black"/>
<path d="M69.9488,385.675h -12.7559" fill="none" stroke="black"/>
<text xml:space="preserve" x="46.006" y="492.982" fill="black" font-size="13.0028" font-family="Helvetica">2</text>
<text xml:space="preserve" x="38.4217" y="492.982" fill="black" font-size="13.0028" font-family="Times">&#8722;</text>
<text xml:space="preserve" x="47.9021" y="467.385" fill="black" font-size="13.0028" font-family="Helvetica">1</text>
<text xml:space="preserve" x="40.3178" y="467.385" fill="black" font-size="13.0028" font-family="Times">&#8722;</text>
<text xml:space="preserve" x="46.006" y="440.84" fill="black" font-size="13.0028" font-family="Helvetica">0</text>
<text xml:space="preserve" x="47.9021" y="416.19" fill="black" font-size="13.0028" font-family="Helvetica">1</text>
<text xml:space="preserve" x="46.006" y="390.593" fill="black" font-size="13.0028" font-family="Helvetica">2</text>
<g transform="rotate(-90,26.0971,474.969)">
<text xml:space="preserve" x="26.0971" y="474.969" fill="black" font-size="14.8783" font-family="Helvetica">The./data - 1</text>
</g>
<path d="M67.9916,439.967v -3.1858" fill="none" stroke="black" stroke-width="2"/>
<path d="M67.9916,436.781v -3.1858" fill="none" stroke="black" stroke-width="2"/>
<path d="M57.1929,436.781h 10.7986" fill="none" stroke="black" stroke-width="2"/>
<path d="M67.9916,436.781h 10.7986" fill="none" stroke="black" stroke-width="2"/>
<g stroke="black" stroke-width="1" fill="none">
<line x1="66.9916" y1="436.781" x2="67.9916" y2="436.781"/>
</g>
<path d="M93.9083,439.221v -2.44029" fill="none" stroke="black" stroke-width="2"/>
<path d="M93.9083,436.781v -2.44029" fill="none" stroke="black" stroke-width="2"/>
<path d="M78.7902,436.781h 15.1181" fill="none" stroke="black" stroke-width="2"/>
<path d="M93.9083,436.781h 15.1181" fill="none" stroke="black" stroke-width="2"/>
<g stroke="black" stroke-width="1" fill="none">
<line x1="92.9083" y1="436.781" x2="93.9083" y2="436.781"/>
</g>
<path d="M126.304,439.803v -3.02207" fill="none" stroke="black" stroke-width="2"/>
<path d="M126.304,436.781v -3.02207" fill="none" stroke="black" stroke-width="2"/>
<path d="M109.026,436.781h 17.2778" fill="none" stroke="black" stroke-width="2"/>
<path d="M126.304,436.781h 17.2778" fill="none" stroke="black" stroke-width="2"/>
<g stroke="black" stroke-width="1" fill="none">
<line x1="125.304" y1="436.781" x2="126.304" y2="436.781"/>
</g>
<path d="M175.978,439.237v -2.45636" fill="none" stroke="black" stroke-width="2"/>
<path d="M175.978,436.781v -2.45636" fill="none" stroke="black" stroke-width="2"/>
<path d="M143.582,436.781h 32.396" fill="none" stroke="black" stroke-width="2"/>
<path d="M175.978,436.781h 32.396" fill="none" stroke="black" stroke-width="2"/>
<g stroke="black" stroke-width="1" fill="none">
<line x1="174.978" y1="436.781" x2="175.978" y2="436.781"/>
</g>
<path d="M273.166,440.5v -3.71892" fill="none" stroke="black" stroke-width="2"/>
<path d="M273.166,436.781v -3.71892" fill="none" stroke="black" stroke-width="2"/>
<path d="M208.374,436.781h 64.7919" fill="none" stroke="black" stroke-width="2"/>
<path d="M273.166,436.781h 64.7919" fill="none" stroke="black" stroke-width="2"/>
<g stroke="black" stroke-width="1" fill="none">
<line x1="272.166" y1="436.781" x2="273.166" y2="436.781"/>
</g>
<path d="M424.347,444.708v -7.92747" fill="none" stroke="black" stroke-width="2"/>
<path d="M424.347,436.781v -7.92747" fill="none" stroke="black" stroke-width="2"/>
<path d="M337.958,436.781h 86.3892" fill="none" stroke="black" stroke-width="2"/>
<path d="M424.347,436.781h 86.3892" fill="none" stroke="black" stroke-width="2"/>
<g stroke="black" stroke-width="1" fill="none">
<line x1="423.347" y1="436.781" x2="424.347" y2="436.781"/>
</g>
<path d="M69.3909,438.752l 1.51147, 4.14551" fill="none" stroke="#ff0000"/>
<path d="M58.5312,438.752l 1.51147, 4.14551" fill="none" stroke="#ff0000"/>
<g stroke="#ff0000" stroke-width="1" fill="none">
<line x1="66.9916" y1="440.825" x2="67.9916" y2="440.825"/>
</g>
<path d="M101.752,438.154l 1.22434, 3.358" fill="none" stroke="#ff0000"/>
<path d="M90.8921,438.154l 1.22434, 3.358" fill="none" stroke="#ff0000"/>
<path d="M80.0325,438.154l 1.22434, 3.358" fill="none" stroke="#ff0000"/>
<g stroke="#ff0000" stroke-width="1" fill="none">
<line x1="92.9083" y1="439.833" x2="93.9083" y2="439.833"/>
</g>
<path d="M133.734,436.516l 1.66309, 4.56138" fill="none" stroke="#ff0000"/>
<path d="M122.874,436.516l 1.66309, 4.56138" fill="none" stroke="#ff0000"/>
<path d="M112.014,436.516l 1.66309, 4.56138" fill="none" stroke="#ff0000"/>
<g stroke="#ff0000" stroke-width="1" fill="none">
<line x1="125.304" y1="438.797" x2="126.304" y2="438.797"/>
</g>
<path d="M198.516,435.485l 3.34784, 9.18216" fill="none" stroke="#ff0000"/>
<path d="M187.656,435.485l 3.34784, 9.18216" fill="none" stroke="#ff0000"/>
<path d="M176.796,435.485l 3.34784, 9.18216" fill="none" stroke="#ff0000"/>
<path d="M165.937,435.485l 3.34784, 9.18216" fill="none" stroke="#ff0000"/>
<path d="M155.077,435.485l 3.34784, 9.18216" fill="none" stroke="#ff0000"/>
<path d="M144.217,435.485l 3.34784, 9.18216" fill="none" stroke="#ff0000"/>
<g stroke="#ff0000" stroke-width="1" fill="none">
<line x1="174.978" y1="440.077" x2="175.978" y2="440.077"/>
</g>
<path d="M336.725,427.35l 1.23319, 3.38229" fill="none" stroke="#ff0000"/>
<path d="M325.865,427.35l 8.14374, 22.3359" fill="none" stroke="#ff0000"/>
<path d="M315.005,427.35l 8.14374, 22.3359" fill="none" stroke="#ff0000"/>
<path d="M304.146,427.35l 8.14374, 22.3359" fill="none" stroke="#ff0000"/>
<path d="M293.286,427.35l 8.14374, 22.3359" fill="none" stroke="#ff0000"/>
<path d="M282.426,427.35l 8.14374, 22.3359" fill="none" stroke="#ff0000"/>
<path d="M271.567,427.35l 8.14374, 22.3359" fill="none" stroke="#ff0000"/>
<path d="M260.707,427.35l 8.14374, 22.3359" fill="none" stroke="#ff0000"/>
<path d="M249.848,427.35l 8.14374, 22.3359" fill="none" stroke="#ff0000"/>
<path d="M238.988,427.35l 8.14374, 22.3359" fill="none" stroke="#ff0000"/>
<path d="M228.128,427.35l 8.14374, 22.3359" fill="none" stroke="#ff0000"/>
<path d="M217.269,427.35l 8.14374, 22.3359" fill="none" stroke="#ff0000"/>
<path d="M208.374,432.74l 6.17866, 16.9463" fill="none" stroke="#ff0000"/>
<g stroke="#ff0000" stroke-width="1" fill="none">
<line x1="272.166" y1="438.518" x2="273.166" y2="438.518"/>
</g>
<path d="M502.716,435.843l 8.02046, 21.9978" fill="none" stroke="#ff0000"/>
<path d="M491.856,435.843l 9.39897, 25.7786" fill="none" stroke="#ff0000"/>
<path d="M480.996,435.843l 9.39897, 25.7786" fill="none" stroke="#ff0000"/>
<path d="M470.137,435.843l 9.39897, 25.7786" fill="none" stroke="#ff0000"/>
<path d="M459.277,435.843l 9.39897, 25.7786" fill="none" stroke="#ff0000"/>
<path d="M448.418,435.843l 9.39897, 25.7786" fill="none" stroke="#ff0000"/>
<path d="M437.558,435.843l 9.39897, 25.7786" fill="none" stroke="#ff0000"/>
<path d="M426.698,435.843l 9.39897, 25.7786" fill="none" stroke="#ff0000"/>
<path d="M415.839,435.843l 9.39897, 25.7786" fill="none" stroke="#ff0000"/>
<path d="M404.979,435.843l 9.39897, 25.7786" fill="none" stroke="#ff0000"/>
<path d="M394.119,435.843l 9.39897, 25.7786" fill="none" stroke="#ff0000"/>
<path d="M383.26,435.843l 9.39897, 25.7786" fill="none" stroke="#ff0000"/>
<path d="M372.4,435.843l 9.39897, 25.7786" fill="none" stroke="#ff0000"/>
<path d="M361.54,435.843l 9.39897, 25.7786" fill="none" stroke="#ff0000"/>
<path d="M350.681,435.843l 9.39897, 25.7786" fill="none" stroke="#ff0000"/>
<path d="M339.821,435.843l 9.39897, 25.7786" fill="none" stroke="#ff0000"/>
<path d="M337.958,460.517l 0.402652, 1.10436" fill="none" stroke="#ff0000"/>
<g stroke="#ff0000" stroke-width="1" fill="none">
<line x1="423.347" y1="448.732" x2="424.347" y2="448.732"/>
</g>
<path d="M67.9916,442.721v -1.89634" fill="none" stroke="#ff0000" stroke-width="2"/>
<path d="M67.9916,440.825v -1.89634" fill="none" stroke="#ff0000" stroke-width="2"/>
<path d="M57.1929,440.825h 10.7986" fill="none" stroke="#ff0000" stroke-width="2"/>
<path d="M67.9916,440.825h 10.7986" fill="none" stroke="#ff0000" stroke-width="2"/>
<g stroke="#ff0000" stroke-width="1" fill="none">
<line x1="66.9916" y1="440.825" x2="67.9916" y2="440.825"/>
</g>
<path d="M93.9083,441.353v -1.51961" fill="none" stroke="#ff0000" stroke-width="2"/>
<path d="M93.9083,439.833v -1.51961" fill="none" stroke="#ff0000" stroke-width="2"/>
<path d="M78.7902,439.833h 15.1181" fill="none" stroke="#ff0000" stroke-width="2"/>
<path d="M93.9083,439.833h 15.1181" fill="none" stroke="#ff0000" stroke-width="2"/>
<g stroke="#ff0000" stroke-width="1" fill="none">
<line x1="92.9083" y1="439.833" x2="93.9083" y2="439.833"/>
</g>
<path d="M126.304,440.766v -1.96858" fill="none" stroke="#ff0000" stroke-width="2"/>
<path d="M126.304,438.797v -1.96858" fill="none" stroke="#ff0000" stroke-width="2"/>
<path d="M109.026,438.797h 17.2778" fill="none" stroke="#ff0000" stroke-width="2"/>
<path d="M126.304,438.797h 17.2778" fill="none" stroke="#ff0000" stroke-width="2"/>
<g stroke="#ff0000" stroke-width="1" fill="none">
<line x1="125.304" y1="438.797" x2="126.304" y2="438.797"/>
</g>
<path d="M175.978,441.59v -1.51338" fill="none" stroke="#ff0000" stroke-width="2"/>
<path d="M175.978,440.077v -1.51338" fill="none" stroke="#ff0000" stroke-width="2"/>
<path d="M143.582,440.077h 32.396" fill="none" stroke="#ff0000" stroke-width="2"/>
<path d="M175.978,440.077h 32.396" fill="none" stroke="#ff0000" stroke-width="2"/>
<g stroke="#ff0000" stroke-width="1" fill="none">
<line x1="174.978" y1="440.077" x2="175.978" y2="440.077"/>
</g>
<path d="M273.166,440.97v -2.45195" fill="none" stroke="#ff0000" stroke-width="2"/>
<path d="M273.166,438.518v -2.45195" fill="none" stroke="#ff0000" stroke-width="2"/>
<path d="M208.374,438.518h 64.7919" fill="none" stroke="#ff0000" stroke-width="2"/>
<path d="M273.166,438.518h 64.7919" fill="none" stroke="#ff0000" stroke-width="2"/>
<g stroke="#ff0000" stroke-width="1" fill="none">
<line x1="272.166" y1="438.518" x2="273.166" y2="438.518"/>
</g>
<path d="M424.347,451.719v -2.98648" fill="none" stroke="#ff0000" stroke-width="2"/>
<path d="M424.347,448.732v -2.98648" fill="none" stroke="#ff0000" stroke-width="2"/>
<path d="M337.958,448.732h 86.3892" fill="none" stroke="#ff0000" stroke-width="2"/>
<path d="M424.347,448.732h 86.3892" fill="none" stroke="#ff0000" stroke-width="2"/>
<g stroke="#ff0000" stroke-width="1" fill="none">
<line x1="423.347" y1="448.732" x2="424.347" y2="448.732"/>
</g></svg>
