<?xml version="1.0" standalone="no"?>
<svg width="567.429" height="545.624" viewBox="0 0 567.429 545.624" xmlns="http://www.w3.org/2000/svg" shape-rendering="crispEdges">
<title>
/Users/georgebakas/Documents/HEP-NTUA_ul/VariationHandling/FinalResults/results/FinalResult_chi_normalized.svg
</title>
<desc>
Creator: ROOT Version 6.22/02
CreationDate: Wed Nov 24 08:11:45 2021</desc>
<defs>
</defs>
<rect x="0.5" y="0" width="566.929" height="545.124" fill="white"/>
<rect x="0.5" y="0" width="566.929" height="381.587" fill="white"/>
<rect x="57.1929" y="38.1587" width="453.543" height="324.349" fill="white"/>
<rect x="57.1929" y="38.1587" width="453.543" height="324.349" fill="none" stroke="black"/>
<rect x="57.1929" y="38.1587" width="453.543" height="324.349" fill="white"/>
<rect x="57.1929" y="38.1587" width="453.543" height="324.349" fill="none" stroke="black"/>
<rect x="57.1929" y="89.6435" width="37.7953" height="52.574" fill="#cccccc"/>
<g fill="black">
<circle cx="76.0906" cy="115.93" r="3.79217"/>
</g>
<rect x="94.9882" y="190.205" width="37.7953" height="19.5381" fill="#cccccc"/>
<g fill="black">
<circle cx="113.886" cy="199.974" r="3.79217"/>
</g>
<rect x="132.783" y="257.071" width="37.7953" height="14.3521" fill="#cccccc"/>
<g fill="black">
<circle cx="151.681" cy="264.247" r="3.79217"/>
</g>
<rect x="170.579" y="296.313" width="37.7953" height="17.6003" fill="#cccccc"/>
<g fill="black">
<circle cx="189.476" cy="305.113" r="3.79217"/>
</g>
<rect x="208.374" y="323.307" width="37.7953" height="10.0962" fill="#cccccc"/>
<g fill="black">
<circle cx="227.272" cy="328.355" r="3.79217"/>
</g>
<rect x="246.169" y="339.516" width="37.7953" height="8.7001" fill="#cccccc"/>
<g fill="black">
<circle cx="265.067" cy="343.866" r="3.79217"/>
</g>
<rect x="283.965" y="341.454" width="37.7953" height="14.4475" fill="#cccccc"/>
<g fill="black">
<circle cx="302.862" cy="348.677" r="3.79217"/>
</g>
<rect x="321.76" y="350.955" width="37.7953" height="6.50821" fill="#cccccc"/>
<g fill="black">
<circle cx="340.657" cy="354.209" r="3.79217"/>
</g>
<rect x="359.555" y="355.173" width="37.7953" height="4.90455" fill="#cccccc"/>
<g fill="black">
<circle cx="378.453" cy="357.626" r="3.79217"/>
</g>
<rect x="397.35" y="356.973" width="113.386" height="4.38015" fill="#cccccc"/>
<g fill="black">
<circle cx="454.043" cy="359.164" r="3.79217"/>
</g>
<path d="M57.1929,362.508h 453.543" fill="none" stroke="black"/>
<path d="M94.9882,353.349v 9.15809" fill="none" stroke="black"/>
<path d="M113.886,357.929v 4.57904" fill="none" stroke="black"/>
<path d="M132.783,357.929v 4.57904" fill="none" stroke="black"/>
<path d="M151.681,357.929v 4.57904" fill="none" stroke="black"/>
<path d="M170.579,353.349v 9.15809" fill="none" stroke="black"/>
<path d="M189.476,357.929v 4.57904" fill="none" stroke="black"/>
<path d="M208.374,357.929v 4.57904" fill="none" stroke="black"/>
<path d="M227.272,357.929v 4.57904" fill="none" stroke="black"/>
<path d="M246.169,353.349v 9.15809" fill="none" stroke="black"/>
<path d="M265.067,357.929v 4.57904" fill="none" stroke="black"/>
<path d="M283.965,357.929v 4.57904" fill="none" stroke="black"/>
<path d="M302.862,357.929v 4.57904" fill="none" stroke="black"/>
<path d="M321.76,353.349v 9.15809" fill="none" stroke="black"/>
<path d="M340.657,357.929v 4.57904" fill="none" stroke="black"/>
<path d="M359.555,357.929v 4.57904" fill="none" stroke="black"/>
<path d="M378.453,357.929v 4.57904" fill="none" stroke="black"/>
<path d="M397.35,353.349v 9.15809" fill="none" stroke="black"/>
<path d="M416.248,357.929v 4.57904" fill="none" stroke="black"/>
<path d="M435.146,357.929v 4.57904" fill="none" stroke="black"/>
<path d="M454.043,357.929v 4.57904" fill="none" stroke="black"/>
<path d="M472.941,353.349v 9.15809" fill="none" stroke="black"/>
<path d="M94.9882,353.349v 9.15809" fill="none" stroke="black"/>
<path d="M76.0906,357.929v 4.57904" fill="none" stroke="black"/>
<path d="M57.1929,357.929v 4.57904" fill="none" stroke="black"/>
<path d="M472.941,353.349v 9.15809" fill="none" stroke="black"/>
<path d="M491.839,357.929v 4.57904" fill="none" stroke="black"/>
<text xml:space="preserve" x="89.616" y="380.165" fill="black" font-size="18.004" font-family="Helvetica">2</text>
<text xml:space="preserve" x="165.459" y="380.165" fill="black" font-size="18.004" font-family="Helvetica">4</text>
<text xml:space="preserve" x="241.303" y="380.165" fill="black" font-size="18.004" font-family="Helvetica">6</text>
<text xml:space="preserve" x="316.198" y="380.165" fill="black" font-size="18.004" font-family="Helvetica">8</text>
<text xml:space="preserve" x="386.353" y="380.165" fill="black" font-size="18.004" font-family="Helvetica">10</text>
<text xml:space="preserve" x="462.196" y="380.165" fill="black" font-size="18.004" font-family="Helvetica">12</text>
<text xml:space="preserve" x="419.535" y="403.866" fill="black" font-size="21.5048" font-family="Helvetica">chiParton</text>
<path d="M57.1929,362.508v -324.349" fill="none" stroke="black"/>
<path d="M71.6496,362.508h -14.4567" fill="none" stroke="black"/>
<path d="M64.4213,356.021h -7.22835" fill="none" stroke="black"/>
<path d="M64.4213,349.534h -7.22835" fill="none" stroke="black"/>
<path d="M64.4213,343.047h -7.22835" fill="none" stroke="black"/>
<path d="M64.4213,336.56h -7.22835" fill="none" stroke="black"/>
<path d="M71.6496,330.073h -14.4567" fill="none" stroke="black"/>
<path d="M64.4213,323.586h -7.22835" fill="none" stroke="black"/>
<path d="M64.4213,317.099h -7.22835" fill="none" stroke="black"/>
<path d="M64.4213,310.612h -7.22835" fill="none" stroke="black"/>
<path d="M64.4213,304.125h -7.22835" fill="none" stroke="black"/>
<path d="M71.6496,297.638h -14.4567" fill="none" stroke="black"/>
<path d="M64.4213,291.151h -7.22835" fill="none" stroke="black"/>
<path d="M64.4213,284.664h -7.22835" fill="none" stroke="black"/>
<path d="M64.4213,278.177h -7.22835" fill="none" stroke="black"/>
<path d="M64.4213,271.69h -7.22835" fill="none" stroke="black"/>
<path d="M71.6496,265.203h -14.4567" fill="none" stroke="black"/>
<path d="M64.4213,258.716h -7.22835" fill="none" stroke="black"/>
<path d="M64.4213,252.229h -7.22835" fill="none" stroke="black"/>
<path d="M64.4213,245.742h -7.22835" fill="none" stroke="black"/>
<path d="M64.4213,239.255h -7.22835" fill="none" stroke="black"/>
<path d="M71.6496,232.768h -14.4567" fill="none" stroke="black"/>
<path d="M64.4213,226.281h -7.22835" fill="none" stroke="black"/>
<path d="M64.4213,219.794h -7.22835" fill="none" stroke="black"/>
<path d="M64.4213,213.307h -7.22835" fill="none" stroke="black"/>
<path d="M64.4213,206.82h -7.22835" fill="none" stroke="black"/>
<path d="M71.6496,200.333h -14.4567" fill="none" stroke="black"/>
<path d="M64.4213,193.846h -7.22835" fill="none" stroke="black"/>
<path d="M64.4213,187.359h -7.22835" fill="none" stroke="black"/>
<path d="M64.4213,180.872h -7.22835" fill="none" stroke="black"/>
<path d="M64.4213,174.385h -7.22835" fill="none" stroke="black"/>
<path d="M71.6496,167.898h -14.4567" fill="none" stroke="black"/>
<path d="M64.4213,161.411h -7.22835" fill="none" stroke="black"/>
<path d="M64.4213,154.924h -7.22835" fill="none" stroke="black"/>
<path d="M64.4213,148.437h -7.22835" fill="none" stroke="black"/>
<path d="M64.4213,141.95h -7.22835" fill="none" stroke="black"/>
<path d="M71.6496,135.463h -14.4567" fill="none" stroke="black"/>
<path d="M64.4213,128.976h -7.22835" fill="none" stroke="black"/>
<path d="M64.4213,122.489h -7.22835" fill="none" stroke="black"/>
<path d="M64.4213,116.002h -7.22835" fill="none" stroke="black"/>
<path d="M64.4213,109.515h -7.22835" fill="none" stroke="black"/>
<path d="M71.6496,103.028h -14.4567" fill="none" stroke="black"/>
<path d="M64.4213,96.5415h -7.22835" fill="none" stroke="black"/>
<path d="M64.4213,90.0545h -7.22835" fill="none" stroke="black"/>
<path d="M64.4213,83.5675h -7.22835" fill="none" stroke="black"/>
<path d="M64.4213,77.0806h -7.22835" fill="none" stroke="black"/>
<path d="M71.6496,70.5936h -14.4567" fill="none" stroke="black"/>
<path d="M64.4213,64.1066h -7.22835" fill="none" stroke="black"/>
<path d="M64.4213,57.6196h -7.22835" fill="none" stroke="black"/>
<path d="M64.4213,51.1327h -7.22835" fill="none" stroke="black"/>
<path d="M64.4213,44.6457h -7.22835" fill="none" stroke="black"/>
<path d="M71.6496,38.1587h -14.4567" fill="none" stroke="black"/>
<text xml:space="preserve" x="43.1619" y="368.788" fill="black" font-size="18.004" font-family="Helvetica">0</text>
<text xml:space="preserve" x="17.5648" y="336.555" fill="black" font-size="18.004" font-family="Helvetica">0.05</text>
<text xml:space="preserve" x="30.8373" y="303.373" fill="black" font-size="18.004" font-family="Helvetica">0.1</text>
<text xml:space="preserve" x="17.5648" y="271.14" fill="black" font-size="18.004" font-family="Helvetica">0.15</text>
<text xml:space="preserve" x="27.9932" y="238.907" fill="black" font-size="18.004" font-family="Helvetica">0.2</text>
<text xml:space="preserve" x="17.5648" y="206.673" fill="black" font-size="18.004" font-family="Helvetica">0.25</text>
<text xml:space="preserve" x="27.9932" y="174.44" fill="black" font-size="18.004" font-family="Helvetica">0.3</text>
<text xml:space="preserve" x="17.5648" y="141.258" fill="black" font-size="18.004" font-family="Helvetica">0.35</text>
<text xml:space="preserve" x="27.9932" y="109.025" fill="black" font-size="18.004" font-family="Helvetica">0.4</text>
<text xml:space="preserve" x="17.5648" y="76.7914" fill="black" font-size="18.004" font-family="Helvetica">0.45</text>
<text xml:space="preserve" x="27.9932" y="44.558" fill="black" font-size="18.004" font-family="Helvetica">0.5</text>
<g transform="rotate(-90,0.5,50.2462)">
<text xml:space="preserve" x="0.5" y="50.2462" fill="black" font-size="21.5048" font-family="Times">&#0967;</text>
</g>
<g transform="rotate(-90,0.5,61.6227)">
<text xml:space="preserve" x="0.5" y="61.6227" fill="black" font-size="21.5048" font-family="Helvetica">d</text>
</g>
<g transform="rotate(-90,-23.201,51.1943)">
<text xml:space="preserve" x="-23.201" y="51.1943" fill="black" font-size="21.5048" font-family="Times">&#0963;</text>
</g>
<g transform="rotate(-90,-23.201,62.5708)">
<text xml:space="preserve" x="-23.201" y="62.5708" fill="black" font-size="21.5048" font-family="Helvetica">d</text>
</g>
<g transform="rotate(-90,-12.7726,70.1551)">
<text xml:space="preserve" x="-12.7726" y="70.1551" fill="black" font-size="21.5048" font-family="Helvetica"> </text>
</g>
<g transform="rotate(-90,-4.24021,83.4277)">
<text xml:space="preserve" x="-4.24021" y="83.4277" fill="black" font-size="21.5048" font-family="Times">&#0963;</text>
</g>
<g transform="rotate(-90,-22.253,80.5836)">
<text xml:space="preserve" x="-22.253" y="80.5836" fill="black" font-size="21.5048" font-family="Helvetica">1</text>
</g>
<path d="M76.0906,122.26v -6.32942" fill="none" stroke="black" stroke-width="2"/>
<path d="M76.0906,115.93v -6.32942" fill="none" stroke="black" stroke-width="2"/>
<path d="M57.1929,115.93h 18.8976" fill="none" stroke="black" stroke-width="2"/>
<path d="M76.0906,115.93h 18.8976" fill="none" stroke="black" stroke-width="2"/>
<g stroke="black" stroke-width="1" fill="none">
<line x1="75.0906" y1="115.93" x2="76.0906" y2="115.93"/>
</g>
<path d="M113.886,205.491v -5.51686" fill="none" stroke="black" stroke-width="2"/>
<path d="M113.886,199.974v -5.51686" fill="none" stroke="black" stroke-width="2"/>
<path d="M94.9882,199.974h 18.8976" fill="none" stroke="black" stroke-width="2"/>
<path d="M113.886,199.974h 18.8976" fill="none" stroke="black" stroke-width="2"/>
<g stroke="black" stroke-width="1" fill="none">
<line x1="112.886" y1="199.974" x2="113.886" y2="199.974"/>
</g>
<path d="M151.681,268.944v -4.69734" fill="none" stroke="black" stroke-width="2"/>
<path d="M151.681,264.247v -4.69734" fill="none" stroke="black" stroke-width="2"/>
<path d="M132.783,264.247h 18.8976" fill="none" stroke="black" stroke-width="2"/>
<path d="M151.681,264.247h 18.8976" fill="none" stroke="black" stroke-width="2"/>
<g stroke="black" stroke-width="1" fill="none">
<line x1="150.681" y1="264.247" x2="151.681" y2="264.247"/>
</g>
<path d="M189.476,309.013v -3.89944" fill="none" stroke="black" stroke-width="2"/>
<path d="M189.476,305.113v -3.89944" fill="none" stroke="black" stroke-width="2"/>
<path d="M170.579,305.113h 18.8976" fill="none" stroke="black" stroke-width="2"/>
<path d="M189.476,305.113h 18.8976" fill="none" stroke="black" stroke-width="2"/>
<g stroke="black" stroke-width="1" fill="none">
<line x1="188.476" y1="305.113" x2="189.476" y2="305.113"/>
</g>
<path d="M227.272,331.538v -3.18299" fill="none" stroke="black" stroke-width="2"/>
<path d="M227.272,328.355v -3.18299" fill="none" stroke="black" stroke-width="2"/>
<path d="M208.374,328.355h 18.8976" fill="none" stroke="black" stroke-width="2"/>
<path d="M227.272,328.355h 18.8976" fill="none" stroke="black" stroke-width="2"/>
<g stroke="black" stroke-width="1" fill="none">
<line x1="226.272" y1="328.355" x2="227.272" y2="328.355"/>
</g>
<path d="M265.067,346.434v -2.56755" fill="none" stroke="black" stroke-width="2"/>
<path d="M265.067,343.866v -2.56755" fill="none" stroke="black" stroke-width="2"/>
<path d="M246.169,343.866h 18.8976" fill="none" stroke="black" stroke-width="2"/>
<path d="M265.067,343.866h 18.8976" fill="none" stroke="black" stroke-width="2"/>
<g stroke="black" stroke-width="1" fill="none">
<line x1="264.067" y1="343.866" x2="265.067" y2="343.866"/>
</g>
<path d="M302.862,351.256v -2.57858" fill="none" stroke="black" stroke-width="2"/>
<path d="M302.862,348.677v -2.57858" fill="none" stroke="black" stroke-width="2"/>
<path d="M283.965,348.677h 18.8976" fill="none" stroke="black" stroke-width="2"/>
<path d="M302.862,348.677h 18.8976" fill="none" stroke="black" stroke-width="2"/>
<g stroke="black" stroke-width="1" fill="none">
<line x1="301.862" y1="348.677" x2="302.862" y2="348.677"/>
</g>
<path d="M340.657,356.543v -2.33401" fill="none" stroke="black" stroke-width="2"/>
<path d="M340.657,354.209v -2.33401" fill="none" stroke="black" stroke-width="2"/>
<path d="M321.76,354.209h 18.8976" fill="none" stroke="black" stroke-width="2"/>
<path d="M340.657,354.209h 18.8976" fill="none" stroke="black" stroke-width="2"/>
<g stroke="black" stroke-width="1" fill="none">
<line x1="339.657" y1="354.209" x2="340.657" y2="354.209"/>
</g>
<path d="M378.453,359.455v -1.82925" fill="none" stroke="black" stroke-width="2"/>
<path d="M378.453,357.626v -1.82925" fill="none" stroke="black" stroke-width="2"/>
<path d="M359.555,357.626h 18.8976" fill="none" stroke="black" stroke-width="2"/>
<path d="M378.453,357.626h 18.8976" fill="none" stroke="black" stroke-width="2"/>
<g stroke="black" stroke-width="1" fill="none">
<line x1="377.453" y1="357.626" x2="378.453" y2="357.626"/>
</g>
<path d="M454.043,359.895v -0.731445" fill="none" stroke="black" stroke-width="2"/>
<path d="M454.043,359.164v -0.731445" fill="none" stroke="black" stroke-width="2"/>
<path d="M397.35,359.164h 56.6929" fill="none" stroke="black" stroke-width="2"/>
<path d="M454.043,359.164h 56.6929" fill="none" stroke="black" stroke-width="2"/>
<g stroke="black" stroke-width="1" fill="none">
<line x1="453.043" y1="359.164" x2="454.043" y2="359.164"/>
</g>
<path d="M92.6083,97.9456l 2.37988, 6.53056" fill="none" stroke="#ff0000"/>
<path d="M81.7487,97.9456l 13.2395, 36.3302" fill="none" stroke="#ff0000"/>
<path d="M70.889,97.9456l 18.858, 51.7477" fill="none" stroke="#ff0000"/>
<path d="M60.0294,97.9456l 18.858, 51.7477" fill="none" stroke="#ff0000"/>
<path d="M57.1929,119.962l 10.8349, 29.7316" fill="none" stroke="#ff0000"/>
<g stroke="#ff0000" stroke-width="1" fill="none">
<line x1="75.0906" y1="123.82" x2="76.0906" y2="123.82"/>
</g>
<path d="M127.462,193.586l 4.16082, 11.4176" fill="none" stroke="#ff0000"/>
<path d="M116.602,193.586l 4.16082, 11.4176" fill="none" stroke="#ff0000"/>
<path d="M105.743,193.586l 4.16082, 11.4176" fill="none" stroke="#ff0000"/>
<path d="M94.9882,193.875l 4.05553, 11.1287" fill="none" stroke="#ff0000"/>
<g stroke="#ff0000" stroke-width="1" fill="none">
<line x1="112.886" y1="199.295" x2="113.886" y2="199.295"/>
</g>
<path d="M162.488,259.9l 3.26251, 8.95254" fill="none" stroke="#ff0000"/>
<path d="M151.628,259.9l 3.26251, 8.95254" fill="none" stroke="#ff0000"/>
<path d="M140.768,259.9l 3.26251, 8.95254" fill="none" stroke="#ff0000"/>
<path d="M132.783,267.788l 0.387794, 1.06413" fill="none" stroke="#ff0000"/>
<g stroke="#ff0000" stroke-width="1" fill="none">
<line x1="150.681" y1="264.376" x2="151.681" y2="264.376"/>
</g>
<path d="M198.828,300.02l 4.52173, 12.4079" fill="none" stroke="#ff0000"/>
<path d="M187.968,300.02l 4.52173, 12.4079" fill="none" stroke="#ff0000"/>
<path d="M177.108,300.02l 4.52173, 12.4079" fill="none" stroke="#ff0000"/>
<path d="M170.579,311.902l 0.191586, 0.525724" fill="none" stroke="#ff0000"/>
<g stroke="#ff0000" stroke-width="1" fill="none">
<line x1="188.476" y1="306.224" x2="189.476" y2="306.224"/>
</g>
<path d="M239.669,322.692l 3.97968, 10.9205" fill="none" stroke="#ff0000"/>
<path d="M228.809,322.692l 3.97968, 10.9205" fill="none" stroke="#ff0000"/>
<path d="M217.95,322.692l 3.97968, 10.9205" fill="none" stroke="#ff0000"/>
<path d="M208.374,326.216l 2.69555, 7.39677" fill="none" stroke="#ff0000"/>
<g stroke="#ff0000" stroke-width="1" fill="none">
<line x1="226.272" y1="328.152" x2="227.272" y2="328.152"/>
</g>
<path d="M277.092,335.984l 3.43258, 9.41924" fill="none" stroke="#ff0000"/>
<path d="M266.232,335.984l 3.43258, 9.41924" fill="none" stroke="#ff0000"/>
<path d="M255.372,335.984l 3.43258, 9.41924" fill="none" stroke="#ff0000"/>
<path d="M246.169,340.53l 1.77611, 4.87377" fill="none" stroke="#ff0000"/>
<g stroke="#ff0000" stroke-width="1" fill="none">
<line x1="264.067" y1="340.694" x2="265.067" y2="340.694"/>
</g>
<path d="M312.782,344.522l 2.66209, 7.30495" fill="none" stroke="#ff0000"/>
<path d="M301.922,344.522l 2.66209, 7.30495" fill="none" stroke="#ff0000"/>
<path d="M291.063,344.522l 2.66209, 7.30495" fill="none" stroke="#ff0000"/>
<g stroke="#ff0000" stroke-width="1" fill="none">
<line x1="301.862" y1="348.175" x2="302.862" y2="348.175"/>
</g>
<path d="M358.16,349.845l 1.39494, 3.82781" fill="none" stroke="#ff0000"/>
<path d="M347.301,349.845l 2.12489, 5.83083" fill="none" stroke="#ff0000"/>
<path d="M336.441,349.845l 2.12489, 5.83083" fill="none" stroke="#ff0000"/>
<path d="M325.581,349.845l 2.12489, 5.83083" fill="none" stroke="#ff0000"/>
<g stroke="#ff0000" stroke-width="1" fill="none">
<line x1="339.657" y1="352.76" x2="340.657" y2="352.76"/>
</g>
<path d="M392.027,353.378l 1.66463, 4.56785" fill="none" stroke="#ff0000"/>
<path d="M381.167,353.378l 1.66463, 4.56785" fill="none" stroke="#ff0000"/>
<path d="M370.307,353.378l 1.66463, 4.56785" fill="none" stroke="#ff0000"/>
<path d="M359.555,353.672l 1.55718, 4.27302" fill="none" stroke="#ff0000"/>
<g stroke="#ff0000" stroke-width="1" fill="none">
<line x1="377.453" y1="355.662" x2="378.453" y2="355.662"/>
</g>
<path d="M502.112,357.464l 0.988893, 2.71359" fill="none" stroke="#ff0000"/>
<path d="M491.253,357.464l 0.988893, 2.71359" fill="none" stroke="#ff0000"/>
<path d="M480.393,357.464l 0.988893, 2.71359" fill="none" stroke="#ff0000"/>
<path d="M469.533,357.464l 0.988893, 2.71359" fill="none" stroke="#ff0000"/>
<path d="M458.674,357.464l 0.988893, 2.71359" fill="none" stroke="#ff0000"/>
<path d="M447.814,357.464l 0.988893, 2.71359" fill="none" stroke="#ff0000"/>
<path d="M436.954,357.464l 0.988893, 2.71359" fill="none" stroke="#ff0000"/>
<path d="M426.095,357.464l 0.988893, 2.71359" fill="none" stroke="#ff0000"/>
<path d="M415.235,357.464l 0.988893, 2.71359" fill="none" stroke="#ff0000"/>
<path d="M404.376,357.464l 0.988893, 2.71359" fill="none" stroke="#ff0000"/>
<g stroke="#ff0000" stroke-width="1" fill="none">
<line x1="453.043" y1="358.821" x2="454.043" y2="358.821"/>
</g>
<path d="M76.0906,124.048v -0.228119" fill="none" stroke="#ff0000" stroke-width="2"/>
<path d="M76.0906,123.82v -0.228119" fill="none" stroke="#ff0000" stroke-width="2"/>
<path d="M57.1929,123.82h 18.8976" fill="none" stroke="#ff0000" stroke-width="2"/>
<path d="M76.0906,123.82h 18.8976" fill="none" stroke="#ff0000" stroke-width="2"/>
<g stroke="#ff0000" stroke-width="1" fill="none">
<line x1="75.0906" y1="123.82" x2="76.0906" y2="123.82"/>
</g>
<path d="M113.886,199.485v -0.190474" fill="none" stroke="#ff0000" stroke-width="2"/>
<path d="M113.886,199.295v -0.190474" fill="none" stroke="#ff0000" stroke-width="2"/>
<path d="M94.9882,199.295h 18.8976" fill="none" stroke="#ff0000" stroke-width="2"/>
<path d="M113.886,199.295h 18.8976" fill="none" stroke="#ff0000" stroke-width="2"/>
<g stroke="#ff0000" stroke-width="1" fill="none">
<line x1="112.886" y1="199.295" x2="113.886" y2="199.295"/>
</g>
<path d="M151.681,264.525v -0.14915" fill="none" stroke="#ff0000" stroke-width="2"/>
<path d="M151.681,264.376v -0.14915" fill="none" stroke="#ff0000" stroke-width="2"/>
<path d="M132.783,264.376h 18.8976" fill="none" stroke="#ff0000" stroke-width="2"/>
<path d="M151.681,264.376h 18.8976" fill="none" stroke="#ff0000" stroke-width="2"/>
<g stroke="#ff0000" stroke-width="1" fill="none">
<line x1="150.681" y1="264.376" x2="151.681" y2="264.376"/>
</g>
<path d="M189.476,306.338v -0.11396" fill="none" stroke="#ff0000" stroke-width="2"/>
<path d="M189.476,306.224v -0.11396" fill="none" stroke="#ff0000" stroke-width="2"/>
<path d="M170.579,306.224h 18.8976" fill="none" stroke="#ff0000" stroke-width="2"/>
<path d="M189.476,306.224h 18.8976" fill="none" stroke="#ff0000" stroke-width="2"/>
<g stroke="#ff0000" stroke-width="1" fill="none">
<line x1="188.476" y1="306.224" x2="189.476" y2="306.224"/>
</g>
<path d="M227.272,328.242v -0.0895739" fill="none" stroke="#ff0000" stroke-width="2"/>
<path d="M227.272,328.152v -0.0895739" fill="none" stroke="#ff0000" stroke-width="2"/>
<path d="M208.374,328.152h 18.8976" fill="none" stroke="#ff0000" stroke-width="2"/>
<path d="M227.272,328.152h 18.8976" fill="none" stroke="#ff0000" stroke-width="2"/>
<g stroke="#ff0000" stroke-width="1" fill="none">
<line x1="226.272" y1="328.152" x2="227.272" y2="328.152"/>
</g>
<path d="M265.067,340.766v -0.0718965" fill="none" stroke="#ff0000" stroke-width="2"/>
<path d="M265.067,340.694v -0.0718965" fill="none" stroke="#ff0000" stroke-width="2"/>
<path d="M246.169,340.694h 18.8976" fill="none" stroke="#ff0000" stroke-width="2"/>
<path d="M265.067,340.694h 18.8976" fill="none" stroke="#ff0000" stroke-width="2"/>
<g stroke="#ff0000" stroke-width="1" fill="none">
<line x1="264.067" y1="340.694" x2="265.067" y2="340.694"/>
</g>
<path d="M302.862,348.233v -0.0585482" fill="none" stroke="#ff0000" stroke-width="2"/>
<path d="M302.862,348.175v -0.0585482" fill="none" stroke="#ff0000" stroke-width="2"/>
<path d="M283.965,348.175h 18.8976" fill="none" stroke="#ff0000" stroke-width="2"/>
<path d="M302.862,348.175h 18.8976" fill="none" stroke="#ff0000" stroke-width="2"/>
<g stroke="#ff0000" stroke-width="1" fill="none">
<line x1="301.862" y1="348.175" x2="302.862" y2="348.175"/>
</g>
<path d="M340.657,352.809v -0.0485189" fill="none" stroke="#ff0000" stroke-width="2"/>
<path d="M340.657,352.76v -0.0485189" fill="none" stroke="#ff0000" stroke-width="2"/>
<path d="M321.76,352.76h 18.8976" fill="none" stroke="#ff0000" stroke-width="2"/>
<path d="M340.657,352.76h 18.8976" fill="none" stroke="#ff0000" stroke-width="2"/>
<g stroke="#ff0000" stroke-width="1" fill="none">
<line x1="339.657" y1="352.76" x2="340.657" y2="352.76"/>
</g>
<path d="M378.453,355.702v -0.0408316" fill="none" stroke="#ff0000" stroke-width="2"/>
<path d="M378.453,355.662v -0.0408316" fill="none" stroke="#ff0000" stroke-width="2"/>
<path d="M359.555,355.662h 18.8976" fill="none" stroke="#ff0000" stroke-width="2"/>
<path d="M378.453,355.662h 18.8976" fill="none" stroke="#ff0000" stroke-width="2"/>
<g stroke="#ff0000" stroke-width="1" fill="none">
<line x1="377.453" y1="355.662" x2="378.453" y2="355.662"/>
</g>
<path d="M454.043,358.838v -0.0173558" fill="none" stroke="#ff0000" stroke-width="2"/>
<path d="M454.043,358.821v -0.0173558" fill="none" stroke="#ff0000" stroke-width="2"/>
<path d="M397.35,358.821h 56.6929" fill="none" stroke="#ff0000" stroke-width="2"/>
<path d="M454.043,358.821h 56.6929" fill="none" stroke="#ff0000" stroke-width="2"/>
<g stroke="#ff0000" stroke-width="1" fill="none">
<line x1="453.043" y1="358.821" x2="454.043" y2="358.821"/>
</g>
<rect x="334.988" y="41.9746" width="170.079" height="114.476" fill="white"/>
<text xml:space="preserve" x="376.873" y="60.6747" fill="black" font-size="12.4517" font-family="Helvetica">Data</text>
<path d="M356.248,52.4919v -4.79354" fill="none" stroke="black" stroke-width="2"/>
<path d="M356.248,60.0762v 4.79354" fill="none" stroke="black" stroke-width="2"/>
<g fill="black">
<circle cx="356.248" cy="56.2841" r="3.79217"/>
</g>
<text xml:space="preserve" x="376.873" y="89.116" fill="black" font-size="12.4517" font-family="Helvetica">Total unc.</text>
<path d="M341.366,94.9198h 29.7638v -20.0333h -29.7638z" fill="#cccccc"/>
<path d="M341.366,74.8864h 29.7638" fill="none" stroke="black" stroke-width="2"/>
<path d="M341.366,94.9198h 29.7638" fill="none" stroke="black" stroke-width="2"/>
<path d="M371.13,94.9198v -20.0333" fill="none" stroke="black" stroke-width="2"/>
<path d="M341.366,94.9198v -20.0333" fill="none" stroke="black" stroke-width="2"/>
<text xml:space="preserve" x="376.873" y="116.609" fill="black" font-size="12.4517" font-family="Helvetica">Powheg+Pythia8</text>
<path d="M341.366,113.522h 29.7638" fill="none" stroke="#ff0000" stroke-width="2"/>
<path d="M356.248,122.108v -17.1714" fill="none" stroke="#ff0000" stroke-width="2"/>
<text xml:space="preserve" x="376.873" y="145.05" fill="black" font-size="12.4517" font-family="Helvetica">Powheg+Pythia8 unc</text>
<path d="M365.695,132.124l 5.43468, 14.9131" fill="none" stroke="#ff0000"/>
<path d="M354.836,132.124l 7.30059, 20.0333" fill="none" stroke="#ff0000"/>
<path d="M343.976,132.124l 7.30059, 20.0333" fill="none" stroke="#ff0000"/>
<path d="M341.366,132.124h 29.7638" fill="none" stroke="#ff0000" stroke-width="2"/>
<path d="M341.366,152.158h 29.7638" fill="none" stroke="#ff0000" stroke-width="2"/>
<path d="M371.13,152.158v -20.0333" fill="none" stroke="#ff0000" stroke-width="2"/>
<path d="M341.366,152.158v -20.0333" fill="none" stroke="#ff0000" stroke-width="2"/>
<text xml:space="preserve" x="420.483" y="30.3373" fill="black" font-size="21.5048" font-family="Helvetica"> (13 TeV)</text>
<text xml:space="preserve" x="410.054" y="19.9089" fill="black" font-size="14.5032" font-family="Helvetica">-1</text>
<text xml:space="preserve" x="343.691" y="30.3373" fill="black" font-size="21.5048" font-family="Helvetica">20.1 fb</text>
<text xml:space="preserve" x="57.1929" y="30.527" fill="black" font-size="26.756" font-family="Helvetica" font-weight="bold">CMS</text>
<text xml:space="preserve" x="77.2914" y="64.4669" fill="black" font-size="20.4545" font-family="Helvetica" font-style="oblique">Work in progress</text>
<rect x="0.5" y="381.587" width="566.929" height="136.281" fill="white"/>
<rect x="57.1929" y="385.675" width="453.543" height="102.211" fill="white"/>
<rect x="57.1929" y="385.675" width="453.543" height="102.211" fill="none" stroke="black"/>
<rect x="57.1929" y="385.675" width="453.543" height="102.211" fill="white"/>
<rect x="57.1929" y="385.675" width="453.543" height="102.211" fill="none" stroke="black"/>
<path d="M57.1929,487.886h 453.543" fill="none" stroke="black"/>
<path d="M57.1929,487.886v -102.211" fill="none" stroke="black"/>
<path d="M510.736,487.886h -453.543" fill="none" stroke="black" stroke-dasharray=" 1, 2"/>
<path d="M510.736,462.333h -453.543" fill="none" stroke="black" stroke-dasharray=" 1, 2"/>
<path d="M510.736,436.781h -453.543" fill="none" stroke="black" stroke-dasharray=" 1, 2"/>
<path d="M510.736,411.228h -453.543" fill="none" stroke="black" stroke-dasharray=" 1, 2"/>
<path d="M510.736,385.675h -453.543" fill="none" stroke="black" stroke-dasharray=" 1, 2"/>
<rect x="57.1929" y="433.979" width="37.7953" height="5.60393" fill="#cccccc"/>
<g fill="black">
<circle cx="76.0906" cy="436.781" r="3.79217"/>
</g>
<rect x="94.9882" y="435.017" width="37.7953" height="3.52765" fill="#cccccc"/>
<g fill="black">
<circle cx="113.886" cy="436.781" r="3.79217"/>
</g>
<rect x="132.783" y="434.55" width="37.7953" height="4.46076" fill="#cccccc"/>
<g fill="black">
<circle cx="151.681" cy="436.781" r="3.79217"/>
</g>
<rect x="170.579" y="432.495" width="37.7953" height="8.57072" fill="#cccccc"/>
<g fill="black">
<circle cx="189.476" cy="436.781" r="3.79217"/>
</g>
<rect x="208.374" y="432.316" width="37.7953" height="8.93008" fill="#cccccc"/>
<g fill="black">
<circle cx="227.272" cy="436.781" r="3.79217"/>
</g>
<rect x="246.169" y="429.857" width="37.7953" height="13.8479" fill="#cccccc"/>
<g fill="black">
<circle cx="265.067" cy="436.781" r="3.79217"/>
</g>
<rect x="283.965" y="422.609" width="37.7953" height="28.3431" fill="#cccccc"/>
<g fill="black">
<circle cx="302.862" cy="436.781" r="3.79217"/>
</g>
<rect x="321.76" y="424.449" width="37.7953" height="24.6627" fill="#cccccc"/>
<g fill="black">
<circle cx="340.657" cy="436.781" r="3.79217"/>
</g>
<rect x="359.555" y="420.767" width="37.7953" height="32.027" fill="#cccccc"/>
<g fill="black">
<circle cx="378.453" cy="436.781" r="3.79217"/>
</g>
<rect x="397.35" y="419.137" width="113.386" height="35.2872" fill="#cccccc"/>
<g fill="black">
<circle cx="454.043" cy="436.781" r="3.79217"/>
</g>
<path d="M57.1929,487.886h 453.543" fill="none" stroke="black"/>
<path d="M94.9882,484.615v 3.27075" fill="none" stroke="black"/>
<path d="M113.886,486.251v 1.63537" fill="none" stroke="black"/>
<path d="M132.783,486.251v 1.63537" fill="none" stroke="black"/>
<path d="M151.681,486.251v 1.63537" fill="none" stroke="black"/>
<path d="M170.579,484.615v 3.27075" fill="none" stroke="black"/>
<path d="M189.476,486.251v 1.63537" fill="none" stroke="black"/>
<path d="M208.374,486.251v 1.63537" fill="none" stroke="black"/>
<path d="M227.272,486.251v 1.63537" fill="none" stroke="black"/>
<path d="M246.169,484.615v 3.27075" fill="none" stroke="black"/>
<path d="M265.067,486.251v 1.63537" fill="none" stroke="black"/>
<path d="M283.965,486.251v 1.63537" fill="none" stroke="black"/>
<path d="M302.862,486.251v 1.63537" fill="none" stroke="black"/>
<path d="M321.76,484.615v 3.27075" fill="none" stroke="black"/>
<path d="M340.657,486.251v 1.63537" fill="none" stroke="black"/>
<path d="M359.555,486.251v 1.63537" fill="none" stroke="black"/>
<path d="M378.453,486.251v 1.63537" fill="none" stroke="black"/>
<path d="M397.35,484.615v 3.27075" fill="none" stroke="black"/>
<path d="M416.248,486.251v 1.63537" fill="none" stroke="black"/>
<path d="M435.146,486.251v 1.63537" fill="none" stroke="black"/>
<path d="M454.043,486.251v 1.63537" fill="none" stroke="black"/>
<path d="M472.941,484.615v 3.27075" fill="none" stroke="black"/>
<path d="M94.9882,484.615v 3.27075" fill="none" stroke="black"/>
<path d="M76.0906,486.251v 1.63537" fill="none" stroke="black"/>
<path d="M57.1929,486.251v 1.63537" fill="none" stroke="black"/>
<path d="M472.941,484.615v 3.27075" fill="none" stroke="black"/>
<path d="M491.839,486.251v 1.63537" fill="none" stroke="black"/>
<text xml:space="preserve" x="89.616" y="502.462" fill="black" font-size="15.5034" font-family="Helvetica">2</text>
<text xml:space="preserve" x="165.459" y="502.462" fill="black" font-size="15.5034" font-family="Helvetica">4</text>
<text xml:space="preserve" x="241.303" y="502.462" fill="black" font-size="15.5034" font-family="Helvetica">6</text>
<text xml:space="preserve" x="316.198" y="502.462" fill="black" font-size="15.5034" font-family="Helvetica">8</text>
<text xml:space="preserve" x="388.249" y="502.462" fill="black" font-size="15.5034" font-family="Helvetica">10</text>
<text xml:space="preserve" x="464.093" y="502.462" fill="black" font-size="15.5034" font-family="Helvetica">12</text>
<text xml:space="preserve" x="505.806" y="517.631" fill="black" font-size="14.8783" font-family="Helvetica"> </text>
<text xml:space="preserve" x="498.222" y="517.631" fill="black" font-size="14.8783" font-family="Times">&#0967;</text>
<text xml:space="preserve" x="451.768" y="517.631" fill="black" font-size="14.8783" font-family="Helvetica">Parton </text>
<path d="M57.1929,487.886v -102.211" fill="none" stroke="black"/>
<path d="M69.9488,487.886h -12.7559" fill="none" stroke="black"/>
<path d="M63.5709,482.776h -6.37795" fill="none" stroke="black"/>
<path d="M63.5709,477.665h -6.37795" fill="none" stroke="black"/>
<path d="M63.5709,472.555h -6.37795" fill="none" stroke="black"/>
<path d="M63.5709,467.444h -6.37795" fill="none" stroke="black"/>
<path d="M69.9488,462.333h -12.7559" fill="none" stroke="black"/>
<path d="M63.5709,457.223h -6.37795" fill="none" stroke="black"/>
<path d="M63.5709,452.112h -6.37795" fill="none" stroke="black"/>
<path d="M63.5709,447.002h -6.37795" fill="none" stroke="black"/>
<path d="M63.5709,441.891h -6.37795" fill="none" stroke="black"/>
<path d="M69.9488,436.781h -12.7559" fill="none" stroke="black"/>
<path d="M63.5709,431.67h -6.37795" fill="none" stroke="black"/>
<path d="M63.5709,426.56h -6.37795" fill="none" stroke="black"/>
<path d="M63.5709,421.449h -6.37795" fill="none" stroke="black"/>
<path d="M63.5709,416.339h -6.37795" fill="none" stroke="black"/>
<path d="M69.9488,411.228h -12.7559" fill="none" stroke="black"/>
<path d="M63.5709,406.118h -6.37795" fill="none" stroke="black"/>
<path d="M63.5709,401.007h -6.37795" fill="none" stroke="black"/>
<path d="M63.5709,395.896h -6.37795" fill="none" stroke="black"/>
<path d="M63.5709,390.786h -6.37795" fill="none" stroke="black"/>
<path d="M69.9488,385.675h -12.7559" fill="none" stroke="black"/>
<text xml:space="preserve" x="46.006" y="492.982" fill="black" font-size="13.0028" font-family="Helvetica">2</text>
<text xml:space="preserve" x="38.4217" y="492.982" fill="black" font-size="13.0028" font-family="Times">&#8722;</text>
<text xml:space="preserve" x="47.9021" y="467.385" fill="black" font-size="13.0028" font-family="Helvetica">1</text>
<text xml:space="preserve" x="40.3178" y="467.385" fill="black" font-size="13.0028" font-family="Times">&#8722;</text>
<text xml:space="preserve" x="46.006" y="440.84" fill="black" font-size="13.0028" font-family="Helvetica">0</text>
<text xml:space="preserve" x="47.9021" y="416.19" fill="black" font-size="13.0028" font-family="Helvetica">1</text>
<text xml:space="preserve" x="46.006" y="390.593" fill="black" font-size="13.0028" font-family="Helvetica">2</text>
<g transform="rotate(-90,26.0971,474.969)">
<text xml:space="preserve" x="26.0971" y="474.969" fill="black" font-size="14.8783" font-family="Helvetica">The./data - 1</text>
</g>
<path d="M76.0906,437.708v -0.927604" fill="none" stroke="black" stroke-width="2"/>
<path d="M76.0906,436.781v -0.927604" fill="none" stroke="black" stroke-width="2"/>
<path d="M57.1929,436.781h 18.8976" fill="none" stroke="black" stroke-width="2"/>
<path d="M76.0906,436.781h 18.8976" fill="none" stroke="black" stroke-width="2"/>
<g stroke="black" stroke-width="1" fill="none">
<line x1="75.0906" y1="436.781" x2="76.0906" y2="436.781"/>
</g>
<path d="M113.886,438.007v -1.2266" fill="none" stroke="black" stroke-width="2"/>
<path d="M113.886,436.781v -1.2266" fill="none" stroke="black" stroke-width="2"/>
<path d="M94.9882,436.781h 18.8976" fill="none" stroke="black" stroke-width="2"/>
<path d="M113.886,436.781h 18.8976" fill="none" stroke="black" stroke-width="2"/>
<g stroke="black" stroke-width="1" fill="none">
<line x1="112.886" y1="436.781" x2="113.886" y2="436.781"/>
</g>
<path d="M151.681,438.508v -1.72752" fill="none" stroke="black" stroke-width="2"/>
<path d="M151.681,436.781v -1.72752" fill="none" stroke="black" stroke-width="2"/>
<path d="M132.783,436.781h 18.8976" fill="none" stroke="black" stroke-width="2"/>
<path d="M151.681,436.781h 18.8976" fill="none" stroke="black" stroke-width="2"/>
<g stroke="black" stroke-width="1" fill="none">
<line x1="150.681" y1="436.781" x2="151.681" y2="436.781"/>
</g>
<path d="M189.476,439.236v -2.4552" fill="none" stroke="black" stroke-width="2"/>
<path d="M189.476,436.781v -2.4552" fill="none" stroke="black" stroke-width="2"/>
<path d="M170.579,436.781h 18.8976" fill="none" stroke="black" stroke-width="2"/>
<path d="M189.476,436.781h 18.8976" fill="none" stroke="black" stroke-width="2"/>
<g stroke="black" stroke-width="1" fill="none">
<line x1="188.476" y1="436.781" x2="189.476" y2="436.781"/>
</g>
<path d="M227.272,440.149v -3.36791" fill="none" stroke="black" stroke-width="2"/>
<path d="M227.272,436.781v -3.36791" fill="none" stroke="black" stroke-width="2"/>
<path d="M208.374,436.781h 18.8976" fill="none" stroke="black" stroke-width="2"/>
<path d="M227.272,436.781h 18.8976" fill="none" stroke="black" stroke-width="2"/>
<g stroke="black" stroke-width="1" fill="none">
<line x1="226.272" y1="436.781" x2="227.272" y2="436.781"/>
</g>
<path d="M265.067,441.758v -4.97722" fill="none" stroke="black" stroke-width="2"/>
<path d="M265.067,436.781v -4.97722" fill="none" stroke="black" stroke-width="2"/>
<path d="M246.169,436.781h 18.8976" fill="none" stroke="black" stroke-width="2"/>
<path d="M265.067,436.781h 18.8976" fill="none" stroke="black" stroke-width="2"/>
<g stroke="black" stroke-width="1" fill="none">
<line x1="264.067" y1="436.781" x2="265.067" y2="436.781"/>
</g>
<path d="M302.862,443.518v -6.73764" fill="none" stroke="black" stroke-width="2"/>
<path d="M302.862,436.781v -6.73764" fill="none" stroke="black" stroke-width="2"/>
<path d="M283.965,436.781h 18.8976" fill="none" stroke="black" stroke-width="2"/>
<path d="M302.862,436.781h 18.8976" fill="none" stroke="black" stroke-width="2"/>
<g stroke="black" stroke-width="1" fill="none">
<line x1="301.862" y1="436.781" x2="302.862" y2="436.781"/>
</g>
<path d="M340.657,446.945v -10.1641" fill="none" stroke="black" stroke-width="2"/>
<path d="M340.657,436.781v -10.1641" fill="none" stroke="black" stroke-width="2"/>
<path d="M321.76,436.781h 18.8976" fill="none" stroke="black" stroke-width="2"/>
<path d="M340.657,436.781h 18.8976" fill="none" stroke="black" stroke-width="2"/>
<g stroke="black" stroke-width="1" fill="none">
<line x1="339.657" y1="436.781" x2="340.657" y2="436.781"/>
</g>
<path d="M378.453,450.321v -13.5407" fill="none" stroke="black" stroke-width="2"/>
<path d="M378.453,436.781v -13.5407" fill="none" stroke="black" stroke-width="2"/>
<path d="M359.555,436.781h 18.8976" fill="none" stroke="black" stroke-width="2"/>
<path d="M378.453,436.781h 18.8976" fill="none" stroke="black" stroke-width="2"/>
<g stroke="black" stroke-width="1" fill="none">
<line x1="377.453" y1="436.781" x2="378.453" y2="436.781"/>
</g>
<path d="M454.043,444.685v -7.90426" fill="none" stroke="black" stroke-width="2"/>
<path d="M454.043,436.781v -7.90426" fill="none" stroke="black" stroke-width="2"/>
<path d="M397.35,436.781h 56.6929" fill="none" stroke="black" stroke-width="2"/>
<path d="M454.043,436.781h 56.6929" fill="none" stroke="black" stroke-width="2"/>
<g stroke="black" stroke-width="1" fill="none">
<line x1="453.043" y1="436.781" x2="454.043" y2="436.781"/>
</g>
<path d="M89.6848,434.843l 2.00929, 5.5109" fill="none" stroke="#ff0000"/>
<path d="M78.8252,434.843l 2.00929, 5.5109" fill="none" stroke="#ff0000"/>
<path d="M67.9655,434.843l 2.00929, 5.5109" fill="none" stroke="#ff0000"/>
<path d="M57.1929,435.082l 1.92227, 5.27223" fill="none" stroke="#ff0000"/>
<g stroke="#ff0000" stroke-width="1" fill="none">
<line x1="75.0906" y1="437.598" x2="76.0906" y2="437.598"/>
</g>
<path d="M122.475,435.423l 0.911973, 2.50127" fill="none" stroke="#ff0000"/>
<path d="M111.616,435.423l 0.911973, 2.50127" fill="none" stroke="#ff0000"/>
<path d="M100.756,435.423l 0.911973, 2.50127" fill="none" stroke="#ff0000"/>
<g stroke="#ff0000" stroke-width="1" fill="none">
<line x1="112.886" y1="436.674" x2="113.886" y2="436.674"/>
</g>
<path d="M165.806,435.128l 1.22958, 3.37239" fill="none" stroke="#ff0000"/>
<path d="M154.947,435.128l 1.22958, 3.37239" fill="none" stroke="#ff0000"/>
<path d="M144.087,435.128l 1.22958, 3.37239" fill="none" stroke="#ff0000"/>
<path d="M133.227,435.128l 1.22958, 3.37239" fill="none" stroke="#ff0000"/>
<g stroke="#ff0000" stroke-width="1" fill="none">
<line x1="150.681" y1="436.814" x2="151.681" y2="436.814"/>
</g>
<path d="M197.985,434.03l 2.36601, 6.48928" fill="none" stroke="#ff0000"/>
<path d="M187.125,434.03l 2.36601, 6.48928" fill="none" stroke="#ff0000"/>
<path d="M176.266,434.03l 2.36601, 6.48928" fill="none" stroke="#ff0000"/>
<g stroke="#ff0000" stroke-width="1" fill="none">
<line x1="188.476" y1="437.275" x2="189.476" y2="437.275"/>
</g>
<path d="M240.644,431.893l 3.45343, 9.47175" fill="none" stroke="#ff0000"/>
<path d="M229.785,431.893l 3.45343, 9.47175" fill="none" stroke="#ff0000"/>
<path d="M218.925,431.893l 3.45343, 9.47175" fill="none" stroke="#ff0000"/>
<path d="M208.374,432.74l 3.14491, 8.62558" fill="none" stroke="#ff0000"/>
<g stroke="#ff0000" stroke-width="1" fill="none">
<line x1="226.272" y1="436.629" x2="227.272" y2="436.629"/>
</g>
<path d="M281.488,424.776l 2.47677, 6.79304" fill="none" stroke="#ff0000"/>
<path d="M270.628,424.776l 5.5838, 15.3147" fill="none" stroke="#ff0000"/>
<path d="M259.769,424.776l 5.5838, 15.3147" fill="none" stroke="#ff0000"/>
<path d="M248.909,424.776l 5.5838, 15.3147" fill="none" stroke="#ff0000"/>
<g stroke="#ff0000" stroke-width="1" fill="none">
<line x1="264.067" y1="432.433" x2="265.067" y2="432.433"/>
</g>
<path d="M315.056,427.49l 6.09743, 16.7235" fill="none" stroke="#ff0000"/>
<path d="M304.197,427.49l 6.09743, 16.7235" fill="none" stroke="#ff0000"/>
<path d="M293.337,427.49l 6.09743, 16.7235" fill="none" stroke="#ff0000"/>
<path d="M283.965,431.569l 4.61039, 12.6449" fill="none" stroke="#ff0000"/>
<g stroke="#ff0000" stroke-width="1" fill="none">
<line x1="301.862" y1="435.852" x2="302.862" y2="435.852"/>
</g>
<path d="M355.762,419.994l 3.79312, 10.4034" fill="none" stroke="#ff0000"/>
<path d="M344.902,419.994l 8.98638, 24.647" fill="none" stroke="#ff0000"/>
<path d="M334.043,419.994l 8.98638, 24.647" fill="none" stroke="#ff0000"/>
<path d="M323.183,419.994l 8.98638, 24.647" fill="none" stroke="#ff0000"/>
<g stroke="#ff0000" stroke-width="1" fill="none">
<line x1="339.657" y1="432.318" x2="340.657" y2="432.318"/>
</g>
<path d="M395.018,408.522l 2.33271, 6.39794" fill="none" stroke="#ff0000"/>
<path d="M384.158,408.522l 13.1095, 35.9555" fill="none" stroke="#ff0000"/>
<path d="M373.298,408.522l 13.1095, 35.9555" fill="none" stroke="#ff0000"/>
<path d="M362.439,408.522l 13.1095, 35.9555" fill="none" stroke="#ff0000"/>
<path d="M359.555,430.398l 5.13349, 14.0797" fill="none" stroke="#ff0000"/>
<g stroke="#ff0000" stroke-width="1" fill="none">
<line x1="377.453" y1="426.5" x2="378.453" y2="426.5"/>
</g>
<path d="M508.566,422.104l 2.17018, 5.95217" fill="none" stroke="#ff0000"/>
<path d="M497.706,422.104l 8.79448, 24.1207" fill="none" stroke="#ff0000"/>
<path d="M486.847,422.104l 8.79448, 24.1207" fill="none" stroke="#ff0000"/>
<path d="M475.987,422.104l 8.79448, 24.1207" fill="none" stroke="#ff0000"/>
<path d="M465.127,422.104l 8.79448, 24.1207" fill="none" stroke="#ff0000"/>
<path d="M454.268,422.104l 8.79448, 24.1207" fill="none" stroke="#ff0000"/>
<path d="M443.408,422.104l 8.79448, 24.1207" fill="none" stroke="#ff0000"/>
<path d="M432.549,422.104l 8.79448, 24.1207" fill="none" stroke="#ff0000"/>
<path d="M421.689,422.104l 8.79448, 24.1207" fill="none" stroke="#ff0000"/>
<path d="M410.829,422.104l 8.79448, 24.1207" fill="none" stroke="#ff0000"/>
<path d="M399.97,422.104l 8.79448, 24.1207" fill="none" stroke="#ff0000"/>
<path d="M397.35,444.705l 0.554075, 1.51967" fill="none" stroke="#ff0000"/>
<g stroke="#ff0000" stroke-width="1" fill="none">
<line x1="453.043" y1="434.164" x2="454.043" y2="434.164"/>
</g>
<path d="M76.0906,438.234v -0.63537" fill="none" stroke="#ff0000" stroke-width="2"/>
<path d="M76.0906,437.598v -0.63537" fill="none" stroke="#ff0000" stroke-width="2"/>
<path d="M57.1929,437.598h 18.8976" fill="none" stroke="#ff0000" stroke-width="2"/>
<path d="M76.0906,437.598h 18.8976" fill="none" stroke="#ff0000" stroke-width="2"/>
<g stroke="#ff0000" stroke-width="1" fill="none">
<line x1="75.0906" y1="437.598" x2="76.0906" y2="437.598"/>
</g>
<path d="M113.886,437.545v -0.871475" fill="none" stroke="#ff0000" stroke-width="2"/>
<path d="M113.886,436.674v -0.871475" fill="none" stroke="#ff0000" stroke-width="2"/>
<path d="M94.9882,436.674h 18.8976" fill="none" stroke="#ff0000" stroke-width="2"/>
<path d="M113.886,436.674h 18.8976" fill="none" stroke="#ff0000" stroke-width="2"/>
<g stroke="#ff0000" stroke-width="1" fill="none">
<line x1="112.886" y1="436.674" x2="113.886" y2="436.674"/>
</g>
<path d="M151.681,438.035v -1.22055" fill="none" stroke="#ff0000" stroke-width="2"/>
<path d="M151.681,436.814v -1.22055" fill="none" stroke="#ff0000" stroke-width="2"/>
<path d="M132.783,436.814h 18.8976" fill="none" stroke="#ff0000" stroke-width="2"/>
<path d="M151.681,436.814h 18.8976" fill="none" stroke="#ff0000" stroke-width="2"/>
<g stroke="#ff0000" stroke-width="1" fill="none">
<line x1="150.681" y1="436.814" x2="151.681" y2="436.814"/>
</g>
<path d="M189.476,438.978v -1.70326" fill="none" stroke="#ff0000" stroke-width="2"/>
<path d="M189.476,437.275v -1.70326" fill="none" stroke="#ff0000" stroke-width="2"/>
<path d="M170.579,437.275h 18.8976" fill="none" stroke="#ff0000" stroke-width="2"/>
<path d="M189.476,437.275h 18.8976" fill="none" stroke="#ff0000" stroke-width="2"/>
<g stroke="#ff0000" stroke-width="1" fill="none">
<line x1="188.476" y1="437.275" x2="189.476" y2="437.275"/>
</g>
<path d="M227.272,439.026v -2.39653" fill="none" stroke="#ff0000" stroke-width="2"/>
<path d="M227.272,436.629v -2.39653" fill="none" stroke="#ff0000" stroke-width="2"/>
<path d="M208.374,436.629h 18.8976" fill="none" stroke="#ff0000" stroke-width="2"/>
<path d="M227.272,436.629h 18.8976" fill="none" stroke="#ff0000" stroke-width="2"/>
<g stroke="#ff0000" stroke-width="1" fill="none">
<line x1="226.272" y1="436.629" x2="227.272" y2="436.629"/>
</g>
<path d="M265.067,436.552v -4.11944" fill="none" stroke="#ff0000" stroke-width="2"/>
<path d="M265.067,432.433v -4.11944" fill="none" stroke="#ff0000" stroke-width="2"/>
<path d="M246.169,432.433h 18.8976" fill="none" stroke="#ff0000" stroke-width="2"/>
<path d="M265.067,432.433h 18.8976" fill="none" stroke="#ff0000" stroke-width="2"/>
<g stroke="#ff0000" stroke-width="1" fill="none">
<line x1="264.067" y1="432.433" x2="265.067" y2="432.433"/>
</g>
<path d="M302.862,440.79v -4.93861" fill="none" stroke="#ff0000" stroke-width="2"/>
<path d="M302.862,435.852v -4.93861" fill="none" stroke="#ff0000" stroke-width="2"/>
<path d="M283.965,435.852h 18.8976" fill="none" stroke="#ff0000" stroke-width="2"/>
<path d="M302.862,435.852h 18.8976" fill="none" stroke="#ff0000" stroke-width="2"/>
<g stroke="#ff0000" stroke-width="1" fill="none">
<line x1="301.862" y1="435.852" x2="302.862" y2="435.852"/>
</g>
<path d="M340.657,440.762v -8.44374" fill="none" stroke="#ff0000" stroke-width="2"/>
<path d="M340.657,432.318v -8.44374" fill="none" stroke="#ff0000" stroke-width="2"/>
<path d="M321.76,432.318h 18.8976" fill="none" stroke="#ff0000" stroke-width="2"/>
<path d="M340.657,432.318h 18.8976" fill="none" stroke="#ff0000" stroke-width="2"/>
<g stroke="#ff0000" stroke-width="1" fill="none">
<line x1="339.657" y1="432.318" x2="340.657" y2="432.318"/>
</g>
<path d="M378.453,439.928v -13.4288" fill="none" stroke="#ff0000" stroke-width="2"/>
<path d="M378.453,426.5v -13.4288" fill="none" stroke="#ff0000" stroke-width="2"/>
<path d="M359.555,426.5h 18.8976" fill="none" stroke="#ff0000" stroke-width="2"/>
<path d="M378.453,426.5h 18.8976" fill="none" stroke="#ff0000" stroke-width="2"/>
<g stroke="#ff0000" stroke-width="1" fill="none">
<line x1="377.453" y1="426.5" x2="378.453" y2="426.5"/>
</g>
<path d="M454.043,440.327v -6.16296" fill="none" stroke="#ff0000" stroke-width="2"/>
<path d="M454.043,434.164v -6.16296" fill="none" stroke="#ff0000" stroke-width="2"/>
<path d="M397.35,434.164h 56.6929" fill="none" stroke="#ff0000" stroke-width="2"/>
<path d="M454.043,434.164h 56.6929" fill="none" stroke="#ff0000" stroke-width="2"/>
<g stroke="#ff0000" stroke-width="1" fill="none">
<line x1="453.043" y1="434.164" x2="454.043" y2="434.164"/>
</g></svg>
