<?xml version="1.0" standalone="no"?>
<svg width="567.429" height="545.624" viewBox="0 0 567.429 545.624" xmlns="http://www.w3.org/2000/svg" shape-rendering="crispEdges">
<title>
/Users/georgebakas/Documents/HEP-NTUA_ul/VariationHandling/FinalResults/results/FinalResult_mJJ_normalized.svg
</title>
<desc>
Creator: ROOT Version 6.22/02
CreationDate: Wed Nov 24 08:11:44 2021</desc>
<defs>
</defs>
<rect x="0.5" y="0" width="566.929" height="545.124" fill="white"/>
<rect x="0.5" y="0" width="566.929" height="381.587" fill="white"/>
<rect x="57.1929" y="38.1587" width="453.543" height="324.349" fill="white"/>
<rect x="57.1929" y="38.1587" width="453.543" height="324.349" fill="none" stroke="black"/>
<rect x="57.1929" y="38.1587" width="453.543" height="324.349" fill="white"/>
<rect x="57.1929" y="38.1587" width="453.543" height="324.349" fill="none" stroke="black"/>
<rect x="215.933" y="43.5559" width="68.0315" height="93.4578" fill="#cccccc"/>
<g fill="black">
<circle cx="249.949" cy="60.7121" r="3.79217"/>
</g>
<rect x="283.965" y="104.131" width="226.772" height="119.66" fill="#cccccc"/>
<g fill="black">
<circle cx="397.35" cy="121.714" r="3.79217"/>
</g>
<path d="M57.1929,362.508h 453.543" fill="none" stroke="black"/>
<path d="M57.1929,353.349v 9.15809" fill="none" stroke="black"/>
<path d="M68.5315,357.929v 4.57904" fill="none" stroke="black"/>
<path d="M79.8701,357.929v 4.57904" fill="none" stroke="black"/>
<path d="M91.2087,357.929v 4.57904" fill="none" stroke="black"/>
<path d="M102.547,357.929v 4.57904" fill="none" stroke="black"/>
<path d="M113.886,353.349v 9.15809" fill="none" stroke="black"/>
<path d="M125.224,357.929v 4.57904" fill="none" stroke="black"/>
<path d="M136.563,357.929v 4.57904" fill="none" stroke="black"/>
<path d="M147.902,357.929v 4.57904" fill="none" stroke="black"/>
<path d="M159.24,357.929v 4.57904" fill="none" stroke="black"/>
<path d="M170.579,353.349v 9.15809" fill="none" stroke="black"/>
<path d="M181.917,357.929v 4.57904" fill="none" stroke="black"/>
<path d="M193.256,357.929v 4.57904" fill="none" stroke="black"/>
<path d="M204.594,357.929v 4.57904" fill="none" stroke="black"/>
<path d="M215.933,357.929v 4.57904" fill="none" stroke="black"/>
<path d="M227.272,353.349v 9.15809" fill="none" stroke="black"/>
<path d="M238.61,357.929v 4.57904" fill="none" stroke="black"/>
<path d="M249.949,357.929v 4.57904" fill="none" stroke="black"/>
<path d="M261.287,357.929v 4.57904" fill="none" stroke="black"/>
<path d="M272.626,357.929v 4.57904" fill="none" stroke="black"/>
<path d="M283.965,353.349v 9.15809" fill="none" stroke="black"/>
<path d="M295.303,357.929v 4.57904" fill="none" stroke="black"/>
<path d="M306.642,357.929v 4.57904" fill="none" stroke="black"/>
<path d="M317.98,357.929v 4.57904" fill="none" stroke="black"/>
<path d="M329.319,357.929v 4.57904" fill="none" stroke="black"/>
<path d="M340.657,353.349v 9.15809" fill="none" stroke="black"/>
<path d="M351.996,357.929v 4.57904" fill="none" stroke="black"/>
<path d="M363.335,357.929v 4.57904" fill="none" stroke="black"/>
<path d="M374.673,357.929v 4.57904" fill="none" stroke="black"/>
<path d="M386.012,357.929v 4.57904" fill="none" stroke="black"/>
<path d="M397.35,353.349v 9.15809" fill="none" stroke="black"/>
<path d="M408.689,357.929v 4.57904" fill="none" stroke="black"/>
<path d="M420.028,357.929v 4.57904" fill="none" stroke="black"/>
<path d="M431.366,357.929v 4.57904" fill="none" stroke="black"/>
<path d="M442.705,357.929v 4.57904" fill="none" stroke="black"/>
<path d="M454.043,353.349v 9.15809" fill="none" stroke="black"/>
<path d="M465.382,357.929v 4.57904" fill="none" stroke="black"/>
<path d="M476.72,357.929v 4.57904" fill="none" stroke="black"/>
<path d="M488.059,357.929v 4.57904" fill="none" stroke="black"/>
<path d="M499.398,357.929v 4.57904" fill="none" stroke="black"/>
<path d="M510.736,353.349v 9.15809" fill="none" stroke="black"/>
<text xml:space="preserve" x="36.5256" y="380.165" fill="black" font-size="18.004" font-family="Helvetica">1000</text>
<text xml:space="preserve" x="93.4081" y="380.165" fill="black" font-size="18.004" font-family="Helvetica">1500</text>
<text xml:space="preserve" x="150.291" y="380.165" fill="black" font-size="18.004" font-family="Helvetica">2000</text>
<text xml:space="preserve" x="207.173" y="380.165" fill="black" font-size="18.004" font-family="Helvetica">2500</text>
<text xml:space="preserve" x="264.056" y="380.165" fill="black" font-size="18.004" font-family="Helvetica">3000</text>
<text xml:space="preserve" x="319.99" y="380.165" fill="black" font-size="18.004" font-family="Helvetica">3500</text>
<text xml:space="preserve" x="376.873" y="380.165" fill="black" font-size="18.004" font-family="Helvetica">4000</text>
<text xml:space="preserve" x="433.755" y="380.165" fill="black" font-size="18.004" font-family="Helvetica">4500</text>
<text xml:space="preserve" x="490.638" y="380.165" fill="black" font-size="18.004" font-family="Helvetica">5000</text>
<text xml:space="preserve" x="371.184" y="403.866" fill="black" font-size="21.5048" font-family="Helvetica">mTTbarParton</text>
<path d="M57.1929,362.508v -324.349" fill="none" stroke="black"/>
<path d="M64.4213,362.508h -7.22835" fill="none" stroke="black"/>
<path d="M64.4213,352.08h -7.22835" fill="none" stroke="black"/>
<path d="M64.4213,344.681h -7.22835" fill="none" stroke="black"/>
<path d="M64.4213,338.942h -7.22835" fill="none" stroke="black"/>
<path d="M64.4213,334.253h -7.22835" fill="none" stroke="black"/>
<path d="M64.4213,330.288h -7.22835" fill="none" stroke="black"/>
<path d="M64.4213,326.854h -7.22835" fill="none" stroke="black"/>
<path d="M64.4213,323.825h -7.22835" fill="none" stroke="black"/>
<path d="M71.6496,321.115h -14.4567" fill="none" stroke="black"/>
<text xml:space="preserve" x="44.1099" y="321.386" fill="black" font-size="12.1693" font-family="Helvetica">7</text>
<text xml:space="preserve" x="37.4736" y="321.386" fill="black" font-size="12.1693" font-family="Times">&#8722;</text>
<text xml:space="preserve" x="17.5648" y="328.971" fill="black" font-size="18.004" font-family="Helvetica">10</text>
<path d="M64.4213,303.289h -7.22835" fill="none" stroke="black"/>
<path d="M64.4213,292.861h -7.22835" fill="none" stroke="black"/>
<path d="M64.4213,285.462h -7.22835" fill="none" stroke="black"/>
<path d="M64.4213,279.723h -7.22835" fill="none" stroke="black"/>
<path d="M64.4213,275.034h -7.22835" fill="none" stroke="black"/>
<path d="M64.4213,271.07h -7.22835" fill="none" stroke="black"/>
<path d="M64.4213,267.635h -7.22835" fill="none" stroke="black"/>
<path d="M64.4213,264.606h -7.22835" fill="none" stroke="black"/>
<path d="M71.6496,261.896h -14.4567" fill="none" stroke="black"/>
<text xml:space="preserve" x="44.1099" y="261.66" fill="black" font-size="12.1693" font-family="Helvetica">6</text>
<text xml:space="preserve" x="37.4736" y="261.66" fill="black" font-size="12.1693" font-family="Times">&#8722;</text>
<text xml:space="preserve" x="17.5648" y="270.192" fill="black" font-size="18.004" font-family="Helvetica">10</text>
<path d="M64.4213,244.07h -7.22835" fill="none" stroke="black"/>
<path d="M64.4213,233.642h -7.22835" fill="none" stroke="black"/>
<path d="M64.4213,226.243h -7.22835" fill="none" stroke="black"/>
<path d="M64.4213,220.504h -7.22835" fill="none" stroke="black"/>
<path d="M64.4213,215.815h -7.22835" fill="none" stroke="black"/>
<path d="M64.4213,211.851h -7.22835" fill="none" stroke="black"/>
<path d="M64.4213,208.417h -7.22835" fill="none" stroke="black"/>
<path d="M64.4213,205.387h -7.22835" fill="none" stroke="black"/>
<path d="M71.6496,202.678h -14.4567" fill="none" stroke="black"/>
<text xml:space="preserve" x="44.1099" y="201.933" fill="black" font-size="12.1693" font-family="Helvetica">5</text>
<text xml:space="preserve" x="37.4736" y="201.933" fill="black" font-size="12.1693" font-family="Times">&#8722;</text>
<text xml:space="preserve" x="17.5648" y="210.465" fill="black" font-size="18.004" font-family="Helvetica">10</text>
<path d="M64.4213,184.851h -7.22835" fill="none" stroke="black"/>
<path d="M64.4213,174.423h -7.22835" fill="none" stroke="black"/>
<path d="M64.4213,167.024h -7.22835" fill="none" stroke="black"/>
<path d="M64.4213,161.285h -7.22835" fill="none" stroke="black"/>
<path d="M64.4213,156.596h -7.22835" fill="none" stroke="black"/>
<path d="M64.4213,152.632h -7.22835" fill="none" stroke="black"/>
<path d="M64.4213,149.198h -7.22835" fill="none" stroke="black"/>
<path d="M64.4213,146.168h -7.22835" fill="none" stroke="black"/>
<path d="M71.6496,143.459h -14.4567" fill="none" stroke="black"/>
<text xml:space="preserve" x="44.1099" y="144.102" fill="black" font-size="12.1693" font-family="Helvetica">4</text>
<text xml:space="preserve" x="37.4736" y="144.102" fill="black" font-size="12.1693" font-family="Times">&#8722;</text>
<text xml:space="preserve" x="17.5648" y="151.687" fill="black" font-size="18.004" font-family="Helvetica">10</text>
<path d="M64.4213,125.632h -7.22835" fill="none" stroke="black"/>
<path d="M64.4213,115.204h -7.22835" fill="none" stroke="black"/>
<path d="M64.4213,107.805h -7.22835" fill="none" stroke="black"/>
<path d="M64.4213,102.067h -7.22835" fill="none" stroke="black"/>
<path d="M64.4213,97.3775h -7.22835" fill="none" stroke="black"/>
<path d="M64.4213,93.413h -7.22835" fill="none" stroke="black"/>
<path d="M64.4213,89.9788h -7.22835" fill="none" stroke="black"/>
<path d="M64.4213,86.9496h -7.22835" fill="none" stroke="black"/>
<path d="M71.6496,84.2399h -14.4567" fill="none" stroke="black"/>
<text xml:space="preserve" x="44.1099" y="83.4277" fill="black" font-size="12.1693" font-family="Helvetica">3</text>
<text xml:space="preserve" x="37.4736" y="83.4277" fill="black" font-size="12.1693" font-family="Times">&#8722;</text>
<text xml:space="preserve" x="17.5648" y="91.9601" fill="black" font-size="18.004" font-family="Helvetica">10</text>
<path d="M64.4213,66.4133h -7.22835" fill="none" stroke="black"/>
<path d="M64.4213,55.9853h -7.22835" fill="none" stroke="black"/>
<path d="M64.4213,48.5866h -7.22835" fill="none" stroke="black"/>
<path d="M64.4213,42.8477h -7.22835" fill="none" stroke="black"/>
<path d="M64.4213,38.1587h -7.22835" fill="none" stroke="black"/>
<g transform="rotate(-90,0.5,50.2462)">
<text xml:space="preserve" x="0.5" y="50.2462" fill="black" font-size="21.5048" font-family="Times">&#0967;</text>
</g>
<g transform="rotate(-90,0.5,61.6227)">
<text xml:space="preserve" x="0.5" y="61.6227" fill="black" font-size="21.5048" font-family="Helvetica">d</text>
</g>
<g transform="rotate(-90,-23.201,51.1943)">
<text xml:space="preserve" x="-23.201" y="51.1943" fill="black" font-size="21.5048" font-family="Times">&#0963;</text>
</g>
<g transform="rotate(-90,-23.201,62.5708)">
<text xml:space="preserve" x="-23.201" y="62.5708" fill="black" font-size="21.5048" font-family="Helvetica">d</text>
</g>
<g transform="rotate(-90,-12.7726,70.1551)">
<text xml:space="preserve" x="-12.7726" y="70.1551" fill="black" font-size="21.5048" font-family="Helvetica"> </text>
</g>
<g transform="rotate(-90,-4.24021,83.4277)">
<text xml:space="preserve" x="-4.24021" y="83.4277" fill="black" font-size="21.5048" font-family="Times">&#0963;</text>
</g>
<g transform="rotate(-90,-22.253,80.5836)">
<text xml:space="preserve" x="-22.253" y="80.5836" fill="black" font-size="21.5048" font-family="Helvetica">1</text>
</g>
<path d="M249.949,73.9399v -13.2279" fill="none" stroke="black" stroke-width="2"/>
<path d="M249.949,60.7121v -8.69211" fill="none" stroke="black" stroke-width="2"/>
<path d="M215.933,60.7121h 34.0157" fill="none" stroke="black" stroke-width="2"/>
<path d="M249.949,60.7121h 34.0157" fill="none" stroke="black" stroke-width="2"/>
<g stroke="black" stroke-width="1" fill="none">
<line x1="248.949" y1="60.7121" x2="249.949" y2="60.7121"/>
</g>
<path d="M397.35,147.348v -25.6346" fill="none" stroke="black" stroke-width="2"/>
<path d="M397.35,121.714v -12.58" fill="none" stroke="black" stroke-width="2"/>
<path d="M283.965,121.714h 113.386" fill="none" stroke="black" stroke-width="2"/>
<path d="M397.35,121.714h 113.386" fill="none" stroke="black" stroke-width="2"/>
<g stroke="black" stroke-width="1" fill="none">
<line x1="396.35" y1="121.714" x2="397.35" y2="121.714"/>
</g>
<path d="M277.36,38.7244l 6.60461, 18.1235" fill="none" stroke="#ff0000"/>
<path d="M266.5,38.7244l 17.4643, 47.9231" fill="none" stroke="#ff0000"/>
<path d="M255.641,38.7244l 28.3239, 77.7227" fill="none" stroke="#ff0000"/>
<path d="M244.781,38.7244l 36.5079, 100.18" fill="none" stroke="#ff0000"/>
<path d="M233.921,38.7244l 36.5079, 100.18" fill="none" stroke="#ff0000"/>
<path d="M223.062,38.7244l 36.5079, 100.18" fill="none" stroke="#ff0000"/>
<path d="M215.933,48.9625l 32.7769, 89.9421" fill="none" stroke="#ff0000"/>
<path d="M215.933,78.7621l 21.9173, 60.1425" fill="none" stroke="#ff0000"/>
<path d="M215.933,108.562l 11.0576, 30.3429" fill="none" stroke="#ff0000"/>
<path d="M215.933,138.361l 0.197989, 0.543295" fill="none" stroke="#ff0000"/>
<g stroke="#ff0000" stroke-width="1" fill="none">
<line x1="248.949" y1="56.0333" x2="249.949" y2="56.0333"/>
</g>
<path d="M507.762,104.771l 2.97437, 8.16187" fill="none" stroke="#ff0000"/>
<path d="M496.902,104.771l 13.834, 37.9615" fill="none" stroke="#ff0000"/>
<path d="M486.043,104.771l 24.6937, 67.7611" fill="none" stroke="#ff0000"/>
<path d="M475.183,104.771l 35.5533, 97.5607" fill="none" stroke="#ff0000"/>
<path d="M464.323,104.771l 46.4129, 127.36" fill="none" stroke="#ff0000"/>
<path d="M453.464,104.771l 57.2726, 157.16" fill="none" stroke="#ff0000"/>
<path d="M442.604,104.771l 68.1322, 186.959" fill="none" stroke="#ff0000"/>
<path d="M431.744,104.771l 78.9919, 216.759" fill="none" stroke="#ff0000"/>
<path d="M420.885,104.771l 89.8515, 246.559" fill="none" stroke="#ff0000"/>
<path d="M410.025,104.771l 93.9251, 257.737" fill="none" stroke="#ff0000"/>
<path d="M399.165,104.771l 93.9251, 257.737" fill="none" stroke="#ff0000"/>
<path d="M388.306,104.771l 93.9251, 257.737" fill="none" stroke="#ff0000"/>
<path d="M377.446,104.771l 93.9251, 257.737" fill="none" stroke="#ff0000"/>
<path d="M366.587,104.771l 93.9251, 257.737" fill="none" stroke="#ff0000"/>
<path d="M355.727,104.771l 93.9251, 257.737" fill="none" stroke="#ff0000"/>
<path d="M344.867,104.771l 93.9251, 257.737" fill="none" stroke="#ff0000"/>
<path d="M334.008,104.771l 93.9251, 257.737" fill="none" stroke="#ff0000"/>
<path d="M323.148,104.771l 93.9251, 257.737" fill="none" stroke="#ff0000"/>
<path d="M312.288,104.771l 93.9251, 257.737" fill="none" stroke="#ff0000"/>
<path d="M301.429,104.771l 93.9251, 257.737" fill="none" stroke="#ff0000"/>
<path d="M290.569,104.771l 93.9251, 257.737" fill="none" stroke="#ff0000"/>
<path d="M283.965,116.447l 89.6699, 246.06" fill="none" stroke="#ff0000"/>
<path d="M283.965,146.247l 78.8103, 216.261" fill="none" stroke="#ff0000"/>
<path d="M283.965,176.046l 67.9506, 186.461" fill="none" stroke="#ff0000"/>
<path d="M283.965,205.846l 57.091, 156.662" fill="none" stroke="#ff0000"/>
<path d="M283.965,235.646l 46.2314, 126.862" fill="none" stroke="#ff0000"/>
<path d="M283.965,265.445l 35.3717, 97.0624" fill="none" stroke="#ff0000"/>
<path d="M283.965,295.245l 24.5121, 67.2628" fill="none" stroke="#ff0000"/>
<path d="M283.965,325.044l 13.6524, 37.4632" fill="none" stroke="#ff0000"/>
<path d="M283.965,354.844l 2.7928, 7.66363" fill="none" stroke="#ff0000"/>
<g stroke="#ff0000" stroke-width="1" fill="none">
<line x1="396.35" y1="127.212" x2="397.35" y2="127.212"/>
</g>
<path d="M249.949,56.2119v -0.178611" fill="none" stroke="#ff0000" stroke-width="2"/>
<path d="M249.949,56.0333v -0.177379" fill="none" stroke="#ff0000" stroke-width="2"/>
<path d="M215.933,56.0333h 34.0157" fill="none" stroke="#ff0000" stroke-width="2"/>
<path d="M249.949,56.0333h 34.0157" fill="none" stroke="#ff0000" stroke-width="2"/>
<g stroke="#ff0000" stroke-width="1" fill="none">
<line x1="248.949" y1="56.0333" x2="249.949" y2="56.0333"/>
</g>
<path d="M397.35,127.619v -0.406847" fill="none" stroke="#ff0000" stroke-width="2"/>
<path d="M397.35,127.212v -0.400511" fill="none" stroke="#ff0000" stroke-width="2"/>
<path d="M283.965,127.212h 113.386" fill="none" stroke="#ff0000" stroke-width="2"/>
<path d="M397.35,127.212h 113.386" fill="none" stroke="#ff0000" stroke-width="2"/>
<g stroke="#ff0000" stroke-width="1" fill="none">
<line x1="396.35" y1="127.212" x2="397.35" y2="127.212"/>
</g>
<rect x="334.988" y="41.9746" width="170.079" height="114.476" fill="white"/>
<text xml:space="preserve" x="376.873" y="60.6747" fill="black" font-size="12.4517" font-family="Helvetica">Data</text>
<path d="M356.248,52.4919v -4.79354" fill="none" stroke="black" stroke-width="2"/>
<path d="M356.248,60.0762v 4.79354" fill="none" stroke="black" stroke-width="2"/>
<g fill="black">
<circle cx="356.248" cy="56.2841" r="3.79217"/>
</g>
<text xml:space="preserve" x="376.873" y="89.116" fill="black" font-size="12.4517" font-family="Helvetica">Total unc.</text>
<path d="M341.366,94.9198h 29.7638v -20.0333h -29.7638z" fill="#cccccc"/>
<path d="M341.366,74.8864h 29.7638" fill="none" stroke="black" stroke-width="2"/>
<path d="M341.366,94.9198h 29.7638" fill="none" stroke="black" stroke-width="2"/>
<path d="M371.13,94.9198v -20.0333" fill="none" stroke="black" stroke-width="2"/>
<path d="M341.366,94.9198v -20.0333" fill="none" stroke="black" stroke-width="2"/>
<text xml:space="preserve" x="376.873" y="116.609" fill="black" font-size="12.4517" font-family="Helvetica">Powheg+Pythia8</text>
<path d="M341.366,113.522h 29.7638" fill="none" stroke="#ff0000" stroke-width="2"/>
<path d="M356.248,122.108v -17.1714" fill="none" stroke="#ff0000" stroke-width="2"/>
<text xml:space="preserve" x="376.873" y="145.05" fill="black" font-size="12.4517" font-family="Helvetica">Powheg+Pythia8 unc</text>
<path d="M365.695,132.124l 5.43468, 14.9131" fill="none" stroke="#ff0000"/>
<path d="M354.836,132.124l 7.30059, 20.0333" fill="none" stroke="#ff0000"/>
<path d="M343.976,132.124l 7.30059, 20.0333" fill="none" stroke="#ff0000"/>
<path d="M341.366,132.124h 29.7638" fill="none" stroke="#ff0000" stroke-width="2"/>
<path d="M341.366,152.158h 29.7638" fill="none" stroke="#ff0000" stroke-width="2"/>
<path d="M371.13,152.158v -20.0333" fill="none" stroke="#ff0000" stroke-width="2"/>
<path d="M341.366,152.158v -20.0333" fill="none" stroke="#ff0000" stroke-width="2"/>
<text xml:space="preserve" x="420.483" y="30.3373" fill="black" font-size="21.5048" font-family="Helvetica"> (13 TeV)</text>
<text xml:space="preserve" x="410.054" y="19.9089" fill="black" font-size="14.5032" font-family="Helvetica">-1</text>
<text xml:space="preserve" x="343.691" y="30.3373" fill="black" font-size="21.5048" font-family="Helvetica">20.1 fb</text>
<text xml:space="preserve" x="57.1929" y="30.527" fill="black" font-size="26.756" font-family="Helvetica" font-weight="bold">CMS</text>
<text xml:space="preserve" x="77.2914" y="64.4669" fill="black" font-size="20.4545" font-family="Helvetica" font-style="oblique">Work in progress</text>
<rect x="0.5" y="381.587" width="566.929" height="136.281" fill="white"/>
<rect x="57.1929" y="385.675" width="453.543" height="102.211" fill="white"/>
<rect x="57.1929" y="385.675" width="453.543" height="102.211" fill="none" stroke="black"/>
<rect x="57.1929" y="385.675" width="453.543" height="102.211" fill="white"/>
<rect x="57.1929" y="385.675" width="453.543" height="102.211" fill="none" stroke="black"/>
<path d="M57.1929,487.886h 453.543" fill="none" stroke="black"/>
<path d="M57.1929,487.886v -102.211" fill="none" stroke="black"/>
<path d="M510.736,487.886h -453.543" fill="none" stroke="black" stroke-dasharray=" 1, 2"/>
<path d="M510.736,462.333h -453.543" fill="none" stroke="black" stroke-dasharray=" 1, 2"/>
<path d="M510.736,436.781h -453.543" fill="none" stroke="black" stroke-dasharray=" 1, 2"/>
<path d="M510.736,411.228h -453.543" fill="none" stroke="black" stroke-dasharray=" 1, 2"/>
<path d="M510.736,385.675h -453.543" fill="none" stroke="black" stroke-dasharray=" 1, 2"/>
<rect x="57.1929" y="433.376" width="22.6772" height="6.80963" fill="#cccccc"/>
<g fill="black">
<circle cx="68.5315" cy="436.781" r="3.79217"/>
</g>
<rect x="79.8701" y="433.946" width="22.6772" height="5.66935" fill="#cccccc"/>
<g fill="black">
<circle cx="91.2087" cy="436.781" r="3.79217"/>
</g>
<rect x="102.547" y="431.616" width="22.6772" height="10.3289" fill="#cccccc"/>
<g fill="black">
<circle cx="113.886" cy="436.781" r="3.79217"/>
</g>
<rect x="125.224" y="427.108" width="22.6772" height="19.3463" fill="#cccccc"/>
<g fill="black">
<circle cx="136.563" cy="436.781" r="3.79217"/>
</g>
<rect x="147.902" y="422.759" width="22.6772" height="28.0439" fill="#cccccc"/>
<g fill="black">
<circle cx="159.24" cy="436.781" r="3.79217"/>
</g>
<rect x="170.579" y="423.631" width="45.3543" height="26.3003" fill="#cccccc"/>
<g fill="black">
<circle cx="193.256" cy="436.781" r="3.79217"/>
</g>
<rect x="215.933" y="410.455" width="68.0315" height="52.6509" fill="#cccccc"/>
<g fill="black">
<circle cx="249.949" cy="436.781" r="3.79217"/>
</g>
<rect x="283.965" y="406.975" width="226.772" height="59.6125" fill="#cccccc"/>
<g fill="black">
<circle cx="397.35" cy="436.781" r="3.79217"/>
</g>
<path d="M57.1929,487.886h 453.543" fill="none" stroke="black"/>
<path d="M57.1929,484.615v 3.27075" fill="none" stroke="black"/>
<path d="M68.5315,486.251v 1.63537" fill="none" stroke="black"/>
<path d="M79.8701,486.251v 1.63537" fill="none" stroke="black"/>
<path d="M91.2087,486.251v 1.63537" fill="none" stroke="black"/>
<path d="M102.547,486.251v 1.63537" fill="none" stroke="black"/>
<path d="M113.886,484.615v 3.27075" fill="none" stroke="black"/>
<path d="M125.224,486.251v 1.63537" fill="none" stroke="black"/>
<path d="M136.563,486.251v 1.63537" fill="none" stroke="black"/>
<path d="M147.902,486.251v 1.63537" fill="none" stroke="black"/>
<path d="M159.24,486.251v 1.63537" fill="none" stroke="black"/>
<path d="M170.579,484.615v 3.27075" fill="none" stroke="black"/>
<path d="M181.917,486.251v 1.63537" fill="none" stroke="black"/>
<path d="M193.256,486.251v 1.63537" fill="none" stroke="black"/>
<path d="M204.594,486.251v 1.63537" fill="none" stroke="black"/>
<path d="M215.933,486.251v 1.63537" fill="none" stroke="black"/>
<path d="M227.272,484.615v 3.27075" fill="none" stroke="black"/>
<path d="M238.61,486.251v 1.63537" fill="none" stroke="black"/>
<path d="M249.949,486.251v 1.63537" fill="none" stroke="black"/>
<path d="M261.287,486.251v 1.63537" fill="none" stroke="black"/>
<path d="M272.626,486.251v 1.63537" fill="none" stroke="black"/>
<path d="M283.965,484.615v 3.27075" fill="none" stroke="black"/>
<path d="M295.303,486.251v 1.63537" fill="none" stroke="black"/>
<path d="M306.642,486.251v 1.63537" fill="none" stroke="black"/>
<path d="M317.98,486.251v 1.63537" fill="none" stroke="black"/>
<path d="M329.319,486.251v 1.63537" fill="none" stroke="black"/>
<path d="M340.657,484.615v 3.27075" fill="none" stroke="black"/>
<path d="M351.996,486.251v 1.63537" fill="none" stroke="black"/>
<path d="M363.335,486.251v 1.63537" fill="none" stroke="black"/>
<path d="M374.673,486.251v 1.63537" fill="none" stroke="black"/>
<path d="M386.012,486.251v 1.63537" fill="none" stroke="black"/>
<path d="M397.35,484.615v 3.27075" fill="none" stroke="black"/>
<path d="M408.689,486.251v 1.63537" fill="none" stroke="black"/>
<path d="M420.028,486.251v 1.63537" fill="none" stroke="black"/>
<path d="M431.366,486.251v 1.63537" fill="none" stroke="black"/>
<path d="M442.705,486.251v 1.63537" fill="none" stroke="black"/>
<path d="M454.043,484.615v 3.27075" fill="none" stroke="black"/>
<path d="M465.382,486.251v 1.63537" fill="none" stroke="black"/>
<path d="M476.72,486.251v 1.63537" fill="none" stroke="black"/>
<path d="M488.059,486.251v 1.63537" fill="none" stroke="black"/>
<path d="M499.398,486.251v 1.63537" fill="none" stroke="black"/>
<path d="M510.736,484.615v 3.27075" fill="none" stroke="black"/>
<text xml:space="preserve" x="39.3697" y="502.462" fill="black" font-size="15.5034" font-family="Helvetica">1000</text>
<text xml:space="preserve" x="96.2522" y="502.462" fill="black" font-size="15.5034" font-family="Helvetica">1500</text>
<text xml:space="preserve" x="153.135" y="502.462" fill="black" font-size="15.5034" font-family="Helvetica">2000</text>
<text xml:space="preserve" x="210.017" y="502.462" fill="black" font-size="15.5034" font-family="Helvetica">2500</text>
<text xml:space="preserve" x="266.9" y="502.462" fill="black" font-size="15.5034" font-family="Helvetica">3000</text>
<text xml:space="preserve" x="322.834" y="502.462" fill="black" font-size="15.5034" font-family="Helvetica">3500</text>
<text xml:space="preserve" x="379.717" y="502.462" fill="black" font-size="15.5034" font-family="Helvetica">4000</text>
<text xml:space="preserve" x="436.599" y="502.462" fill="black" font-size="15.5034" font-family="Helvetica">4500</text>
<text xml:space="preserve" x="493.482" y="502.462" fill="black" font-size="15.5034" font-family="Helvetica">5000</text>
<text xml:space="preserve" x="377.821" y="517.631" fill="black" font-size="14.8783" font-family="Helvetica">mTTbarParton (GeV)</text>
<path d="M57.1929,487.886v -102.211" fill="none" stroke="black"/>
<path d="M69.9488,487.886h -12.7559" fill="none" stroke="black"/>
<path d="M63.5709,482.776h -6.37795" fill="none" stroke="black"/>
<path d="M63.5709,477.665h -6.37795" fill="none" stroke="black"/>
<path d="M63.5709,472.555h -6.37795" fill="none" stroke="black"/>
<path d="M63.5709,467.444h -6.37795" fill="none" stroke="black"/>
<path d="M69.9488,462.333h -12.7559" fill="none" stroke="black"/>
<path d="M63.5709,457.223h -6.37795" fill="none" stroke="black"/>
<path d="M63.5709,452.112h -6.37795" fill="none" stroke="black"/>
<path d="M63.5709,447.002h -6.37795" fill="none" stroke="black"/>
<path d="M63.5709,441.891h -6.37795" fill="none" stroke="black"/>
<path d="M69.9488,436.781h -12.7559" fill="none" stroke="black"/>
<path d="M63.5709,431.67h -6.37795" fill="none" stroke="black"/>
<path d="M63.5709,426.56h -6.37795" fill="none" stroke="black"/>
<path d="M63.5709,421.449h -6.37795" fill="none" stroke="black"/>
<path d="M63.5709,416.339h -6.37795" fill="none" stroke="black"/>
<path d="M69.9488,411.228h -12.7559" fill="none" stroke="black"/>
<path d="M63.5709,406.118h -6.37795" fill="none" stroke="black"/>
<path d="M63.5709,401.007h -6.37795" fill="none" stroke="black"/>
<path d="M63.5709,395.896h -6.37795" fill="none" stroke="black"/>
<path d="M63.5709,390.786h -6.37795" fill="none" stroke="black"/>
<path d="M69.9488,385.675h -12.7559" fill="none" stroke="black"/>
<text xml:space="preserve" x="46.006" y="492.982" fill="black" font-size="13.0028" font-family="Helvetica">2</text>
<text xml:space="preserve" x="38.4217" y="492.982" fill="black" font-size="13.0028" font-family="Times">&#8722;</text>
<text xml:space="preserve" x="47.9021" y="467.385" fill="black" font-size="13.0028" font-family="Helvetica">1</text>
<text xml:space="preserve" x="40.3178" y="467.385" fill="black" font-size="13.0028" font-family="Times">&#8722;</text>
<text xml:space="preserve" x="46.006" y="440.84" fill="black" font-size="13.0028" font-family="Helvetica">0</text>
<text xml:space="preserve" x="47.9021" y="416.19" fill="black" font-size="13.0028" font-family="Helvetica">1</text>
<text xml:space="preserve" x="46.006" y="390.593" fill="black" font-size="13.0028" font-family="Helvetica">2</text>
<g transform="rotate(-90,26.0971,474.969)">
<text xml:space="preserve" x="26.0971" y="474.969" fill="black" font-size="14.8783" font-family="Helvetica">The./data - 1</text>
</g>
<path d="M68.5315,437.878v -1.09773" fill="none" stroke="black" stroke-width="2"/>
<path d="M68.5315,436.781v -1.09773" fill="none" stroke="black" stroke-width="2"/>
<path d="M57.1929,436.781h 11.3386" fill="none" stroke="black" stroke-width="2"/>
<path d="M68.5315,436.781h 11.3386" fill="none" stroke="black" stroke-width="2"/>
<g stroke="black" stroke-width="1" fill="none">
<line x1="67.5315" y1="436.781" x2="68.5315" y2="436.781"/>
</g>
<path d="M91.2087,438.697v -1.91665" fill="none" stroke="black" stroke-width="2"/>
<path d="M91.2087,436.781v -1.91665" fill="none" stroke="black" stroke-width="2"/>
<path d="M79.8701,436.781h 11.3386" fill="none" stroke="black" stroke-width="2"/>
<path d="M91.2087,436.781h 11.3386" fill="none" stroke="black" stroke-width="2"/>
<g stroke="black" stroke-width="1" fill="none">
<line x1="90.2087" y1="436.781" x2="91.2087" y2="436.781"/>
</g>
<path d="M113.886,439.813v -3.0322" fill="none" stroke="black" stroke-width="2"/>
<path d="M113.886,436.781v -3.0322" fill="none" stroke="black" stroke-width="2"/>
<path d="M102.547,436.781h 11.3386" fill="none" stroke="black" stroke-width="2"/>
<path d="M113.886,436.781h 11.3386" fill="none" stroke="black" stroke-width="2"/>
<g stroke="black" stroke-width="1" fill="none">
<line x1="112.886" y1="436.781" x2="113.886" y2="436.781"/>
</g>
<path d="M136.563,442.297v -5.51659" fill="none" stroke="black" stroke-width="2"/>
<path d="M136.563,436.781v -5.51659" fill="none" stroke="black" stroke-width="2"/>
<path d="M125.224,436.781h 11.3386" fill="none" stroke="black" stroke-width="2"/>
<path d="M136.563,436.781h 11.3386" fill="none" stroke="black" stroke-width="2"/>
<g stroke="black" stroke-width="1" fill="none">
<line x1="135.563" y1="436.781" x2="136.563" y2="436.781"/>
</g>
<path d="M159.24,446.103v -9.32202" fill="none" stroke="black" stroke-width="2"/>
<path d="M159.24,436.781v -9.32202" fill="none" stroke="black" stroke-width="2"/>
<path d="M147.902,436.781h 11.3386" fill="none" stroke="black" stroke-width="2"/>
<path d="M159.24,436.781h 11.3386" fill="none" stroke="black" stroke-width="2"/>
<g stroke="black" stroke-width="1" fill="none">
<line x1="158.24" y1="436.781" x2="159.24" y2="436.781"/>
</g>
<path d="M193.256,444.159v -7.37846" fill="none" stroke="black" stroke-width="2"/>
<path d="M193.256,436.781v -7.37846" fill="none" stroke="black" stroke-width="2"/>
<path d="M170.579,436.781h 22.6772" fill="none" stroke="black" stroke-width="2"/>
<path d="M193.256,436.781h 22.6772" fill="none" stroke="black" stroke-width="2"/>
<g stroke="black" stroke-width="1" fill="none">
<line x1="192.256" y1="436.781" x2="193.256" y2="436.781"/>
</g>
<path d="M249.949,451.311v -14.5307" fill="none" stroke="black" stroke-width="2"/>
<path d="M249.949,436.781v -14.5307" fill="none" stroke="black" stroke-width="2"/>
<path d="M215.933,436.781h 34.0157" fill="none" stroke="black" stroke-width="2"/>
<path d="M249.949,436.781h 34.0157" fill="none" stroke="black" stroke-width="2"/>
<g stroke="black" stroke-width="1" fill="none">
<line x1="248.949" y1="436.781" x2="249.949" y2="436.781"/>
</g>
<path d="M397.35,459.58v -22.7995" fill="none" stroke="black" stroke-width="2"/>
<path d="M397.35,436.781v -22.7995" fill="none" stroke="black" stroke-width="2"/>
<path d="M283.965,436.781h 113.386" fill="none" stroke="black" stroke-width="2"/>
<path d="M397.35,436.781h 113.386" fill="none" stroke="black" stroke-width="2"/>
<g stroke="black" stroke-width="1" fill="none">
<line x1="396.35" y1="436.781" x2="397.35" y2="436.781"/>
</g>
<path d="M78.1224,432.915l 1.74773, 4.7935" fill="none" stroke="#ff0000"/>
<path d="M67.2627,432.915l 2.83305, 7.77023" fill="none" stroke="#ff0000"/>
<path d="M57.1929,435.082l 2.04321, 5.60392" fill="none" stroke="#ff0000"/>
<g stroke="#ff0000" stroke-width="1" fill="none">
<line x1="67.5315" y1="436.8" x2="68.5315" y2="436.8"/>
</g>
<path d="M101.125,436.435l 0.987899, 2.70952" fill="none" stroke="#ff0000"/>
<path d="M90.2653,436.435l 0.987899, 2.70952" fill="none" stroke="#ff0000"/>
<path d="M79.8701,437.709l 0.523512, 1.43584" fill="none" stroke="#ff0000"/>
<g stroke="#ff0000" stroke-width="1" fill="none">
<line x1="90.2087" y1="437.79" x2="91.2087" y2="437.79"/>
</g>
<path d="M121.492,432.725l 3.52673, 9.67278" fill="none" stroke="#ff0000"/>
<path d="M110.632,432.725l 3.52673, 9.67278" fill="none" stroke="#ff0000"/>
<path d="M102.547,440.336l 0.75177, 2.06188" fill="none" stroke="#ff0000"/>
<g stroke="#ff0000" stroke-width="1" fill="none">
<line x1="112.886" y1="437.561" x2="113.886" y2="437.561"/>
</g>
<path d="M139.704,423.107l 7.37639, 20.2313" fill="none" stroke="#ff0000"/>
<path d="M128.845,423.107l 7.37639, 20.2313" fill="none" stroke="#ff0000"/>
<path d="M125.224,442.963l 0.136898, 0.375472" fill="none" stroke="#ff0000"/>
<g stroke="#ff0000" stroke-width="1" fill="none">
<line x1="135.563" y1="433.223" x2="136.563" y2="433.223"/>
</g>
<path d="M168.593,412.986l 1.98578, 5.4464" fill="none" stroke="#ff0000"/>
<path d="M157.733,412.986l 12.4217, 34.0692" fill="none" stroke="#ff0000"/>
<path d="M147.902,415.805l 11.3939, 31.25" fill="none" stroke="#ff0000"/>
<path d="M147.902,445.59l 0.53421, 1.46518" fill="none" stroke="#ff0000"/>
<g stroke="#ff0000" stroke-width="1" fill="none">
<line x1="158.24" y1="430.021" x2="159.24" y2="430.021"/>
</g>
<path d="M214.053,418.532l 1.87972, 5.15551" fill="none" stroke="#ff0000"/>
<path d="M203.194,418.532l 12.7394, 34.9403" fill="none" stroke="#ff0000"/>
<path d="M192.334,418.532l 13.1421, 36.045" fill="none" stroke="#ff0000"/>
<path d="M181.474,418.532l 13.1421, 36.045" fill="none" stroke="#ff0000"/>
<path d="M170.615,418.532l 13.1421, 36.045" fill="none" stroke="#ff0000"/>
<path d="M170.579,448.217l 2.31854, 6.35909" fill="none" stroke="#ff0000"/>
<g stroke="#ff0000" stroke-width="1" fill="none">
<line x1="192.256" y1="436.554" x2="193.256" y2="436.554"/>
</g>
<path d="M283.233,399.777l 0.731826, 2.00718" fill="none" stroke="#ff0000"/>
<path d="M272.373,399.777l 11.5915, 31.792" fill="none" stroke="#ff0000"/>
<path d="M261.513,399.777l 22.4511, 61.5768" fill="none" stroke="#ff0000"/>
<path d="M250.654,399.777l 23.2659, 63.8115" fill="none" stroke="#ff0000"/>
<path d="M239.794,399.777l 23.2659, 63.8115" fill="none" stroke="#ff0000"/>
<path d="M228.935,399.777l 23.2659, 63.8115" fill="none" stroke="#ff0000"/>
<path d="M218.075,399.777l 23.2659, 63.8115" fill="none" stroke="#ff0000"/>
<path d="M215.933,423.687l 14.5481, 39.9011" fill="none" stroke="#ff0000"/>
<path d="M215.933,453.472l 3.68842, 10.1163" fill="none" stroke="#ff0000"/>
<g stroke="#ff0000" stroke-width="1" fill="none">
<line x1="248.949" y1="431.682" x2="249.949" y2="431.682"/>
</g>
<path d="M504.205,410.143l 6.53104, 17.9127" fill="none" stroke="#ff0000"/>
<path d="M493.346,410.143l 17.3907, 47.6975" fill="none" stroke="#ff0000"/>
<path d="M482.486,410.143l 23.0109, 63.1121" fill="none" stroke="#ff0000"/>
<path d="M471.626,410.143l 23.0109, 63.1121" fill="none" stroke="#ff0000"/>
<path d="M460.767,410.143l 23.0109, 63.1121" fill="none" stroke="#ff0000"/>
<path d="M449.907,410.143l 23.0109, 63.1121" fill="none" stroke="#ff0000"/>
<path d="M439.047,410.143l 23.0109, 63.1121" fill="none" stroke="#ff0000"/>
<path d="M428.188,410.143l 23.0109, 63.1121" fill="none" stroke="#ff0000"/>
<path d="M417.328,410.143l 23.0109, 63.1121" fill="none" stroke="#ff0000"/>
<path d="M406.468,410.143l 23.0109, 63.1121" fill="none" stroke="#ff0000"/>
<path d="M395.609,410.143l 23.0109, 63.1121" fill="none" stroke="#ff0000"/>
<path d="M384.749,410.143l 23.0109, 63.1121" fill="none" stroke="#ff0000"/>
<path d="M373.889,410.143l 23.0109, 63.1121" fill="none" stroke="#ff0000"/>
<path d="M363.03,410.143l 23.0109, 63.1121" fill="none" stroke="#ff0000"/>
<path d="M352.17,410.143l 23.0109, 63.1121" fill="none" stroke="#ff0000"/>
<path d="M341.311,410.143l 23.0109, 63.1121" fill="none" stroke="#ff0000"/>
<path d="M330.451,410.143l 23.0109, 63.1121" fill="none" stroke="#ff0000"/>
<path d="M319.591,410.143l 23.0109, 63.1121" fill="none" stroke="#ff0000"/>
<path d="M308.732,410.143l 23.0109, 63.1121" fill="none" stroke="#ff0000"/>
<path d="M297.872,410.143l 23.0109, 63.1121" fill="none" stroke="#ff0000"/>
<path d="M287.012,410.143l 23.0109, 63.1121" fill="none" stroke="#ff0000"/>
<path d="M283.965,431.569l 15.199, 41.6865" fill="none" stroke="#ff0000"/>
<path d="M283.965,461.353l 4.33938, 11.9016" fill="none" stroke="#ff0000"/>
<g stroke="#ff0000" stroke-width="1" fill="none">
<line x1="396.35" y1="441.699" x2="397.35" y2="441.699"/>
</g>
<path d="M68.5315,437.576v -0.775902" fill="none" stroke="#ff0000" stroke-width="2"/>
<path d="M68.5315,436.8v -0.775902" fill="none" stroke="#ff0000" stroke-width="2"/>
<path d="M57.1929,436.8h 11.3386" fill="none" stroke="#ff0000" stroke-width="2"/>
<path d="M68.5315,436.8h 11.3386" fill="none" stroke="#ff0000" stroke-width="2"/>
<g stroke="#ff0000" stroke-width="1" fill="none">
<line x1="67.5315" y1="436.8" x2="68.5315" y2="436.8"/>
</g>
<path d="M91.2087,439.092v -1.30206" fill="none" stroke="#ff0000" stroke-width="2"/>
<path d="M91.2087,437.79v -1.30206" fill="none" stroke="#ff0000" stroke-width="2"/>
<path d="M79.8701,437.79h 11.3386" fill="none" stroke="#ff0000" stroke-width="2"/>
<path d="M91.2087,437.79h 11.3386" fill="none" stroke="#ff0000" stroke-width="2"/>
<g stroke="#ff0000" stroke-width="1" fill="none">
<line x1="90.2087" y1="437.79" x2="91.2087" y2="437.79"/>
</g>
<path d="M113.886,439.64v -2.07899" fill="none" stroke="#ff0000" stroke-width="2"/>
<path d="M113.886,437.561v -2.07899" fill="none" stroke="#ff0000" stroke-width="2"/>
<path d="M102.547,437.561h 11.3386" fill="none" stroke="#ff0000" stroke-width="2"/>
<path d="M113.886,437.561h 11.3386" fill="none" stroke="#ff0000" stroke-width="2"/>
<g stroke="#ff0000" stroke-width="1" fill="none">
<line x1="112.886" y1="437.561" x2="113.886" y2="437.561"/>
</g>
<path d="M136.563,437.667v -4.44449" fill="none" stroke="#ff0000" stroke-width="2"/>
<path d="M136.563,433.223v -4.44449" fill="none" stroke="#ff0000" stroke-width="2"/>
<path d="M125.224,433.223h 11.3386" fill="none" stroke="#ff0000" stroke-width="2"/>
<path d="M136.563,433.223h 11.3386" fill="none" stroke="#ff0000" stroke-width="2"/>
<g stroke="#ff0000" stroke-width="1" fill="none">
<line x1="135.563" y1="433.223" x2="136.563" y2="433.223"/>
</g>
<path d="M159.24,438.357v -8.3362" fill="none" stroke="#ff0000" stroke-width="2"/>
<path d="M159.24,430.021v -8.3362" fill="none" stroke="#ff0000" stroke-width="2"/>
<path d="M147.902,430.021h 11.3386" fill="none" stroke="#ff0000" stroke-width="2"/>
<path d="M159.24,430.021h 11.3386" fill="none" stroke="#ff0000" stroke-width="2"/>
<g stroke="#ff0000" stroke-width="1" fill="none">
<line x1="158.24" y1="430.021" x2="159.24" y2="430.021"/>
</g>
<path d="M193.256,441.819v -5.26463" fill="none" stroke="#ff0000" stroke-width="2"/>
<path d="M193.256,436.554v -5.26463" fill="none" stroke="#ff0000" stroke-width="2"/>
<path d="M170.579,436.554h 22.6772" fill="none" stroke="#ff0000" stroke-width="2"/>
<path d="M193.256,436.554h 22.6772" fill="none" stroke="#ff0000" stroke-width="2"/>
<g stroke="#ff0000" stroke-width="1" fill="none">
<line x1="192.256" y1="436.554" x2="193.256" y2="436.554"/>
</g>
<path d="M249.949,444.009v -12.3267" fill="none" stroke="#ff0000" stroke-width="2"/>
<path d="M249.949,431.682v -12.3267" fill="none" stroke="#ff0000" stroke-width="2"/>
<path d="M215.933,431.682h 34.0157" fill="none" stroke="#ff0000" stroke-width="2"/>
<path d="M249.949,431.682h 34.0157" fill="none" stroke="#ff0000" stroke-width="2"/>
<g stroke="#ff0000" stroke-width="1" fill="none">
<line x1="248.949" y1="431.682" x2="249.949" y2="431.682"/>
</g>
<path d="M397.35,454.722v -13.0227" fill="none" stroke="#ff0000" stroke-width="2"/>
<path d="M397.35,441.699v -13.0227" fill="none" stroke="#ff0000" stroke-width="2"/>
<path d="M283.965,441.699h 113.386" fill="none" stroke="#ff0000" stroke-width="2"/>
<path d="M397.35,441.699h 113.386" fill="none" stroke="#ff0000" stroke-width="2"/>
<g stroke="#ff0000" stroke-width="1" fill="none">
<line x1="396.35" y1="441.699" x2="397.35" y2="441.699"/>
</g></svg>
