<?xml version="1.0" standalone="no"?>
<svg width="567.429" height="545.624" viewBox="0 0 567.429 545.624" xmlns="http://www.w3.org/2000/svg" shape-rendering="crispEdges">
<title>
/Users/georgebakas/Documents/HEP-NTUA_ul/VariationHandling/FinalResults/results/FinalResult_ptJJ_normalized.svg
</title>
<desc>
Creator: ROOT Version 6.22/02
CreationDate: Wed Nov 24 08:11:44 2021</desc>
<defs>
</defs>
<rect x="0.5" y="0" width="566.929" height="545.124" fill="white"/>
<rect x="0.5" y="0" width="566.929" height="381.587" fill="white"/>
<rect x="57.1929" y="38.1587" width="453.543" height="324.349" fill="white"/>
<rect x="57.1929" y="38.1587" width="453.543" height="324.349" fill="none" stroke="black"/>
<rect x="57.1929" y="38.1587" width="453.543" height="324.349" fill="white"/>
<rect x="57.1929" y="38.1587" width="453.543" height="324.349" fill="none" stroke="black"/>
<rect x="109.525" y="38.1587" width="52.3319" height="9.17066" fill="#cccccc"/>
<g fill="black">
<circle cx="135.691" cy="39.1558" r="3.79217"/>
</g>
<rect x="161.857" y="83.06" width="52.3319" height="14.8568" fill="#cccccc"/>
<g fill="black">
<circle cx="188.023" cy="89.5957" r="3.79217"/>
</g>
<rect x="214.189" y="132.25" width="139.552" height="19.0761" fill="#cccccc"/>
<g fill="black">
<circle cx="283.965" cy="140.326" r="3.79217"/>
</g>
<rect x="353.74" y="171.016" width="156.996" height="42.8888" fill="#cccccc"/>
<g fill="black">
<circle cx="432.238" cy="185.493" r="3.79217"/>
</g>
<path d="M57.1929,362.508h 453.543" fill="none" stroke="black"/>
<path d="M57.1929,353.349v 9.15809" fill="none" stroke="black"/>
<path d="M74.6369,357.929v 4.57904" fill="none" stroke="black"/>
<path d="M92.0809,357.929v 4.57904" fill="none" stroke="black"/>
<path d="M109.525,357.929v 4.57904" fill="none" stroke="black"/>
<path d="M126.969,353.349v 9.15809" fill="none" stroke="black"/>
<path d="M144.413,357.929v 4.57904" fill="none" stroke="black"/>
<path d="M161.857,357.929v 4.57904" fill="none" stroke="black"/>
<path d="M179.301,357.929v 4.57904" fill="none" stroke="black"/>
<path d="M196.745,353.349v 9.15809" fill="none" stroke="black"/>
<path d="M214.189,357.929v 4.57904" fill="none" stroke="black"/>
<path d="M231.633,357.929v 4.57904" fill="none" stroke="black"/>
<path d="M249.077,357.929v 4.57904" fill="none" stroke="black"/>
<path d="M266.521,353.349v 9.15809" fill="none" stroke="black"/>
<path d="M283.965,357.929v 4.57904" fill="none" stroke="black"/>
<path d="M301.409,357.929v 4.57904" fill="none" stroke="black"/>
<path d="M318.853,357.929v 4.57904" fill="none" stroke="black"/>
<path d="M336.296,353.349v 9.15809" fill="none" stroke="black"/>
<path d="M353.74,357.929v 4.57904" fill="none" stroke="black"/>
<path d="M371.184,357.929v 4.57904" fill="none" stroke="black"/>
<path d="M388.628,357.929v 4.57904" fill="none" stroke="black"/>
<path d="M406.072,353.349v 9.15809" fill="none" stroke="black"/>
<path d="M423.516,357.929v 4.57904" fill="none" stroke="black"/>
<path d="M440.96,357.929v 4.57904" fill="none" stroke="black"/>
<path d="M458.404,357.929v 4.57904" fill="none" stroke="black"/>
<path d="M475.848,353.349v 9.15809" fill="none" stroke="black"/>
<path d="M475.848,353.349v 9.15809" fill="none" stroke="black"/>
<path d="M493.292,357.929v 4.57904" fill="none" stroke="black"/>
<text xml:space="preserve" x="51.6943" y="380.165" fill="black" font-size="18.004" font-family="Helvetica">0</text>
<text xml:space="preserve" x="111.421" y="380.165" fill="black" font-size="18.004" font-family="Helvetica">200</text>
<text xml:space="preserve" x="181.576" y="380.165" fill="black" font-size="18.004" font-family="Helvetica">400</text>
<text xml:space="preserve" x="250.783" y="380.165" fill="black" font-size="18.004" font-family="Helvetica">600</text>
<text xml:space="preserve" x="320.938" y="380.165" fill="black" font-size="18.004" font-family="Helvetica">800</text>
<text xml:space="preserve" x="385.405" y="380.165" fill="black" font-size="18.004" font-family="Helvetica">1000</text>
<text xml:space="preserve" x="455.56" y="380.165" fill="black" font-size="18.004" font-family="Helvetica">1200</text>
<text xml:space="preserve" x="371.184" y="401.022" fill="black" font-size="21.5048" font-family="Helvetica">ptTTbarParton</text>
<path d="M57.1929,362.508v -324.349" fill="none" stroke="black"/>
<path d="M64.4213,362.508h -7.22835" fill="none" stroke="black"/>
<path d="M64.4213,350.097h -7.22835" fill="none" stroke="black"/>
<path d="M64.4213,341.291h -7.22835" fill="none" stroke="black"/>
<path d="M64.4213,334.461h -7.22835" fill="none" stroke="black"/>
<path d="M64.4213,328.88h -7.22835" fill="none" stroke="black"/>
<path d="M64.4213,324.162h -7.22835" fill="none" stroke="black"/>
<path d="M64.4213,320.075h -7.22835" fill="none" stroke="black"/>
<path d="M64.4213,316.47h -7.22835" fill="none" stroke="black"/>
<path d="M71.6496,313.245h -14.4567" fill="none" stroke="black"/>
<text xml:space="preserve" x="44.1099" y="312.854" fill="black" font-size="12.1693" font-family="Helvetica">5</text>
<text xml:space="preserve" x="37.4736" y="312.854" fill="black" font-size="12.1693" font-family="Times">&#8722;</text>
<text xml:space="preserve" x="17.5648" y="321.386" fill="black" font-size="18.004" font-family="Helvetica">10</text>
<path d="M64.4213,292.028h -7.22835" fill="none" stroke="black"/>
<path d="M64.4213,279.618h -7.22835" fill="none" stroke="black"/>
<path d="M64.4213,270.812h -7.22835" fill="none" stroke="black"/>
<path d="M64.4213,263.982h -7.22835" fill="none" stroke="black"/>
<path d="M64.4213,258.401h -7.22835" fill="none" stroke="black"/>
<path d="M64.4213,253.683h -7.22835" fill="none" stroke="black"/>
<path d="M64.4213,249.596h -7.22835" fill="none" stroke="black"/>
<path d="M64.4213,245.991h -7.22835" fill="none" stroke="black"/>
<path d="M71.6496,242.766h -14.4567" fill="none" stroke="black"/>
<text xml:space="preserve" x="44.1099" y="243.647" fill="black" font-size="12.1693" font-family="Helvetica">4</text>
<text xml:space="preserve" x="37.4736" y="243.647" fill="black" font-size="12.1693" font-family="Times">&#8722;</text>
<text xml:space="preserve" x="17.5648" y="251.231" fill="black" font-size="18.004" font-family="Helvetica">10</text>
<path d="M64.4213,221.549h -7.22835" fill="none" stroke="black"/>
<path d="M64.4213,209.139h -7.22835" fill="none" stroke="black"/>
<path d="M64.4213,200.333h -7.22835" fill="none" stroke="black"/>
<path d="M64.4213,193.503h -7.22835" fill="none" stroke="black"/>
<path d="M64.4213,187.922h -7.22835" fill="none" stroke="black"/>
<path d="M64.4213,183.204h -7.22835" fill="none" stroke="black"/>
<path d="M64.4213,179.117h -7.22835" fill="none" stroke="black"/>
<path d="M64.4213,175.512h -7.22835" fill="none" stroke="black"/>
<path d="M71.6496,172.287h -14.4567" fill="none" stroke="black"/>
<text xml:space="preserve" x="44.1099" y="171.596" fill="black" font-size="12.1693" font-family="Helvetica">3</text>
<text xml:space="preserve" x="37.4736" y="171.596" fill="black" font-size="12.1693" font-family="Times">&#8722;</text>
<text xml:space="preserve" x="17.5648" y="180.128" fill="black" font-size="18.004" font-family="Helvetica">10</text>
<path d="M64.4213,151.07h -7.22835" fill="none" stroke="black"/>
<path d="M64.4213,138.66h -7.22835" fill="none" stroke="black"/>
<path d="M64.4213,129.854h -7.22835" fill="none" stroke="black"/>
<path d="M64.4213,123.024h -7.22835" fill="none" stroke="black"/>
<path d="M64.4213,117.443h -7.22835" fill="none" stroke="black"/>
<path d="M64.4213,112.725h -7.22835" fill="none" stroke="black"/>
<path d="M64.4213,108.638h -7.22835" fill="none" stroke="black"/>
<path d="M64.4213,105.033h -7.22835" fill="none" stroke="black"/>
<path d="M71.6496,101.808h -14.4567" fill="none" stroke="black"/>
<text xml:space="preserve" x="44.1099" y="102.389" fill="black" font-size="12.1693" font-family="Helvetica">2</text>
<text xml:space="preserve" x="37.4736" y="102.389" fill="black" font-size="12.1693" font-family="Times">&#8722;</text>
<text xml:space="preserve" x="17.5648" y="109.973" fill="black" font-size="18.004" font-family="Helvetica">10</text>
<path d="M64.4213,80.5913h -7.22835" fill="none" stroke="black"/>
<path d="M64.4213,68.1806h -7.22835" fill="none" stroke="black"/>
<path d="M64.4213,59.375h -7.22835" fill="none" stroke="black"/>
<path d="M64.4213,52.5449h -7.22835" fill="none" stroke="black"/>
<path d="M64.4213,46.9643h -7.22835" fill="none" stroke="black"/>
<path d="M64.4213,42.2459h -7.22835" fill="none" stroke="black"/>
<g transform="rotate(-90,0.5,50.2462)">
<text xml:space="preserve" x="0.5" y="50.2462" fill="black" font-size="21.5048" font-family="Times">&#0967;</text>
</g>
<g transform="rotate(-90,0.5,61.6227)">
<text xml:space="preserve" x="0.5" y="61.6227" fill="black" font-size="21.5048" font-family="Helvetica">d</text>
</g>
<g transform="rotate(-90,-23.201,51.1943)">
<text xml:space="preserve" x="-23.201" y="51.1943" fill="black" font-size="21.5048" font-family="Times">&#0963;</text>
</g>
<g transform="rotate(-90,-23.201,62.5708)">
<text xml:space="preserve" x="-23.201" y="62.5708" fill="black" font-size="21.5048" font-family="Helvetica">d</text>
</g>
<g transform="rotate(-90,-12.7726,70.1551)">
<text xml:space="preserve" x="-12.7726" y="70.1551" fill="black" font-size="21.5048" font-family="Helvetica"> </text>
</g>
<g transform="rotate(-90,-4.24021,83.4277)">
<text xml:space="preserve" x="-4.24021" y="83.4277" fill="black" font-size="21.5048" font-family="Times">&#0963;</text>
</g>
<g transform="rotate(-90,-22.253,80.5836)">
<text xml:space="preserve" x="-22.253" y="80.5836" fill="black" font-size="21.5048" font-family="Helvetica">1</text>
</g>
<path d="M135.691,41.6132v -2.45742" fill="none" stroke="black" stroke-width="2"/>
<path d="M135.691,39.1558v -0.997076" fill="none" stroke="black" stroke-width="2"/>
<path d="M109.525,39.1558h 26.166" fill="none" stroke="black" stroke-width="2"/>
<path d="M135.691,39.1558h 26.166" fill="none" stroke="black" stroke-width="2"/>
<g stroke="black" stroke-width="1" fill="none">
<line x1="134.691" y1="39.1558" x2="135.691" y2="39.1558"/>
</g>
<path d="M188.023,93.9146v -4.31891" fill="none" stroke="black" stroke-width="2"/>
<path d="M188.023,89.5957v -3.78419" fill="none" stroke="black" stroke-width="2"/>
<path d="M161.857,89.5957h 26.166" fill="none" stroke="black" stroke-width="2"/>
<path d="M188.023,89.5957h 26.166" fill="none" stroke="black" stroke-width="2"/>
<g stroke="black" stroke-width="1" fill="none">
<line x1="187.023" y1="89.5957" x2="188.023" y2="89.5957"/>
</g>
<path d="M283.965,145.849v -5.52329" fill="none" stroke="black" stroke-width="2"/>
<path d="M283.965,140.326v -4.67733" fill="none" stroke="black" stroke-width="2"/>
<path d="M214.189,140.326h 69.7759" fill="none" stroke="black" stroke-width="2"/>
<path d="M283.965,140.326h 69.7759" fill="none" stroke="black" stroke-width="2"/>
<g stroke="black" stroke-width="1" fill="none">
<line x1="282.965" y1="140.326" x2="283.965" y2="140.326"/>
</g>
<path d="M432.238,196.71v -11.2165" fill="none" stroke="black" stroke-width="2"/>
<path d="M432.238,185.493v -8.19048" fill="none" stroke="black" stroke-width="2"/>
<path d="M353.74,185.493h 78.4979" fill="none" stroke="black" stroke-width="2"/>
<path d="M432.238,185.493h 78.4979" fill="none" stroke="black" stroke-width="2"/>
<g stroke="black" stroke-width="1" fill="none">
<line x1="431.238" y1="185.493" x2="432.238" y2="185.493"/>
</g>
<path d="M159.477,43.0414l 2.37965, 6.52993" fill="none" stroke="#ff0000"/>
<path d="M148.617,43.0414l 3.27933, 8.9987" fill="none" stroke="#ff0000"/>
<path d="M137.758,43.0414l 3.27933, 8.9987" fill="none" stroke="#ff0000"/>
<path d="M126.898,43.0414l 3.27933, 8.9987" fill="none" stroke="#ff0000"/>
<path d="M116.039,43.0414l 3.27933, 8.9987" fill="none" stroke="#ff0000"/>
<g stroke="#ff0000" stroke-width="1" fill="none">
<line x1="134.691" y1="47.2112" x2="135.691" y2="47.2112"/>
</g>
<path d="M206.956,83.929l 7.23229, 19.8459" fill="none" stroke="#ff0000"/>
<path d="M196.097,83.929l 7.75942, 21.2924" fill="none" stroke="#ff0000"/>
<path d="M185.237,83.929l 7.75942, 21.2924" fill="none" stroke="#ff0000"/>
<path d="M174.377,83.929l 7.75942, 21.2924" fill="none" stroke="#ff0000"/>
<path d="M163.518,83.929l 7.75942, 21.2924" fill="none" stroke="#ff0000"/>
<g stroke="#ff0000" stroke-width="1" fill="none">
<line x1="187.023" y1="92.7599" x2="188.023" y2="92.7599"/>
</g>
<path d="M353.344,128.033l 0.396084, 1.08688" fill="none" stroke="#ff0000"/>
<path d="M342.485,128.033l 11.2557, 30.8865" fill="none" stroke="#ff0000"/>
<path d="M331.625,128.033l 12.7003, 34.8506" fill="none" stroke="#ff0000"/>
<path d="M320.765,128.033l 12.7003, 34.8506" fill="none" stroke="#ff0000"/>
<path d="M309.906,128.033l 12.7003, 34.8506" fill="none" stroke="#ff0000"/>
<path d="M299.046,128.033l 12.7003, 34.8506" fill="none" stroke="#ff0000"/>
<path d="M288.187,128.033l 12.7003, 34.8506" fill="none" stroke="#ff0000"/>
<path d="M277.327,128.033l 12.7003, 34.8506" fill="none" stroke="#ff0000"/>
<path d="M266.467,128.033l 12.7003, 34.8506" fill="none" stroke="#ff0000"/>
<path d="M255.608,128.033l 12.7003, 34.8506" fill="none" stroke="#ff0000"/>
<path d="M244.748,128.033l 12.7003, 34.8506" fill="none" stroke="#ff0000"/>
<path d="M233.888,128.033l 12.7003, 34.8506" fill="none" stroke="#ff0000"/>
<path d="M223.029,128.033l 12.7003, 34.8506" fill="none" stroke="#ff0000"/>
<path d="M214.189,133.575l 10.6807, 29.3085" fill="none" stroke="#ff0000"/>
<g stroke="#ff0000" stroke-width="1" fill="none">
<line x1="282.965" y1="140.745" x2="283.965" y2="140.745"/>
</g>
<path d="M501.724,177.6l 9.01254, 24.731" fill="none" stroke="#ff0000"/>
<path d="M490.864,177.6l 18.3578, 50.3752" fill="none" stroke="#ff0000"/>
<path d="M480.004,177.6l 18.3578, 50.3752" fill="none" stroke="#ff0000"/>
<path d="M469.145,177.6l 18.3578, 50.3752" fill="none" stroke="#ff0000"/>
<path d="M458.285,177.6l 18.3578, 50.3752" fill="none" stroke="#ff0000"/>
<path d="M447.425,177.6l 18.3578, 50.3752" fill="none" stroke="#ff0000"/>
<path d="M436.566,177.6l 18.3578, 50.3752" fill="none" stroke="#ff0000"/>
<path d="M425.706,177.6l 18.3578, 50.3752" fill="none" stroke="#ff0000"/>
<path d="M414.847,177.6l 18.3578, 50.3752" fill="none" stroke="#ff0000"/>
<path d="M403.987,177.6l 18.3578, 50.3752" fill="none" stroke="#ff0000"/>
<path d="M393.127,177.6l 18.3578, 50.3752" fill="none" stroke="#ff0000"/>
<path d="M382.268,177.6l 18.3578, 50.3752" fill="none" stroke="#ff0000"/>
<path d="M371.408,177.6l 18.3578, 50.3752" fill="none" stroke="#ff0000"/>
<path d="M360.548,177.6l 18.3578, 50.3752" fill="none" stroke="#ff0000"/>
<path d="M353.74,188.719l 14.3061, 39.2569" fill="none" stroke="#ff0000"/>
<path d="M353.74,218.518l 3.44644, 9.45728" fill="none" stroke="#ff0000"/>
<g stroke="#ff0000" stroke-width="1" fill="none">
<line x1="431.238" y1="193.419" x2="432.238" y2="193.419"/>
</g>
<path d="M135.691,47.263v -0.0517295" fill="none" stroke="#ff0000" stroke-width="2"/>
<path d="M135.691,47.2112v -0.0516422" fill="none" stroke="#ff0000" stroke-width="2"/>
<path d="M109.525,47.2112h 26.166" fill="none" stroke="#ff0000" stroke-width="2"/>
<path d="M135.691,47.2112h 26.166" fill="none" stroke="#ff0000" stroke-width="2"/>
<g stroke="#ff0000" stroke-width="1" fill="none">
<line x1="134.691" y1="47.2112" x2="135.691" y2="47.2112"/>
</g>
<path d="M188.023,92.8675v -0.107573" fill="none" stroke="#ff0000" stroke-width="2"/>
<path d="M188.023,92.7599v -0.107196" fill="none" stroke="#ff0000" stroke-width="2"/>
<path d="M161.857,92.7599h 26.166" fill="none" stroke="#ff0000" stroke-width="2"/>
<path d="M188.023,92.7599h 26.166" fill="none" stroke="#ff0000" stroke-width="2"/>
<g stroke="#ff0000" stroke-width="1" fill="none">
<line x1="187.023" y1="92.7599" x2="188.023" y2="92.7599"/>
</g>
<path d="M283.965,140.887v -0.142228" fill="none" stroke="#ff0000" stroke-width="2"/>
<path d="M283.965,140.745v -0.14157" fill="none" stroke="#ff0000" stroke-width="2"/>
<path d="M214.189,140.745h 69.7759" fill="none" stroke="#ff0000" stroke-width="2"/>
<path d="M283.965,140.745h 69.7759" fill="none" stroke="#ff0000" stroke-width="2"/>
<g stroke="#ff0000" stroke-width="1" fill="none">
<line x1="282.965" y1="140.745" x2="283.965" y2="140.745"/>
</g>
<path d="M432.238,193.733v -0.314431" fill="none" stroke="#ff0000" stroke-width="2"/>
<path d="M432.238,193.419v -0.311233" fill="none" stroke="#ff0000" stroke-width="2"/>
<path d="M353.74,193.419h 78.4979" fill="none" stroke="#ff0000" stroke-width="2"/>
<path d="M432.238,193.419h 78.4979" fill="none" stroke="#ff0000" stroke-width="2"/>
<g stroke="#ff0000" stroke-width="1" fill="none">
<line x1="431.238" y1="193.419" x2="432.238" y2="193.419"/>
</g>
<rect x="334.988" y="41.9746" width="170.079" height="114.476" fill="white"/>
<text xml:space="preserve" x="376.873" y="60.6747" fill="black" font-size="12.4517" font-family="Helvetica">Data</text>
<path d="M356.248,52.4919v -4.79354" fill="none" stroke="black" stroke-width="2"/>
<path d="M356.248,60.0762v 4.79354" fill="none" stroke="black" stroke-width="2"/>
<g fill="black">
<circle cx="356.248" cy="56.2841" r="3.79217"/>
</g>
<text xml:space="preserve" x="376.873" y="89.116" fill="black" font-size="12.4517" font-family="Helvetica">Total unc.</text>
<path d="M341.366,94.9198h 29.7638v -20.0333h -29.7638z" fill="#cccccc"/>
<path d="M341.366,74.8864h 29.7638" fill="none" stroke="black" stroke-width="2"/>
<path d="M341.366,94.9198h 29.7638" fill="none" stroke="black" stroke-width="2"/>
<path d="M371.13,94.9198v -20.0333" fill="none" stroke="black" stroke-width="2"/>
<path d="M341.366,94.9198v -20.0333" fill="none" stroke="black" stroke-width="2"/>
<text xml:space="preserve" x="376.873" y="116.609" fill="black" font-size="12.4517" font-family="Helvetica">Powheg+Pythia8</text>
<path d="M341.366,113.522h 29.7638" fill="none" stroke="#ff0000" stroke-width="2"/>
<path d="M356.248,122.108v -17.1714" fill="none" stroke="#ff0000" stroke-width="2"/>
<text xml:space="preserve" x="376.873" y="145.05" fill="black" font-size="12.4517" font-family="Helvetica">Powheg+Pythia8 unc</text>
<path d="M365.695,132.124l 5.43468, 14.9131" fill="none" stroke="#ff0000"/>
<path d="M354.836,132.124l 7.30059, 20.0333" fill="none" stroke="#ff0000"/>
<path d="M343.976,132.124l 7.30059, 20.0333" fill="none" stroke="#ff0000"/>
<path d="M341.366,132.124h 29.7638" fill="none" stroke="#ff0000" stroke-width="2"/>
<path d="M341.366,152.158h 29.7638" fill="none" stroke="#ff0000" stroke-width="2"/>
<path d="M371.13,152.158v -20.0333" fill="none" stroke="#ff0000" stroke-width="2"/>
<path d="M341.366,152.158v -20.0333" fill="none" stroke="#ff0000" stroke-width="2"/>
<text xml:space="preserve" x="420.483" y="30.3373" fill="black" font-size="21.5048" font-family="Helvetica"> (13 TeV)</text>
<text xml:space="preserve" x="410.054" y="19.9089" fill="black" font-size="14.5032" font-family="Helvetica">-1</text>
<text xml:space="preserve" x="343.691" y="30.3373" fill="black" font-size="21.5048" font-family="Helvetica">20.1 fb</text>
<text xml:space="preserve" x="57.1929" y="30.527" fill="black" font-size="26.756" font-family="Helvetica" font-weight="bold">CMS</text>
<text xml:space="preserve" x="77.2914" y="64.4669" fill="black" font-size="20.4545" font-family="Helvetica" font-style="oblique">Work in progress</text>
<rect x="0.5" y="381.587" width="566.929" height="136.281" fill="white"/>
<rect x="57.1929" y="385.675" width="453.543" height="102.211" fill="white"/>
<rect x="57.1929" y="385.675" width="453.543" height="102.211" fill="none" stroke="black"/>
<rect x="57.1929" y="385.675" width="453.543" height="102.211" fill="white"/>
<rect x="57.1929" y="385.675" width="453.543" height="102.211" fill="none" stroke="black"/>
<path d="M57.1929,487.886h 453.543" fill="none" stroke="black"/>
<path d="M57.1929,487.886v -102.211" fill="none" stroke="black"/>
<path d="M510.736,487.886h -453.543" fill="none" stroke="black" stroke-dasharray=" 1, 2"/>
<path d="M510.736,462.333h -453.543" fill="none" stroke="black" stroke-dasharray=" 1, 2"/>
<path d="M510.736,436.781h -453.543" fill="none" stroke="black" stroke-dasharray=" 1, 2"/>
<path d="M510.736,411.228h -453.543" fill="none" stroke="black" stroke-dasharray=" 1, 2"/>
<path d="M510.736,385.675h -453.543" fill="none" stroke="black" stroke-dasharray=" 1, 2"/>
<rect x="57.1929" y="434.35" width="20.9328" height="4.86062" fill="#cccccc"/>
<g fill="black">
<circle cx="67.6593" cy="436.781" r="3.79217"/>
</g>
<rect x="78.1257" y="432.816" width="31.3992" height="7.93009" fill="#cccccc"/>
<g fill="black">
<circle cx="93.8253" cy="436.781" r="3.79217"/>
</g>
<rect x="109.525" y="430.476" width="52.3319" height="12.609" fill="#cccccc"/>
<g fill="black">
<circle cx="135.691" cy="436.781" r="3.79217"/>
</g>
<rect x="161.857" y="429.831" width="52.3319" height="13.9002" fill="#cccccc"/>
<g fill="black">
<circle cx="188.023" cy="436.781" r="3.79217"/>
</g>
<rect x="214.189" y="427.988" width="139.552" height="17.5854" fill="#cccccc"/>
<g fill="black">
<circle cx="283.965" cy="436.781" r="3.79217"/>
</g>
<rect x="353.74" y="419.453" width="156.996" height="34.6558" fill="#cccccc"/>
<g fill="black">
<circle cx="432.238" cy="436.781" r="3.79217"/>
</g>
<path d="M57.1929,487.886h 453.543" fill="none" stroke="black"/>
<path d="M57.1929,484.615v 3.27075" fill="none" stroke="black"/>
<path d="M74.6369,486.251v 1.63537" fill="none" stroke="black"/>
<path d="M92.0809,486.251v 1.63537" fill="none" stroke="black"/>
<path d="M109.525,486.251v 1.63537" fill="none" stroke="black"/>
<path d="M126.969,484.615v 3.27075" fill="none" stroke="black"/>
<path d="M144.413,486.251v 1.63537" fill="none" stroke="black"/>
<path d="M161.857,486.251v 1.63537" fill="none" stroke="black"/>
<path d="M179.301,486.251v 1.63537" fill="none" stroke="black"/>
<path d="M196.745,484.615v 3.27075" fill="none" stroke="black"/>
<path d="M214.189,486.251v 1.63537" fill="none" stroke="black"/>
<path d="M231.633,486.251v 1.63537" fill="none" stroke="black"/>
<path d="M249.077,486.251v 1.63537" fill="none" stroke="black"/>
<path d="M266.521,484.615v 3.27075" fill="none" stroke="black"/>
<path d="M283.965,486.251v 1.63537" fill="none" stroke="black"/>
<path d="M301.409,486.251v 1.63537" fill="none" stroke="black"/>
<path d="M318.853,486.251v 1.63537" fill="none" stroke="black"/>
<path d="M336.296,484.615v 3.27075" fill="none" stroke="black"/>
<path d="M353.74,486.251v 1.63537" fill="none" stroke="black"/>
<path d="M371.184,486.251v 1.63537" fill="none" stroke="black"/>
<path d="M388.628,486.251v 1.63537" fill="none" stroke="black"/>
<path d="M406.072,484.615v 3.27075" fill="none" stroke="black"/>
<path d="M423.516,486.251v 1.63537" fill="none" stroke="black"/>
<path d="M440.96,486.251v 1.63537" fill="none" stroke="black"/>
<path d="M458.404,486.251v 1.63537" fill="none" stroke="black"/>
<path d="M475.848,484.615v 3.27075" fill="none" stroke="black"/>
<path d="M475.848,484.615v 3.27075" fill="none" stroke="black"/>
<path d="M493.292,486.251v 1.63537" fill="none" stroke="black"/>
<text xml:space="preserve" x="51.6943" y="502.462" fill="black" font-size="15.5034" font-family="Helvetica">0</text>
<text xml:space="preserve" x="113.317" y="502.462" fill="black" font-size="15.5034" font-family="Helvetica">200</text>
<text xml:space="preserve" x="183.472" y="502.462" fill="black" font-size="15.5034" font-family="Helvetica">400</text>
<text xml:space="preserve" x="252.679" y="502.462" fill="black" font-size="15.5034" font-family="Helvetica">600</text>
<text xml:space="preserve" x="322.834" y="502.462" fill="black" font-size="15.5034" font-family="Helvetica">800</text>
<text xml:space="preserve" x="388.249" y="502.462" fill="black" font-size="15.5034" font-family="Helvetica">1000</text>
<text xml:space="preserve" x="458.404" y="502.462" fill="black" font-size="15.5034" font-family="Helvetica">1200</text>
<text xml:space="preserve" x="443.236" y="517.631" fill="black" font-size="14.8783" font-family="Helvetica">ptJJ (GeV)</text>
<path d="M57.1929,487.886v -102.211" fill="none" stroke="black"/>
<path d="M69.9488,487.886h -12.7559" fill="none" stroke="black"/>
<path d="M63.5709,482.776h -6.37795" fill="none" stroke="black"/>
<path d="M63.5709,477.665h -6.37795" fill="none" stroke="black"/>
<path d="M63.5709,472.555h -6.37795" fill="none" stroke="black"/>
<path d="M63.5709,467.444h -6.37795" fill="none" stroke="black"/>
<path d="M69.9488,462.333h -12.7559" fill="none" stroke="black"/>
<path d="M63.5709,457.223h -6.37795" fill="none" stroke="black"/>
<path d="M63.5709,452.112h -6.37795" fill="none" stroke="black"/>
<path d="M63.5709,447.002h -6.37795" fill="none" stroke="black"/>
<path d="M63.5709,441.891h -6.37795" fill="none" stroke="black"/>
<path d="M69.9488,436.781h -12.7559" fill="none" stroke="black"/>
<path d="M63.5709,431.67h -6.37795" fill="none" stroke="black"/>
<path d="M63.5709,426.56h -6.37795" fill="none" stroke="black"/>
<path d="M63.5709,421.449h -6.37795" fill="none" stroke="black"/>
<path d="M63.5709,416.339h -6.37795" fill="none" stroke="black"/>
<path d="M69.9488,411.228h -12.7559" fill="none" stroke="black"/>
<path d="M63.5709,406.118h -6.37795" fill="none" stroke="black"/>
<path d="M63.5709,401.007h -6.37795" fill="none" stroke="black"/>
<path d="M63.5709,395.896h -6.37795" fill="none" stroke="black"/>
<path d="M63.5709,390.786h -6.37795" fill="none" stroke="black"/>
<path d="M69.9488,385.675h -12.7559" fill="none" stroke="black"/>
<text xml:space="preserve" x="46.006" y="492.982" fill="black" font-size="13.0028" font-family="Helvetica">2</text>
<text xml:space="preserve" x="38.4217" y="492.982" fill="black" font-size="13.0028" font-family="Times">&#8722;</text>
<text xml:space="preserve" x="47.9021" y="467.385" fill="black" font-size="13.0028" font-family="Helvetica">1</text>
<text xml:space="preserve" x="40.3178" y="467.385" fill="black" font-size="13.0028" font-family="Times">&#8722;</text>
<text xml:space="preserve" x="46.006" y="440.84" fill="black" font-size="13.0028" font-family="Helvetica">0</text>
<text xml:space="preserve" x="47.9021" y="416.19" fill="black" font-size="13.0028" font-family="Helvetica">1</text>
<text xml:space="preserve" x="46.006" y="390.593" fill="black" font-size="13.0028" font-family="Helvetica">2</text>
<g transform="rotate(-90,26.0971,474.969)">
<text xml:space="preserve" x="26.0971" y="474.969" fill="black" font-size="14.8783" font-family="Helvetica">The./data - 1</text>
</g>
<path d="M67.6593,438.467v -1.68599" fill="none" stroke="black" stroke-width="2"/>
<path d="M67.6593,436.781v -1.68599" fill="none" stroke="black" stroke-width="2"/>
<path d="M57.1929,436.781h 10.4664" fill="none" stroke="black" stroke-width="2"/>
<path d="M67.6593,436.781h 10.4664" fill="none" stroke="black" stroke-width="2"/>
<g stroke="black" stroke-width="1" fill="none">
<line x1="66.6593" y1="436.781" x2="67.6593" y2="436.781"/>
</g>
<path d="M93.8253,439.412v -2.63138" fill="none" stroke="black" stroke-width="2"/>
<path d="M93.8253,436.781v -2.63138" fill="none" stroke="black" stroke-width="2"/>
<path d="M78.1257,436.781h 15.6996" fill="none" stroke="black" stroke-width="2"/>
<path d="M93.8253,436.781h 15.6996" fill="none" stroke="black" stroke-width="2"/>
<g stroke="black" stroke-width="1" fill="none">
<line x1="92.8253" y1="436.781" x2="93.8253" y2="436.781"/>
</g>
<path d="M135.691,439.569v -2.78785" fill="none" stroke="black" stroke-width="2"/>
<path d="M135.691,436.781v -2.78785" fill="none" stroke="black" stroke-width="2"/>
<path d="M109.525,436.781h 26.166" fill="none" stroke="black" stroke-width="2"/>
<path d="M135.691,436.781h 26.166" fill="none" stroke="black" stroke-width="2"/>
<g stroke="black" stroke-width="1" fill="none">
<line x1="134.691" y1="436.781" x2="135.691" y2="436.781"/>
</g>
<path d="M188.023,441.536v -4.75557" fill="none" stroke="black" stroke-width="2"/>
<path d="M188.023,436.781v -4.75557" fill="none" stroke="black" stroke-width="2"/>
<path d="M161.857,436.781h 26.166" fill="none" stroke="black" stroke-width="2"/>
<path d="M188.023,436.781h 26.166" fill="none" stroke="black" stroke-width="2"/>
<g stroke="black" stroke-width="1" fill="none">
<line x1="187.023" y1="436.781" x2="188.023" y2="436.781"/>
</g>
<path d="M283.965,442.747v -5.96638" fill="none" stroke="black" stroke-width="2"/>
<path d="M283.965,436.781v -5.96638" fill="none" stroke="black" stroke-width="2"/>
<path d="M214.189,436.781h 69.7759" fill="none" stroke="black" stroke-width="2"/>
<path d="M283.965,436.781h 69.7759" fill="none" stroke="black" stroke-width="2"/>
<g stroke="black" stroke-width="1" fill="none">
<line x1="282.965" y1="436.781" x2="283.965" y2="436.781"/>
</g>
<path d="M432.238,447.868v -11.0871" fill="none" stroke="black" stroke-width="2"/>
<path d="M432.238,436.781v -11.0871" fill="none" stroke="black" stroke-width="2"/>
<path d="M353.74,436.781h 78.4979" fill="none" stroke="black" stroke-width="2"/>
<path d="M432.238,436.781h 78.4979" fill="none" stroke="black" stroke-width="2"/>
<g stroke="black" stroke-width="1" fill="none">
<line x1="431.238" y1="436.781" x2="432.238" y2="436.781"/>
</g>
<path d="M67.3501,433.155l 1.11432, 3.05625" fill="none" stroke="#ff0000"/>
<path d="M57.1929,435.082l 0.411878, 1.12966" fill="none" stroke="#ff0000"/>
<g stroke="#ff0000" stroke-width="1" fill="none">
<line x1="66.6593" y1="434.683" x2="67.6593" y2="434.683"/>
</g>
<path d="M101.556,437.617l 1.29203, 3.54367" fill="none" stroke="#ff0000"/>
<path d="M90.6962,437.617l 1.29203, 3.54367" fill="none" stroke="#ff0000"/>
<path d="M79.8366,437.617l 1.29203, 3.54367" fill="none" stroke="#ff0000"/>
<g stroke="#ff0000" stroke-width="1" fill="none">
<line x1="92.8253" y1="439.389" x2="93.8253" y2="439.389"/>
</g>
<path d="M156.523,439.451l 2.36423, 6.48439" fill="none" stroke="#ff0000"/>
<path d="M145.663,439.451l 2.36423, 6.48439" fill="none" stroke="#ff0000"/>
<path d="M134.804,439.451l 2.36423, 6.48439" fill="none" stroke="#ff0000"/>
<path d="M123.944,439.451l 2.36423, 6.48439" fill="none" stroke="#ff0000"/>
<path d="M113.084,439.451l 2.36423, 6.48439" fill="none" stroke="#ff0000"/>
<g stroke="#ff0000" stroke-width="1" fill="none">
<line x1="134.691" y1="442.693" x2="135.691" y2="442.693"/>
</g>
<path d="M207.743,431.009l 6.03902, 16.5633" fill="none" stroke="#ff0000"/>
<path d="M196.883,431.009l 6.03902, 16.5633" fill="none" stroke="#ff0000"/>
<path d="M186.024,431.009l 6.03902, 16.5633" fill="none" stroke="#ff0000"/>
<path d="M175.164,431.009l 6.03902, 16.5633" fill="none" stroke="#ff0000"/>
<path d="M164.304,431.009l 6.03902, 16.5633" fill="none" stroke="#ff0000"/>
<g stroke="#ff0000" stroke-width="1" fill="none">
<line x1="187.023" y1="439.29" x2="188.023" y2="439.29"/>
</g>
<path d="M346.181,423.5l 7.55983, 20.7344" fill="none" stroke="#ff0000"/>
<path d="M335.321,423.5l 9.93744, 27.2555" fill="none" stroke="#ff0000"/>
<path d="M324.461,423.5l 9.93744, 27.2555" fill="none" stroke="#ff0000"/>
<path d="M313.602,423.5l 9.93744, 27.2555" fill="none" stroke="#ff0000"/>
<path d="M302.742,423.5l 9.93744, 27.2555" fill="none" stroke="#ff0000"/>
<path d="M291.882,423.5l 9.93744, 27.2555" fill="none" stroke="#ff0000"/>
<path d="M281.023,423.5l 9.93744, 27.2555" fill="none" stroke="#ff0000"/>
<path d="M270.163,423.5l 9.93744, 27.2555" fill="none" stroke="#ff0000"/>
<path d="M259.303,423.5l 9.93744, 27.2555" fill="none" stroke="#ff0000"/>
<path d="M248.444,423.5l 9.93744, 27.2555" fill="none" stroke="#ff0000"/>
<path d="M237.584,423.5l 9.93744, 27.2555" fill="none" stroke="#ff0000"/>
<path d="M226.725,423.5l 9.93744, 27.2555" fill="none" stroke="#ff0000"/>
<path d="M215.865,423.5l 9.93744, 27.2555" fill="none" stroke="#ff0000"/>
<path d="M214.189,448.688l 0.754067, 2.06818" fill="none" stroke="#ff0000"/>
<g stroke="#ff0000" stroke-width="1" fill="none">
<line x1="282.965" y1="437.128" x2="283.965" y2="437.128"/>
</g>
<path d="M510.7,427.956l 0.0363629, 0.0997328" fill="none" stroke="#ff0000"/>
<path d="M499.84,427.956l 10.6856, 29.3074" fill="none" stroke="#ff0000"/>
<path d="M488.981,427.956l 10.6856, 29.3074" fill="none" stroke="#ff0000"/>
<path d="M478.121,427.956l 10.6856, 29.3074" fill="none" stroke="#ff0000"/>
<path d="M467.261,427.956l 10.6856, 29.3074" fill="none" stroke="#ff0000"/>
<path d="M456.402,427.956l 10.6856, 29.3074" fill="none" stroke="#ff0000"/>
<path d="M445.542,427.956l 10.6856, 29.3074" fill="none" stroke="#ff0000"/>
<path d="M434.682,427.956l 10.6856, 29.3074" fill="none" stroke="#ff0000"/>
<path d="M423.823,427.956l 10.6856, 29.3074" fill="none" stroke="#ff0000"/>
<path d="M412.963,427.956l 10.6856, 29.3074" fill="none" stroke="#ff0000"/>
<path d="M402.103,427.956l 10.6856, 29.3074" fill="none" stroke="#ff0000"/>
<path d="M391.244,427.956l 10.6856, 29.3074" fill="none" stroke="#ff0000"/>
<path d="M380.384,427.956l 10.6856, 29.3074" fill="none" stroke="#ff0000"/>
<path d="M369.525,427.956l 10.6856, 29.3074" fill="none" stroke="#ff0000"/>
<path d="M358.665,427.956l 10.6856, 29.3074" fill="none" stroke="#ff0000"/>
<path d="M353.74,444.235l 4.75036, 13.0289" fill="none" stroke="#ff0000"/>
<g stroke="#ff0000" stroke-width="1" fill="none">
<line x1="431.238" y1="442.61" x2="432.238" y2="442.61"/>
</g>
<path d="M67.6593,435.973v -1.29024" fill="none" stroke="#ff0000" stroke-width="2"/>
<path d="M67.6593,434.683v -1.29024" fill="none" stroke="#ff0000" stroke-width="2"/>
<path d="M57.1929,434.683h 10.4664" fill="none" stroke="#ff0000" stroke-width="2"/>
<path d="M67.6593,434.683h 10.4664" fill="none" stroke="#ff0000" stroke-width="2"/>
<g stroke="#ff0000" stroke-width="1" fill="none">
<line x1="66.6593" y1="434.683" x2="67.6593" y2="434.683"/>
</g>
<path d="M93.8253,441.06v -1.67093" fill="none" stroke="#ff0000" stroke-width="2"/>
<path d="M93.8253,439.389v -1.67093" fill="none" stroke="#ff0000" stroke-width="2"/>
<path d="M78.1257,439.389h 15.6996" fill="none" stroke="#ff0000" stroke-width="2"/>
<path d="M93.8253,439.389h 15.6996" fill="none" stroke="#ff0000" stroke-width="2"/>
<g stroke="#ff0000" stroke-width="1" fill="none">
<line x1="92.8253" y1="439.389" x2="93.8253" y2="439.389"/>
</g>
<path d="M135.691,444.209v -1.51552" fill="none" stroke="#ff0000" stroke-width="2"/>
<path d="M135.691,442.693v -1.51552" fill="none" stroke="#ff0000" stroke-width="2"/>
<path d="M109.525,442.693h 26.166" fill="none" stroke="#ff0000" stroke-width="2"/>
<path d="M135.691,442.693h 26.166" fill="none" stroke="#ff0000" stroke-width="2"/>
<g stroke="#ff0000" stroke-width="1" fill="none">
<line x1="134.691" y1="442.693" x2="135.691" y2="442.693"/>
</g>
<path d="M188.023,442.324v -3.03351" fill="none" stroke="#ff0000" stroke-width="2"/>
<path d="M188.023,439.29v -3.03351" fill="none" stroke="#ff0000" stroke-width="2"/>
<path d="M161.857,439.29h 26.166" fill="none" stroke="#ff0000" stroke-width="2"/>
<path d="M188.023,439.29h 26.166" fill="none" stroke="#ff0000" stroke-width="2"/>
<g stroke="#ff0000" stroke-width="1" fill="none">
<line x1="187.023" y1="439.29" x2="188.023" y2="439.29"/>
</g>
<path d="M283.965,441.291v -4.16318" fill="none" stroke="#ff0000" stroke-width="2"/>
<path d="M283.965,437.128v -4.16318" fill="none" stroke="#ff0000" stroke-width="2"/>
<path d="M214.189,437.128h 69.7759" fill="none" stroke="#ff0000" stroke-width="2"/>
<path d="M283.965,437.128h 69.7759" fill="none" stroke="#ff0000" stroke-width="2"/>
<g stroke="#ff0000" stroke-width="1" fill="none">
<line x1="282.965" y1="437.128" x2="283.965" y2="437.128"/>
</g>
<path d="M432.238,448.664v -6.05474" fill="none" stroke="#ff0000" stroke-width="2"/>
<path d="M432.238,442.61v -6.05474" fill="none" stroke="#ff0000" stroke-width="2"/>
<path d="M353.74,442.61h 78.4979" fill="none" stroke="#ff0000" stroke-width="2"/>
<path d="M432.238,442.61h 78.4979" fill="none" stroke="#ff0000" stroke-width="2"/>
<g stroke="#ff0000" stroke-width="1" fill="none">
<line x1="431.238" y1="442.61" x2="432.238" y2="442.61"/>
</g></svg>
