<?xml version="1.0" standalone="no"?>
<svg width="567.429" height="545.624" viewBox="0 0 567.429 545.624" xmlns="http://www.w3.org/2000/svg" shape-rendering="crispEdges">
<title>
/Users/georgebakas/Documents/HEP-NTUA_ul/VariationHandling/FinalResults/results/FinalResult_jetPt1_normalized.svg
</title>
<desc>
Creator: ROOT Version 6.22/02
CreationDate: Wed Nov 24 08:11:44 2021</desc>
<defs>
</defs>
<rect x="0.5" y="0" width="566.929" height="545.124" fill="white"/>
<rect x="0.5" y="0" width="566.929" height="381.587" fill="white"/>
<rect x="57.1929" y="38.1587" width="453.543" height="324.349" fill="white"/>
<rect x="57.1929" y="38.1587" width="453.543" height="324.349" fill="none" stroke="black"/>
<rect x="57.1929" y="38.1587" width="453.543" height="324.349" fill="white"/>
<rect x="57.1929" y="38.1587" width="453.543" height="324.349" fill="none" stroke="black"/>
<rect x="160.271" y="51.4418" width="61.8468" height="18.2309" fill="#cccccc"/>
<g fill="black">
<circle cx="191.194" cy="59.1922" r="3.79217"/>
</g>
<rect x="222.118" y="98.9492" width="123.694" height="52.0239" fill="#cccccc"/>
<g fill="black">
<circle cx="283.965" cy="114.86" r="3.79217"/>
</g>
<rect x="345.811" y="149.479" width="164.925" height="213.029" fill="#cccccc"/>
<g fill="black">
<circle cx="428.274" cy="175.073" r="3.79217"/>
</g>
<path d="M57.1929,362.508h 453.543" fill="none" stroke="black"/>
<path d="M57.1929,353.349v 9.15809" fill="none" stroke="black"/>
<path d="M77.8085,357.929v 4.57904" fill="none" stroke="black"/>
<path d="M98.4241,357.929v 4.57904" fill="none" stroke="black"/>
<path d="M119.04,357.929v 4.57904" fill="none" stroke="black"/>
<path d="M139.655,353.349v 9.15809" fill="none" stroke="black"/>
<path d="M160.271,357.929v 4.57904" fill="none" stroke="black"/>
<path d="M180.887,357.929v 4.57904" fill="none" stroke="black"/>
<path d="M201.502,357.929v 4.57904" fill="none" stroke="black"/>
<path d="M222.118,353.349v 9.15809" fill="none" stroke="black"/>
<path d="M242.733,357.929v 4.57904" fill="none" stroke="black"/>
<path d="M263.349,357.929v 4.57904" fill="none" stroke="black"/>
<path d="M283.965,357.929v 4.57904" fill="none" stroke="black"/>
<path d="M304.58,353.349v 9.15809" fill="none" stroke="black"/>
<path d="M325.196,357.929v 4.57904" fill="none" stroke="black"/>
<path d="M345.811,357.929v 4.57904" fill="none" stroke="black"/>
<path d="M366.427,357.929v 4.57904" fill="none" stroke="black"/>
<path d="M387.043,353.349v 9.15809" fill="none" stroke="black"/>
<path d="M407.658,357.929v 4.57904" fill="none" stroke="black"/>
<path d="M428.274,357.929v 4.57904" fill="none" stroke="black"/>
<path d="M448.889,357.929v 4.57904" fill="none" stroke="black"/>
<path d="M469.505,353.349v 9.15809" fill="none" stroke="black"/>
<path d="M469.505,353.349v 9.15809" fill="none" stroke="black"/>
<path d="M490.121,357.929v 4.57904" fill="none" stroke="black"/>
<path d="M510.736,357.929v 4.57904" fill="none" stroke="black"/>
<text xml:space="preserve" x="41.2658" y="380.165" fill="black" font-size="18.004" font-family="Helvetica">400</text>
<text xml:space="preserve" x="123.745" y="380.165" fill="black" font-size="18.004" font-family="Helvetica">600</text>
<text xml:space="preserve" x="206.225" y="380.165" fill="black" font-size="18.004" font-family="Helvetica">800</text>
<text xml:space="preserve" x="283.965" y="380.165" fill="black" font-size="18.004" font-family="Helvetica">1000</text>
<text xml:space="preserve" x="366.444" y="380.165" fill="black" font-size="18.004" font-family="Helvetica">1200</text>
<text xml:space="preserve" x="448.924" y="380.165" fill="black" font-size="18.004" font-family="Helvetica">1400</text>
<text xml:space="preserve" x="420.483" y="401.022" fill="black" font-size="21.5048" font-family="Helvetica">partonPt1</text>
<path d="M57.1929,362.508v -324.349" fill="none" stroke="black"/>
<path d="M71.6496,362.508h -14.4567" fill="none" stroke="black"/>
<text xml:space="preserve" x="44.1099" y="362.152" fill="black" font-size="12.1693" font-family="Helvetica">6</text>
<text xml:space="preserve" x="37.4736" y="362.152" fill="black" font-size="12.1693" font-family="Times">&#8722;</text>
<text xml:space="preserve" x="17.5648" y="370.684" fill="black" font-size="18.004" font-family="Helvetica">10</text>
<path d="M64.4213,341.729h -7.22835" fill="none" stroke="black"/>
<path d="M64.4213,329.574h -7.22835" fill="none" stroke="black"/>
<path d="M64.4213,320.95h -7.22835" fill="none" stroke="black"/>
<path d="M64.4213,314.261h -7.22835" fill="none" stroke="black"/>
<path d="M64.4213,308.795h -7.22835" fill="none" stroke="black"/>
<path d="M64.4213,304.174h -7.22835" fill="none" stroke="black"/>
<path d="M64.4213,300.171h -7.22835" fill="none" stroke="black"/>
<path d="M64.4213,296.64h -7.22835" fill="none" stroke="black"/>
<path d="M71.6496,293.482h -14.4567" fill="none" stroke="black"/>
<text xml:space="preserve" x="44.1099" y="292.945" fill="black" font-size="12.1693" font-family="Helvetica">5</text>
<text xml:space="preserve" x="37.4736" y="292.945" fill="black" font-size="12.1693" font-family="Times">&#8722;</text>
<text xml:space="preserve" x="17.5648" y="301.477" fill="black" font-size="18.004" font-family="Helvetica">10</text>
<path d="M64.4213,272.703h -7.22835" fill="none" stroke="black"/>
<path d="M64.4213,260.548h -7.22835" fill="none" stroke="black"/>
<path d="M64.4213,251.924h -7.22835" fill="none" stroke="black"/>
<path d="M64.4213,245.235h -7.22835" fill="none" stroke="black"/>
<path d="M64.4213,239.77h -7.22835" fill="none" stroke="black"/>
<path d="M64.4213,235.149h -7.22835" fill="none" stroke="black"/>
<path d="M64.4213,231.146h -7.22835" fill="none" stroke="black"/>
<path d="M64.4213,227.615h -7.22835" fill="none" stroke="black"/>
<path d="M71.6496,224.456h -14.4567" fill="none" stroke="black"/>
<text xml:space="preserve" x="44.1099" y="224.686" fill="black" font-size="12.1693" font-family="Helvetica">4</text>
<text xml:space="preserve" x="37.4736" y="224.686" fill="black" font-size="12.1693" font-family="Times">&#8722;</text>
<text xml:space="preserve" x="17.5648" y="232.27" fill="black" font-size="18.004" font-family="Helvetica">10</text>
<path d="M64.4213,203.678h -7.22835" fill="none" stroke="black"/>
<path d="M64.4213,191.523h -7.22835" fill="none" stroke="black"/>
<path d="M64.4213,182.899h -7.22835" fill="none" stroke="black"/>
<path d="M64.4213,176.21h -7.22835" fill="none" stroke="black"/>
<path d="M64.4213,170.744h -7.22835" fill="none" stroke="black"/>
<path d="M64.4213,166.123h -7.22835" fill="none" stroke="black"/>
<path d="M64.4213,162.12h -7.22835" fill="none" stroke="black"/>
<path d="M64.4213,158.589h -7.22835" fill="none" stroke="black"/>
<path d="M71.6496,155.431h -14.4567" fill="none" stroke="black"/>
<text xml:space="preserve" x="44.1099" y="154.531" fill="black" font-size="12.1693" font-family="Helvetica">3</text>
<text xml:space="preserve" x="37.4736" y="154.531" fill="black" font-size="12.1693" font-family="Times">&#8722;</text>
<text xml:space="preserve" x="17.5648" y="163.063" fill="black" font-size="18.004" font-family="Helvetica">10</text>
<path d="M64.4213,134.652h -7.22835" fill="none" stroke="black"/>
<path d="M64.4213,122.497h -7.22835" fill="none" stroke="black"/>
<path d="M64.4213,113.873h -7.22835" fill="none" stroke="black"/>
<path d="M64.4213,107.184h -7.22835" fill="none" stroke="black"/>
<path d="M64.4213,101.719h -7.22835" fill="none" stroke="black"/>
<path d="M64.4213,97.0976h -7.22835" fill="none" stroke="black"/>
<path d="M64.4213,93.0947h -7.22835" fill="none" stroke="black"/>
<path d="M64.4213,89.5639h -7.22835" fill="none" stroke="black"/>
<path d="M71.6496,86.4055h -14.4567" fill="none" stroke="black"/>
<text xml:space="preserve" x="44.1099" y="87.2199" fill="black" font-size="12.1693" font-family="Helvetica">2</text>
<text xml:space="preserve" x="37.4736" y="87.2199" fill="black" font-size="12.1693" font-family="Times">&#8722;</text>
<text xml:space="preserve" x="17.5648" y="94.8042" fill="black" font-size="18.004" font-family="Helvetica">10</text>
<path d="M64.4213,65.6267h -7.22835" fill="none" stroke="black"/>
<path d="M64.4213,53.4719h -7.22835" fill="none" stroke="black"/>
<path d="M64.4213,44.848h -7.22835" fill="none" stroke="black"/>
<path d="M64.4213,38.1587h -7.22835" fill="none" stroke="black"/>
<g transform="rotate(-90,0.5,50.2462)">
<text xml:space="preserve" x="0.5" y="50.2462" fill="black" font-size="21.5048" font-family="Times">&#0967;</text>
</g>
<g transform="rotate(-90,0.5,61.6227)">
<text xml:space="preserve" x="0.5" y="61.6227" fill="black" font-size="21.5048" font-family="Helvetica">d</text>
</g>
<g transform="rotate(-90,-23.201,51.1943)">
<text xml:space="preserve" x="-23.201" y="51.1943" fill="black" font-size="21.5048" font-family="Times">&#0963;</text>
</g>
<g transform="rotate(-90,-23.201,62.5708)">
<text xml:space="preserve" x="-23.201" y="62.5708" fill="black" font-size="21.5048" font-family="Helvetica">d</text>
</g>
<g transform="rotate(-90,-12.7726,70.1551)">
<text xml:space="preserve" x="-12.7726" y="70.1551" fill="black" font-size="21.5048" font-family="Helvetica"> </text>
</g>
<g transform="rotate(-90,-4.24021,83.4277)">
<text xml:space="preserve" x="-4.24021" y="83.4277" fill="black" font-size="21.5048" font-family="Times">&#0963;</text>
</g>
<g transform="rotate(-90,-22.253,80.5836)">
<text xml:space="preserve" x="-22.253" y="80.5836" fill="black" font-size="21.5048" font-family="Helvetica">1</text>
</g>
<path d="M191.194,62.0304v -2.83822" fill="none" stroke="black" stroke-width="2"/>
<path d="M191.194,59.1922v -2.59259" fill="none" stroke="black" stroke-width="2"/>
<path d="M160.271,59.1922h 30.9234" fill="none" stroke="black" stroke-width="2"/>
<path d="M191.194,59.1922h 30.9234" fill="none" stroke="black" stroke-width="2"/>
<g stroke="black" stroke-width="1" fill="none">
<line x1="190.194" y1="59.1922" x2="191.194" y2="59.1922"/>
</g>
<path d="M283.965,119.302v -4.44257" fill="none" stroke="black" stroke-width="2"/>
<path d="M283.965,114.86v -3.86838" fill="none" stroke="black" stroke-width="2"/>
<path d="M222.118,114.86h 61.8468" fill="none" stroke="black" stroke-width="2"/>
<path d="M283.965,114.86h 61.8468" fill="none" stroke="black" stroke-width="2"/>
<g stroke="black" stroke-width="1" fill="none">
<line x1="282.965" y1="114.86" x2="283.965" y2="114.86"/>
</g>
<path d="M428.274,187.205v -12.1313" fill="none" stroke="black" stroke-width="2"/>
<path d="M428.274,175.073v -8.61222" fill="none" stroke="black" stroke-width="2"/>
<path d="M345.811,175.073h 82.4624" fill="none" stroke="black" stroke-width="2"/>
<path d="M428.274,175.073h 82.4624" fill="none" stroke="black" stroke-width="2"/>
<g stroke="black" stroke-width="1" fill="none">
<line x1="427.274" y1="175.073" x2="428.274" y2="175.073"/>
</g>
<path d="M216.732,51.1547l 5.38579, 14.779" fill="none" stroke="#ff0000"/>
<path d="M205.872,51.1547l 8.3559, 22.9291" fill="none" stroke="#ff0000"/>
<path d="M195.013,51.1547l 8.3559, 22.9291" fill="none" stroke="#ff0000"/>
<path d="M184.153,51.1547l 8.3559, 22.9291" fill="none" stroke="#ff0000"/>
<path d="M173.293,51.1547l 8.3559, 22.9291" fill="none" stroke="#ff0000"/>
<path d="M162.434,51.1547l 8.3559, 22.9291" fill="none" stroke="#ff0000"/>
<g stroke="#ff0000" stroke-width="1" fill="none">
<line x1="190.194" y1="60.4784" x2="191.194" y2="60.4784"/>
</g>
<path d="M342.494,98.2591l 3.31709, 9.10232" fill="none" stroke="#ff0000"/>
<path d="M331.635,98.2591l 14.1767, 38.9019" fill="none" stroke="#ff0000"/>
<path d="M320.775,98.2591l 22.6525, 62.1601" fill="none" stroke="#ff0000"/>
<path d="M309.915,98.2591l 22.6525, 62.1601" fill="none" stroke="#ff0000"/>
<path d="M299.056,98.2591l 22.6525, 62.1601" fill="none" stroke="#ff0000"/>
<path d="M288.196,98.2591l 22.6525, 62.1601" fill="none" stroke="#ff0000"/>
<path d="M277.336,98.2591l 22.6525, 62.1601" fill="none" stroke="#ff0000"/>
<path d="M266.477,98.2591l 22.6525, 62.1601" fill="none" stroke="#ff0000"/>
<path d="M255.617,98.2591l 22.6525, 62.1601" fill="none" stroke="#ff0000"/>
<path d="M244.758,98.2591l 22.6525, 62.1601" fill="none" stroke="#ff0000"/>
<path d="M233.898,98.2591l 22.6525, 62.1601" fill="none" stroke="#ff0000"/>
<path d="M223.038,98.2591l 22.6525, 62.1601" fill="none" stroke="#ff0000"/>
<path d="M222.118,125.533l 12.7134, 34.8864" fill="none" stroke="#ff0000"/>
<path d="M222.118,155.332l 1.85375, 5.08681" fill="none" stroke="#ff0000"/>
<g stroke="#ff0000" stroke-width="1" fill="none">
<line x1="282.965" y1="115.487" x2="283.965" y2="115.487"/>
</g>
<path d="M507.369,163.291l 3.36743, 9.24046" fill="none" stroke="#ff0000"/>
<path d="M496.509,163.291l 14.2271, 39.0401" fill="none" stroke="#ff0000"/>
<path d="M485.65,163.291l 25.0867, 68.8397" fill="none" stroke="#ff0000"/>
<path d="M474.79,163.291l 35.9464, 98.6393" fill="none" stroke="#ff0000"/>
<path d="M463.93,163.291l 46.806, 128.439" fill="none" stroke="#ff0000"/>
<path d="M453.071,163.291l 57.6656, 158.238" fill="none" stroke="#ff0000"/>
<path d="M442.211,163.291l 68.5253, 188.038" fill="none" stroke="#ff0000"/>
<path d="M431.351,163.291l 72.5989, 199.216" fill="none" stroke="#ff0000"/>
<path d="M420.492,163.291l 72.5989, 199.216" fill="none" stroke="#ff0000"/>
<path d="M409.632,163.291l 72.5989, 199.216" fill="none" stroke="#ff0000"/>
<path d="M398.772,163.291l 72.5989, 199.216" fill="none" stroke="#ff0000"/>
<path d="M387.913,163.291l 72.5989, 199.216" fill="none" stroke="#ff0000"/>
<path d="M377.053,163.291l 72.5989, 199.216" fill="none" stroke="#ff0000"/>
<path d="M366.193,163.291l 72.5989, 199.216" fill="none" stroke="#ff0000"/>
<path d="M355.334,163.291l 72.5989, 199.216" fill="none" stroke="#ff0000"/>
<path d="M345.811,166.961l 71.2617, 195.547" fill="none" stroke="#ff0000"/>
<path d="M345.811,196.76l 60.402, 165.747" fill="none" stroke="#ff0000"/>
<path d="M345.811,226.56l 49.5424, 135.948" fill="none" stroke="#ff0000"/>
<path d="M345.811,256.359l 38.6828, 106.148" fill="none" stroke="#ff0000"/>
<path d="M345.811,286.159l 27.8231, 76.3485" fill="none" stroke="#ff0000"/>
<path d="M345.811,315.959l 16.9635, 46.5489" fill="none" stroke="#ff0000"/>
<path d="M345.811,345.758l 6.10383, 16.7493" fill="none" stroke="#ff0000"/>
<g stroke="#ff0000" stroke-width="1" fill="none">
<line x1="427.274" y1="192.415" x2="428.274" y2="192.415"/>
</g>
<path d="M191.194,60.5526v -0.0741515" fill="none" stroke="#ff0000" stroke-width="2"/>
<path d="M191.194,60.4784v -0.0739685" fill="none" stroke="#ff0000" stroke-width="2"/>
<path d="M160.271,60.4784h 30.9234" fill="none" stroke="#ff0000" stroke-width="2"/>
<path d="M191.194,60.4784h 30.9234" fill="none" stroke="#ff0000" stroke-width="2"/>
<g stroke="#ff0000" stroke-width="1" fill="none">
<line x1="190.194" y1="60.4784" x2="191.194" y2="60.4784"/>
</g>
<path d="M283.965,115.626v -0.138556" fill="none" stroke="#ff0000" stroke-width="2"/>
<path d="M283.965,115.487v -0.137918" fill="none" stroke="#ff0000" stroke-width="2"/>
<path d="M222.118,115.487h 61.8468" fill="none" stroke="#ff0000" stroke-width="2"/>
<path d="M283.965,115.487h 61.8468" fill="none" stroke="#ff0000" stroke-width="2"/>
<g stroke="#ff0000" stroke-width="1" fill="none">
<line x1="282.965" y1="115.487" x2="283.965" y2="115.487"/>
</g>
<path d="M428.274,192.89v -0.474815" fill="none" stroke="#ff0000" stroke-width="2"/>
<path d="M428.274,192.415v -0.467411" fill="none" stroke="#ff0000" stroke-width="2"/>
<path d="M345.811,192.415h 82.4624" fill="none" stroke="#ff0000" stroke-width="2"/>
<path d="M428.274,192.415h 82.4624" fill="none" stroke="#ff0000" stroke-width="2"/>
<g stroke="#ff0000" stroke-width="1" fill="none">
<line x1="427.274" y1="192.415" x2="428.274" y2="192.415"/>
</g>
<rect x="334.988" y="41.9746" width="170.079" height="114.476" fill="white"/>
<text xml:space="preserve" x="376.873" y="60.6747" fill="black" font-size="12.4517" font-family="Helvetica">Data</text>
<path d="M356.248,52.4919v -4.79354" fill="none" stroke="black" stroke-width="2"/>
<path d="M356.248,60.0762v 4.79354" fill="none" stroke="black" stroke-width="2"/>
<g fill="black">
<circle cx="356.248" cy="56.2841" r="3.79217"/>
</g>
<text xml:space="preserve" x="376.873" y="89.116" fill="black" font-size="12.4517" font-family="Helvetica">Total unc.</text>
<path d="M341.366,94.9198h 29.7638v -20.0333h -29.7638z" fill="#cccccc"/>
<path d="M341.366,74.8864h 29.7638" fill="none" stroke="black" stroke-width="2"/>
<path d="M341.366,94.9198h 29.7638" fill="none" stroke="black" stroke-width="2"/>
<path d="M371.13,94.9198v -20.0333" fill="none" stroke="black" stroke-width="2"/>
<path d="M341.366,94.9198v -20.0333" fill="none" stroke="black" stroke-width="2"/>
<text xml:space="preserve" x="376.873" y="116.609" fill="black" font-size="12.4517" font-family="Helvetica">Powheg+Pythia8</text>
<path d="M341.366,113.522h 29.7638" fill="none" stroke="#ff0000" stroke-width="2"/>
<path d="M356.248,122.108v -17.1714" fill="none" stroke="#ff0000" stroke-width="2"/>
<text xml:space="preserve" x="376.873" y="145.05" fill="black" font-size="12.4517" font-family="Helvetica">Powheg+Pythia8 unc</text>
<path d="M365.695,132.124l 5.43468, 14.9131" fill="none" stroke="#ff0000"/>
<path d="M354.836,132.124l 7.30059, 20.0333" fill="none" stroke="#ff0000"/>
<path d="M343.976,132.124l 7.30059, 20.0333" fill="none" stroke="#ff0000"/>
<path d="M341.366,132.124h 29.7638" fill="none" stroke="#ff0000" stroke-width="2"/>
<path d="M341.366,152.158h 29.7638" fill="none" stroke="#ff0000" stroke-width="2"/>
<path d="M371.13,152.158v -20.0333" fill="none" stroke="#ff0000" stroke-width="2"/>
<path d="M341.366,152.158v -20.0333" fill="none" stroke="#ff0000" stroke-width="2"/>
<text xml:space="preserve" x="420.483" y="30.3373" fill="black" font-size="21.5048" font-family="Helvetica"> (13 TeV)</text>
<text xml:space="preserve" x="410.054" y="19.9089" fill="black" font-size="14.5032" font-family="Helvetica">-1</text>
<text xml:space="preserve" x="343.691" y="30.3373" fill="black" font-size="21.5048" font-family="Helvetica">20.1 fb</text>
<text xml:space="preserve" x="57.1929" y="30.527" fill="black" font-size="26.756" font-family="Helvetica" font-weight="bold">CMS</text>
<text xml:space="preserve" x="77.2914" y="64.4669" fill="black" font-size="20.4545" font-family="Helvetica" font-style="oblique">Work in progress</text>
<rect x="0.5" y="381.587" width="566.929" height="136.281" fill="white"/>
<rect x="57.1929" y="385.675" width="453.543" height="102.211" fill="white"/>
<rect x="57.1929" y="385.675" width="453.543" height="102.211" fill="none" stroke="black"/>
<rect x="57.1929" y="385.675" width="453.543" height="102.211" fill="white"/>
<rect x="57.1929" y="385.675" width="453.543" height="102.211" fill="none" stroke="black"/>
<path d="M57.1929,487.886h 453.543" fill="none" stroke="black"/>
<path d="M57.1929,487.886v -102.211" fill="none" stroke="black"/>
<path d="M510.736,487.886h -453.543" fill="none" stroke="black" stroke-dasharray=" 1, 2"/>
<path d="M510.736,462.333h -453.543" fill="none" stroke="black" stroke-dasharray=" 1, 2"/>
<path d="M510.736,436.781h -453.543" fill="none" stroke="black" stroke-dasharray=" 1, 2"/>
<path d="M510.736,411.228h -453.543" fill="none" stroke="black" stroke-dasharray=" 1, 2"/>
<path d="M510.736,385.675h -453.543" fill="none" stroke="black" stroke-dasharray=" 1, 2"/>
<rect x="57.1929" y="429.999" width="20.6156" height="13.5632" fill="#cccccc"/>
<g fill="black">
<circle cx="67.5007" cy="436.781" r="3.79217"/>
</g>
<rect x="77.8085" y="431.316" width="20.6156" height="10.9304" fill="#cccccc"/>
<g fill="black">
<circle cx="88.1163" cy="436.781" r="3.79217"/>
</g>
<rect x="98.4241" y="429.261" width="28.8618" height="15.0387" fill="#cccccc"/>
<g fill="black">
<circle cx="112.855" cy="436.781" r="3.79217"/>
</g>
<rect x="127.286" y="428.874" width="32.985" height="15.8141" fill="#cccccc"/>
<g fill="black">
<circle cx="143.778" cy="436.781" r="3.79217"/>
</g>
<rect x="160.271" y="428.896" width="61.8468" height="15.769" fill="#cccccc"/>
<g fill="black">
<circle cx="191.194" cy="436.781" r="3.79217"/>
</g>
<rect x="222.118" y="418.546" width="123.694" height="36.4705" fill="#cccccc"/>
<g fill="black">
<circle cx="283.965" cy="436.781" r="3.79217"/>
</g>
<rect x="345.811" y="401.288" width="164.925" height="70.9864" fill="#cccccc"/>
<g fill="black">
<circle cx="428.274" cy="436.781" r="3.79217"/>
</g>
<path d="M57.1929,487.886h 453.543" fill="none" stroke="black"/>
<path d="M57.1929,484.615v 3.27075" fill="none" stroke="black"/>
<path d="M77.8085,486.251v 1.63537" fill="none" stroke="black"/>
<path d="M98.4241,486.251v 1.63537" fill="none" stroke="black"/>
<path d="M119.04,486.251v 1.63537" fill="none" stroke="black"/>
<path d="M139.655,484.615v 3.27075" fill="none" stroke="black"/>
<path d="M160.271,486.251v 1.63537" fill="none" stroke="black"/>
<path d="M180.887,486.251v 1.63537" fill="none" stroke="black"/>
<path d="M201.502,486.251v 1.63537" fill="none" stroke="black"/>
<path d="M222.118,484.615v 3.27075" fill="none" stroke="black"/>
<path d="M242.733,486.251v 1.63537" fill="none" stroke="black"/>
<path d="M263.349,486.251v 1.63537" fill="none" stroke="black"/>
<path d="M283.965,486.251v 1.63537" fill="none" stroke="black"/>
<path d="M304.58,484.615v 3.27075" fill="none" stroke="black"/>
<path d="M325.196,486.251v 1.63537" fill="none" stroke="black"/>
<path d="M345.811,486.251v 1.63537" fill="none" stroke="black"/>
<path d="M366.427,486.251v 1.63537" fill="none" stroke="black"/>
<path d="M387.043,484.615v 3.27075" fill="none" stroke="black"/>
<path d="M407.658,486.251v 1.63537" fill="none" stroke="black"/>
<path d="M428.274,486.251v 1.63537" fill="none" stroke="black"/>
<path d="M448.889,486.251v 1.63537" fill="none" stroke="black"/>
<path d="M469.505,484.615v 3.27075" fill="none" stroke="black"/>
<path d="M469.505,484.615v 3.27075" fill="none" stroke="black"/>
<path d="M490.121,486.251v 1.63537" fill="none" stroke="black"/>
<path d="M510.736,486.251v 1.63537" fill="none" stroke="black"/>
<text xml:space="preserve" x="43.1619" y="502.462" fill="black" font-size="15.5034" font-family="Helvetica">400</text>
<text xml:space="preserve" x="125.642" y="502.462" fill="black" font-size="15.5034" font-family="Helvetica">600</text>
<text xml:space="preserve" x="208.121" y="502.462" fill="black" font-size="15.5034" font-family="Helvetica">800</text>
<text xml:space="preserve" x="286.809" y="502.462" fill="black" font-size="15.5034" font-family="Helvetica">1000</text>
<text xml:space="preserve" x="369.288" y="502.462" fill="black" font-size="15.5034" font-family="Helvetica">1200</text>
<text xml:space="preserve" x="451.768" y="502.462" fill="black" font-size="15.5034" font-family="Helvetica">1400</text>
<text xml:space="preserve" x="336.107" y="517.631" fill="black" font-size="14.8783" font-family="Helvetica">Subleading parton Pt (GeV)</text>
<path d="M57.1929,487.886v -102.211" fill="none" stroke="black"/>
<path d="M69.9488,487.886h -12.7559" fill="none" stroke="black"/>
<path d="M63.5709,482.776h -6.37795" fill="none" stroke="black"/>
<path d="M63.5709,477.665h -6.37795" fill="none" stroke="black"/>
<path d="M63.5709,472.555h -6.37795" fill="none" stroke="black"/>
<path d="M63.5709,467.444h -6.37795" fill="none" stroke="black"/>
<path d="M69.9488,462.333h -12.7559" fill="none" stroke="black"/>
<path d="M63.5709,457.223h -6.37795" fill="none" stroke="black"/>
<path d="M63.5709,452.112h -6.37795" fill="none" stroke="black"/>
<path d="M63.5709,447.002h -6.37795" fill="none" stroke="black"/>
<path d="M63.5709,441.891h -6.37795" fill="none" stroke="black"/>
<path d="M69.9488,436.781h -12.7559" fill="none" stroke="black"/>
<path d="M63.5709,431.67h -6.37795" fill="none" stroke="black"/>
<path d="M63.5709,426.56h -6.37795" fill="none" stroke="black"/>
<path d="M63.5709,421.449h -6.37795" fill="none" stroke="black"/>
<path d="M63.5709,416.339h -6.37795" fill="none" stroke="black"/>
<path d="M69.9488,411.228h -12.7559" fill="none" stroke="black"/>
<path d="M63.5709,406.118h -6.37795" fill="none" stroke="black"/>
<path d="M63.5709,401.007h -6.37795" fill="none" stroke="black"/>
<path d="M63.5709,395.896h -6.37795" fill="none" stroke="black"/>
<path d="M63.5709,390.786h -6.37795" fill="none" stroke="black"/>
<path d="M69.9488,385.675h -12.7559" fill="none" stroke="black"/>
<text xml:space="preserve" x="46.006" y="492.982" fill="black" font-size="13.0028" font-family="Helvetica">2</text>
<text xml:space="preserve" x="38.4217" y="492.982" fill="black" font-size="13.0028" font-family="Times">&#8722;</text>
<text xml:space="preserve" x="47.9021" y="467.385" fill="black" font-size="13.0028" font-family="Helvetica">1</text>
<text xml:space="preserve" x="40.3178" y="467.385" fill="black" font-size="13.0028" font-family="Times">&#8722;</text>
<text xml:space="preserve" x="46.006" y="440.84" fill="black" font-size="13.0028" font-family="Helvetica">0</text>
<text xml:space="preserve" x="47.9021" y="416.19" fill="black" font-size="13.0028" font-family="Helvetica">1</text>
<text xml:space="preserve" x="46.006" y="390.593" fill="black" font-size="13.0028" font-family="Helvetica">2</text>
<g transform="rotate(-90,26.0971,474.969)">
<text xml:space="preserve" x="26.0971" y="474.969" fill="black" font-size="14.8783" font-family="Helvetica">The./data - 1</text>
</g>
<path d="M67.5007,441.731v -4.94998" fill="none" stroke="black" stroke-width="2"/>
<path d="M67.5007,436.781v -4.94998" fill="none" stroke="black" stroke-width="2"/>
<path d="M57.1929,436.781h 10.3078" fill="none" stroke="black" stroke-width="2"/>
<path d="M67.5007,436.781h 10.3078" fill="none" stroke="black" stroke-width="2"/>
<g stroke="black" stroke-width="1" fill="none">
<line x1="66.5007" y1="436.781" x2="67.5007" y2="436.781"/>
</g>
<path d="M88.1163,441.082v -4.30135" fill="none" stroke="black" stroke-width="2"/>
<path d="M88.1163,436.781v -4.30135" fill="none" stroke="black" stroke-width="2"/>
<path d="M77.8085,436.781h 10.3078" fill="none" stroke="black" stroke-width="2"/>
<path d="M88.1163,436.781h 10.3078" fill="none" stroke="black" stroke-width="2"/>
<g stroke="black" stroke-width="1" fill="none">
<line x1="87.1163" y1="436.781" x2="88.1163" y2="436.781"/>
</g>
<path d="M112.855,440.621v -3.84071" fill="none" stroke="black" stroke-width="2"/>
<path d="M112.855,436.781v -3.84071" fill="none" stroke="black" stroke-width="2"/>
<path d="M98.4241,436.781h 14.4309" fill="none" stroke="black" stroke-width="2"/>
<path d="M112.855,436.781h 14.4309" fill="none" stroke="black" stroke-width="2"/>
<g stroke="black" stroke-width="1" fill="none">
<line x1="111.855" y1="436.781" x2="112.855" y2="436.781"/>
</g>
<path d="M143.778,441.347v -4.56607" fill="none" stroke="black" stroke-width="2"/>
<path d="M143.778,436.781v -4.56607" fill="none" stroke="black" stroke-width="2"/>
<path d="M127.286,436.781h 16.4925" fill="none" stroke="black" stroke-width="2"/>
<path d="M143.778,436.781h 16.4925" fill="none" stroke="black" stroke-width="2"/>
<g stroke="black" stroke-width="1" fill="none">
<line x1="142.778" y1="436.781" x2="143.778" y2="436.781"/>
</g>
<path d="M191.194,440.045v -3.26442" fill="none" stroke="black" stroke-width="2"/>
<path d="M191.194,436.781v -3.26442" fill="none" stroke="black" stroke-width="2"/>
<path d="M160.271,436.781h 30.9234" fill="none" stroke="black" stroke-width="2"/>
<path d="M191.194,436.781h 30.9234" fill="none" stroke="black" stroke-width="2"/>
<g stroke="black" stroke-width="1" fill="none">
<line x1="190.194" y1="436.781" x2="191.194" y2="436.781"/>
</g>
<path d="M283.965,441.758v -4.97747" fill="none" stroke="black" stroke-width="2"/>
<path d="M283.965,436.781v -4.97747" fill="none" stroke="black" stroke-width="2"/>
<path d="M222.118,436.781h 61.8468" fill="none" stroke="black" stroke-width="2"/>
<path d="M283.965,436.781h 61.8468" fill="none" stroke="black" stroke-width="2"/>
<g stroke="black" stroke-width="1" fill="none">
<line x1="282.965" y1="436.781" x2="283.965" y2="436.781"/>
</g>
<path d="M428.274,448.808v -12.0268" fill="none" stroke="black" stroke-width="2"/>
<path d="M428.274,436.781v -12.0268" fill="none" stroke="black" stroke-width="2"/>
<path d="M345.811,436.781h 82.4624" fill="none" stroke="black" stroke-width="2"/>
<path d="M428.274,436.781h 82.4624" fill="none" stroke="black" stroke-width="2"/>
<g stroke="black" stroke-width="1" fill="none">
<line x1="427.274" y1="436.781" x2="428.274" y2="436.781"/>
</g>
<path d="M76.4157,428.234l 1.39279, 3.82003" fill="none" stroke="#ff0000"/>
<path d="M65.5561,428.234l 3.10869, 8.52624" fill="none" stroke="#ff0000"/>
<path d="M57.1929,435.082l 0.612221, 1.67914" fill="none" stroke="#ff0000"/>
<g stroke="#ff0000" stroke-width="1" fill="none">
<line x1="66.5007" y1="432.498" x2="67.5007" y2="432.498"/>
</g>
<path d="M90.4328,436.894l 2.11033, 5.78802" fill="none" stroke="#ff0000"/>
<path d="M79.5732,436.894l 2.11033, 5.78802" fill="none" stroke="#ff0000"/>
<g stroke="#ff0000" stroke-width="1" fill="none">
<line x1="87.1163" y1="439.788" x2="88.1163" y2="439.788"/>
</g>
<path d="M122.783,436.268l 1.89021, 5.1843" fill="none" stroke="#ff0000"/>
<path d="M111.924,436.268l 1.89021, 5.1843" fill="none" stroke="#ff0000"/>
<path d="M101.064,436.268l 1.89021, 5.1843" fill="none" stroke="#ff0000"/>
<g stroke="#ff0000" stroke-width="1" fill="none">
<line x1="111.855" y1="438.86" x2="112.855" y2="438.86"/>
</g>
<path d="M153.113,430.098l 3.7492, 10.283" fill="none" stroke="#ff0000"/>
<path d="M142.253,430.098l 3.7492, 10.283" fill="none" stroke="#ff0000"/>
<path d="M131.394,430.098l 3.7492, 10.283" fill="none" stroke="#ff0000"/>
<g stroke="#ff0000" stroke-width="1" fill="none">
<line x1="142.778" y1="435.24" x2="143.778" y2="435.24"/>
</g>
<path d="M217.744,428.654l 4.3739, 11.9963" fill="none" stroke="#ff0000"/>
<path d="M206.884,428.654l 6.70902, 18.4009" fill="none" stroke="#ff0000"/>
<path d="M196.025,428.654l 6.70902, 18.4009" fill="none" stroke="#ff0000"/>
<path d="M185.165,428.654l 6.70902, 18.4009" fill="none" stroke="#ff0000"/>
<path d="M174.305,428.654l 6.70902, 18.4009" fill="none" stroke="#ff0000"/>
<path d="M163.446,428.654l 6.70902, 18.4009" fill="none" stroke="#ff0000"/>
<g stroke="#ff0000" stroke-width="1" fill="none">
<line x1="190.194" y1="437.854" x2="191.194" y2="437.854"/>
</g>
<path d="M344.02,417.573l 1.79164, 4.91394" fill="none" stroke="#ff0000"/>
<path d="M333.16,417.573l 12.6513, 34.6988" fill="none" stroke="#ff0000"/>
<path d="M322.3,417.573l 14.3921, 39.4734" fill="none" stroke="#ff0000"/>
<path d="M311.441,417.573l 14.3921, 39.4734" fill="none" stroke="#ff0000"/>
<path d="M300.581,417.573l 14.3921, 39.4734" fill="none" stroke="#ff0000"/>
<path d="M289.722,417.573l 14.3921, 39.4734" fill="none" stroke="#ff0000"/>
<path d="M278.862,417.573l 14.3921, 39.4734" fill="none" stroke="#ff0000"/>
<path d="M268.002,417.573l 14.3921, 39.4734" fill="none" stroke="#ff0000"/>
<path d="M257.143,417.573l 14.3921, 39.4734" fill="none" stroke="#ff0000"/>
<path d="M246.283,417.573l 14.3921, 39.4734" fill="none" stroke="#ff0000"/>
<path d="M235.423,417.573l 14.3921, 39.4734" fill="none" stroke="#ff0000"/>
<path d="M224.564,417.573l 14.3921, 39.4734" fill="none" stroke="#ff0000"/>
<path d="M222.118,440.65l 5.97843, 16.3971" fill="none" stroke="#ff0000"/>
<g stroke="#ff0000" stroke-width="1" fill="none">
<line x1="282.965" y1="437.31" x2="283.965" y2="437.31"/>
</g>
<path d="M509.257,424l 1.4789, 4.05619" fill="none" stroke="#ff0000"/>
<path d="M498.398,424l 12.3385, 33.841" fill="none" stroke="#ff0000"/>
<path d="M487.538,424l 17.5049, 48.0109" fill="none" stroke="#ff0000"/>
<path d="M476.678,424l 17.5049, 48.0109" fill="none" stroke="#ff0000"/>
<path d="M465.819,424l 17.5049, 48.0109" fill="none" stroke="#ff0000"/>
<path d="M454.959,424l 17.5049, 48.0109" fill="none" stroke="#ff0000"/>
<path d="M444.099,424l 17.5049, 48.0109" fill="none" stroke="#ff0000"/>
<path d="M433.24,424l 17.5049, 48.0109" fill="none" stroke="#ff0000"/>
<path d="M422.38,424l 17.5049, 48.0109" fill="none" stroke="#ff0000"/>
<path d="M411.521,424l 17.5049, 48.0109" fill="none" stroke="#ff0000"/>
<path d="M400.661,424l 17.5049, 48.0109" fill="none" stroke="#ff0000"/>
<path d="M389.801,424l 17.5049, 48.0109" fill="none" stroke="#ff0000"/>
<path d="M378.942,424l 17.5049, 48.0109" fill="none" stroke="#ff0000"/>
<path d="M368.082,424l 17.5049, 48.0109" fill="none" stroke="#ff0000"/>
<path d="M357.222,424l 17.5049, 48.0109" fill="none" stroke="#ff0000"/>
<path d="M346.363,424l 17.5049, 48.0109" fill="none" stroke="#ff0000"/>
<path d="M345.811,452.272l 7.19663, 19.7382" fill="none" stroke="#ff0000"/>
<g stroke="#ff0000" stroke-width="1" fill="none">
<line x1="427.274" y1="448.005" x2="428.274" y2="448.005"/>
</g>
<path d="M67.5007,436.585v -4.08698" fill="none" stroke="#ff0000" stroke-width="2"/>
<path d="M67.5007,432.498v -4.08698" fill="none" stroke="#ff0000" stroke-width="2"/>
<path d="M57.1929,432.498h 10.3078" fill="none" stroke="#ff0000" stroke-width="2"/>
<path d="M67.5007,432.498h 10.3078" fill="none" stroke="#ff0000" stroke-width="2"/>
<g stroke="#ff0000" stroke-width="1" fill="none">
<line x1="66.5007" y1="432.498" x2="67.5007" y2="432.498"/>
</g>
<path d="M88.1163,442.472v -2.68362" fill="none" stroke="#ff0000" stroke-width="2"/>
<path d="M88.1163,439.788v -2.68362" fill="none" stroke="#ff0000" stroke-width="2"/>
<path d="M77.8085,439.788h 10.3078" fill="none" stroke="#ff0000" stroke-width="2"/>
<path d="M88.1163,439.788h 10.3078" fill="none" stroke="#ff0000" stroke-width="2"/>
<g stroke="#ff0000" stroke-width="1" fill="none">
<line x1="87.1163" y1="439.788" x2="88.1163" y2="439.788"/>
</g>
<path d="M112.855,441.355v -2.49496" fill="none" stroke="#ff0000" stroke-width="2"/>
<path d="M112.855,438.86v -2.49496" fill="none" stroke="#ff0000" stroke-width="2"/>
<path d="M98.4241,438.86h 14.4309" fill="none" stroke="#ff0000" stroke-width="2"/>
<path d="M112.855,438.86h 14.4309" fill="none" stroke="#ff0000" stroke-width="2"/>
<g stroke="#ff0000" stroke-width="1" fill="none">
<line x1="111.855" y1="438.86" x2="112.855" y2="438.86"/>
</g>
<path d="M143.778,438.664v -3.42377" fill="none" stroke="#ff0000" stroke-width="2"/>
<path d="M143.778,435.24v -3.42377" fill="none" stroke="#ff0000" stroke-width="2"/>
<path d="M127.286,435.24h 16.4925" fill="none" stroke="#ff0000" stroke-width="2"/>
<path d="M143.778,435.24h 16.4925" fill="none" stroke="#ff0000" stroke-width="2"/>
<g stroke="#ff0000" stroke-width="1" fill="none">
<line x1="142.778" y1="435.24" x2="143.778" y2="435.24"/>
</g>
<path d="M191.194,440.066v -2.21218" fill="none" stroke="#ff0000" stroke-width="2"/>
<path d="M191.194,437.854v -2.21218" fill="none" stroke="#ff0000" stroke-width="2"/>
<path d="M160.271,437.854h 30.9234" fill="none" stroke="#ff0000" stroke-width="2"/>
<path d="M191.194,437.854h 30.9234" fill="none" stroke="#ff0000" stroke-width="2"/>
<g stroke="#ff0000" stroke-width="1" fill="none">
<line x1="190.194" y1="437.854" x2="191.194" y2="437.854"/>
</g>
<path d="M283.965,440.759v -3.44861" fill="none" stroke="#ff0000" stroke-width="2"/>
<path d="M283.965,437.31v -3.44861" fill="none" stroke="#ff0000" stroke-width="2"/>
<path d="M222.118,437.31h 61.8468" fill="none" stroke="#ff0000" stroke-width="2"/>
<path d="M283.965,437.31h 61.8468" fill="none" stroke="#ff0000" stroke-width="2"/>
<g stroke="#ff0000" stroke-width="1" fill="none">
<line x1="282.965" y1="437.31" x2="283.965" y2="437.31"/>
</g>
<path d="M428.274,452.779v -4.77397" fill="none" stroke="#ff0000" stroke-width="2"/>
<path d="M428.274,448.005v -4.77397" fill="none" stroke="#ff0000" stroke-width="2"/>
<path d="M345.811,448.005h 82.4624" fill="none" stroke="#ff0000" stroke-width="2"/>
<path d="M428.274,448.005h 82.4624" fill="none" stroke="#ff0000" stroke-width="2"/>
<g stroke="#ff0000" stroke-width="1" fill="none">
<line x1="427.274" y1="448.005" x2="428.274" y2="448.005"/>
</g></svg>
