<?xml version="1.0" standalone="no"?>
<svg width="567.429" height="545.624" viewBox="0 0 567.429 545.624" xmlns="http://www.w3.org/2000/svg" shape-rendering="crispEdges">
<title>
/Users/georgebakas/Documents/HEP-NTUA_ul/VariationHandling/FinalResults/results/FinalResult_cosTheta_0.svg
</title>
<desc>
Creator: ROOT Version 6.22/02
CreationDate: Tue Nov 23 23:22:49 2021</desc>
<defs>
</defs>
<rect x="0.5" y="0" width="566.929" height="545.124" fill="white"/>
<rect x="0.5" y="0" width="566.929" height="381.587" fill="white"/>
<rect x="57.1929" y="38.1587" width="453.543" height="324.349" fill="white"/>
<rect x="57.1929" y="38.1587" width="453.543" height="324.349" fill="none" stroke="black"/>
<rect x="57.1929" y="38.1587" width="453.543" height="324.349" fill="white"/>
<rect x="57.1929" y="38.1587" width="453.543" height="324.349" fill="none" stroke="black"/>
<path d="M57.1929,362.508h 453.543" fill="none" stroke="black"/>
<path d="M57.1929,353.349v 9.15809" fill="none" stroke="black"/>
<path d="M68.5315,357.929v 4.57904" fill="none" stroke="black"/>
<path d="M79.8701,357.929v 4.57904" fill="none" stroke="black"/>
<path d="M91.2087,357.929v 4.57904" fill="none" stroke="black"/>
<path d="M102.547,353.349v 9.15809" fill="none" stroke="black"/>
<path d="M113.886,357.929v 4.57904" fill="none" stroke="black"/>
<path d="M125.224,357.929v 4.57904" fill="none" stroke="black"/>
<path d="M136.563,357.929v 4.57904" fill="none" stroke="black"/>
<path d="M147.902,353.349v 9.15809" fill="none" stroke="black"/>
<path d="M159.24,357.929v 4.57904" fill="none" stroke="black"/>
<path d="M170.579,357.929v 4.57904" fill="none" stroke="black"/>
<path d="M181.917,357.929v 4.57904" fill="none" stroke="black"/>
<path d="M193.256,353.349v 9.15809" fill="none" stroke="black"/>
<path d="M204.594,357.929v 4.57904" fill="none" stroke="black"/>
<path d="M215.933,357.929v 4.57904" fill="none" stroke="black"/>
<path d="M227.272,357.929v 4.57904" fill="none" stroke="black"/>
<path d="M238.61,353.349v 9.15809" fill="none" stroke="black"/>
<path d="M249.949,357.929v 4.57904" fill="none" stroke="black"/>
<path d="M261.287,357.929v 4.57904" fill="none" stroke="black"/>
<path d="M272.626,357.929v 4.57904" fill="none" stroke="black"/>
<path d="M283.965,353.349v 9.15809" fill="none" stroke="black"/>
<path d="M295.303,357.929v 4.57904" fill="none" stroke="black"/>
<path d="M306.642,357.929v 4.57904" fill="none" stroke="black"/>
<path d="M317.98,357.929v 4.57904" fill="none" stroke="black"/>
<path d="M329.319,353.349v 9.15809" fill="none" stroke="black"/>
<path d="M340.657,357.929v 4.57904" fill="none" stroke="black"/>
<path d="M351.996,357.929v 4.57904" fill="none" stroke="black"/>
<path d="M363.335,357.929v 4.57904" fill="none" stroke="black"/>
<path d="M374.673,353.349v 9.15809" fill="none" stroke="black"/>
<path d="M386.012,357.929v 4.57904" fill="none" stroke="black"/>
<path d="M397.35,357.929v 4.57904" fill="none" stroke="black"/>
<path d="M408.689,357.929v 4.57904" fill="none" stroke="black"/>
<path d="M420.028,353.349v 9.15809" fill="none" stroke="black"/>
<path d="M431.366,357.929v 4.57904" fill="none" stroke="black"/>
<path d="M442.705,357.929v 4.57904" fill="none" stroke="black"/>
<path d="M454.043,357.929v 4.57904" fill="none" stroke="black"/>
<path d="M465.382,353.349v 9.15809" fill="none" stroke="black"/>
<path d="M476.72,357.929v 4.57904" fill="none" stroke="black"/>
<path d="M488.059,357.929v 4.57904" fill="none" stroke="black"/>
<path d="M499.398,357.929v 4.57904" fill="none" stroke="black"/>
<path d="M510.736,353.349v 9.15809" fill="none" stroke="black"/>
<path d="M57.1929,353.349v 9.15809" fill="none" stroke="black"/>
<text xml:space="preserve" x="57.3825" y="380.165" fill="black" font-size="18.004" font-family="Helvetica">1</text>
<text xml:space="preserve" x="47.9021" y="380.165" fill="black" font-size="18.004" font-family="Times">&#8722;</text>
<text xml:space="preserve" x="94.3562" y="380.165" fill="black" font-size="18.004" font-family="Helvetica">0.8</text>
<text xml:space="preserve" x="83.9277" y="380.165" fill="black" font-size="18.004" font-family="Times">&#8722;</text>
<text xml:space="preserve" x="139.862" y="380.165" fill="black" font-size="18.004" font-family="Helvetica">0.6</text>
<text xml:space="preserve" x="129.434" y="380.165" fill="black" font-size="18.004" font-family="Times">&#8722;</text>
<text xml:space="preserve" x="185.368" y="380.165" fill="black" font-size="18.004" font-family="Helvetica">0.4</text>
<text xml:space="preserve" x="174.94" y="380.165" fill="black" font-size="18.004" font-family="Times">&#8722;</text>
<text xml:space="preserve" x="230.874" y="380.165" fill="black" font-size="18.004" font-family="Helvetica">0.2</text>
<text xml:space="preserve" x="220.446" y="380.165" fill="black" font-size="18.004" font-family="Times">&#8722;</text>
<text xml:space="preserve" x="279.224" y="380.165" fill="black" font-size="18.004" font-family="Helvetica">0</text>
<text xml:space="preserve" x="316.198" y="380.165" fill="black" font-size="18.004" font-family="Helvetica">0.2</text>
<text xml:space="preserve" x="361.704" y="380.165" fill="black" font-size="18.004" font-family="Helvetica">0.4</text>
<text xml:space="preserve" x="407.21" y="380.165" fill="black" font-size="18.004" font-family="Helvetica">0.6</text>
<text xml:space="preserve" x="452.716" y="380.165" fill="black" font-size="18.004" font-family="Helvetica">0.8</text>
<text xml:space="preserve" x="506.754" y="380.165" fill="black" font-size="18.004" font-family="Helvetica">1</text>
<text xml:space="preserve" x="333.263" y="401.97" fill="black" font-size="21.5048" font-family="Helvetica">cosThetaParton_0</text>
<path d="M57.1929,362.508v -324.349" fill="none" stroke="black"/>
<path d="M71.6496,362.508h -14.4567" fill="none" stroke="black"/>
<text xml:space="preserve" x="44.1099" y="363.1" fill="black" font-size="12.1693" font-family="Helvetica">7</text>
<text xml:space="preserve" x="37.4736" y="363.1" fill="black" font-size="12.1693" font-family="Times">&#8722;</text>
<text xml:space="preserve" x="17.5648" y="370.684" fill="black" font-size="18.004" font-family="Helvetica">10</text>
<path d="M64.4213,342.799h -7.22835" fill="none" stroke="black"/>
<path d="M64.4213,331.271h -7.22835" fill="none" stroke="black"/>
<path d="M64.4213,323.091h -7.22835" fill="none" stroke="black"/>
<path d="M64.4213,316.747h -7.22835" fill="none" stroke="black"/>
<path d="M64.4213,311.563h -7.22835" fill="none" stroke="black"/>
<path d="M64.4213,307.18h -7.22835" fill="none" stroke="black"/>
<path d="M64.4213,303.383h -7.22835" fill="none" stroke="black"/>
<path d="M64.4213,300.034h -7.22835" fill="none" stroke="black"/>
<path d="M71.6496,297.039h -14.4567" fill="none" stroke="black"/>
<text xml:space="preserve" x="44.1099" y="296.737" fill="black" font-size="12.1693" font-family="Helvetica">6</text>
<text xml:space="preserve" x="37.4736" y="296.737" fill="black" font-size="12.1693" font-family="Times">&#8722;</text>
<text xml:space="preserve" x="17.5648" y="305.27" fill="black" font-size="18.004" font-family="Helvetica">10</text>
<path d="M64.4213,277.331h -7.22835" fill="none" stroke="black"/>
<path d="M64.4213,265.802h -7.22835" fill="none" stroke="black"/>
<path d="M64.4213,257.622h -7.22835" fill="none" stroke="black"/>
<path d="M64.4213,251.278h -7.22835" fill="none" stroke="black"/>
<path d="M64.4213,246.094h -7.22835" fill="none" stroke="black"/>
<path d="M64.4213,241.711h -7.22835" fill="none" stroke="black"/>
<path d="M64.4213,237.914h -7.22835" fill="none" stroke="black"/>
<path d="M64.4213,234.565h -7.22835" fill="none" stroke="black"/>
<path d="M71.6496,231.57h -14.4567" fill="none" stroke="black"/>
<text xml:space="preserve" x="44.1099" y="231.322" fill="black" font-size="12.1693" font-family="Helvetica">5</text>
<text xml:space="preserve" x="37.4736" y="231.322" fill="black" font-size="12.1693" font-family="Times">&#8722;</text>
<text xml:space="preserve" x="17.5648" y="239.855" fill="black" font-size="18.004" font-family="Helvetica">10</text>
<path d="M64.4213,211.862h -7.22835" fill="none" stroke="black"/>
<path d="M64.4213,200.333h -7.22835" fill="none" stroke="black"/>
<path d="M64.4213,192.154h -7.22835" fill="none" stroke="black"/>
<path d="M64.4213,185.809h -7.22835" fill="none" stroke="black"/>
<path d="M64.4213,180.625h -7.22835" fill="none" stroke="black"/>
<path d="M64.4213,176.242h -7.22835" fill="none" stroke="black"/>
<path d="M64.4213,172.445h -7.22835" fill="none" stroke="black"/>
<path d="M64.4213,169.096h -7.22835" fill="none" stroke="black"/>
<path d="M71.6496,166.101h -14.4567" fill="none" stroke="black"/>
<text xml:space="preserve" x="44.1099" y="166.855" fill="black" font-size="12.1693" font-family="Helvetica">4</text>
<text xml:space="preserve" x="37.4736" y="166.855" fill="black" font-size="12.1693" font-family="Times">&#8722;</text>
<text xml:space="preserve" x="17.5648" y="174.44" fill="black" font-size="18.004" font-family="Helvetica">10</text>
<path d="M64.4213,146.393h -7.22835" fill="none" stroke="black"/>
<path d="M64.4213,134.864h -7.22835" fill="none" stroke="black"/>
<path d="M64.4213,126.685h -7.22835" fill="none" stroke="black"/>
<path d="M64.4213,120.34h -7.22835" fill="none" stroke="black"/>
<path d="M64.4213,115.156h -7.22835" fill="none" stroke="black"/>
<path d="M64.4213,110.773h -7.22835" fill="none" stroke="black"/>
<path d="M64.4213,106.977h -7.22835" fill="none" stroke="black"/>
<path d="M64.4213,103.628h -7.22835" fill="none" stroke="black"/>
<path d="M71.6496,100.632h -14.4567" fill="none" stroke="black"/>
<text xml:space="preserve" x="44.1099" y="100.492" fill="black" font-size="12.1693" font-family="Helvetica">3</text>
<text xml:space="preserve" x="37.4736" y="100.492" fill="black" font-size="12.1693" font-family="Times">&#8722;</text>
<text xml:space="preserve" x="17.5648" y="109.025" fill="black" font-size="18.004" font-family="Helvetica">10</text>
<path d="M64.4213,80.9238h -7.22835" fill="none" stroke="black"/>
<path d="M64.4213,69.3953h -7.22835" fill="none" stroke="black"/>
<path d="M64.4213,61.2157h -7.22835" fill="none" stroke="black"/>
<path d="M64.4213,54.8711h -7.22835" fill="none" stroke="black"/>
<path d="M64.4213,49.6872h -7.22835" fill="none" stroke="black"/>
<path d="M64.4213,45.3043h -7.22835" fill="none" stroke="black"/>
<path d="M64.4213,41.5076h -7.22835" fill="none" stroke="black"/>
<g transform="rotate(-90,-12.7726,107.129)">
<text xml:space="preserve" x="-12.7726" y="107.129" fill="black" font-size="21.5048" font-family="Helvetica"> Parton</text>
</g>
<g transform="rotate(-90,0.5,119.453)">
<text xml:space="preserve" x="0.5" y="119.453" fill="black" font-size="21.5048" font-family="Times">&#0967;</text>
</g>
<g transform="rotate(-90,0.5,130.83)">
<text xml:space="preserve" x="0.5" y="130.83" fill="black" font-size="21.5048" font-family="Helvetica">d</text>
</g>
<g transform="rotate(-90,-23.201,120.401)">
<text xml:space="preserve" x="-23.201" y="120.401" fill="black" font-size="21.5048" font-family="Times">&#0963;</text>
</g>
<g transform="rotate(-90,-23.201,131.778)">
<text xml:space="preserve" x="-23.201" y="131.778" fill="black" font-size="21.5048" font-family="Helvetica">d</text>
</g>
<rect x="334.988" y="41.9746" width="170.079" height="114.476" fill="white"/>
<text xml:space="preserve" x="376.873" y="54.9864" fill="black" font-size="11.3862" font-family="Helvetica">Data</text>
<path d="M356.248,47.7221v -1.93164" fill="none" stroke="black" stroke-width="2"/>
<path d="M356.248,55.3064v 1.93164" fill="none" stroke="black" stroke-width="2"/>
<g fill="black">
<circle cx="356.248" cy="51.5142" r="3.79217"/>
</g>
<text xml:space="preserve" x="376.873" y="73.9473" fill="black" font-size="11.3862" font-family="Helvetica">Total unc.</text>
<path d="M341.366,77.2714h 29.7638v -13.3555h -29.7638z" fill="#cccccc"/>
<path d="M341.366,63.9158h 29.7638" fill="none" stroke="black" stroke-width="2"/>
<path d="M341.366,77.2714h 29.7638" fill="none" stroke="black" stroke-width="2"/>
<path d="M371.13,77.2714v -13.3555" fill="none" stroke="black" stroke-width="2"/>
<path d="M341.366,77.2714v -13.3555" fill="none" stroke="black" stroke-width="2"/>
<text xml:space="preserve" x="376.873" y="93.8562" fill="black" font-size="11.3862" font-family="Helvetica">amc@NLO+Pythia8</text>
<path d="M341.366,89.6729h 29.7638" fill="none" stroke="#ff0000" stroke-width="2"/>
<path d="M356.248,95.3967v -11.4476" fill="none" stroke="#ff0000" stroke-width="2"/>
<text xml:space="preserve" x="376.873" y="112.817" fill="black" font-size="11.3862" font-family="Helvetica">amc@NLO+Pythia8 unc</text>
<path d="M365.604,102.075l 4.86706, 13.3555" fill="none" stroke="#ff0000"/>
<path d="M354.744,102.075l 4.86706, 13.3555" fill="none" stroke="#ff0000"/>
<path d="M343.885,102.075l 4.86706, 13.3555" fill="none" stroke="#ff0000"/>
<path d="M341.366,102.075h 29.7638" fill="none" stroke="#ff0000" stroke-width="2"/>
<path d="M341.366,115.43h 29.7638" fill="none" stroke="#ff0000" stroke-width="2"/>
<path d="M371.13,115.43v -13.3555" fill="none" stroke="#ff0000" stroke-width="2"/>
<path d="M341.366,115.43v -13.3555" fill="none" stroke="#ff0000" stroke-width="2"/>
<text xml:space="preserve" x="376.873" y="131.778" fill="black" font-size="11.3862" font-family="Helvetica">Powheg+Pythia8</text>
<path d="M341.366,127.832h 29.7638" fill="none" stroke="#0000ff" stroke-width="2"/>
<path d="M356.248,133.555v -11.4476" fill="none" stroke="#0000ff" stroke-width="2"/>
<text xml:space="preserve" x="376.873" y="150.739" fill="black" font-size="11.3862" font-family="Helvetica">Powheg+Pythia8 unc</text>
<path d="M371.13,149.276l -1.57173, 4.31293" fill="none" stroke="#0000ff"/>
<path d="M370.805,140.233l -4.86706, 13.3555" fill="none" stroke="#0000ff"/>
<path d="M367.185,140.233l -4.86706, 13.3555" fill="none" stroke="#0000ff"/>
<path d="M363.566,140.233l -4.86706, 13.3555" fill="none" stroke="#0000ff"/>
<path d="M359.946,140.233l -4.86706, 13.3555" fill="none" stroke="#0000ff"/>
<path d="M356.326,140.233l -4.86706, 13.3555" fill="none" stroke="#0000ff"/>
<path d="M352.706,140.233l -4.86706, 13.3555" fill="none" stroke="#0000ff"/>
<path d="M349.086,140.233l -4.86706, 13.3555" fill="none" stroke="#0000ff"/>
<path d="M345.466,140.233l -4.10007, 11.2509" fill="none" stroke="#0000ff"/>
<path d="M341.846,140.233l -0.480187, 1.31767" fill="none" stroke="#0000ff"/>
<path d="M341.366,140.233h 29.7638" fill="none" stroke="#0000ff" stroke-width="2"/>
<path d="M341.366,153.589h 29.7638" fill="none" stroke="#0000ff" stroke-width="2"/>
<path d="M371.13,153.589v -13.3555" fill="none" stroke="#0000ff" stroke-width="2"/>
<path d="M341.366,153.589v -13.3555" fill="none" stroke="#0000ff" stroke-width="2"/>
<text xml:space="preserve" x="57.1929" y="30.527" fill="black" font-size="26.756" font-family="Helvetica" font-weight="bold">CMS</text>
<text xml:space="preserve" x="77.2914" y="30.3373" fill="black" font-size="20.4545" font-family="Helvetica" font-style="oblique">Work in progress</text>
<text xml:space="preserve" x="212.861" y="18.0128" fill="black" font-size="17.356" font-family="Helvetica">unfoldedHistogram</text>
<rect x="0.5" y="381.587" width="566.929" height="136.281" fill="white"/>
<rect x="57.1929" y="385.675" width="453.543" height="102.211" fill="white"/>
<rect x="57.1929" y="385.675" width="453.543" height="102.211" fill="none" stroke="black"/>
<rect x="57.1929" y="385.675" width="453.543" height="102.211" fill="white"/>
<rect x="57.1929" y="385.675" width="453.543" height="102.211" fill="none" stroke="black"/>
<path d="M57.1929,487.886h 453.543" fill="none" stroke="black"/>
<path d="M57.1929,487.886v -102.211" fill="none" stroke="black"/>
<path d="M510.736,487.886h -453.543" fill="none" stroke="black" stroke-dasharray=" 1, 2"/>
<path d="M510.736,462.333h -453.543" fill="none" stroke="black" stroke-dasharray=" 1, 2"/>
<path d="M510.736,436.781h -453.543" fill="none" stroke="black" stroke-dasharray=" 1, 2"/>
<path d="M510.736,411.228h -453.543" fill="none" stroke="black" stroke-dasharray=" 1, 2"/>
<path d="M510.736,385.675h -453.543" fill="none" stroke="black" stroke-dasharray=" 1, 2"/>
<rect x="57.1929" y="402.548" width="45.3543" height="68.4659" fill="#cccccc"/>
<g fill="black">
<circle cx="79.8701" cy="436.781" r="3.79217"/>
</g>
<rect x="102.547" y="426.346" width="45.3543" height="20.8688" fill="#cccccc"/>
<g fill="black">
<circle cx="125.224" cy="436.781" r="3.79217"/>
</g>
<rect x="147.902" y="429.676" width="45.3543" height="14.2091" fill="#cccccc"/>
<g fill="black">
<circle cx="170.579" cy="436.781" r="3.79217"/>
</g>
<rect x="193.256" y="428.511" width="45.3543" height="16.5399" fill="#cccccc"/>
<g fill="black">
<circle cx="215.933" cy="436.781" r="3.79217"/>
</g>
<rect x="238.61" y="430.745" width="45.3543" height="12.0708" fill="#cccccc"/>
<g fill="black">
<circle cx="261.287" cy="436.781" r="3.79217"/>
</g>
<rect x="283.965" y="425.253" width="45.3543" height="23.0563" fill="#cccccc"/>
<g fill="black">
<circle cx="306.642" cy="436.781" r="3.79217"/>
</g>
<rect x="329.319" y="429.996" width="45.3543" height="13.5701" fill="#cccccc"/>
<g fill="black">
<circle cx="351.996" cy="436.781" r="3.79217"/>
</g>
<rect x="374.673" y="425.763" width="45.3543" height="22.0354" fill="#cccccc"/>
<g fill="black">
<circle cx="397.35" cy="436.781" r="3.79217"/>
</g>
<rect x="420.028" y="425.212" width="45.3543" height="23.1365" fill="#cccccc"/>
<g fill="black">
<circle cx="442.705" cy="436.781" r="3.79217"/>
</g>
<rect x="465.382" y="417.648" width="45.3543" height="38.2654" fill="#cccccc"/>
<g fill="black">
<circle cx="488.059" cy="436.781" r="3.79217"/>
</g>
<path d="M57.1929,487.886h 453.543" fill="none" stroke="black"/>
<path d="M57.1929,484.615v 3.27075" fill="none" stroke="black"/>
<path d="M68.5315,486.251v 1.63537" fill="none" stroke="black"/>
<path d="M79.8701,486.251v 1.63537" fill="none" stroke="black"/>
<path d="M91.2087,486.251v 1.63537" fill="none" stroke="black"/>
<path d="M102.547,484.615v 3.27075" fill="none" stroke="black"/>
<path d="M113.886,486.251v 1.63537" fill="none" stroke="black"/>
<path d="M125.224,486.251v 1.63537" fill="none" stroke="black"/>
<path d="M136.563,486.251v 1.63537" fill="none" stroke="black"/>
<path d="M147.902,484.615v 3.27075" fill="none" stroke="black"/>
<path d="M159.24,486.251v 1.63537" fill="none" stroke="black"/>
<path d="M170.579,486.251v 1.63537" fill="none" stroke="black"/>
<path d="M181.917,486.251v 1.63537" fill="none" stroke="black"/>
<path d="M193.256,484.615v 3.27075" fill="none" stroke="black"/>
<path d="M204.594,486.251v 1.63537" fill="none" stroke="black"/>
<path d="M215.933,486.251v 1.63537" fill="none" stroke="black"/>
<path d="M227.272,486.251v 1.63537" fill="none" stroke="black"/>
<path d="M238.61,484.615v 3.27075" fill="none" stroke="black"/>
<path d="M249.949,486.251v 1.63537" fill="none" stroke="black"/>
<path d="M261.287,486.251v 1.63537" fill="none" stroke="black"/>
<path d="M272.626,486.251v 1.63537" fill="none" stroke="black"/>
<path d="M283.965,484.615v 3.27075" fill="none" stroke="black"/>
<path d="M295.303,486.251v 1.63537" fill="none" stroke="black"/>
<path d="M306.642,486.251v 1.63537" fill="none" stroke="black"/>
<path d="M317.98,486.251v 1.63537" fill="none" stroke="black"/>
<path d="M329.319,484.615v 3.27075" fill="none" stroke="black"/>
<path d="M340.657,486.251v 1.63537" fill="none" stroke="black"/>
<path d="M351.996,486.251v 1.63537" fill="none" stroke="black"/>
<path d="M363.335,486.251v 1.63537" fill="none" stroke="black"/>
<path d="M374.673,484.615v 3.27075" fill="none" stroke="black"/>
<path d="M386.012,486.251v 1.63537" fill="none" stroke="black"/>
<path d="M397.35,486.251v 1.63537" fill="none" stroke="black"/>
<path d="M408.689,486.251v 1.63537" fill="none" stroke="black"/>
<path d="M420.028,484.615v 3.27075" fill="none" stroke="black"/>
<path d="M431.366,486.251v 1.63537" fill="none" stroke="black"/>
<path d="M442.705,486.251v 1.63537" fill="none" stroke="black"/>
<path d="M454.043,486.251v 1.63537" fill="none" stroke="black"/>
<path d="M465.382,484.615v 3.27075" fill="none" stroke="black"/>
<path d="M476.72,486.251v 1.63537" fill="none" stroke="black"/>
<path d="M488.059,486.251v 1.63537" fill="none" stroke="black"/>
<path d="M499.398,486.251v 1.63537" fill="none" stroke="black"/>
<path d="M510.736,484.615v 3.27075" fill="none" stroke="black"/>
<path d="M57.1929,484.615v 3.27075" fill="none" stroke="black"/>
<text xml:space="preserve" x="57.3825" y="502.462" fill="black" font-size="15.5034" font-family="Helvetica">1</text>
<text xml:space="preserve" x="48.8501" y="502.462" fill="black" font-size="15.5034" font-family="Times">&#8722;</text>
<text xml:space="preserve" x="95.3042" y="502.462" fill="black" font-size="15.5034" font-family="Helvetica">0.8</text>
<text xml:space="preserve" x="86.7718" y="502.462" fill="black" font-size="15.5034" font-family="Times">&#8722;</text>
<text xml:space="preserve" x="140.81" y="502.462" fill="black" font-size="15.5034" font-family="Helvetica">0.6</text>
<text xml:space="preserve" x="132.278" y="502.462" fill="black" font-size="15.5034" font-family="Times">&#8722;</text>
<text xml:space="preserve" x="186.316" y="502.462" fill="black" font-size="15.5034" font-family="Helvetica">0.4</text>
<text xml:space="preserve" x="177.784" y="502.462" fill="black" font-size="15.5034" font-family="Times">&#8722;</text>
<text xml:space="preserve" x="231.822" y="502.462" fill="black" font-size="15.5034" font-family="Helvetica">0.2</text>
<text xml:space="preserve" x="223.29" y="502.462" fill="black" font-size="15.5034" font-family="Times">&#8722;</text>
<text xml:space="preserve" x="279.224" y="502.462" fill="black" font-size="15.5034" font-family="Helvetica">0</text>
<text xml:space="preserve" x="318.094" y="502.462" fill="black" font-size="15.5034" font-family="Helvetica">0.2</text>
<text xml:space="preserve" x="363.6" y="502.462" fill="black" font-size="15.5034" font-family="Helvetica">0.4</text>
<text xml:space="preserve" x="409.106" y="502.462" fill="black" font-size="15.5034" font-family="Helvetica">0.6</text>
<text xml:space="preserve" x="454.612" y="502.462" fill="black" font-size="15.5034" font-family="Helvetica">0.8</text>
<text xml:space="preserve" x="507.702" y="502.462" fill="black" font-size="15.5034" font-family="Helvetica">1</text>
<text xml:space="preserve" x="330.419" y="517.631" fill="black" font-size="14.8783" font-family="Helvetica">Subleading particle Pt (GeV)</text>
<path d="M57.1929,487.886v -102.211" fill="none" stroke="black"/>
<path d="M69.9488,487.886h -12.7559" fill="none" stroke="black"/>
<path d="M63.5709,482.776h -6.37795" fill="none" stroke="black"/>
<path d="M63.5709,477.665h -6.37795" fill="none" stroke="black"/>
<path d="M63.5709,472.555h -6.37795" fill="none" stroke="black"/>
<path d="M63.5709,467.444h -6.37795" fill="none" stroke="black"/>
<path d="M69.9488,462.333h -12.7559" fill="none" stroke="black"/>
<path d="M63.5709,457.223h -6.37795" fill="none" stroke="black"/>
<path d="M63.5709,452.112h -6.37795" fill="none" stroke="black"/>
<path d="M63.5709,447.002h -6.37795" fill="none" stroke="black"/>
<path d="M63.5709,441.891h -6.37795" fill="none" stroke="black"/>
<path d="M69.9488,436.781h -12.7559" fill="none" stroke="black"/>
<path d="M63.5709,431.67h -6.37795" fill="none" stroke="black"/>
<path d="M63.5709,426.56h -6.37795" fill="none" stroke="black"/>
<path d="M63.5709,421.449h -6.37795" fill="none" stroke="black"/>
<path d="M63.5709,416.339h -6.37795" fill="none" stroke="black"/>
<path d="M69.9488,411.228h -12.7559" fill="none" stroke="black"/>
<path d="M63.5709,406.118h -6.37795" fill="none" stroke="black"/>
<path d="M63.5709,401.007h -6.37795" fill="none" stroke="black"/>
<path d="M63.5709,395.896h -6.37795" fill="none" stroke="black"/>
<path d="M63.5709,390.786h -6.37795" fill="none" stroke="black"/>
<path d="M69.9488,385.675h -12.7559" fill="none" stroke="black"/>
<text xml:space="preserve" x="46.006" y="492.982" fill="black" font-size="13.0028" font-family="Helvetica">2</text>
<text xml:space="preserve" x="38.4217" y="492.982" fill="black" font-size="13.0028" font-family="Times">&#8722;</text>
<text xml:space="preserve" x="47.9021" y="467.385" fill="black" font-size="13.0028" font-family="Helvetica">1</text>
<text xml:space="preserve" x="40.3178" y="467.385" fill="black" font-size="13.0028" font-family="Times">&#8722;</text>
<text xml:space="preserve" x="46.006" y="440.84" fill="black" font-size="13.0028" font-family="Helvetica">0</text>
<text xml:space="preserve" x="47.9021" y="416.19" fill="black" font-size="13.0028" font-family="Helvetica">1</text>
<text xml:space="preserve" x="46.006" y="390.593" fill="black" font-size="13.0028" font-family="Helvetica">2</text>
<g transform="rotate(-90,26.0971,474.969)">
<text xml:space="preserve" x="26.0971" y="474.969" fill="black" font-size="14.8783" font-family="Helvetica">The./data - 1</text>
</g>
<path d="M79.8701,449.797v -13.016" fill="none" stroke="black" stroke-width="2"/>
<path d="M79.8701,436.781v -13.016" fill="none" stroke="black" stroke-width="2"/>
<path d="M57.1929,436.781h 22.6772" fill="none" stroke="black" stroke-width="2"/>
<path d="M79.8701,436.781h 22.6772" fill="none" stroke="black" stroke-width="2"/>
<g stroke="black" stroke-width="1" fill="none">
<line x1="78.8701" y1="436.781" x2="79.8701" y2="436.781"/>
</g>
<path d="M125.224,440.445v -3.6645" fill="none" stroke="black" stroke-width="2"/>
<path d="M125.224,436.781v -3.6645" fill="none" stroke="black" stroke-width="2"/>
<path d="M102.547,436.781h 22.6772" fill="none" stroke="black" stroke-width="2"/>
<path d="M125.224,436.781h 22.6772" fill="none" stroke="black" stroke-width="2"/>
<g stroke="black" stroke-width="1" fill="none">
<line x1="124.224" y1="436.781" x2="125.224" y2="436.781"/>
</g>
<path d="M170.579,439.432v -2.65122" fill="none" stroke="black" stroke-width="2"/>
<path d="M170.579,436.781v -2.65122" fill="none" stroke="black" stroke-width="2"/>
<path d="M147.902,436.781h 22.6772" fill="none" stroke="black" stroke-width="2"/>
<path d="M170.579,436.781h 22.6772" fill="none" stroke="black" stroke-width="2"/>
<g stroke="black" stroke-width="1" fill="none">
<line x1="169.579" y1="436.781" x2="170.579" y2="436.781"/>
</g>
<path d="M215.933,439.161v -2.3805" fill="none" stroke="black" stroke-width="2"/>
<path d="M215.933,436.781v -2.3805" fill="none" stroke="black" stroke-width="2"/>
<path d="M193.256,436.781h 22.6772" fill="none" stroke="black" stroke-width="2"/>
<path d="M215.933,436.781h 22.6772" fill="none" stroke="black" stroke-width="2"/>
<g stroke="black" stroke-width="1" fill="none">
<line x1="214.933" y1="436.781" x2="215.933" y2="436.781"/>
</g>
<path d="M261.287,439.387v -2.60655" fill="none" stroke="black" stroke-width="2"/>
<path d="M261.287,436.781v -2.60655" fill="none" stroke="black" stroke-width="2"/>
<path d="M238.61,436.781h 22.6772" fill="none" stroke="black" stroke-width="2"/>
<path d="M261.287,436.781h 22.6772" fill="none" stroke="black" stroke-width="2"/>
<g stroke="black" stroke-width="1" fill="none">
<line x1="260.287" y1="436.781" x2="261.287" y2="436.781"/>
</g>
<path d="M306.642,439.811v -3.03011" fill="none" stroke="black" stroke-width="2"/>
<path d="M306.642,436.781v -3.03011" fill="none" stroke="black" stroke-width="2"/>
<path d="M283.965,436.781h 22.6772" fill="none" stroke="black" stroke-width="2"/>
<path d="M306.642,436.781h 22.6772" fill="none" stroke="black" stroke-width="2"/>
<g stroke="black" stroke-width="1" fill="none">
<line x1="305.642" y1="436.781" x2="306.642" y2="436.781"/>
</g>
<path d="M351.996,439.6v -2.81911" fill="none" stroke="black" stroke-width="2"/>
<path d="M351.996,436.781v -2.81911" fill="none" stroke="black" stroke-width="2"/>
<path d="M329.319,436.781h 22.6772" fill="none" stroke="black" stroke-width="2"/>
<path d="M351.996,436.781h 22.6772" fill="none" stroke="black" stroke-width="2"/>
<g stroke="black" stroke-width="1" fill="none">
<line x1="350.996" y1="436.781" x2="351.996" y2="436.781"/>
</g>
<path d="M397.35,439.828v -3.04694" fill="none" stroke="black" stroke-width="2"/>
<path d="M397.35,436.781v -3.04694" fill="none" stroke="black" stroke-width="2"/>
<path d="M374.673,436.781h 22.6772" fill="none" stroke="black" stroke-width="2"/>
<path d="M397.35,436.781h 22.6772" fill="none" stroke="black" stroke-width="2"/>
<g stroke="black" stroke-width="1" fill="none">
<line x1="396.35" y1="436.781" x2="397.35" y2="436.781"/>
</g>
<path d="M442.705,440.744v -3.96295" fill="none" stroke="black" stroke-width="2"/>
<path d="M442.705,436.781v -3.96295" fill="none" stroke="black" stroke-width="2"/>
<path d="M420.028,436.781h 22.6772" fill="none" stroke="black" stroke-width="2"/>
<path d="M442.705,436.781h 22.6772" fill="none" stroke="black" stroke-width="2"/>
<g stroke="black" stroke-width="1" fill="none">
<line x1="441.705" y1="436.781" x2="442.705" y2="436.781"/>
</g>
<path d="M488.059,446.895v -10.1144" fill="none" stroke="black" stroke-width="2"/>
<path d="M488.059,436.781v -10.1144" fill="none" stroke="black" stroke-width="2"/>
<path d="M465.382,436.781h 22.6772" fill="none" stroke="black" stroke-width="2"/>
<path d="M488.059,436.781h 22.6772" fill="none" stroke="black" stroke-width="2"/>
<g stroke="black" stroke-width="1" fill="none">
<line x1="487.059" y1="436.781" x2="488.059" y2="436.781"/>
</g>
<path d="M234.653,385.675l 3.95743, 10.8541" fill="none" stroke="#ff0000"/>
<path d="M223.793,385.675l 14.8171, 40.6389" fill="none" stroke="#ff0000"/>
<path d="M212.934,385.675l 25.2067, 69.1347" fill="none" stroke="#ff0000"/>
<path d="M202.074,385.675l 25.2067, 69.1347" fill="none" stroke="#ff0000"/>
<path d="M193.256,391.275l 23.1651, 63.535" fill="none" stroke="#ff0000"/>
<path d="M193.256,421.06l 12.3054, 33.7502" fill="none" stroke="#ff0000"/>
<path d="M193.256,450.845l 1.4458, 3.96539" fill="none" stroke="#ff0000"/>
<g stroke="#ff0000" stroke-width="1" fill="none">
<line x1="214.933" y1="386.118" x2="215.933" y2="386.118"/>
</g>
<path d="M215.933,391.14v -5.02259" fill="none" stroke="#ff0000" stroke-width="2"/>
<path d="M215.933,386.118v -0.44237" fill="none" stroke="#ff0000" stroke-width="2"/>
<path d="M193.256,386.118h 22.6772" fill="none" stroke="#ff0000" stroke-width="2"/>
<path d="M215.933,386.118h 22.6772" fill="none" stroke="#ff0000" stroke-width="2"/>
<g stroke="#ff0000" stroke-width="1" fill="none">
<line x1="214.933" y1="386.118" x2="215.933" y2="386.118"/>
</g>
<path d="M102.547,446.476l -1.90893, 5.23565" fill="none" stroke="#0000ff"/>
<path d="M102.547,436.548l -5.52881, 15.1639" fill="none" stroke="#0000ff"/>
<path d="M102.547,426.619l -9.14869, 25.0922" fill="none" stroke="#0000ff"/>
<path d="M102.547,416.691l -12.7686, 35.0205" fill="none" stroke="#0000ff"/>
<path d="M102.547,406.763l -16.3885, 44.9487" fill="none" stroke="#0000ff"/>
<path d="M102.547,396.835l -20.0083, 54.877" fill="none" stroke="#0000ff"/>
<path d="M102.547,386.906l -23.6282, 64.8053" fill="none" stroke="#0000ff"/>
<path d="M99.3762,385.675l -24.077, 66.0362" fill="none" stroke="#0000ff"/>
<path d="M95.7563,385.675l -24.077, 66.0362" fill="none" stroke="#0000ff"/>
<path d="M92.1364,385.675l -24.077, 66.0362" fill="none" stroke="#0000ff"/>
<path d="M88.5165,385.675l -24.077, 66.0362" fill="none" stroke="#0000ff"/>
<path d="M84.8967,385.675l -24.077, 66.0362" fill="none" stroke="#0000ff"/>
<path d="M81.2768,385.675l -24.077, 66.0362" fill="none" stroke="#0000ff"/>
<path d="M77.6569,385.675l -20.464, 56.1267" fill="none" stroke="#0000ff"/>
<path d="M74.037,385.675l -16.8441, 46.1984" fill="none" stroke="#0000ff"/>
<path d="M70.4171,385.675l -13.2242, 36.2702" fill="none" stroke="#0000ff"/>
<path d="M66.7973,385.675l -9.60434, 26.3419" fill="none" stroke="#0000ff"/>
<path d="M63.1774,385.675l -5.98446, 16.4136" fill="none" stroke="#0000ff"/>
<path d="M59.5575,385.675l -2.36458, 6.48534" fill="none" stroke="#0000ff"/>
<g stroke="#0000ff" stroke-width="1" fill="none">
<line x1="78.8701" y1="411.699" x2="79.8701" y2="411.699"/>
</g>
<path d="M147.902,441.222l -1.30857, 3.58903" fill="none" stroke="#0000ff"/>
<path d="M147.902,431.293l -4.92845, 13.5173" fill="none" stroke="#0000ff"/>
<path d="M147.902,421.365l -8.54833, 23.4456" fill="none" stroke="#0000ff"/>
<path d="M147.902,411.437l -12.1682, 33.3739" fill="none" stroke="#0000ff"/>
<path d="M145.088,409.225l -12.9745, 35.5853" fill="none" stroke="#0000ff"/>
<path d="M141.468,409.225l -12.9745, 35.5853" fill="none" stroke="#0000ff"/>
<path d="M137.848,409.225l -12.9745, 35.5853" fill="none" stroke="#0000ff"/>
<path d="M134.228,409.225l -12.9745, 35.5853" fill="none" stroke="#0000ff"/>
<path d="M130.608,409.225l -12.9745, 35.5853" fill="none" stroke="#0000ff"/>
<path d="M126.989,409.225l -12.9745, 35.5853" fill="none" stroke="#0000ff"/>
<path d="M123.369,409.225l -12.9745, 35.5853" fill="none" stroke="#0000ff"/>
<path d="M119.749,409.225l -12.9745, 35.5853" fill="none" stroke="#0000ff"/>
<path d="M116.129,409.225l -12.9745, 35.5853" fill="none" stroke="#0000ff"/>
<path d="M112.509,409.225l -9.96184, 27.3224" fill="none" stroke="#0000ff"/>
<path d="M108.889,409.225l -6.34196, 17.3941" fill="none" stroke="#0000ff"/>
<path d="M105.269,409.225l -2.72208, 7.46587" fill="none" stroke="#0000ff"/>
<g stroke="#0000ff" stroke-width="1" fill="none">
<line x1="124.224" y1="427.018" x2="125.224" y2="427.018"/>
</g>
<path d="M193.256,435.967l -1.39544, 3.82728" fill="none" stroke="#0000ff"/>
<path d="M193.256,426.039l -5.01532, 13.7556" fill="none" stroke="#0000ff"/>
<path d="M193.256,416.111l -8.6352, 23.6838" fill="none" stroke="#0000ff"/>
<path d="M190.152,414.695l -9.15131, 25.0994" fill="none" stroke="#0000ff"/>
<path d="M186.532,414.695l -9.15131, 25.0994" fill="none" stroke="#0000ff"/>
<path d="M182.912,414.695l -9.15131, 25.0994" fill="none" stroke="#0000ff"/>
<path d="M179.292,414.695l -9.15131, 25.0994" fill="none" stroke="#0000ff"/>
<path d="M175.673,414.695l -9.15131, 25.0994" fill="none" stroke="#0000ff"/>
<path d="M172.053,414.695l -9.15131, 25.0994" fill="none" stroke="#0000ff"/>
<path d="M168.433,414.695l -9.15131, 25.0994" fill="none" stroke="#0000ff"/>
<path d="M164.813,414.695l -9.15131, 25.0994" fill="none" stroke="#0000ff"/>
<path d="M161.193,414.695l -9.15131, 25.0994" fill="none" stroke="#0000ff"/>
<path d="M157.573,414.695l -9.15131, 25.0994" fill="none" stroke="#0000ff"/>
<path d="M153.953,414.695l -6.05176, 16.5982" fill="none" stroke="#0000ff"/>
<path d="M150.333,414.695l -2.43188, 6.66994" fill="none" stroke="#0000ff"/>
<g stroke="#0000ff" stroke-width="1" fill="none">
<line x1="169.579" y1="427.245" x2="170.579" y2="427.245"/>
</g>
<path d="M238.61,430.713l -3.20126, 8.78012" fill="none" stroke="#0000ff"/>
<path d="M238.255,421.759l -6.46566, 17.7334" fill="none" stroke="#0000ff"/>
<path d="M234.635,421.759l -6.46566, 17.7334" fill="none" stroke="#0000ff"/>
<path d="M231.015,421.759l -6.46566, 17.7334" fill="none" stroke="#0000ff"/>
<path d="M227.395,421.759l -6.46566, 17.7334" fill="none" stroke="#0000ff"/>
<path d="M223.775,421.759l -6.46566, 17.7334" fill="none" stroke="#0000ff"/>
<path d="M220.155,421.759l -6.46566, 17.7334" fill="none" stroke="#0000ff"/>
<path d="M216.535,421.759l -6.46566, 17.7334" fill="none" stroke="#0000ff"/>
<path d="M212.916,421.759l -6.46566, 17.7334" fill="none" stroke="#0000ff"/>
<path d="M209.296,421.759l -6.46566, 17.7334" fill="none" stroke="#0000ff"/>
<path d="M205.676,421.759l -6.46566, 17.7334" fill="none" stroke="#0000ff"/>
<path d="M202.056,421.759l -6.46566, 17.7334" fill="none" stroke="#0000ff"/>
<path d="M198.436,421.759l -5.18017, 14.2077" fill="none" stroke="#0000ff"/>
<path d="M194.816,421.759l -1.56029, 4.27942" fill="none" stroke="#0000ff"/>
<g stroke="#0000ff" stroke-width="1" fill="none">
<line x1="214.933" y1="430.626" x2="215.933" y2="430.626"/>
</g>
<path d="M283.965,435.387l -0.620779, 1.70262" fill="none" stroke="#0000ff"/>
<path d="M283.965,425.458l -4.24066, 11.6309" fill="none" stroke="#0000ff"/>
<path d="M281.588,422.048l -5.48426, 15.0417" fill="none" stroke="#0000ff"/>
<path d="M277.968,422.048l -5.48426, 15.0417" fill="none" stroke="#0000ff"/>
<path d="M274.349,422.048l -5.48426, 15.0417" fill="none" stroke="#0000ff"/>
<path d="M270.729,422.048l -5.48426, 15.0417" fill="none" stroke="#0000ff"/>
<path d="M267.109,422.048l -5.48426, 15.0417" fill="none" stroke="#0000ff"/>
<path d="M263.489,422.048l -5.48426, 15.0417" fill="none" stroke="#0000ff"/>
<path d="M259.869,422.048l -5.48426, 15.0417" fill="none" stroke="#0000ff"/>
<path d="M256.249,422.048l -5.48426, 15.0417" fill="none" stroke="#0000ff"/>
<path d="M252.629,422.048l -5.48426, 15.0417" fill="none" stroke="#0000ff"/>
<path d="M249.009,422.048l -5.48426, 15.0417" fill="none" stroke="#0000ff"/>
<path d="M245.389,422.048l -5.48426, 15.0417" fill="none" stroke="#0000ff"/>
<path d="M241.77,422.048l -3.15937, 8.66522" fill="none" stroke="#0000ff"/>
<g stroke="#0000ff" stroke-width="1" fill="none">
<line x1="260.287" y1="429.568" x2="261.287" y2="429.568"/>
</g>
<path d="M329.319,430.132l -0.938764, 2.57476" fill="none" stroke="#0000ff"/>
<path d="M329.319,420.204l -4.55864, 12.503" fill="none" stroke="#0000ff"/>
<path d="M327.908,414.147l -6.7672, 18.5604" fill="none" stroke="#0000ff"/>
<path d="M324.288,414.147l -6.7672, 18.5604" fill="none" stroke="#0000ff"/>
<path d="M320.668,414.147l -6.7672, 18.5604" fill="none" stroke="#0000ff"/>
<path d="M317.048,414.147l -6.7672, 18.5604" fill="none" stroke="#0000ff"/>
<path d="M313.428,414.147l -6.7672, 18.5604" fill="none" stroke="#0000ff"/>
<path d="M309.808,414.147l -6.7672, 18.5604" fill="none" stroke="#0000ff"/>
<path d="M306.188,414.147l -6.7672, 18.5604" fill="none" stroke="#0000ff"/>
<path d="M302.568,414.147l -6.7672, 18.5604" fill="none" stroke="#0000ff"/>
<path d="M298.949,414.147l -6.7672, 18.5604" fill="none" stroke="#0000ff"/>
<path d="M295.329,414.147l -6.7672, 18.5604" fill="none" stroke="#0000ff"/>
<path d="M291.709,414.147l -6.7672, 18.5604" fill="none" stroke="#0000ff"/>
<path d="M288.089,414.147l -4.12432, 11.3118" fill="none" stroke="#0000ff"/>
<path d="M284.469,414.147l -0.504441, 1.38353" fill="none" stroke="#0000ff"/>
<g stroke="#0000ff" stroke-width="1" fill="none">
<line x1="305.642" y1="423.427" x2="306.642" y2="423.427"/>
</g>
<path d="M374.673,424.878l -3.61248, 9.90798" fill="none" stroke="#0000ff"/>
<path d="M374.673,414.95l -7.23236, 19.8363" fill="none" stroke="#0000ff"/>
<path d="M371.554,413.576l -7.73337, 21.2104" fill="none" stroke="#0000ff"/>
<path d="M367.934,413.576l -7.73337, 21.2104" fill="none" stroke="#0000ff"/>
<path d="M364.315,413.576l -7.73337, 21.2104" fill="none" stroke="#0000ff"/>
<path d="M360.695,413.576l -7.73337, 21.2104" fill="none" stroke="#0000ff"/>
<path d="M357.075,413.576l -7.73337, 21.2104" fill="none" stroke="#0000ff"/>
<path d="M353.455,413.576l -7.73337, 21.2104" fill="none" stroke="#0000ff"/>
<path d="M349.835,413.576l -7.73337, 21.2104" fill="none" stroke="#0000ff"/>
<path d="M346.215,413.576l -7.73337, 21.2104" fill="none" stroke="#0000ff"/>
<path d="M342.595,413.576l -7.73337, 21.2104" fill="none" stroke="#0000ff"/>
<path d="M338.975,413.576l -7.73337, 21.2104" fill="none" stroke="#0000ff"/>
<path d="M335.356,413.576l -6.03665, 16.5568" fill="none" stroke="#0000ff"/>
<path d="M331.736,413.576l -2.41677, 6.62851" fill="none" stroke="#0000ff"/>
<g stroke="#0000ff" stroke-width="1" fill="none">
<line x1="350.996" y1="424.181" x2="351.996" y2="424.181"/>
</g>
<path d="M420.028,429.552l -2.48081, 6.80413" fill="none" stroke="#0000ff"/>
<path d="M420.028,419.624l -6.10069, 16.7324" fill="none" stroke="#0000ff"/>
<path d="M420.028,409.695l -9.72057, 26.6607" fill="none" stroke="#0000ff"/>
<path d="M417.061,407.904l -10.3737, 28.4519" fill="none" stroke="#0000ff"/>
<path d="M413.441,407.904l -10.3737, 28.4519" fill="none" stroke="#0000ff"/>
<path d="M409.821,407.904l -10.3737, 28.4519" fill="none" stroke="#0000ff"/>
<path d="M406.201,407.904l -10.3737, 28.4519" fill="none" stroke="#0000ff"/>
<path d="M402.581,407.904l -10.3737, 28.4519" fill="none" stroke="#0000ff"/>
<path d="M398.961,407.904l -10.3737, 28.4519" fill="none" stroke="#0000ff"/>
<path d="M395.341,407.904l -10.3737, 28.4519" fill="none" stroke="#0000ff"/>
<path d="M391.722,407.904l -10.3737, 28.4519" fill="none" stroke="#0000ff"/>
<path d="M388.102,407.904l -10.3737, 28.4519" fill="none" stroke="#0000ff"/>
<path d="M384.482,407.904l -9.80861, 26.9022" fill="none" stroke="#0000ff"/>
<path d="M380.862,407.904l -6.18873, 16.9739" fill="none" stroke="#0000ff"/>
<path d="M377.242,407.904l -2.56885, 7.04561" fill="none" stroke="#0000ff"/>
<g stroke="#0000ff" stroke-width="1" fill="none">
<line x1="396.35" y1="422.13" x2="397.35" y2="422.13"/>
</g>
<path d="M465.382,434.226l -3.50632, 9.61681" fill="none" stroke="#0000ff"/>
<path d="M465.382,424.297l -7.1262, 19.5451" fill="none" stroke="#0000ff"/>
<path d="M465.382,414.369l -10.7461, 29.4734" fill="none" stroke="#0000ff"/>
<path d="M464.803,406.029l -13.7869, 37.8133" fill="none" stroke="#0000ff"/>
<path d="M461.183,406.029l -13.7869, 37.8133" fill="none" stroke="#0000ff"/>
<path d="M457.563,406.029l -13.7869, 37.8133" fill="none" stroke="#0000ff"/>
<path d="M453.943,406.029l -13.7869, 37.8133" fill="none" stroke="#0000ff"/>
<path d="M450.323,406.029l -13.7869, 37.8133" fill="none" stroke="#0000ff"/>
<path d="M446.703,406.029l -13.7869, 37.8133" fill="none" stroke="#0000ff"/>
<path d="M443.083,406.029l -13.7869, 37.8133" fill="none" stroke="#0000ff"/>
<path d="M439.464,406.029l -13.7869, 37.8133" fill="none" stroke="#0000ff"/>
<path d="M435.844,406.029l -13.7869, 37.8133" fill="none" stroke="#0000ff"/>
<path d="M432.224,406.029l -12.1963, 33.4509" fill="none" stroke="#0000ff"/>
<path d="M428.604,406.029l -8.57642, 23.5226" fill="none" stroke="#0000ff"/>
<path d="M424.984,406.029l -4.95654, 13.5943" fill="none" stroke="#0000ff"/>
<path d="M421.364,406.029l -1.33666, 3.66606" fill="none" stroke="#0000ff"/>
<g stroke="#0000ff" stroke-width="1" fill="none">
<line x1="441.705" y1="424.936" x2="442.705" y2="424.936"/>
</g>
<path d="M510.736,448.828l -1.45073, 3.97893" fill="none" stroke="#0000ff"/>
<path d="M510.736,438.9l -5.07061, 13.9072" fill="none" stroke="#0000ff"/>
<path d="M510.736,428.971l -8.69049, 23.8355" fill="none" stroke="#0000ff"/>
<path d="M510.736,419.043l -12.3104, 33.7638" fill="none" stroke="#0000ff"/>
<path d="M510.736,409.115l -15.9303, 43.692" fill="none" stroke="#0000ff"/>
<path d="M510.736,399.186l -19.5501, 53.6203" fill="none" stroke="#0000ff"/>
<path d="M508.996,394.031l -21.4298, 58.7756" fill="none" stroke="#0000ff"/>
<path d="M505.376,394.031l -21.4298, 58.7756" fill="none" stroke="#0000ff"/>
<path d="M501.756,394.031l -21.4298, 58.7756" fill="none" stroke="#0000ff"/>
<path d="M498.136,394.031l -21.4298, 58.7756" fill="none" stroke="#0000ff"/>
<path d="M494.516,394.031l -21.4298, 58.7756" fill="none" stroke="#0000ff"/>
<path d="M490.897,394.031l -21.4298, 58.7756" fill="none" stroke="#0000ff"/>
<path d="M487.277,394.031l -21.4298, 58.7756" fill="none" stroke="#0000ff"/>
<path d="M483.657,394.031l -18.2749, 50.1228" fill="none" stroke="#0000ff"/>
<path d="M480.037,394.031l -14.655, 40.1945" fill="none" stroke="#0000ff"/>
<path d="M476.417,394.031l -11.0352, 30.2662" fill="none" stroke="#0000ff"/>
<path d="M472.797,394.031l -7.41528, 20.3379" fill="none" stroke="#0000ff"/>
<path d="M469.177,394.031l -3.7954, 10.4097" fill="none" stroke="#0000ff"/>
<path d="M465.557,394.031l -0.175515, 0.481386" fill="none" stroke="#0000ff"/>
<g stroke="#0000ff" stroke-width="1" fill="none">
<line x1="487.059" y1="423.419" x2="488.059" y2="423.419"/>
</g>
<path d="M79.8701,429.937v -18.2389" fill="none" stroke="#0000ff" stroke-width="2"/>
<path d="M79.8701,411.699v -18.2389" fill="none" stroke="#0000ff" stroke-width="2"/>
<path d="M57.1929,411.699h 22.6772" fill="none" stroke="#0000ff" stroke-width="2"/>
<path d="M79.8701,411.699h 22.6772" fill="none" stroke="#0000ff" stroke-width="2"/>
<g stroke="#0000ff" stroke-width="1" fill="none">
<line x1="78.8701" y1="411.699" x2="79.8701" y2="411.699"/>
</g>
<path d="M125.224,430.6v -3.58174" fill="none" stroke="#0000ff" stroke-width="2"/>
<path d="M125.224,427.018v -3.58174" fill="none" stroke="#0000ff" stroke-width="2"/>
<path d="M102.547,427.018h 22.6772" fill="none" stroke="#0000ff" stroke-width="2"/>
<path d="M125.224,427.018h 22.6772" fill="none" stroke="#0000ff" stroke-width="2"/>
<g stroke="#0000ff" stroke-width="1" fill="none">
<line x1="124.224" y1="427.018" x2="125.224" y2="427.018"/>
</g>
<path d="M170.579,429.82v -2.57486" fill="none" stroke="#0000ff" stroke-width="2"/>
<path d="M170.579,427.245v -2.57486" fill="none" stroke="#0000ff" stroke-width="2"/>
<path d="M147.902,427.245h 22.6772" fill="none" stroke="#0000ff" stroke-width="2"/>
<path d="M170.579,427.245h 22.6772" fill="none" stroke="#0000ff" stroke-width="2"/>
<g stroke="#0000ff" stroke-width="1" fill="none">
<line x1="169.579" y1="427.245" x2="170.579" y2="427.245"/>
</g>
<path d="M215.933,432.716v -2.08938" fill="none" stroke="#0000ff" stroke-width="2"/>
<path d="M215.933,430.626v -2.08938" fill="none" stroke="#0000ff" stroke-width="2"/>
<path d="M193.256,430.626h 22.6772" fill="none" stroke="#0000ff" stroke-width="2"/>
<path d="M215.933,430.626h 22.6772" fill="none" stroke="#0000ff" stroke-width="2"/>
<g stroke="#0000ff" stroke-width="1" fill="none">
<line x1="214.933" y1="430.626" x2="215.933" y2="430.626"/>
</g>
<path d="M261.287,431.933v -2.3641" fill="none" stroke="#0000ff" stroke-width="2"/>
<path d="M261.287,429.568v -2.3641" fill="none" stroke="#0000ff" stroke-width="2"/>
<path d="M238.61,429.568h 22.6772" fill="none" stroke="#0000ff" stroke-width="2"/>
<path d="M261.287,429.568h 22.6772" fill="none" stroke="#0000ff" stroke-width="2"/>
<g stroke="#0000ff" stroke-width="1" fill="none">
<line x1="260.287" y1="429.568" x2="261.287" y2="429.568"/>
</g>
<path d="M306.642,426.69v -3.26313" fill="none" stroke="#0000ff" stroke-width="2"/>
<path d="M306.642,423.427v -3.26313" fill="none" stroke="#0000ff" stroke-width="2"/>
<path d="M283.965,423.427h 22.6772" fill="none" stroke="#0000ff" stroke-width="2"/>
<path d="M306.642,423.427h 22.6772" fill="none" stroke="#0000ff" stroke-width="2"/>
<g stroke="#0000ff" stroke-width="1" fill="none">
<line x1="305.642" y1="423.427" x2="306.642" y2="423.427"/>
</g>
<path d="M351.996,427.158v -2.97706" fill="none" stroke="#0000ff" stroke-width="2"/>
<path d="M351.996,424.181v -2.97706" fill="none" stroke="#0000ff" stroke-width="2"/>
<path d="M329.319,424.181h 22.6772" fill="none" stroke="#0000ff" stroke-width="2"/>
<path d="M351.996,424.181h 22.6772" fill="none" stroke="#0000ff" stroke-width="2"/>
<g stroke="#0000ff" stroke-width="1" fill="none">
<line x1="350.996" y1="424.181" x2="351.996" y2="424.181"/>
</g>
<path d="M397.35,425.52v -3.39036" fill="none" stroke="#0000ff" stroke-width="2"/>
<path d="M397.35,422.13v -3.39036" fill="none" stroke="#0000ff" stroke-width="2"/>
<path d="M374.673,422.13h 22.6772" fill="none" stroke="#0000ff" stroke-width="2"/>
<path d="M397.35,422.13h 22.6772" fill="none" stroke="#0000ff" stroke-width="2"/>
<g stroke="#0000ff" stroke-width="1" fill="none">
<line x1="396.35" y1="422.13" x2="397.35" y2="422.13"/>
</g>
<path d="M442.705,429.038v -4.10173" fill="none" stroke="#0000ff" stroke-width="2"/>
<path d="M442.705,424.936v -4.10173" fill="none" stroke="#0000ff" stroke-width="2"/>
<path d="M420.028,424.936h 22.6772" fill="none" stroke="#0000ff" stroke-width="2"/>
<path d="M442.705,424.936h 22.6772" fill="none" stroke="#0000ff" stroke-width="2"/>
<g stroke="#0000ff" stroke-width="1" fill="none">
<line x1="441.705" y1="424.936" x2="442.705" y2="424.936"/>
</g>
<path d="M488.059,434.312v -10.8928" fill="none" stroke="#0000ff" stroke-width="2"/>
<path d="M488.059,423.419v -10.8928" fill="none" stroke="#0000ff" stroke-width="2"/>
<path d="M465.382,423.419h 22.6772" fill="none" stroke="#0000ff" stroke-width="2"/>
<path d="M488.059,423.419h 22.6772" fill="none" stroke="#0000ff" stroke-width="2"/>
<g stroke="#0000ff" stroke-width="1" fill="none">
<line x1="487.059" y1="423.419" x2="488.059" y2="423.419"/>
</g>
<text xml:space="preserve" x="255.523" y="388.697" fill="black" font-size="6.71011" font-family="Helvetica">unfoldedHistogram</text></svg>
