<?xml version="1.0" standalone="no"?>
<svg width="567.429" height="545.624" viewBox="0 0 567.429 545.624" xmlns="http://www.w3.org/2000/svg" shape-rendering="crispEdges">
<title>
/Users/georgebakas/Documents/HEP-NTUA_ul/VariationHandling/FinalResults/results/FinalResult_yJJ.svg
</title>
<desc>
Creator: ROOT Version 6.22/02
CreationDate: Wed Nov 24 08:11:21 2021</desc>
<defs>
</defs>
<rect x="0.5" y="0" width="566.929" height="545.124" fill="white"/>
<rect x="0.5" y="0" width="566.929" height="381.587" fill="white"/>
<rect x="57.1929" y="38.1587" width="453.543" height="324.349" fill="white"/>
<rect x="57.1929" y="38.1587" width="453.543" height="324.349" fill="none" stroke="black"/>
<rect x="57.1929" y="38.1587" width="453.543" height="324.349" fill="white"/>
<rect x="57.1929" y="38.1587" width="453.543" height="324.349" fill="none" stroke="black"/>
<rect x="57.1929" y="359.223" width="85.0394" height="2.39805" fill="#cccccc"/>
<g fill="black">
<circle cx="99.7126" cy="360.422" r="3.79217"/>
</g>
<rect x="142.232" y="336.963" width="47.2441" height="11.3522" fill="#cccccc"/>
<g fill="black">
<circle cx="165.854" cy="342.639" r="3.79217"/>
</g>
<rect x="189.476" y="301.766" width="47.2441" height="26.4292" fill="#cccccc"/>
<g fill="black">
<circle cx="213.098" cy="314.981" r="3.79217"/>
</g>
<rect x="236.72" y="273.908" width="47.2441" height="35.3328" fill="#cccccc"/>
<g fill="black">
<circle cx="260.343" cy="291.574" r="3.79217"/>
</g>
<rect x="283.965" y="269.384" width="47.2441" height="41.3939" fill="#cccccc"/>
<g fill="black">
<circle cx="307.587" cy="290.081" r="3.79217"/>
</g>
<rect x="331.209" y="305.114" width="47.2441" height="23.0649" fill="#cccccc"/>
<g fill="black">
<circle cx="354.831" cy="316.647" r="3.79217"/>
</g>
<rect x="378.453" y="338.434" width="47.2441" height="11.7025" fill="#cccccc"/>
<g fill="black">
<circle cx="402.075" cy="344.286" r="3.79217"/>
</g>
<rect x="425.697" y="361.073" width="85.0394" height="0.923233" fill="#cccccc"/>
<g fill="black">
<circle cx="468.217" cy="361.535" r="3.79217"/>
</g>
<path d="M57.1929,362.508h 453.543" fill="none" stroke="black"/>
<path d="M94.9882,353.349v 9.15809" fill="none" stroke="black"/>
<path d="M104.437,357.929v 4.57904" fill="none" stroke="black"/>
<path d="M113.886,357.929v 4.57904" fill="none" stroke="black"/>
<path d="M123.335,357.929v 4.57904" fill="none" stroke="black"/>
<path d="M132.783,357.929v 4.57904" fill="none" stroke="black"/>
<path d="M142.232,353.349v 9.15809" fill="none" stroke="black"/>
<path d="M151.681,357.929v 4.57904" fill="none" stroke="black"/>
<path d="M161.13,357.929v 4.57904" fill="none" stroke="black"/>
<path d="M170.579,357.929v 4.57904" fill="none" stroke="black"/>
<path d="M180.028,357.929v 4.57904" fill="none" stroke="black"/>
<path d="M189.476,353.349v 9.15809" fill="none" stroke="black"/>
<path d="M198.925,357.929v 4.57904" fill="none" stroke="black"/>
<path d="M208.374,357.929v 4.57904" fill="none" stroke="black"/>
<path d="M217.823,357.929v 4.57904" fill="none" stroke="black"/>
<path d="M227.272,357.929v 4.57904" fill="none" stroke="black"/>
<path d="M236.72,353.349v 9.15809" fill="none" stroke="black"/>
<path d="M246.169,357.929v 4.57904" fill="none" stroke="black"/>
<path d="M255.618,357.929v 4.57904" fill="none" stroke="black"/>
<path d="M265.067,357.929v 4.57904" fill="none" stroke="black"/>
<path d="M274.516,357.929v 4.57904" fill="none" stroke="black"/>
<path d="M283.965,353.349v 9.15809" fill="none" stroke="black"/>
<path d="M293.413,357.929v 4.57904" fill="none" stroke="black"/>
<path d="M302.862,357.929v 4.57904" fill="none" stroke="black"/>
<path d="M312.311,357.929v 4.57904" fill="none" stroke="black"/>
<path d="M321.76,357.929v 4.57904" fill="none" stroke="black"/>
<path d="M331.209,353.349v 9.15809" fill="none" stroke="black"/>
<path d="M340.657,357.929v 4.57904" fill="none" stroke="black"/>
<path d="M350.106,357.929v 4.57904" fill="none" stroke="black"/>
<path d="M359.555,357.929v 4.57904" fill="none" stroke="black"/>
<path d="M369.004,357.929v 4.57904" fill="none" stroke="black"/>
<path d="M378.453,353.349v 9.15809" fill="none" stroke="black"/>
<path d="M387.902,357.929v 4.57904" fill="none" stroke="black"/>
<path d="M397.35,357.929v 4.57904" fill="none" stroke="black"/>
<path d="M406.799,357.929v 4.57904" fill="none" stroke="black"/>
<path d="M416.248,357.929v 4.57904" fill="none" stroke="black"/>
<path d="M425.697,353.349v 9.15809" fill="none" stroke="black"/>
<path d="M435.146,357.929v 4.57904" fill="none" stroke="black"/>
<path d="M444.594,357.929v 4.57904" fill="none" stroke="black"/>
<path d="M454.043,357.929v 4.57904" fill="none" stroke="black"/>
<path d="M463.492,357.929v 4.57904" fill="none" stroke="black"/>
<path d="M472.941,353.349v 9.15809" fill="none" stroke="black"/>
<path d="M94.9882,353.349v 9.15809" fill="none" stroke="black"/>
<path d="M85.5394,357.929v 4.57904" fill="none" stroke="black"/>
<path d="M76.0906,357.929v 4.57904" fill="none" stroke="black"/>
<path d="M66.6417,357.929v 4.57904" fill="none" stroke="black"/>
<path d="M57.1929,357.929v 4.57904" fill="none" stroke="black"/>
<path d="M472.941,353.349v 9.15809" fill="none" stroke="black"/>
<path d="M482.39,357.929v 4.57904" fill="none" stroke="black"/>
<path d="M491.839,357.929v 4.57904" fill="none" stroke="black"/>
<path d="M501.287,357.929v 4.57904" fill="none" stroke="black"/>
<path d="M510.736,357.929v 4.57904" fill="none" stroke="black"/>
<text xml:space="preserve" x="94.3562" y="380.165" fill="black" font-size="18.004" font-family="Helvetica">2</text>
<text xml:space="preserve" x="83.9277" y="380.165" fill="black" font-size="18.004" font-family="Times">&#8722;</text>
<text xml:space="preserve" x="134.174" y="380.165" fill="black" font-size="18.004" font-family="Helvetica">1.5</text>
<text xml:space="preserve" x="123.745" y="380.165" fill="black" font-size="18.004" font-family="Times">&#8722;</text>
<text xml:space="preserve" x="190.108" y="380.165" fill="black" font-size="18.004" font-family="Helvetica">1</text>
<text xml:space="preserve" x="180.628" y="380.165" fill="black" font-size="18.004" font-family="Times">&#8722;</text>
<text xml:space="preserve" x="228.978" y="380.165" fill="black" font-size="18.004" font-family="Helvetica">0.5</text>
<text xml:space="preserve" x="218.55" y="380.165" fill="black" font-size="18.004" font-family="Times">&#8722;</text>
<text xml:space="preserve" x="279.224" y="380.165" fill="black" font-size="18.004" font-family="Helvetica">0</text>
<text xml:space="preserve" x="318.094" y="380.165" fill="black" font-size="18.004" font-family="Helvetica">0.5</text>
<text xml:space="preserve" x="374.029" y="380.165" fill="black" font-size="18.004" font-family="Helvetica">1</text>
<text xml:space="preserve" x="412.898" y="380.165" fill="black" font-size="18.004" font-family="Helvetica">1.5</text>
<text xml:space="preserve" x="467.885" y="380.165" fill="black" font-size="18.004" font-family="Helvetica">2</text>
<text xml:space="preserve" x="377.821" y="401.022" fill="black" font-size="21.5048" font-family="Helvetica">yTTbarParton</text>
<path d="M57.1929,362.508v -324.349" fill="none" stroke="black"/>
<path d="M71.6496,330.131h -14.4567" fill="none" stroke="black"/>
<path d="M64.4213,323.643h -7.22835" fill="none" stroke="black"/>
<path d="M64.4213,317.155h -7.22835" fill="none" stroke="black"/>
<path d="M64.4213,310.666h -7.22835" fill="none" stroke="black"/>
<path d="M64.4213,304.178h -7.22835" fill="none" stroke="black"/>
<path d="M71.6496,297.69h -14.4567" fill="none" stroke="black"/>
<path d="M64.4213,291.201h -7.22835" fill="none" stroke="black"/>
<path d="M64.4213,284.713h -7.22835" fill="none" stroke="black"/>
<path d="M64.4213,278.225h -7.22835" fill="none" stroke="black"/>
<path d="M64.4213,271.737h -7.22835" fill="none" stroke="black"/>
<path d="M71.6496,265.248h -14.4567" fill="none" stroke="black"/>
<path d="M64.4213,258.76h -7.22835" fill="none" stroke="black"/>
<path d="M64.4213,252.272h -7.22835" fill="none" stroke="black"/>
<path d="M64.4213,245.784h -7.22835" fill="none" stroke="black"/>
<path d="M64.4213,239.295h -7.22835" fill="none" stroke="black"/>
<path d="M71.6496,232.807h -14.4567" fill="none" stroke="black"/>
<path d="M64.4213,226.319h -7.22835" fill="none" stroke="black"/>
<path d="M64.4213,219.83h -7.22835" fill="none" stroke="black"/>
<path d="M64.4213,213.342h -7.22835" fill="none" stroke="black"/>
<path d="M64.4213,206.854h -7.22835" fill="none" stroke="black"/>
<path d="M71.6496,200.366h -14.4567" fill="none" stroke="black"/>
<path d="M64.4213,193.877h -7.22835" fill="none" stroke="black"/>
<path d="M64.4213,187.389h -7.22835" fill="none" stroke="black"/>
<path d="M64.4213,180.901h -7.22835" fill="none" stroke="black"/>
<path d="M64.4213,174.412h -7.22835" fill="none" stroke="black"/>
<path d="M71.6496,167.924h -14.4567" fill="none" stroke="black"/>
<path d="M64.4213,161.436h -7.22835" fill="none" stroke="black"/>
<path d="M64.4213,154.948h -7.22835" fill="none" stroke="black"/>
<path d="M64.4213,148.459h -7.22835" fill="none" stroke="black"/>
<path d="M64.4213,141.971h -7.22835" fill="none" stroke="black"/>
<path d="M71.6496,135.483h -14.4567" fill="none" stroke="black"/>
<path d="M64.4213,128.995h -7.22835" fill="none" stroke="black"/>
<path d="M64.4213,122.506h -7.22835" fill="none" stroke="black"/>
<path d="M64.4213,116.018h -7.22835" fill="none" stroke="black"/>
<path d="M64.4213,109.53h -7.22835" fill="none" stroke="black"/>
<path d="M71.6496,103.041h -14.4567" fill="none" stroke="black"/>
<path d="M64.4213,96.5532h -7.22835" fill="none" stroke="black"/>
<path d="M64.4213,90.0649h -7.22835" fill="none" stroke="black"/>
<path d="M64.4213,83.5766h -7.22835" fill="none" stroke="black"/>
<path d="M64.4213,77.0883h -7.22835" fill="none" stroke="black"/>
<path d="M71.6496,70.6001h -14.4567" fill="none" stroke="black"/>
<path d="M64.4213,64.1118h -7.22835" fill="none" stroke="black"/>
<path d="M64.4213,57.6235h -7.22835" fill="none" stroke="black"/>
<path d="M64.4213,51.1352h -7.22835" fill="none" stroke="black"/>
<path d="M64.4213,44.647h -7.22835" fill="none" stroke="black"/>
<path d="M71.6496,38.1587h -14.4567" fill="none" stroke="black"/>
<path d="M71.6496,330.131h -14.4567" fill="none" stroke="black"/>
<path d="M64.4213,336.619h -7.22835" fill="none" stroke="black"/>
<path d="M64.4213,343.108h -7.22835" fill="none" stroke="black"/>
<path d="M64.4213,349.596h -7.22835" fill="none" stroke="black"/>
<path d="M64.4213,356.084h -7.22835" fill="none" stroke="black"/>
<text xml:space="preserve" x="27.9932" y="336.555" fill="black" font-size="18.004" font-family="Helvetica">0.5</text>
<text xml:space="preserve" x="46.006" y="305.27" fill="black" font-size="18.004" font-family="Helvetica">1</text>
<text xml:space="preserve" x="27.9932" y="271.14" fill="black" font-size="18.004" font-family="Helvetica">1.5</text>
<text xml:space="preserve" x="43.1619" y="239.855" fill="black" font-size="18.004" font-family="Helvetica">2</text>
<text xml:space="preserve" x="27.9932" y="206.673" fill="black" font-size="18.004" font-family="Helvetica">2.5</text>
<text xml:space="preserve" x="43.1619" y="174.44" fill="black" font-size="18.004" font-family="Helvetica">3</text>
<text xml:space="preserve" x="27.9932" y="141.258" fill="black" font-size="18.004" font-family="Helvetica">3.5</text>
<text xml:space="preserve" x="43.1619" y="109.973" fill="black" font-size="18.004" font-family="Helvetica">4</text>
<text xml:space="preserve" x="27.9932" y="76.7914" fill="black" font-size="18.004" font-family="Helvetica">4.5</text>
<text xml:space="preserve" x="43.1619" y="44.558" fill="black" font-size="18.004" font-family="Helvetica">5</text>
<g transform="rotate(-90,-12.7726,107.129)">
<text xml:space="preserve" x="-12.7726" y="107.129" fill="black" font-size="21.5048" font-family="Helvetica"> Parton</text>
</g>
<g transform="rotate(-90,0.5,119.453)">
<text xml:space="preserve" x="0.5" y="119.453" fill="black" font-size="21.5048" font-family="Times">&#0967;</text>
</g>
<g transform="rotate(-90,0.5,130.83)">
<text xml:space="preserve" x="0.5" y="130.83" fill="black" font-size="21.5048" font-family="Helvetica">d</text>
</g>
<g transform="rotate(-90,-23.201,120.401)">
<text xml:space="preserve" x="-23.201" y="120.401" fill="black" font-size="21.5048" font-family="Times">&#0963;</text>
</g>
<g transform="rotate(-90,-23.201,131.778)">
<text xml:space="preserve" x="-23.201" y="131.778" fill="black" font-size="21.5048" font-family="Helvetica">d</text>
</g>
<path d="M99.7126,360.772v -0.349071" fill="none" stroke="black" stroke-width="2"/>
<path d="M99.7126,360.422v -0.349071" fill="none" stroke="black" stroke-width="2"/>
<path d="M57.1929,360.422h 42.5197" fill="none" stroke="black" stroke-width="2"/>
<path d="M99.7126,360.422h 42.5197" fill="none" stroke="black" stroke-width="2"/>
<g stroke="black" stroke-width="1" fill="none">
<line x1="98.7126" y1="360.422" x2="99.7126" y2="360.422"/>
</g>
<path d="M165.854,343.951v -1.31188" fill="none" stroke="black" stroke-width="2"/>
<path d="M165.854,342.639v -1.31188" fill="none" stroke="black" stroke-width="2"/>
<path d="M142.232,342.639h 23.622" fill="none" stroke="black" stroke-width="2"/>
<path d="M165.854,342.639h 23.622" fill="none" stroke="black" stroke-width="2"/>
<g stroke="black" stroke-width="1" fill="none">
<line x1="164.854" y1="342.639" x2="165.854" y2="342.639"/>
</g>
<path d="M213.098,316.898v -1.91742" fill="none" stroke="black" stroke-width="2"/>
<path d="M213.098,314.981v -1.91742" fill="none" stroke="black" stroke-width="2"/>
<path d="M189.476,314.981h 23.622" fill="none" stroke="black" stroke-width="2"/>
<path d="M213.098,314.981h 23.622" fill="none" stroke="black" stroke-width="2"/>
<g stroke="black" stroke-width="1" fill="none">
<line x1="212.098" y1="314.981" x2="213.098" y2="314.981"/>
</g>
<path d="M260.343,293.919v -2.34505" fill="none" stroke="black" stroke-width="2"/>
<path d="M260.343,291.574v -2.34505" fill="none" stroke="black" stroke-width="2"/>
<path d="M236.72,291.574h 23.622" fill="none" stroke="black" stroke-width="2"/>
<path d="M260.343,291.574h 23.622" fill="none" stroke="black" stroke-width="2"/>
<g stroke="black" stroke-width="1" fill="none">
<line x1="259.343" y1="291.574" x2="260.343" y2="291.574"/>
</g>
<path d="M307.587,292.362v -2.28178" fill="none" stroke="black" stroke-width="2"/>
<path d="M307.587,290.081v -2.28178" fill="none" stroke="black" stroke-width="2"/>
<path d="M283.965,290.081h 23.622" fill="none" stroke="black" stroke-width="2"/>
<path d="M307.587,290.081h 23.622" fill="none" stroke="black" stroke-width="2"/>
<g stroke="black" stroke-width="1" fill="none">
<line x1="306.587" y1="290.081" x2="307.587" y2="290.081"/>
</g>
<path d="M354.831,318.551v -1.90403" fill="none" stroke="black" stroke-width="2"/>
<path d="M354.831,316.647v -1.90403" fill="none" stroke="black" stroke-width="2"/>
<path d="M331.209,316.647h 23.622" fill="none" stroke="black" stroke-width="2"/>
<path d="M354.831,316.647h 23.622" fill="none" stroke="black" stroke-width="2"/>
<g stroke="black" stroke-width="1" fill="none">
<line x1="353.831" y1="316.647" x2="354.831" y2="316.647"/>
</g>
<path d="M402.075,345.496v -1.21059" fill="none" stroke="black" stroke-width="2"/>
<path d="M402.075,344.286v -1.21059" fill="none" stroke="black" stroke-width="2"/>
<path d="M378.453,344.286h 23.622" fill="none" stroke="black" stroke-width="2"/>
<path d="M402.075,344.286h 23.622" fill="none" stroke="black" stroke-width="2"/>
<g stroke="black" stroke-width="1" fill="none">
<line x1="401.075" y1="344.286" x2="402.075" y2="344.286"/>
</g>
<path d="M468.217,361.813v -0.278347" fill="none" stroke="black" stroke-width="2"/>
<path d="M468.217,361.535v -0.278347" fill="none" stroke="black" stroke-width="2"/>
<path d="M425.697,361.535h 42.5197" fill="none" stroke="black" stroke-width="2"/>
<path d="M468.217,361.535h 42.5197" fill="none" stroke="black" stroke-width="2"/>
<g stroke="black" stroke-width="1" fill="none">
<line x1="467.217" y1="361.535" x2="468.217" y2="361.535"/>
</g>
<path d="M133.37,358.796l 0.563842, 1.54722" fill="none" stroke="#ff0000"/>
<path d="M122.51,358.796l 0.563842, 1.54722" fill="none" stroke="#ff0000"/>
<path d="M111.651,358.796l 0.563842, 1.54722" fill="none" stroke="#ff0000"/>
<path d="M100.791,358.796l 0.563842, 1.54722" fill="none" stroke="#ff0000"/>
<path d="M89.9314,358.796l 0.563842, 1.54722" fill="none" stroke="#ff0000"/>
<path d="M79.0717,358.796l 0.563842, 1.54722" fill="none" stroke="#ff0000"/>
<path d="M68.2121,358.796l 0.563842, 1.54722" fill="none" stroke="#ff0000"/>
<path d="M57.3525,358.796l 0.563842, 1.54722" fill="none" stroke="#ff0000"/>
<g stroke="#ff0000" stroke-width="1" fill="none">
<line x1="98.7126" y1="359.57" x2="99.7126" y2="359.57"/>
</g>
<path d="M185.807,323.891l 3.66903, 10.0681" fill="none" stroke="#ff0000"/>
<path d="M174.948,323.891l 6.60684, 18.1296" fill="none" stroke="#ff0000"/>
<path d="M164.088,323.891l 6.60684, 18.1296" fill="none" stroke="#ff0000"/>
<path d="M153.228,323.891l 6.60684, 18.1296" fill="none" stroke="#ff0000"/>
<path d="M142.369,323.891l 6.60684, 18.1296" fill="none" stroke="#ff0000"/>
<g stroke="#ff0000" stroke-width="1" fill="none">
<line x1="164.854" y1="332.955" x2="165.854" y2="332.955"/>
</g>
<path d="M231.554,270.624l 5.16694, 14.1784" fill="none" stroke="#ff0000"/>
<path d="M220.694,270.624l 16.0266, 43.978" fill="none" stroke="#ff0000"/>
<path d="M209.834,270.624l 17.4742, 47.9505" fill="none" stroke="#ff0000"/>
<path d="M198.975,270.624l 17.4742, 47.9505" fill="none" stroke="#ff0000"/>
<path d="M189.476,274.359l 16.1128, 44.2147" fill="none" stroke="#ff0000"/>
<path d="M189.476,304.159l 5.25319, 14.4151" fill="none" stroke="#ff0000"/>
<g stroke="#ff0000" stroke-width="1" fill="none">
<line x1="212.098" y1="294.599" x2="213.098" y2="294.599"/>
</g>
<path d="M281.12,227.841l 2.84413, 7.80448" fill="none" stroke="#ff0000"/>
<path d="M270.261,227.841l 13.7038, 37.6041" fill="none" stroke="#ff0000"/>
<path d="M259.401,227.841l 24.5634, 67.4037" fill="none" stroke="#ff0000"/>
<path d="M248.542,227.841l 26.8665, 73.7234" fill="none" stroke="#ff0000"/>
<path d="M237.682,227.841l 26.8665, 73.7234" fill="none" stroke="#ff0000"/>
<path d="M236.72,255.003l 16.9682, 46.5619" fill="none" stroke="#ff0000"/>
<path d="M236.72,284.802l 6.10857, 16.7623" fill="none" stroke="#ff0000"/>
<g stroke="#ff0000" stroke-width="1" fill="none">
<line x1="259.343" y1="264.703" x2="260.343" y2="264.703"/>
</g>
<path d="M324.624,228.02l 6.5846, 18.0686" fill="none" stroke="#ff0000"/>
<path d="M313.764,228.02l 17.4442, 47.8682" fill="none" stroke="#ff0000"/>
<path d="M302.905,228.02l 26.74, 73.3764" fill="none" stroke="#ff0000"/>
<path d="M292.045,228.02l 26.74, 73.3764" fill="none" stroke="#ff0000"/>
<path d="M283.965,235.646l 23.9609, 65.7504" fill="none" stroke="#ff0000"/>
<path d="M283.965,265.445l 13.1013, 35.9508" fill="none" stroke="#ff0000"/>
<path d="M283.965,295.245l 2.24164, 6.1512" fill="none" stroke="#ff0000"/>
<g stroke="#ff0000" stroke-width="1" fill="none">
<line x1="306.587" y1="264.708" x2="307.587" y2="264.708"/>
</g>
<path d="M372.734,270.639l 5.71842, 15.6917" fill="none" stroke="#ff0000"/>
<path d="M361.875,270.639l 16.5781, 45.4913" fill="none" stroke="#ff0000"/>
<path d="M351.015,270.639l 17.592, 48.2737" fill="none" stroke="#ff0000"/>
<path d="M340.155,270.639l 17.592, 48.2737" fill="none" stroke="#ff0000"/>
<path d="M331.209,275.888l 15.6791, 43.0246" fill="none" stroke="#ff0000"/>
<path d="M331.209,305.687l 4.81947, 13.225" fill="none" stroke="#ff0000"/>
<g stroke="#ff0000" stroke-width="1" fill="none">
<line x1="353.831" y1="294.776" x2="354.831" y2="294.776"/>
</g>
<path d="M424.745,323.962l 0.951356, 2.61059" fill="none" stroke="#ff0000"/>
<path d="M413.886,323.962l 6.62787, 18.1873" fill="none" stroke="#ff0000"/>
<path d="M403.026,323.962l 6.62787, 18.1873" fill="none" stroke="#ff0000"/>
<path d="M392.167,323.962l 6.62787, 18.1873" fill="none" stroke="#ff0000"/>
<path d="M381.307,323.962l 6.62787, 18.1873" fill="none" stroke="#ff0000"/>
<g stroke="#ff0000" stroke-width="1" fill="none">
<line x1="401.075" y1="333.056" x2="402.075" y2="333.056"/>
</g>
<path d="M502.605,358.816l 0.567893, 1.55834" fill="none" stroke="#ff0000"/>
<path d="M491.745,358.816l 0.567893, 1.55834" fill="none" stroke="#ff0000"/>
<path d="M480.886,358.816l 0.567893, 1.55834" fill="none" stroke="#ff0000"/>
<path d="M470.026,358.816l 0.567893, 1.55834" fill="none" stroke="#ff0000"/>
<path d="M459.166,358.816l 0.567893, 1.55834" fill="none" stroke="#ff0000"/>
<path d="M448.307,358.816l 0.567893, 1.55834" fill="none" stroke="#ff0000"/>
<path d="M437.447,358.816l 0.567893, 1.55834" fill="none" stroke="#ff0000"/>
<path d="M426.587,358.816l 0.567893, 1.55834" fill="none" stroke="#ff0000"/>
<g stroke="#ff0000" stroke-width="1" fill="none">
<line x1="467.217" y1="359.595" x2="468.217" y2="359.595"/>
</g>
<path d="M99.7126,359.585v -0.0148395" fill="none" stroke="#ff0000" stroke-width="2"/>
<path d="M99.7126,359.57v -0.0148395" fill="none" stroke="#ff0000" stroke-width="2"/>
<path d="M57.1929,359.57h 42.5197" fill="none" stroke="#ff0000" stroke-width="2"/>
<path d="M99.7126,359.57h 42.5197" fill="none" stroke="#ff0000" stroke-width="2"/>
<g stroke="#ff0000" stroke-width="1" fill="none">
<line x1="98.7126" y1="359.57" x2="99.7126" y2="359.57"/>
</g>
<path d="M165.854,333.018v -0.0629945" fill="none" stroke="#ff0000" stroke-width="2"/>
<path d="M165.854,332.955v -0.0629945" fill="none" stroke="#ff0000" stroke-width="2"/>
<path d="M142.232,332.955h 23.622" fill="none" stroke="#ff0000" stroke-width="2"/>
<path d="M165.854,332.955h 23.622" fill="none" stroke="#ff0000" stroke-width="2"/>
<g stroke="#ff0000" stroke-width="1" fill="none">
<line x1="164.854" y1="332.955" x2="165.854" y2="332.955"/>
</g>
<path d="M213.098,294.695v -0.0960723" fill="none" stroke="#ff0000" stroke-width="2"/>
<path d="M213.098,294.599v -0.0960723" fill="none" stroke="#ff0000" stroke-width="2"/>
<path d="M189.476,294.599h 23.622" fill="none" stroke="#ff0000" stroke-width="2"/>
<path d="M213.098,294.599h 23.622" fill="none" stroke="#ff0000" stroke-width="2"/>
<g stroke="#ff0000" stroke-width="1" fill="none">
<line x1="212.098" y1="294.599" x2="213.098" y2="294.599"/>
</g>
<path d="M260.343,264.818v -0.115549" fill="none" stroke="#ff0000" stroke-width="2"/>
<path d="M260.343,264.703v -0.115549" fill="none" stroke="#ff0000" stroke-width="2"/>
<path d="M236.72,264.703h 23.622" fill="none" stroke="#ff0000" stroke-width="2"/>
<path d="M260.343,264.703h 23.622" fill="none" stroke="#ff0000" stroke-width="2"/>
<g stroke="#ff0000" stroke-width="1" fill="none">
<line x1="259.343" y1="264.703" x2="260.343" y2="264.703"/>
</g>
<path d="M307.587,264.823v -0.115526" fill="none" stroke="#ff0000" stroke-width="2"/>
<path d="M307.587,264.708v -0.115526" fill="none" stroke="#ff0000" stroke-width="2"/>
<path d="M283.965,264.708h 23.622" fill="none" stroke="#ff0000" stroke-width="2"/>
<path d="M307.587,264.708h 23.622" fill="none" stroke="#ff0000" stroke-width="2"/>
<g stroke="#ff0000" stroke-width="1" fill="none">
<line x1="306.587" y1="264.708" x2="307.587" y2="264.708"/>
</g>
<path d="M354.831,294.871v -0.0959498" fill="none" stroke="#ff0000" stroke-width="2"/>
<path d="M354.831,294.776v -0.0959498" fill="none" stroke="#ff0000" stroke-width="2"/>
<path d="M331.209,294.776h 23.622" fill="none" stroke="#ff0000" stroke-width="2"/>
<path d="M354.831,294.776h 23.622" fill="none" stroke="#ff0000" stroke-width="2"/>
<g stroke="#ff0000" stroke-width="1" fill="none">
<line x1="353.831" y1="294.776" x2="354.831" y2="294.776"/>
</g>
<path d="M402.075,333.119v -0.0629414" fill="none" stroke="#ff0000" stroke-width="2"/>
<path d="M402.075,333.056v -0.0629414" fill="none" stroke="#ff0000" stroke-width="2"/>
<path d="M378.453,333.056h 23.622" fill="none" stroke="#ff0000" stroke-width="2"/>
<path d="M402.075,333.056h 23.622" fill="none" stroke="#ff0000" stroke-width="2"/>
<g stroke="#ff0000" stroke-width="1" fill="none">
<line x1="401.075" y1="333.056" x2="402.075" y2="333.056"/>
</g>
<path d="M468.217,359.61v -0.0147943" fill="none" stroke="#ff0000" stroke-width="2"/>
<path d="M468.217,359.595v -0.0147943" fill="none" stroke="#ff0000" stroke-width="2"/>
<path d="M425.697,359.595h 42.5197" fill="none" stroke="#ff0000" stroke-width="2"/>
<path d="M468.217,359.595h 42.5197" fill="none" stroke="#ff0000" stroke-width="2"/>
<g stroke="#ff0000" stroke-width="1" fill="none">
<line x1="467.217" y1="359.595" x2="468.217" y2="359.595"/>
</g>
<rect x="193.256" y="194.609" width="170.079" height="152.635" fill="white"/>
<text xml:space="preserve" x="235.614" y="218.05" fill="black" font-size="12.5802" font-family="Helvetica">Data</text>
<path d="M214.516,209.897v -7.65544" fill="none" stroke="black" stroke-width="2"/>
<path d="M214.516,217.481v 7.65544" fill="none" stroke="black" stroke-width="2"/>
<g fill="black">
<circle cx="214.516" cy="213.689" r="3.79217"/>
</g>
<text xml:space="preserve" x="235.614" y="255.971" fill="black" font-size="12.5802" font-family="Helvetica">Total unc.</text>
<path d="M199.634,265.203h 29.7638v -26.7111h -29.7638z" fill="#cccccc"/>
<path d="M199.634,238.492h 29.7638" fill="none" stroke="black" stroke-width="2"/>
<path d="M199.634,265.203h 29.7638" fill="none" stroke="black" stroke-width="2"/>
<path d="M229.398,265.203v -26.7111" fill="none" stroke="black" stroke-width="2"/>
<path d="M199.634,265.203v -26.7111" fill="none" stroke="black" stroke-width="2"/>
<text xml:space="preserve" x="235.614" y="292.945" fill="black" font-size="12.5802" font-family="Helvetica">Powheg+Pythia8</text>
<path d="M199.634,290.006h 29.7638" fill="none" stroke="#ff0000" stroke-width="2"/>
<path d="M214.516,301.454v -22.8952" fill="none" stroke="#ff0000" stroke-width="2"/>
<text xml:space="preserve" x="235.614" y="331.815" fill="black" font-size="12.5802" font-family="Helvetica">Powheg+Pythia8 unc</text>
<path d="M225.936,314.809l 3.46119, 9.49774" fill="none" stroke="#ff0000"/>
<path d="M215.077,314.809l 9.73412, 26.7111" fill="none" stroke="#ff0000"/>
<path d="M204.217,314.809l 9.73412, 26.7111" fill="none" stroke="#ff0000"/>
<path d="M199.634,332.032l 3.45778, 9.48839" fill="none" stroke="#ff0000"/>
<path d="M199.634,314.809h 29.7638" fill="none" stroke="#ff0000" stroke-width="2"/>
<path d="M199.634,341.52h 29.7638" fill="none" stroke="#ff0000" stroke-width="2"/>
<path d="M229.398,341.52v -26.7111" fill="none" stroke="#ff0000" stroke-width="2"/>
<path d="M199.634,341.52v -26.7111" fill="none" stroke="#ff0000" stroke-width="2"/>
<text xml:space="preserve" x="420.483" y="30.3373" fill="black" font-size="21.5048" font-family="Helvetica"> (13 TeV)</text>
<text xml:space="preserve" x="410.054" y="19.9089" fill="black" font-size="14.5032" font-family="Helvetica">-1</text>
<text xml:space="preserve" x="343.691" y="30.3373" fill="black" font-size="21.5048" font-family="Helvetica">20.1 fb</text>
<text xml:space="preserve" x="57.1929" y="30.527" fill="black" font-size="26.756" font-family="Helvetica" font-weight="bold">CMS</text>
<text xml:space="preserve" x="77.2914" y="64.4669" fill="black" font-size="20.4545" font-family="Helvetica" font-style="oblique">Work in progress</text>
<rect x="0.5" y="381.587" width="566.929" height="136.281" fill="white"/>
<rect x="57.1929" y="385.675" width="453.543" height="102.211" fill="white"/>
<rect x="57.1929" y="385.675" width="453.543" height="102.211" fill="none" stroke="black"/>
<rect x="57.1929" y="385.675" width="453.543" height="102.211" fill="white"/>
<rect x="57.1929" y="385.675" width="453.543" height="102.211" fill="none" stroke="black"/>
<path d="M57.1929,487.886h 453.543" fill="none" stroke="black"/>
<path d="M57.1929,487.886v -102.211" fill="none" stroke="black"/>
<path d="M510.736,487.886h -453.543" fill="none" stroke="black" stroke-dasharray=" 1, 2"/>
<path d="M510.736,462.333h -453.543" fill="none" stroke="black" stroke-dasharray=" 1, 2"/>
<path d="M510.736,436.781h -453.543" fill="none" stroke="black" stroke-dasharray=" 1, 2"/>
<path d="M510.736,411.228h -453.543" fill="none" stroke="black" stroke-dasharray=" 1, 2"/>
<path d="M510.736,385.675h -453.543" fill="none" stroke="black" stroke-dasharray=" 1, 2"/>
<rect x="57.1929" y="421.939" width="85.0394" height="29.6845" fill="#cccccc"/>
<g fill="black">
<circle cx="99.7126" cy="436.781" r="3.79217"/>
</g>
<rect x="142.232" y="429.313" width="47.2441" height="14.9359" fill="#cccccc"/>
<g fill="black">
<circle cx="165.854" cy="436.781" r="3.79217"/>
</g>
<rect x="189.476" y="429.611" width="47.2441" height="14.3388" fill="#cccccc"/>
<g fill="black">
<circle cx="213.098" cy="436.781" r="3.79217"/>
</g>
<rect x="236.72" y="430.367" width="47.2441" height="12.8281" fill="#cccccc"/>
<g fill="black">
<circle cx="260.343" cy="436.781" r="3.79217"/>
</g>
<rect x="283.965" y="429.441" width="47.2441" height="14.6794" fill="#cccccc"/>
<g fill="black">
<circle cx="307.587" cy="436.781" r="3.79217"/>
</g>
<rect x="331.209" y="430.277" width="47.2441" height="13.0068" fill="#cccccc"/>
<g fill="black">
<circle cx="354.831" cy="436.781" r="3.79217"/>
</g>
<rect x="378.453" y="428.431" width="47.2441" height="16.6987" fill="#cccccc"/>
<g fill="black">
<circle cx="402.075" cy="436.781" r="3.79217"/>
</g>
<rect x="425.697" y="423.504" width="85.0394" height="26.5544" fill="#cccccc"/>
<g fill="black">
<circle cx="468.217" cy="436.781" r="3.79217"/>
</g>
<path d="M57.1929,487.886h 453.543" fill="none" stroke="black"/>
<path d="M94.9882,484.615v 3.27075" fill="none" stroke="black"/>
<path d="M104.437,486.251v 1.63537" fill="none" stroke="black"/>
<path d="M113.886,486.251v 1.63537" fill="none" stroke="black"/>
<path d="M123.335,486.251v 1.63537" fill="none" stroke="black"/>
<path d="M132.783,486.251v 1.63537" fill="none" stroke="black"/>
<path d="M142.232,484.615v 3.27075" fill="none" stroke="black"/>
<path d="M151.681,486.251v 1.63537" fill="none" stroke="black"/>
<path d="M161.13,486.251v 1.63537" fill="none" stroke="black"/>
<path d="M170.579,486.251v 1.63537" fill="none" stroke="black"/>
<path d="M180.028,486.251v 1.63537" fill="none" stroke="black"/>
<path d="M189.476,484.615v 3.27075" fill="none" stroke="black"/>
<path d="M198.925,486.251v 1.63537" fill="none" stroke="black"/>
<path d="M208.374,486.251v 1.63537" fill="none" stroke="black"/>
<path d="M217.823,486.251v 1.63537" fill="none" stroke="black"/>
<path d="M227.272,486.251v 1.63537" fill="none" stroke="black"/>
<path d="M236.72,484.615v 3.27075" fill="none" stroke="black"/>
<path d="M246.169,486.251v 1.63537" fill="none" stroke="black"/>
<path d="M255.618,486.251v 1.63537" fill="none" stroke="black"/>
<path d="M265.067,486.251v 1.63537" fill="none" stroke="black"/>
<path d="M274.516,486.251v 1.63537" fill="none" stroke="black"/>
<path d="M283.965,484.615v 3.27075" fill="none" stroke="black"/>
<path d="M293.413,486.251v 1.63537" fill="none" stroke="black"/>
<path d="M302.862,486.251v 1.63537" fill="none" stroke="black"/>
<path d="M312.311,486.251v 1.63537" fill="none" stroke="black"/>
<path d="M321.76,486.251v 1.63537" fill="none" stroke="black"/>
<path d="M331.209,484.615v 3.27075" fill="none" stroke="black"/>
<path d="M340.657,486.251v 1.63537" fill="none" stroke="black"/>
<path d="M350.106,486.251v 1.63537" fill="none" stroke="black"/>
<path d="M359.555,486.251v 1.63537" fill="none" stroke="black"/>
<path d="M369.004,486.251v 1.63537" fill="none" stroke="black"/>
<path d="M378.453,484.615v 3.27075" fill="none" stroke="black"/>
<path d="M387.902,486.251v 1.63537" fill="none" stroke="black"/>
<path d="M397.35,486.251v 1.63537" fill="none" stroke="black"/>
<path d="M406.799,486.251v 1.63537" fill="none" stroke="black"/>
<path d="M416.248,486.251v 1.63537" fill="none" stroke="black"/>
<path d="M425.697,484.615v 3.27075" fill="none" stroke="black"/>
<path d="M435.146,486.251v 1.63537" fill="none" stroke="black"/>
<path d="M444.594,486.251v 1.63537" fill="none" stroke="black"/>
<path d="M454.043,486.251v 1.63537" fill="none" stroke="black"/>
<path d="M463.492,486.251v 1.63537" fill="none" stroke="black"/>
<path d="M472.941,484.615v 3.27075" fill="none" stroke="black"/>
<path d="M94.9882,484.615v 3.27075" fill="none" stroke="black"/>
<path d="M85.5394,486.251v 1.63537" fill="none" stroke="black"/>
<path d="M76.0906,486.251v 1.63537" fill="none" stroke="black"/>
<path d="M66.6417,486.251v 1.63537" fill="none" stroke="black"/>
<path d="M57.1929,486.251v 1.63537" fill="none" stroke="black"/>
<path d="M472.941,484.615v 3.27075" fill="none" stroke="black"/>
<path d="M482.39,486.251v 1.63537" fill="none" stroke="black"/>
<path d="M491.839,486.251v 1.63537" fill="none" stroke="black"/>
<path d="M501.287,486.251v 1.63537" fill="none" stroke="black"/>
<path d="M510.736,486.251v 1.63537" fill="none" stroke="black"/>
<text xml:space="preserve" x="93.4081" y="502.462" fill="black" font-size="15.5034" font-family="Helvetica">2</text>
<text xml:space="preserve" x="85.8238" y="502.462" fill="black" font-size="15.5034" font-family="Times">&#8722;</text>
<text xml:space="preserve" x="135.122" y="502.462" fill="black" font-size="15.5034" font-family="Helvetica">1.5</text>
<text xml:space="preserve" x="126.59" y="502.462" fill="black" font-size="15.5034" font-family="Times">&#8722;</text>
<text xml:space="preserve" x="190.108" y="502.462" fill="black" font-size="15.5034" font-family="Helvetica">1</text>
<text xml:space="preserve" x="181.576" y="502.462" fill="black" font-size="15.5034" font-family="Times">&#8722;</text>
<text xml:space="preserve" x="229.926" y="502.462" fill="black" font-size="15.5034" font-family="Helvetica">0.5</text>
<text xml:space="preserve" x="221.394" y="502.462" fill="black" font-size="15.5034" font-family="Times">&#8722;</text>
<text xml:space="preserve" x="279.224" y="502.462" fill="black" font-size="15.5034" font-family="Helvetica">0</text>
<text xml:space="preserve" x="319.99" y="502.462" fill="black" font-size="15.5034" font-family="Helvetica">0.5</text>
<text xml:space="preserve" x="374.977" y="502.462" fill="black" font-size="15.5034" font-family="Helvetica">1</text>
<text xml:space="preserve" x="414.794" y="502.462" fill="black" font-size="15.5034" font-family="Helvetica">1.5</text>
<text xml:space="preserve" x="467.885" y="502.462" fill="black" font-size="15.5034" font-family="Helvetica">2</text>
<text xml:space="preserve" x="489.69" y="517.631" fill="black" font-size="14.8783" font-family="Helvetica">yJJ</text>
<path d="M57.1929,487.886v -102.211" fill="none" stroke="black"/>
<path d="M69.9488,487.886h -12.7559" fill="none" stroke="black"/>
<path d="M63.5709,482.776h -6.37795" fill="none" stroke="black"/>
<path d="M63.5709,477.665h -6.37795" fill="none" stroke="black"/>
<path d="M63.5709,472.555h -6.37795" fill="none" stroke="black"/>
<path d="M63.5709,467.444h -6.37795" fill="none" stroke="black"/>
<path d="M69.9488,462.333h -12.7559" fill="none" stroke="black"/>
<path d="M63.5709,457.223h -6.37795" fill="none" stroke="black"/>
<path d="M63.5709,452.112h -6.37795" fill="none" stroke="black"/>
<path d="M63.5709,447.002h -6.37795" fill="none" stroke="black"/>
<path d="M63.5709,441.891h -6.37795" fill="none" stroke="black"/>
<path d="M69.9488,436.781h -12.7559" fill="none" stroke="black"/>
<path d="M63.5709,431.67h -6.37795" fill="none" stroke="black"/>
<path d="M63.5709,426.56h -6.37795" fill="none" stroke="black"/>
<path d="M63.5709,421.449h -6.37795" fill="none" stroke="black"/>
<path d="M63.5709,416.339h -6.37795" fill="none" stroke="black"/>
<path d="M69.9488,411.228h -12.7559" fill="none" stroke="black"/>
<path d="M63.5709,406.118h -6.37795" fill="none" stroke="black"/>
<path d="M63.5709,401.007h -6.37795" fill="none" stroke="black"/>
<path d="M63.5709,395.896h -6.37795" fill="none" stroke="black"/>
<path d="M63.5709,390.786h -6.37795" fill="none" stroke="black"/>
<path d="M69.9488,385.675h -12.7559" fill="none" stroke="black"/>
<text xml:space="preserve" x="46.006" y="492.982" fill="black" font-size="13.0028" font-family="Helvetica">2</text>
<text xml:space="preserve" x="38.4217" y="492.982" fill="black" font-size="13.0028" font-family="Times">&#8722;</text>
<text xml:space="preserve" x="47.9021" y="467.385" fill="black" font-size="13.0028" font-family="Helvetica">1</text>
<text xml:space="preserve" x="40.3178" y="467.385" fill="black" font-size="13.0028" font-family="Times">&#8722;</text>
<text xml:space="preserve" x="46.006" y="440.84" fill="black" font-size="13.0028" font-family="Helvetica">0</text>
<text xml:space="preserve" x="47.9021" y="416.19" fill="black" font-size="13.0028" font-family="Helvetica">1</text>
<text xml:space="preserve" x="46.006" y="390.593" fill="black" font-size="13.0028" font-family="Helvetica">2</text>
<g transform="rotate(-90,26.0971,474.969)">
<text xml:space="preserve" x="26.0971" y="474.969" fill="black" font-size="14.8783" font-family="Helvetica">The./data - 1</text>
</g>
<path d="M99.7126,442.648v -5.86723" fill="none" stroke="black" stroke-width="2"/>
<path d="M99.7126,436.781v -5.86723" fill="none" stroke="black" stroke-width="2"/>
<path d="M57.1929,436.781h 42.5197" fill="none" stroke="black" stroke-width="2"/>
<path d="M99.7126,436.781h 42.5197" fill="none" stroke="black" stroke-width="2"/>
<g stroke="black" stroke-width="1" fill="none">
<line x1="98.7126" y1="436.781" x2="99.7126" y2="436.781"/>
</g>
<path d="M165.854,439.159v -2.37826" fill="none" stroke="black" stroke-width="2"/>
<path d="M165.854,436.781v -2.37826" fill="none" stroke="black" stroke-width="2"/>
<path d="M142.232,436.781h 23.622" fill="none" stroke="black" stroke-width="2"/>
<path d="M165.854,436.781h 23.622" fill="none" stroke="black" stroke-width="2"/>
<g stroke="black" stroke-width="1" fill="none">
<line x1="164.854" y1="436.781" x2="165.854" y2="436.781"/>
</g>
<path d="M213.098,438.237v -1.45592" fill="none" stroke="black" stroke-width="2"/>
<path d="M213.098,436.781v -1.45592" fill="none" stroke="black" stroke-width="2"/>
<path d="M189.476,436.781h 23.622" fill="none" stroke="black" stroke-width="2"/>
<path d="M213.098,436.781h 23.622" fill="none" stroke="black" stroke-width="2"/>
<g stroke="black" stroke-width="1" fill="none">
<line x1="212.098" y1="436.781" x2="213.098" y2="436.781"/>
</g>
<path d="M260.343,437.974v -1.19359" fill="none" stroke="black" stroke-width="2"/>
<path d="M260.343,436.781v -1.19359" fill="none" stroke="black" stroke-width="2"/>
<path d="M236.72,436.781h 23.622" fill="none" stroke="black" stroke-width="2"/>
<path d="M260.343,436.781h 23.622" fill="none" stroke="black" stroke-width="2"/>
<g stroke="black" stroke-width="1" fill="none">
<line x1="259.343" y1="436.781" x2="260.343" y2="436.781"/>
</g>
<path d="M307.587,437.918v -1.13746" fill="none" stroke="black" stroke-width="2"/>
<path d="M307.587,436.781v -1.13746" fill="none" stroke="black" stroke-width="2"/>
<path d="M283.965,436.781h 23.622" fill="none" stroke="black" stroke-width="2"/>
<path d="M307.587,436.781h 23.622" fill="none" stroke="black" stroke-width="2"/>
<g stroke="black" stroke-width="1" fill="none">
<line x1="306.587" y1="436.781" x2="307.587" y2="436.781"/>
</g>
<path d="M354.831,438.279v -1.49819" fill="none" stroke="black" stroke-width="2"/>
<path d="M354.831,436.781v -1.49819" fill="none" stroke="black" stroke-width="2"/>
<path d="M331.209,436.781h 23.622" fill="none" stroke="black" stroke-width="2"/>
<path d="M354.831,436.781h 23.622" fill="none" stroke="black" stroke-width="2"/>
<g stroke="black" stroke-width="1" fill="none">
<line x1="353.831" y1="436.781" x2="354.831" y2="436.781"/>
</g>
<path d="M402.075,439.173v -2.39227" fill="none" stroke="black" stroke-width="2"/>
<path d="M402.075,436.781v -2.39227" fill="none" stroke="black" stroke-width="2"/>
<path d="M378.453,436.781h 23.622" fill="none" stroke="black" stroke-width="2"/>
<path d="M402.075,436.781h 23.622" fill="none" stroke="black" stroke-width="2"/>
<g stroke="black" stroke-width="1" fill="none">
<line x1="401.075" y1="436.781" x2="402.075" y2="436.781"/>
</g>
<path d="M468.217,446.477v -9.69581" fill="none" stroke="black" stroke-width="2"/>
<path d="M468.217,436.781v -9.69581" fill="none" stroke="black" stroke-width="2"/>
<path d="M425.697,436.781h 42.5197" fill="none" stroke="black" stroke-width="2"/>
<path d="M468.217,436.781h 42.5197" fill="none" stroke="black" stroke-width="2"/>
<g stroke="black" stroke-width="1" fill="none">
<line x1="467.217" y1="436.781" x2="468.217" y2="436.781"/>
</g>
<path d="M137.033,415.781l 5.19941, 14.2605" fill="none" stroke="#ff0000"/>
<path d="M126.173,415.781l 7.92481, 21.7354" fill="none" stroke="#ff0000"/>
<path d="M115.314,415.781l 7.92481, 21.7354" fill="none" stroke="#ff0000"/>
<path d="M104.454,415.781l 7.92481, 21.7354" fill="none" stroke="#ff0000"/>
<path d="M93.5943,415.781l 7.92481, 21.7354" fill="none" stroke="#ff0000"/>
<path d="M82.7347,415.781l 7.92481, 21.7354" fill="none" stroke="#ff0000"/>
<path d="M71.875,415.781l 7.92481, 21.7354" fill="none" stroke="#ff0000"/>
<path d="M61.0154,415.781l 7.92481, 21.7354" fill="none" stroke="#ff0000"/>
<path d="M57.1929,435.082l 0.887642, 2.43454" fill="none" stroke="#ff0000"/>
<g stroke="#ff0000" stroke-width="1" fill="none">
<line x1="98.7126" y1="426.648" x2="99.7126" y2="426.648"/>
</g>
<path d="M179.269,412.482l 8.6671, 23.7713" fill="none" stroke="#ff0000"/>
<path d="M168.409,412.482l 8.6671, 23.7713" fill="none" stroke="#ff0000"/>
<path d="M157.549,412.482l 8.6671, 23.7713" fill="none" stroke="#ff0000"/>
<path d="M146.69,412.482l 8.6671, 23.7713" fill="none" stroke="#ff0000"/>
<path d="M142.232,430.041l 2.26502, 6.21228" fill="none" stroke="#ff0000"/>
<g stroke="#ff0000" stroke-width="1" fill="none">
<line x1="164.854" y1="424.368" x2="165.854" y2="424.368"/>
</g>
<path d="M233.712,412.881l 3.00804, 8.25018" fill="none" stroke="#ff0000"/>
<path d="M222.853,412.881l 9.44789, 25.9128" fill="none" stroke="#ff0000"/>
<path d="M211.993,412.881l 9.44789, 25.9128" fill="none" stroke="#ff0000"/>
<path d="M201.134,412.881l 9.44789, 25.9128" fill="none" stroke="#ff0000"/>
<path d="M190.274,412.881l 9.44789, 25.9128" fill="none" stroke="#ff0000"/>
<g stroke="#ff0000" stroke-width="1" fill="none">
<line x1="212.098" y1="425.837" x2="213.098" y2="425.837"/>
</g>
<path d="M277.483,413.792l 6.4815, 17.7768" fill="none" stroke="#ff0000"/>
<path d="M266.623,413.792l 9.71135, 26.6354" fill="none" stroke="#ff0000"/>
<path d="M255.764,413.792l 9.71135, 26.6354" fill="none" stroke="#ff0000"/>
<path d="M244.904,413.792l 9.71135, 26.6354" fill="none" stroke="#ff0000"/>
<path d="M236.72,421.131l 7.03538, 19.296" fill="none" stroke="#ff0000"/>
<g stroke="#ff0000" stroke-width="1" fill="none">
<line x1="259.343" y1="427.109" x2="260.343" y2="427.109"/>
</g>
<path d="M321.311,414.859l 9.46347, 25.9555" fill="none" stroke="#ff0000"/>
<path d="M310.451,414.859l 9.46347, 25.9555" fill="none" stroke="#ff0000"/>
<path d="M299.592,414.859l 9.46347, 25.9555" fill="none" stroke="#ff0000"/>
<path d="M288.732,414.859l 9.46347, 25.9555" fill="none" stroke="#ff0000"/>
<path d="M283.965,431.569l 3.37118, 9.24615" fill="none" stroke="#ff0000"/>
<g stroke="#ff0000" stroke-width="1" fill="none">
<line x1="306.587" y1="427.837" x2="307.587" y2="427.837"/>
</g>
<path d="M374.235,411.092l 4.21741, 11.5671" fill="none" stroke="#ff0000"/>
<path d="M363.376,411.092l 9.85906, 27.0405" fill="none" stroke="#ff0000"/>
<path d="M352.516,411.092l 9.85906, 27.0405" fill="none" stroke="#ff0000"/>
<path d="M341.656,411.092l 9.85906, 27.0405" fill="none" stroke="#ff0000"/>
<path d="M331.209,412.221l 9.44718, 25.9109" fill="none" stroke="#ff0000"/>
<g stroke="#ff0000" stroke-width="1" fill="none">
<line x1="353.831" y1="424.612" x2="354.831" y2="424.612"/>
</g>
<path d="M416.58,408.092l 9.11669, 25.0044" fill="none" stroke="#ff0000"/>
<path d="M405.721,408.092l 9.47745, 25.9939" fill="none" stroke="#ff0000"/>
<path d="M394.861,408.092l 9.47745, 25.9939" fill="none" stroke="#ff0000"/>
<path d="M384.001,408.092l 9.47745, 25.9939" fill="none" stroke="#ff0000"/>
<path d="M378.453,422.659l 4.16629, 11.4269" fill="none" stroke="#ff0000"/>
<g stroke="#ff0000" stroke-width="1" fill="none">
<line x1="401.075" y1="421.089" x2="402.075" y2="421.089"/>
</g>
<path d="M506.144,385.675l 4.59238, 12.5956" fill="none" stroke="#ff0000"/>
<path d="M495.284,385.675l 11.2337, 30.8108" fill="none" stroke="#ff0000"/>
<path d="M484.425,385.675l 11.2337, 30.8108" fill="none" stroke="#ff0000"/>
<path d="M473.565,385.675l 11.2337, 30.8108" fill="none" stroke="#ff0000"/>
<path d="M462.705,385.675l 11.2337, 30.8108" fill="none" stroke="#ff0000"/>
<path d="M451.846,385.675l 11.2337, 30.8108" fill="none" stroke="#ff0000"/>
<path d="M440.986,385.675l 11.2337, 30.8108" fill="none" stroke="#ff0000"/>
<path d="M430.126,385.675l 11.2337, 30.8108" fill="none" stroke="#ff0000"/>
<path d="M425.697,403.311l 4.8036, 13.1749" fill="none" stroke="#ff0000"/>
<g stroke="#ff0000" stroke-width="1" fill="none">
<line x1="467.217" y1="389.001" x2="468.217" y2="389.001"/>
</g>
<path d="M99.7126,432.445v -5.79655" fill="none" stroke="#ff0000" stroke-width="2"/>
<path d="M99.7126,426.648v -5.79655" fill="none" stroke="#ff0000" stroke-width="2"/>
<path d="M57.1929,426.648h 42.5197" fill="none" stroke="#ff0000" stroke-width="2"/>
<path d="M99.7126,426.648h 42.5197" fill="none" stroke="#ff0000" stroke-width="2"/>
<g stroke="#ff0000" stroke-width="1" fill="none">
<line x1="98.7126" y1="426.648" x2="99.7126" y2="426.648"/>
</g>
<path d="M165.854,426.868v -2.49993" fill="none" stroke="#ff0000" stroke-width="2"/>
<path d="M165.854,424.368v -2.49993" fill="none" stroke="#ff0000" stroke-width="2"/>
<path d="M142.232,424.368h 23.622" fill="none" stroke="#ff0000" stroke-width="2"/>
<path d="M165.854,424.368h 23.622" fill="none" stroke="#ff0000" stroke-width="2"/>
<g stroke="#ff0000" stroke-width="1" fill="none">
<line x1="164.854" y1="424.368" x2="165.854" y2="424.368"/>
</g>
<path d="M213.098,427.309v -1.4713" fill="none" stroke="#ff0000" stroke-width="2"/>
<path d="M213.098,425.837v -1.4713" fill="none" stroke="#ff0000" stroke-width="2"/>
<path d="M189.476,425.837h 23.622" fill="none" stroke="#ff0000" stroke-width="2"/>
<path d="M213.098,425.837h 23.622" fill="none" stroke="#ff0000" stroke-width="2"/>
<g stroke="#ff0000" stroke-width="1" fill="none">
<line x1="212.098" y1="425.837" x2="213.098" y2="425.837"/>
</g>
<path d="M260.343,428.274v -1.16418" fill="none" stroke="#ff0000" stroke-width="2"/>
<path d="M260.343,427.109v -1.16418" fill="none" stroke="#ff0000" stroke-width="2"/>
<path d="M236.72,427.109h 23.622" fill="none" stroke="#ff0000" stroke-width="2"/>
<path d="M260.343,427.109h 23.622" fill="none" stroke="#ff0000" stroke-width="2"/>
<g stroke="#ff0000" stroke-width="1" fill="none">
<line x1="259.343" y1="427.109" x2="260.343" y2="427.109"/>
</g>
<path d="M307.587,428.924v -1.08659" fill="none" stroke="#ff0000" stroke-width="2"/>
<path d="M307.587,427.837v -1.08659" fill="none" stroke="#ff0000" stroke-width="2"/>
<path d="M283.965,427.837h 23.622" fill="none" stroke="#ff0000" stroke-width="2"/>
<path d="M307.587,427.837h 23.622" fill="none" stroke="#ff0000" stroke-width="2"/>
<g stroke="#ff0000" stroke-width="1" fill="none">
<line x1="306.587" y1="427.837" x2="307.587" y2="427.837"/>
</g>
<path d="M354.831,426.177v -1.5648" fill="none" stroke="#ff0000" stroke-width="2"/>
<path d="M354.831,424.612v -1.5648" fill="none" stroke="#ff0000" stroke-width="2"/>
<path d="M331.209,424.612h 23.622" fill="none" stroke="#ff0000" stroke-width="2"/>
<path d="M354.831,424.612h 23.622" fill="none" stroke="#ff0000" stroke-width="2"/>
<g stroke="#ff0000" stroke-width="1" fill="none">
<line x1="353.831" y1="424.612" x2="354.831" y2="424.612"/>
</g>
<path d="M402.075,423.821v -2.73183" fill="none" stroke="#ff0000" stroke-width="2"/>
<path d="M402.075,421.089v -2.73183" fill="none" stroke="#ff0000" stroke-width="2"/>
<path d="M378.453,421.089h 23.622" fill="none" stroke="#ff0000" stroke-width="2"/>
<path d="M402.075,421.089h 23.622" fill="none" stroke="#ff0000" stroke-width="2"/>
<g stroke="#ff0000" stroke-width="1" fill="none">
<line x1="401.075" y1="421.089" x2="402.075" y2="421.089"/>
</g>
<path d="M468.217,408.68v -19.6791" fill="none" stroke="#ff0000" stroke-width="2"/>
<path d="M468.217,389.001v -3.32528" fill="none" stroke="#ff0000" stroke-width="2"/>
<path d="M425.697,389.001h 42.5197" fill="none" stroke="#ff0000" stroke-width="2"/>
<path d="M468.217,389.001h 42.5197" fill="none" stroke="#ff0000" stroke-width="2"/>
<g stroke="#ff0000" stroke-width="1" fill="none">
<line x1="467.217" y1="389.001" x2="468.217" y2="389.001"/>
</g></svg>
