<?xml version="1.0" standalone="no"?>
<svg width="567.429" height="545.624" viewBox="0 0 567.429 545.624" xmlns="http://www.w3.org/2000/svg" shape-rendering="crispEdges">
<title>
/Users/georgebakas/Documents/HEP-NTUA_ul/VariationHandling/FinalResults/results/FinalResult_yJJ_normalized.svg
</title>
<desc>
Creator: ROOT Version 6.22/02
CreationDate: Wed Nov 24 08:11:44 2021</desc>
<defs>
</defs>
<rect x="0.5" y="0" width="566.929" height="545.124" fill="white"/>
<rect x="0.5" y="0" width="566.929" height="381.587" fill="white"/>
<rect x="57.1929" y="38.1587" width="453.543" height="324.349" fill="white"/>
<rect x="57.1929" y="38.1587" width="453.543" height="324.349" fill="none" stroke="black"/>
<rect x="57.1929" y="38.1587" width="453.543" height="324.349" fill="white"/>
<rect x="57.1929" y="38.1587" width="453.543" height="324.349" fill="none" stroke="black"/>
<rect x="57.1929" y="361.889" width="85.0394" height="0.365107" fill="#cccccc"/>
<g fill="black">
<circle cx="99.7126" cy="362.071" r="3.79217"/>
</g>
<rect x="142.232" y="357.537" width="47.2441" height="0.779435" fill="#cccccc"/>
<g fill="black">
<circle cx="165.854" cy="357.927" r="3.79217"/>
</g>
<rect x="189.476" y="350.991" width="47.2441" height="0.981813" fill="#cccccc"/>
<g fill="black">
<circle cx="213.098" cy="351.482" r="3.79217"/>
</g>
<rect x="236.72" y="344.959" width="47.2441" height="2.13566" fill="#cccccc"/>
<g fill="black">
<circle cx="260.343" cy="346.027" r="3.79217"/>
</g>
<rect x="283.965" y="344.862" width="47.2441" height="1.6335" fill="#cccccc"/>
<g fill="black">
<circle cx="307.587" cy="345.679" r="3.79217"/>
</g>
<rect x="331.209" y="351.346" width="47.2441" height="1.04655" fill="#cccccc"/>
<g fill="black">
<circle cx="354.831" cy="351.87" r="3.79217"/>
</g>
<rect x="378.453" y="357.814" width="47.2441" height="0.993243" fill="#cccccc"/>
<g fill="black">
<circle cx="402.075" cy="358.311" r="3.79217"/>
</g>
<rect x="425.697" y="362.237" width="85.0394" height="0.187581" fill="#cccccc"/>
<g fill="black">
<circle cx="468.217" cy="362.331" r="3.79217"/>
</g>
<path d="M57.1929,362.508h 453.543" fill="none" stroke="black"/>
<path d="M94.9882,353.349v 9.15809" fill="none" stroke="black"/>
<path d="M104.437,357.929v 4.57904" fill="none" stroke="black"/>
<path d="M113.886,357.929v 4.57904" fill="none" stroke="black"/>
<path d="M123.335,357.929v 4.57904" fill="none" stroke="black"/>
<path d="M132.783,357.929v 4.57904" fill="none" stroke="black"/>
<path d="M142.232,353.349v 9.15809" fill="none" stroke="black"/>
<path d="M151.681,357.929v 4.57904" fill="none" stroke="black"/>
<path d="M161.13,357.929v 4.57904" fill="none" stroke="black"/>
<path d="M170.579,357.929v 4.57904" fill="none" stroke="black"/>
<path d="M180.028,357.929v 4.57904" fill="none" stroke="black"/>
<path d="M189.476,353.349v 9.15809" fill="none" stroke="black"/>
<path d="M198.925,357.929v 4.57904" fill="none" stroke="black"/>
<path d="M208.374,357.929v 4.57904" fill="none" stroke="black"/>
<path d="M217.823,357.929v 4.57904" fill="none" stroke="black"/>
<path d="M227.272,357.929v 4.57904" fill="none" stroke="black"/>
<path d="M236.72,353.349v 9.15809" fill="none" stroke="black"/>
<path d="M246.169,357.929v 4.57904" fill="none" stroke="black"/>
<path d="M255.618,357.929v 4.57904" fill="none" stroke="black"/>
<path d="M265.067,357.929v 4.57904" fill="none" stroke="black"/>
<path d="M274.516,357.929v 4.57904" fill="none" stroke="black"/>
<path d="M283.965,353.349v 9.15809" fill="none" stroke="black"/>
<path d="M293.413,357.929v 4.57904" fill="none" stroke="black"/>
<path d="M302.862,357.929v 4.57904" fill="none" stroke="black"/>
<path d="M312.311,357.929v 4.57904" fill="none" stroke="black"/>
<path d="M321.76,357.929v 4.57904" fill="none" stroke="black"/>
<path d="M331.209,353.349v 9.15809" fill="none" stroke="black"/>
<path d="M340.657,357.929v 4.57904" fill="none" stroke="black"/>
<path d="M350.106,357.929v 4.57904" fill="none" stroke="black"/>
<path d="M359.555,357.929v 4.57904" fill="none" stroke="black"/>
<path d="M369.004,357.929v 4.57904" fill="none" stroke="black"/>
<path d="M378.453,353.349v 9.15809" fill="none" stroke="black"/>
<path d="M387.902,357.929v 4.57904" fill="none" stroke="black"/>
<path d="M397.35,357.929v 4.57904" fill="none" stroke="black"/>
<path d="M406.799,357.929v 4.57904" fill="none" stroke="black"/>
<path d="M416.248,357.929v 4.57904" fill="none" stroke="black"/>
<path d="M425.697,353.349v 9.15809" fill="none" stroke="black"/>
<path d="M435.146,357.929v 4.57904" fill="none" stroke="black"/>
<path d="M444.594,357.929v 4.57904" fill="none" stroke="black"/>
<path d="M454.043,357.929v 4.57904" fill="none" stroke="black"/>
<path d="M463.492,357.929v 4.57904" fill="none" stroke="black"/>
<path d="M472.941,353.349v 9.15809" fill="none" stroke="black"/>
<path d="M94.9882,353.349v 9.15809" fill="none" stroke="black"/>
<path d="M85.5394,357.929v 4.57904" fill="none" stroke="black"/>
<path d="M76.0906,357.929v 4.57904" fill="none" stroke="black"/>
<path d="M66.6417,357.929v 4.57904" fill="none" stroke="black"/>
<path d="M57.1929,357.929v 4.57904" fill="none" stroke="black"/>
<path d="M472.941,353.349v 9.15809" fill="none" stroke="black"/>
<path d="M482.39,357.929v 4.57904" fill="none" stroke="black"/>
<path d="M491.839,357.929v 4.57904" fill="none" stroke="black"/>
<path d="M501.287,357.929v 4.57904" fill="none" stroke="black"/>
<path d="M510.736,357.929v 4.57904" fill="none" stroke="black"/>
<text xml:space="preserve" x="94.3562" y="380.165" fill="black" font-size="18.004" font-family="Helvetica">2</text>
<text xml:space="preserve" x="83.9277" y="380.165" fill="black" font-size="18.004" font-family="Times">&#8722;</text>
<text xml:space="preserve" x="134.174" y="380.165" fill="black" font-size="18.004" font-family="Helvetica">1.5</text>
<text xml:space="preserve" x="123.745" y="380.165" fill="black" font-size="18.004" font-family="Times">&#8722;</text>
<text xml:space="preserve" x="190.108" y="380.165" fill="black" font-size="18.004" font-family="Helvetica">1</text>
<text xml:space="preserve" x="180.628" y="380.165" fill="black" font-size="18.004" font-family="Times">&#8722;</text>
<text xml:space="preserve" x="228.978" y="380.165" fill="black" font-size="18.004" font-family="Helvetica">0.5</text>
<text xml:space="preserve" x="218.55" y="380.165" fill="black" font-size="18.004" font-family="Times">&#8722;</text>
<text xml:space="preserve" x="279.224" y="380.165" fill="black" font-size="18.004" font-family="Helvetica">0</text>
<text xml:space="preserve" x="318.094" y="380.165" fill="black" font-size="18.004" font-family="Helvetica">0.5</text>
<text xml:space="preserve" x="374.029" y="380.165" fill="black" font-size="18.004" font-family="Helvetica">1</text>
<text xml:space="preserve" x="412.898" y="380.165" fill="black" font-size="18.004" font-family="Helvetica">1.5</text>
<text xml:space="preserve" x="467.885" y="380.165" fill="black" font-size="18.004" font-family="Helvetica">2</text>
<text xml:space="preserve" x="377.821" y="401.022" fill="black" font-size="21.5048" font-family="Helvetica">yTTbarParton</text>
<path d="M57.1929,362.508v -324.349" fill="none" stroke="black"/>
<path d="M71.6496,330.131h -14.4567" fill="none" stroke="black"/>
<path d="M64.4213,323.643h -7.22835" fill="none" stroke="black"/>
<path d="M64.4213,317.155h -7.22835" fill="none" stroke="black"/>
<path d="M64.4213,310.666h -7.22835" fill="none" stroke="black"/>
<path d="M64.4213,304.178h -7.22835" fill="none" stroke="black"/>
<path d="M71.6496,297.69h -14.4567" fill="none" stroke="black"/>
<path d="M64.4213,291.201h -7.22835" fill="none" stroke="black"/>
<path d="M64.4213,284.713h -7.22835" fill="none" stroke="black"/>
<path d="M64.4213,278.225h -7.22835" fill="none" stroke="black"/>
<path d="M64.4213,271.737h -7.22835" fill="none" stroke="black"/>
<path d="M71.6496,265.248h -14.4567" fill="none" stroke="black"/>
<path d="M64.4213,258.76h -7.22835" fill="none" stroke="black"/>
<path d="M64.4213,252.272h -7.22835" fill="none" stroke="black"/>
<path d="M64.4213,245.784h -7.22835" fill="none" stroke="black"/>
<path d="M64.4213,239.295h -7.22835" fill="none" stroke="black"/>
<path d="M71.6496,232.807h -14.4567" fill="none" stroke="black"/>
<path d="M64.4213,226.319h -7.22835" fill="none" stroke="black"/>
<path d="M64.4213,219.83h -7.22835" fill="none" stroke="black"/>
<path d="M64.4213,213.342h -7.22835" fill="none" stroke="black"/>
<path d="M64.4213,206.854h -7.22835" fill="none" stroke="black"/>
<path d="M71.6496,200.366h -14.4567" fill="none" stroke="black"/>
<path d="M64.4213,193.877h -7.22835" fill="none" stroke="black"/>
<path d="M64.4213,187.389h -7.22835" fill="none" stroke="black"/>
<path d="M64.4213,180.901h -7.22835" fill="none" stroke="black"/>
<path d="M64.4213,174.412h -7.22835" fill="none" stroke="black"/>
<path d="M71.6496,167.924h -14.4567" fill="none" stroke="black"/>
<path d="M64.4213,161.436h -7.22835" fill="none" stroke="black"/>
<path d="M64.4213,154.948h -7.22835" fill="none" stroke="black"/>
<path d="M64.4213,148.459h -7.22835" fill="none" stroke="black"/>
<path d="M64.4213,141.971h -7.22835" fill="none" stroke="black"/>
<path d="M71.6496,135.483h -14.4567" fill="none" stroke="black"/>
<path d="M64.4213,128.995h -7.22835" fill="none" stroke="black"/>
<path d="M64.4213,122.506h -7.22835" fill="none" stroke="black"/>
<path d="M64.4213,116.018h -7.22835" fill="none" stroke="black"/>
<path d="M64.4213,109.53h -7.22835" fill="none" stroke="black"/>
<path d="M71.6496,103.041h -14.4567" fill="none" stroke="black"/>
<path d="M64.4213,96.5532h -7.22835" fill="none" stroke="black"/>
<path d="M64.4213,90.0649h -7.22835" fill="none" stroke="black"/>
<path d="M64.4213,83.5766h -7.22835" fill="none" stroke="black"/>
<path d="M64.4213,77.0883h -7.22835" fill="none" stroke="black"/>
<path d="M71.6496,70.6001h -14.4567" fill="none" stroke="black"/>
<path d="M64.4213,64.1118h -7.22835" fill="none" stroke="black"/>
<path d="M64.4213,57.6235h -7.22835" fill="none" stroke="black"/>
<path d="M64.4213,51.1352h -7.22835" fill="none" stroke="black"/>
<path d="M64.4213,44.647h -7.22835" fill="none" stroke="black"/>
<path d="M71.6496,38.1587h -14.4567" fill="none" stroke="black"/>
<path d="M71.6496,330.131h -14.4567" fill="none" stroke="black"/>
<path d="M64.4213,336.619h -7.22835" fill="none" stroke="black"/>
<path d="M64.4213,343.108h -7.22835" fill="none" stroke="black"/>
<path d="M64.4213,349.596h -7.22835" fill="none" stroke="black"/>
<path d="M64.4213,356.084h -7.22835" fill="none" stroke="black"/>
<text xml:space="preserve" x="27.9932" y="336.555" fill="black" font-size="18.004" font-family="Helvetica">0.5</text>
<text xml:space="preserve" x="46.006" y="305.27" fill="black" font-size="18.004" font-family="Helvetica">1</text>
<text xml:space="preserve" x="27.9932" y="271.14" fill="black" font-size="18.004" font-family="Helvetica">1.5</text>
<text xml:space="preserve" x="43.1619" y="239.855" fill="black" font-size="18.004" font-family="Helvetica">2</text>
<text xml:space="preserve" x="27.9932" y="206.673" fill="black" font-size="18.004" font-family="Helvetica">2.5</text>
<text xml:space="preserve" x="43.1619" y="174.44" fill="black" font-size="18.004" font-family="Helvetica">3</text>
<text xml:space="preserve" x="27.9932" y="141.258" fill="black" font-size="18.004" font-family="Helvetica">3.5</text>
<text xml:space="preserve" x="43.1619" y="109.973" fill="black" font-size="18.004" font-family="Helvetica">4</text>
<text xml:space="preserve" x="27.9932" y="76.7914" fill="black" font-size="18.004" font-family="Helvetica">4.5</text>
<text xml:space="preserve" x="43.1619" y="44.558" fill="black" font-size="18.004" font-family="Helvetica">5</text>
<g transform="rotate(-90,0.5,50.2462)">
<text xml:space="preserve" x="0.5" y="50.2462" fill="black" font-size="21.5048" font-family="Times">&#0967;</text>
</g>
<g transform="rotate(-90,0.5,61.6227)">
<text xml:space="preserve" x="0.5" y="61.6227" fill="black" font-size="21.5048" font-family="Helvetica">d</text>
</g>
<g transform="rotate(-90,-23.201,51.1943)">
<text xml:space="preserve" x="-23.201" y="51.1943" fill="black" font-size="21.5048" font-family="Times">&#0963;</text>
</g>
<g transform="rotate(-90,-23.201,62.5708)">
<text xml:space="preserve" x="-23.201" y="62.5708" fill="black" font-size="21.5048" font-family="Helvetica">d</text>
</g>
<g transform="rotate(-90,-12.7726,70.1551)">
<text xml:space="preserve" x="-12.7726" y="70.1551" fill="black" font-size="21.5048" font-family="Helvetica"> </text>
</g>
<g transform="rotate(-90,-4.24021,83.4277)">
<text xml:space="preserve" x="-4.24021" y="83.4277" fill="black" font-size="21.5048" font-family="Times">&#0963;</text>
</g>
<g transform="rotate(-90,-22.253,80.5836)">
<text xml:space="preserve" x="-22.253" y="80.5836" fill="black" font-size="21.5048" font-family="Helvetica">1</text>
</g>
<path d="M99.7126,362.153v -0.0813487" fill="none" stroke="black" stroke-width="2"/>
<path d="M99.7126,362.071v -0.0813487" fill="none" stroke="black" stroke-width="2"/>
<path d="M57.1929,362.071h 42.5197" fill="none" stroke="black" stroke-width="2"/>
<path d="M99.7126,362.071h 42.5197" fill="none" stroke="black" stroke-width="2"/>
<g stroke="black" stroke-width="1" fill="none">
<line x1="98.7126" y1="362.071" x2="99.7126" y2="362.071"/>
</g>
<path d="M165.854,358.233v -0.305725" fill="none" stroke="black" stroke-width="2"/>
<path d="M165.854,357.927v -0.305725" fill="none" stroke="black" stroke-width="2"/>
<path d="M142.232,357.927h 23.622" fill="none" stroke="black" stroke-width="2"/>
<path d="M165.854,357.927h 23.622" fill="none" stroke="black" stroke-width="2"/>
<g stroke="black" stroke-width="1" fill="none">
<line x1="164.854" y1="357.927" x2="165.854" y2="357.927"/>
</g>
<path d="M213.098,351.928v -0.446843" fill="none" stroke="black" stroke-width="2"/>
<path d="M213.098,351.482v -0.446843" fill="none" stroke="black" stroke-width="2"/>
<path d="M189.476,351.482h 23.622" fill="none" stroke="black" stroke-width="2"/>
<path d="M213.098,351.482h 23.622" fill="none" stroke="black" stroke-width="2"/>
<g stroke="black" stroke-width="1" fill="none">
<line x1="212.098" y1="351.482" x2="213.098" y2="351.482"/>
</g>
<path d="M260.343,346.573v -0.546497" fill="none" stroke="black" stroke-width="2"/>
<path d="M260.343,346.027v -0.546497" fill="none" stroke="black" stroke-width="2"/>
<path d="M236.72,346.027h 23.622" fill="none" stroke="black" stroke-width="2"/>
<path d="M260.343,346.027h 23.622" fill="none" stroke="black" stroke-width="2"/>
<g stroke="black" stroke-width="1" fill="none">
<line x1="259.343" y1="346.027" x2="260.343" y2="346.027"/>
</g>
<path d="M307.587,346.211v -0.531753" fill="none" stroke="black" stroke-width="2"/>
<path d="M307.587,345.679v -0.531753" fill="none" stroke="black" stroke-width="2"/>
<path d="M283.965,345.679h 23.622" fill="none" stroke="black" stroke-width="2"/>
<path d="M307.587,345.679h 23.622" fill="none" stroke="black" stroke-width="2"/>
<g stroke="black" stroke-width="1" fill="none">
<line x1="306.587" y1="345.679" x2="307.587" y2="345.679"/>
</g>
<path d="M354.831,352.313v -0.443721" fill="none" stroke="black" stroke-width="2"/>
<path d="M354.831,351.87v -0.443721" fill="none" stroke="black" stroke-width="2"/>
<path d="M331.209,351.87h 23.622" fill="none" stroke="black" stroke-width="2"/>
<path d="M354.831,351.87h 23.622" fill="none" stroke="black" stroke-width="2"/>
<g stroke="black" stroke-width="1" fill="none">
<line x1="353.831" y1="351.87" x2="354.831" y2="351.87"/>
</g>
<path d="M402.075,358.593v -0.282119" fill="none" stroke="black" stroke-width="2"/>
<path d="M402.075,358.311v -0.282119" fill="none" stroke="black" stroke-width="2"/>
<path d="M378.453,358.311h 23.622" fill="none" stroke="black" stroke-width="2"/>
<path d="M402.075,358.311h 23.622" fill="none" stroke="black" stroke-width="2"/>
<g stroke="black" stroke-width="1" fill="none">
<line x1="401.075" y1="358.311" x2="402.075" y2="358.311"/>
</g>
<path d="M468.217,362.396v -0.0648668" fill="none" stroke="black" stroke-width="2"/>
<path d="M468.217,362.331v -0.0648668" fill="none" stroke="black" stroke-width="2"/>
<path d="M425.697,362.331h 42.5197" fill="none" stroke="black" stroke-width="2"/>
<path d="M468.217,362.331h 42.5197" fill="none" stroke="black" stroke-width="2"/>
<g stroke="black" stroke-width="1" fill="none">
<line x1="467.217" y1="362.331" x2="468.217" y2="362.331"/>
</g>
<path d="M134.546,362.023l 0.0422534, 0.115946" fill="none" stroke="#ff0000"/>
<path d="M123.686,362.023l 0.0422534, 0.115946" fill="none" stroke="#ff0000"/>
<path d="M112.827,362.023l 0.0422534, 0.115946" fill="none" stroke="#ff0000"/>
<path d="M101.967,362.023l 0.0422534, 0.115946" fill="none" stroke="#ff0000"/>
<path d="M91.1073,362.023l 0.0422534, 0.115946" fill="none" stroke="#ff0000"/>
<path d="M80.2477,362.023l 0.0422534, 0.115946" fill="none" stroke="#ff0000"/>
<path d="M69.3881,362.023l 0.0422534, 0.115946" fill="none" stroke="#ff0000"/>
<path d="M58.5284,362.023l 0.0422534, 0.115946" fill="none" stroke="#ff0000"/>
<g stroke="#ff0000" stroke-width="1" fill="none">
<line x1="98.7126" y1="362.081" x2="99.7126" y2="362.081"/>
</g>
<path d="M187.183,357.466l 0.190883, 0.523796" fill="none" stroke="#ff0000"/>
<path d="M176.324,357.466l 0.190883, 0.523796" fill="none" stroke="#ff0000"/>
<path d="M165.464,357.466l 0.190883, 0.523796" fill="none" stroke="#ff0000"/>
<path d="M154.604,357.466l 0.190883, 0.523796" fill="none" stroke="#ff0000"/>
<path d="M143.745,357.466l 0.190883, 0.523796" fill="none" stroke="#ff0000"/>
<g stroke="#ff0000" stroke-width="1" fill="none">
<line x1="164.854" y1="357.727" x2="165.854" y2="357.727"/>
</g>
<path d="M228.4,351.368l 0.0616358, 0.169133" fill="none" stroke="#ff0000"/>
<path d="M217.54,351.368l 0.0616358, 0.169133" fill="none" stroke="#ff0000"/>
<path d="M206.68,351.368l 0.0616358, 0.169133" fill="none" stroke="#ff0000"/>
<path d="M195.821,351.368l 0.0616358, 0.169133" fill="none" stroke="#ff0000"/>
<g stroke="#ff0000" stroke-width="1" fill="none">
<line x1="212.098" y1="351.453" x2="213.098" y2="351.453"/>
</g>
<path d="M280.823,346.223l 0.24709, 0.678032" fill="none" stroke="#ff0000"/>
<path d="M269.963,346.223l 0.24709, 0.678032" fill="none" stroke="#ff0000"/>
<path d="M259.104,346.223l 0.24709, 0.678032" fill="none" stroke="#ff0000"/>
<path d="M248.244,346.223l 0.24709, 0.678032" fill="none" stroke="#ff0000"/>
<path d="M237.384,346.223l 0.24709, 0.678032" fill="none" stroke="#ff0000"/>
<g stroke="#ff0000" stroke-width="1" fill="none">
<line x1="259.343" y1="346.562" x2="260.343" y2="346.562"/>
</g>
<path d="M324.269,346.244l 0.232141, 0.637012" fill="none" stroke="#ff0000"/>
<path d="M313.41,346.244l 0.232141, 0.637012" fill="none" stroke="#ff0000"/>
<path d="M302.55,346.244l 0.232141, 0.637012" fill="none" stroke="#ff0000"/>
<path d="M291.69,346.244l 0.232141, 0.637012" fill="none" stroke="#ff0000"/>
<g stroke="#ff0000" stroke-width="1" fill="none">
<line x1="306.587" y1="346.563" x2="307.587" y2="346.563"/>
</g>
<path d="M369.584,351.392l 0.0655996, 0.18001" fill="none" stroke="#ff0000"/>
<path d="M358.724,351.392l 0.0655996, 0.18001" fill="none" stroke="#ff0000"/>
<path d="M347.864,351.392l 0.0655996, 0.18001" fill="none" stroke="#ff0000"/>
<path d="M337.005,351.392l 0.0655996, 0.18001" fill="none" stroke="#ff0000"/>
<g stroke="#ff0000" stroke-width="1" fill="none">
<line x1="353.831" y1="351.482" x2="354.831" y2="351.482"/>
</g>
<path d="M415.244,357.489l 0.186009, 0.510421" fill="none" stroke="#ff0000"/>
<path d="M404.384,357.489l 0.186009, 0.510421" fill="none" stroke="#ff0000"/>
<path d="M393.525,357.489l 0.186009, 0.510421" fill="none" stroke="#ff0000"/>
<path d="M382.665,357.489l 0.186009, 0.510421" fill="none" stroke="#ff0000"/>
<g stroke="#ff0000" stroke-width="1" fill="none">
<line x1="401.075" y1="357.744" x2="402.075" y2="357.744"/>
</g>
<path d="M503.776,362.029l 0.0414182, 0.113654" fill="none" stroke="#ff0000"/>
<path d="M492.916,362.029l 0.0414182, 0.113654" fill="none" stroke="#ff0000"/>
<path d="M482.056,362.029l 0.0414182, 0.113654" fill="none" stroke="#ff0000"/>
<path d="M471.197,362.029l 0.0414182, 0.113654" fill="none" stroke="#ff0000"/>
<path d="M460.337,362.029l 0.0414182, 0.113654" fill="none" stroke="#ff0000"/>
<path d="M449.477,362.029l 0.0414182, 0.113654" fill="none" stroke="#ff0000"/>
<path d="M438.618,362.029l 0.0414182, 0.113654" fill="none" stroke="#ff0000"/>
<path d="M427.758,362.029l 0.0414182, 0.113654" fill="none" stroke="#ff0000"/>
<g stroke="#ff0000" stroke-width="1" fill="none">
<line x1="467.217" y1="362.085" x2="468.217" y2="362.085"/>
</g>
<path d="M99.7126,362.084v -0.00242759" fill="none" stroke="#ff0000" stroke-width="2"/>
<path d="M99.7126,362.081v -0.00242759" fill="none" stroke="#ff0000" stroke-width="2"/>
<path d="M57.1929,362.081h 42.5197" fill="none" stroke="#ff0000" stroke-width="2"/>
<path d="M99.7126,362.081h 42.5197" fill="none" stroke="#ff0000" stroke-width="2"/>
<g stroke="#ff0000" stroke-width="1" fill="none">
<line x1="98.7126" y1="362.081" x2="99.7126" y2="362.081"/>
</g>
<path d="M165.854,357.738v -0.0103053" fill="none" stroke="#ff0000" stroke-width="2"/>
<path d="M165.854,357.727v -0.0103053" fill="none" stroke="#ff0000" stroke-width="2"/>
<path d="M142.232,357.727h 23.622" fill="none" stroke="#ff0000" stroke-width="2"/>
<path d="M165.854,357.727h 23.622" fill="none" stroke="#ff0000" stroke-width="2"/>
<g stroke="#ff0000" stroke-width="1" fill="none">
<line x1="164.854" y1="357.727" x2="165.854" y2="357.727"/>
</g>
<path d="M213.098,351.468v -0.0157165" fill="none" stroke="#ff0000" stroke-width="2"/>
<path d="M213.098,351.453v -0.0157165" fill="none" stroke="#ff0000" stroke-width="2"/>
<path d="M189.476,351.453h 23.622" fill="none" stroke="#ff0000" stroke-width="2"/>
<path d="M213.098,351.453h 23.622" fill="none" stroke="#ff0000" stroke-width="2"/>
<g stroke="#ff0000" stroke-width="1" fill="none">
<line x1="212.098" y1="351.453" x2="213.098" y2="351.453"/>
</g>
<path d="M260.343,346.581v -0.0189026" fill="none" stroke="#ff0000" stroke-width="2"/>
<path d="M260.343,346.562v -0.0189026" fill="none" stroke="#ff0000" stroke-width="2"/>
<path d="M236.72,346.562h 23.622" fill="none" stroke="#ff0000" stroke-width="2"/>
<path d="M260.343,346.562h 23.622" fill="none" stroke="#ff0000" stroke-width="2"/>
<g stroke="#ff0000" stroke-width="1" fill="none">
<line x1="259.343" y1="346.562" x2="260.343" y2="346.562"/>
</g>
<path d="M307.587,346.582v -0.0188988" fill="none" stroke="#ff0000" stroke-width="2"/>
<path d="M307.587,346.563v -0.0188988" fill="none" stroke="#ff0000" stroke-width="2"/>
<path d="M283.965,346.563h 23.622" fill="none" stroke="#ff0000" stroke-width="2"/>
<path d="M307.587,346.563h 23.622" fill="none" stroke="#ff0000" stroke-width="2"/>
<g stroke="#ff0000" stroke-width="1" fill="none">
<line x1="306.587" y1="346.563" x2="307.587" y2="346.563"/>
</g>
<path d="M354.831,351.497v -0.0156964" fill="none" stroke="#ff0000" stroke-width="2"/>
<path d="M354.831,351.482v -0.0156964" fill="none" stroke="#ff0000" stroke-width="2"/>
<path d="M331.209,351.482h 23.622" fill="none" stroke="#ff0000" stroke-width="2"/>
<path d="M354.831,351.482h 23.622" fill="none" stroke="#ff0000" stroke-width="2"/>
<g stroke="#ff0000" stroke-width="1" fill="none">
<line x1="353.831" y1="351.482" x2="354.831" y2="351.482"/>
</g>
<path d="M402.075,357.754v -0.0102966" fill="none" stroke="#ff0000" stroke-width="2"/>
<path d="M402.075,357.744v -0.0102966" fill="none" stroke="#ff0000" stroke-width="2"/>
<path d="M378.453,357.744h 23.622" fill="none" stroke="#ff0000" stroke-width="2"/>
<path d="M402.075,357.744h 23.622" fill="none" stroke="#ff0000" stroke-width="2"/>
<g stroke="#ff0000" stroke-width="1" fill="none">
<line x1="401.075" y1="357.744" x2="402.075" y2="357.744"/>
</g>
<path d="M468.217,362.088v -0.0024202" fill="none" stroke="#ff0000" stroke-width="2"/>
<path d="M468.217,362.085v -0.0024202" fill="none" stroke="#ff0000" stroke-width="2"/>
<path d="M425.697,362.085h 42.5197" fill="none" stroke="#ff0000" stroke-width="2"/>
<path d="M468.217,362.085h 42.5197" fill="none" stroke="#ff0000" stroke-width="2"/>
<g stroke="#ff0000" stroke-width="1" fill="none">
<line x1="467.217" y1="362.085" x2="468.217" y2="362.085"/>
</g>
<rect x="193.256" y="194.609" width="170.079" height="152.635" fill="white"/>
<text xml:space="preserve" x="235.614" y="218.05" fill="black" font-size="12.5802" font-family="Helvetica">Data</text>
<path d="M214.516,209.897v -7.65544" fill="none" stroke="black" stroke-width="2"/>
<path d="M214.516,217.481v 7.65544" fill="none" stroke="black" stroke-width="2"/>
<g fill="black">
<circle cx="214.516" cy="213.689" r="3.79217"/>
</g>
<text xml:space="preserve" x="235.614" y="255.971" fill="black" font-size="12.5802" font-family="Helvetica">Total unc.</text>
<path d="M199.634,265.203h 29.7638v -26.7111h -29.7638z" fill="#cccccc"/>
<path d="M199.634,238.492h 29.7638" fill="none" stroke="black" stroke-width="2"/>
<path d="M199.634,265.203h 29.7638" fill="none" stroke="black" stroke-width="2"/>
<path d="M229.398,265.203v -26.7111" fill="none" stroke="black" stroke-width="2"/>
<path d="M199.634,265.203v -26.7111" fill="none" stroke="black" stroke-width="2"/>
<text xml:space="preserve" x="235.614" y="292.945" fill="black" font-size="12.5802" font-family="Helvetica">Powheg+Pythia8</text>
<path d="M199.634,290.006h 29.7638" fill="none" stroke="#ff0000" stroke-width="2"/>
<path d="M214.516,301.454v -22.8952" fill="none" stroke="#ff0000" stroke-width="2"/>
<text xml:space="preserve" x="235.614" y="331.815" fill="black" font-size="12.5802" font-family="Helvetica">Powheg+Pythia8 unc</text>
<path d="M225.936,314.809l 3.46119, 9.49774" fill="none" stroke="#ff0000"/>
<path d="M215.077,314.809l 9.73412, 26.7111" fill="none" stroke="#ff0000"/>
<path d="M204.217,314.809l 9.73412, 26.7111" fill="none" stroke="#ff0000"/>
<path d="M199.634,332.032l 3.45778, 9.48839" fill="none" stroke="#ff0000"/>
<path d="M199.634,314.809h 29.7638" fill="none" stroke="#ff0000" stroke-width="2"/>
<path d="M199.634,341.52h 29.7638" fill="none" stroke="#ff0000" stroke-width="2"/>
<path d="M229.398,341.52v -26.7111" fill="none" stroke="#ff0000" stroke-width="2"/>
<path d="M199.634,341.52v -26.7111" fill="none" stroke="#ff0000" stroke-width="2"/>
<text xml:space="preserve" x="420.483" y="30.3373" fill="black" font-size="21.5048" font-family="Helvetica"> (13 TeV)</text>
<text xml:space="preserve" x="410.054" y="19.9089" fill="black" font-size="14.5032" font-family="Helvetica">-1</text>
<text xml:space="preserve" x="343.691" y="30.3373" fill="black" font-size="21.5048" font-family="Helvetica">20.1 fb</text>
<text xml:space="preserve" x="57.1929" y="30.527" fill="black" font-size="26.756" font-family="Helvetica" font-weight="bold">CMS</text>
<text xml:space="preserve" x="77.2914" y="64.4669" fill="black" font-size="20.4545" font-family="Helvetica" font-style="oblique">Work in progress</text>
<rect x="0.5" y="381.587" width="566.929" height="136.281" fill="white"/>
<rect x="57.1929" y="385.675" width="453.543" height="102.211" fill="white"/>
<rect x="57.1929" y="385.675" width="453.543" height="102.211" fill="none" stroke="black"/>
<rect x="57.1929" y="385.675" width="453.543" height="102.211" fill="white"/>
<rect x="57.1929" y="385.675" width="453.543" height="102.211" fill="none" stroke="black"/>
<path d="M57.1929,487.886h 453.543" fill="none" stroke="black"/>
<path d="M57.1929,487.886v -102.211" fill="none" stroke="black"/>
<path d="M510.736,487.886h -453.543" fill="none" stroke="black" stroke-dasharray=" 1, 2"/>
<path d="M510.736,462.333h -453.543" fill="none" stroke="black" stroke-dasharray=" 1, 2"/>
<path d="M510.736,436.781h -453.543" fill="none" stroke="black" stroke-dasharray=" 1, 2"/>
<path d="M510.736,411.228h -453.543" fill="none" stroke="black" stroke-dasharray=" 1, 2"/>
<path d="M510.736,385.675h -453.543" fill="none" stroke="black" stroke-dasharray=" 1, 2"/>
<rect x="57.1929" y="426.588" width="85.0394" height="20.3855" fill="#cccccc"/>
<g fill="black">
<circle cx="99.7126" cy="436.781" r="3.79217"/>
</g>
<rect x="142.232" y="434.056" width="47.2441" height="5.44922" fill="#cccccc"/>
<g fill="black">
<circle cx="165.854" cy="436.781" r="3.79217"/>
</g>
<rect x="189.476" y="435.251" width="47.2441" height="3.05879" fill="#cccccc"/>
<g fill="black">
<circle cx="213.098" cy="436.781" r="3.79217"/>
</g>
<rect x="236.72" y="434.928" width="47.2441" height="3.70511" fill="#cccccc"/>
<g fill="black">
<circle cx="260.343" cy="436.781" r="3.79217"/>
</g>
<rect x="283.965" y="435.307" width="47.2441" height="2.94827" fill="#cccccc"/>
<g fill="black">
<circle cx="307.587" cy="436.781" r="3.79217"/>
</g>
<rect x="331.209" y="435.143" width="47.2441" height="3.27602" fill="#cccccc"/>
<g fill="black">
<circle cx="354.831" cy="436.781" r="3.79217"/>
</g>
<rect x="378.453" y="433.356" width="47.2441" height="6.84939" fill="#cccccc"/>
<g fill="black">
<circle cx="402.075" cy="436.781" r="3.79217"/>
</g>
<rect x="425.697" y="424.728" width="85.0394" height="24.1058" fill="#cccccc"/>
<g fill="black">
<circle cx="468.217" cy="436.781" r="3.79217"/>
</g>
<path d="M57.1929,487.886h 453.543" fill="none" stroke="black"/>
<path d="M94.9882,484.615v 3.27075" fill="none" stroke="black"/>
<path d="M104.437,486.251v 1.63537" fill="none" stroke="black"/>
<path d="M113.886,486.251v 1.63537" fill="none" stroke="black"/>
<path d="M123.335,486.251v 1.63537" fill="none" stroke="black"/>
<path d="M132.783,486.251v 1.63537" fill="none" stroke="black"/>
<path d="M142.232,484.615v 3.27075" fill="none" stroke="black"/>
<path d="M151.681,486.251v 1.63537" fill="none" stroke="black"/>
<path d="M161.13,486.251v 1.63537" fill="none" stroke="black"/>
<path d="M170.579,486.251v 1.63537" fill="none" stroke="black"/>
<path d="M180.028,486.251v 1.63537" fill="none" stroke="black"/>
<path d="M189.476,484.615v 3.27075" fill="none" stroke="black"/>
<path d="M198.925,486.251v 1.63537" fill="none" stroke="black"/>
<path d="M208.374,486.251v 1.63537" fill="none" stroke="black"/>
<path d="M217.823,486.251v 1.63537" fill="none" stroke="black"/>
<path d="M227.272,486.251v 1.63537" fill="none" stroke="black"/>
<path d="M236.72,484.615v 3.27075" fill="none" stroke="black"/>
<path d="M246.169,486.251v 1.63537" fill="none" stroke="black"/>
<path d="M255.618,486.251v 1.63537" fill="none" stroke="black"/>
<path d="M265.067,486.251v 1.63537" fill="none" stroke="black"/>
<path d="M274.516,486.251v 1.63537" fill="none" stroke="black"/>
<path d="M283.965,484.615v 3.27075" fill="none" stroke="black"/>
<path d="M293.413,486.251v 1.63537" fill="none" stroke="black"/>
<path d="M302.862,486.251v 1.63537" fill="none" stroke="black"/>
<path d="M312.311,486.251v 1.63537" fill="none" stroke="black"/>
<path d="M321.76,486.251v 1.63537" fill="none" stroke="black"/>
<path d="M331.209,484.615v 3.27075" fill="none" stroke="black"/>
<path d="M340.657,486.251v 1.63537" fill="none" stroke="black"/>
<path d="M350.106,486.251v 1.63537" fill="none" stroke="black"/>
<path d="M359.555,486.251v 1.63537" fill="none" stroke="black"/>
<path d="M369.004,486.251v 1.63537" fill="none" stroke="black"/>
<path d="M378.453,484.615v 3.27075" fill="none" stroke="black"/>
<path d="M387.902,486.251v 1.63537" fill="none" stroke="black"/>
<path d="M397.35,486.251v 1.63537" fill="none" stroke="black"/>
<path d="M406.799,486.251v 1.63537" fill="none" stroke="black"/>
<path d="M416.248,486.251v 1.63537" fill="none" stroke="black"/>
<path d="M425.697,484.615v 3.27075" fill="none" stroke="black"/>
<path d="M435.146,486.251v 1.63537" fill="none" stroke="black"/>
<path d="M444.594,486.251v 1.63537" fill="none" stroke="black"/>
<path d="M454.043,486.251v 1.63537" fill="none" stroke="black"/>
<path d="M463.492,486.251v 1.63537" fill="none" stroke="black"/>
<path d="M472.941,484.615v 3.27075" fill="none" stroke="black"/>
<path d="M94.9882,484.615v 3.27075" fill="none" stroke="black"/>
<path d="M85.5394,486.251v 1.63537" fill="none" stroke="black"/>
<path d="M76.0906,486.251v 1.63537" fill="none" stroke="black"/>
<path d="M66.6417,486.251v 1.63537" fill="none" stroke="black"/>
<path d="M57.1929,486.251v 1.63537" fill="none" stroke="black"/>
<path d="M472.941,484.615v 3.27075" fill="none" stroke="black"/>
<path d="M482.39,486.251v 1.63537" fill="none" stroke="black"/>
<path d="M491.839,486.251v 1.63537" fill="none" stroke="black"/>
<path d="M501.287,486.251v 1.63537" fill="none" stroke="black"/>
<path d="M510.736,486.251v 1.63537" fill="none" stroke="black"/>
<text xml:space="preserve" x="93.4081" y="502.462" fill="black" font-size="15.5034" font-family="Helvetica">2</text>
<text xml:space="preserve" x="85.8238" y="502.462" fill="black" font-size="15.5034" font-family="Times">&#8722;</text>
<text xml:space="preserve" x="135.122" y="502.462" fill="black" font-size="15.5034" font-family="Helvetica">1.5</text>
<text xml:space="preserve" x="126.59" y="502.462" fill="black" font-size="15.5034" font-family="Times">&#8722;</text>
<text xml:space="preserve" x="190.108" y="502.462" fill="black" font-size="15.5034" font-family="Helvetica">1</text>
<text xml:space="preserve" x="181.576" y="502.462" fill="black" font-size="15.5034" font-family="Times">&#8722;</text>
<text xml:space="preserve" x="229.926" y="502.462" fill="black" font-size="15.5034" font-family="Helvetica">0.5</text>
<text xml:space="preserve" x="221.394" y="502.462" fill="black" font-size="15.5034" font-family="Times">&#8722;</text>
<text xml:space="preserve" x="279.224" y="502.462" fill="black" font-size="15.5034" font-family="Helvetica">0</text>
<text xml:space="preserve" x="319.99" y="502.462" fill="black" font-size="15.5034" font-family="Helvetica">0.5</text>
<text xml:space="preserve" x="374.977" y="502.462" fill="black" font-size="15.5034" font-family="Helvetica">1</text>
<text xml:space="preserve" x="414.794" y="502.462" fill="black" font-size="15.5034" font-family="Helvetica">1.5</text>
<text xml:space="preserve" x="467.885" y="502.462" fill="black" font-size="15.5034" font-family="Helvetica">2</text>
<text xml:space="preserve" x="489.69" y="517.631" fill="black" font-size="14.8783" font-family="Helvetica">yJJ</text>
<path d="M57.1929,487.886v -102.211" fill="none" stroke="black"/>
<path d="M69.9488,487.886h -12.7559" fill="none" stroke="black"/>
<path d="M63.5709,482.776h -6.37795" fill="none" stroke="black"/>
<path d="M63.5709,477.665h -6.37795" fill="none" stroke="black"/>
<path d="M63.5709,472.555h -6.37795" fill="none" stroke="black"/>
<path d="M63.5709,467.444h -6.37795" fill="none" stroke="black"/>
<path d="M69.9488,462.333h -12.7559" fill="none" stroke="black"/>
<path d="M63.5709,457.223h -6.37795" fill="none" stroke="black"/>
<path d="M63.5709,452.112h -6.37795" fill="none" stroke="black"/>
<path d="M63.5709,447.002h -6.37795" fill="none" stroke="black"/>
<path d="M63.5709,441.891h -6.37795" fill="none" stroke="black"/>
<path d="M69.9488,436.781h -12.7559" fill="none" stroke="black"/>
<path d="M63.5709,431.67h -6.37795" fill="none" stroke="black"/>
<path d="M63.5709,426.56h -6.37795" fill="none" stroke="black"/>
<path d="M63.5709,421.449h -6.37795" fill="none" stroke="black"/>
<path d="M63.5709,416.339h -6.37795" fill="none" stroke="black"/>
<path d="M69.9488,411.228h -12.7559" fill="none" stroke="black"/>
<path d="M63.5709,406.118h -6.37795" fill="none" stroke="black"/>
<path d="M63.5709,401.007h -6.37795" fill="none" stroke="black"/>
<path d="M63.5709,395.896h -6.37795" fill="none" stroke="black"/>
<path d="M63.5709,390.786h -6.37795" fill="none" stroke="black"/>
<path d="M69.9488,385.675h -12.7559" fill="none" stroke="black"/>
<text xml:space="preserve" x="46.006" y="492.982" fill="black" font-size="13.0028" font-family="Helvetica">2</text>
<text xml:space="preserve" x="38.4217" y="492.982" fill="black" font-size="13.0028" font-family="Times">&#8722;</text>
<text xml:space="preserve" x="47.9021" y="467.385" fill="black" font-size="13.0028" font-family="Helvetica">1</text>
<text xml:space="preserve" x="40.3178" y="467.385" fill="black" font-size="13.0028" font-family="Times">&#8722;</text>
<text xml:space="preserve" x="46.006" y="440.84" fill="black" font-size="13.0028" font-family="Helvetica">0</text>
<text xml:space="preserve" x="47.9021" y="416.19" fill="black" font-size="13.0028" font-family="Helvetica">1</text>
<text xml:space="preserve" x="46.006" y="390.593" fill="black" font-size="13.0028" font-family="Helvetica">2</text>
<g transform="rotate(-90,26.0971,474.969)">
<text xml:space="preserve" x="26.0971" y="474.969" fill="black" font-size="14.8783" font-family="Helvetica">The./data - 1</text>
</g>
<path d="M99.7126,442.648v -5.86723" fill="none" stroke="black" stroke-width="2"/>
<path d="M99.7126,436.781v -5.86723" fill="none" stroke="black" stroke-width="2"/>
<path d="M57.1929,436.781h 42.5197" fill="none" stroke="black" stroke-width="2"/>
<path d="M99.7126,436.781h 42.5197" fill="none" stroke="black" stroke-width="2"/>
<g stroke="black" stroke-width="1" fill="none">
<line x1="98.7126" y1="436.781" x2="99.7126" y2="436.781"/>
</g>
<path d="M165.854,439.159v -2.37826" fill="none" stroke="black" stroke-width="2"/>
<path d="M165.854,436.781v -2.37826" fill="none" stroke="black" stroke-width="2"/>
<path d="M142.232,436.781h 23.622" fill="none" stroke="black" stroke-width="2"/>
<path d="M165.854,436.781h 23.622" fill="none" stroke="black" stroke-width="2"/>
<g stroke="black" stroke-width="1" fill="none">
<line x1="164.854" y1="436.781" x2="165.854" y2="436.781"/>
</g>
<path d="M213.098,438.237v -1.45592" fill="none" stroke="black" stroke-width="2"/>
<path d="M213.098,436.781v -1.45592" fill="none" stroke="black" stroke-width="2"/>
<path d="M189.476,436.781h 23.622" fill="none" stroke="black" stroke-width="2"/>
<path d="M213.098,436.781h 23.622" fill="none" stroke="black" stroke-width="2"/>
<g stroke="black" stroke-width="1" fill="none">
<line x1="212.098" y1="436.781" x2="213.098" y2="436.781"/>
</g>
<path d="M260.343,437.974v -1.19359" fill="none" stroke="black" stroke-width="2"/>
<path d="M260.343,436.781v -1.19359" fill="none" stroke="black" stroke-width="2"/>
<path d="M236.72,436.781h 23.622" fill="none" stroke="black" stroke-width="2"/>
<path d="M260.343,436.781h 23.622" fill="none" stroke="black" stroke-width="2"/>
<g stroke="black" stroke-width="1" fill="none">
<line x1="259.343" y1="436.781" x2="260.343" y2="436.781"/>
</g>
<path d="M307.587,437.918v -1.13746" fill="none" stroke="black" stroke-width="2"/>
<path d="M307.587,436.781v -1.13746" fill="none" stroke="black" stroke-width="2"/>
<path d="M283.965,436.781h 23.622" fill="none" stroke="black" stroke-width="2"/>
<path d="M307.587,436.781h 23.622" fill="none" stroke="black" stroke-width="2"/>
<g stroke="black" stroke-width="1" fill="none">
<line x1="306.587" y1="436.781" x2="307.587" y2="436.781"/>
</g>
<path d="M354.831,438.279v -1.49819" fill="none" stroke="black" stroke-width="2"/>
<path d="M354.831,436.781v -1.49819" fill="none" stroke="black" stroke-width="2"/>
<path d="M331.209,436.781h 23.622" fill="none" stroke="black" stroke-width="2"/>
<path d="M354.831,436.781h 23.622" fill="none" stroke="black" stroke-width="2"/>
<g stroke="black" stroke-width="1" fill="none">
<line x1="353.831" y1="436.781" x2="354.831" y2="436.781"/>
</g>
<path d="M402.075,439.173v -2.39227" fill="none" stroke="black" stroke-width="2"/>
<path d="M402.075,436.781v -2.39227" fill="none" stroke="black" stroke-width="2"/>
<path d="M378.453,436.781h 23.622" fill="none" stroke="black" stroke-width="2"/>
<path d="M402.075,436.781h 23.622" fill="none" stroke="black" stroke-width="2"/>
<g stroke="black" stroke-width="1" fill="none">
<line x1="401.075" y1="436.781" x2="402.075" y2="436.781"/>
</g>
<path d="M468.217,446.477v -9.69581" fill="none" stroke="black" stroke-width="2"/>
<path d="M468.217,436.781v -9.69581" fill="none" stroke="black" stroke-width="2"/>
<path d="M425.697,436.781h 42.5197" fill="none" stroke="black" stroke-width="2"/>
<path d="M468.217,436.781h 42.5197" fill="none" stroke="black" stroke-width="2"/>
<g stroke="black" stroke-width="1" fill="none">
<line x1="467.217" y1="436.781" x2="468.217" y2="436.781"/>
</g>
<path d="M132.18,432.255l 3.66662, 10.0565" fill="none" stroke="#ff0000"/>
<path d="M121.32,432.255l 3.66662, 10.0565" fill="none" stroke="#ff0000"/>
<path d="M110.461,432.255l 3.66662, 10.0565" fill="none" stroke="#ff0000"/>
<path d="M99.601,432.255l 3.66662, 10.0565" fill="none" stroke="#ff0000"/>
<path d="M88.7414,432.255l 3.66662, 10.0565" fill="none" stroke="#ff0000"/>
<path d="M77.8817,432.255l 3.66662, 10.0565" fill="none" stroke="#ff0000"/>
<path d="M67.0221,432.255l 3.66662, 10.0565" fill="none" stroke="#ff0000"/>
<path d="M57.1929,435.082l 2.63616, 7.23022" fill="none" stroke="#ff0000"/>
<g stroke="#ff0000" stroke-width="1" fill="none">
<line x1="98.7126" y1="437.284" x2="99.7126" y2="437.284"/>
</g>
<path d="M186.9,433.413l 1.65511, 4.53948" fill="none" stroke="#ff0000"/>
<path d="M176.041,433.413l 1.65511, 4.53948" fill="none" stroke="#ff0000"/>
<path d="M165.181,433.413l 1.65511, 4.53948" fill="none" stroke="#ff0000"/>
<path d="M154.321,433.413l 1.65511, 4.53948" fill="none" stroke="#ff0000"/>
<path d="M143.462,433.413l 1.65511, 4.53948" fill="none" stroke="#ff0000"/>
<g stroke="#ff0000" stroke-width="1" fill="none">
<line x1="164.854" y1="435.683" x2="165.854" y2="435.683"/>
</g>
<path d="M231.159,435.664l 0.76596, 2.1008" fill="none" stroke="#ff0000"/>
<path d="M220.3,435.664l 0.76596, 2.1008" fill="none" stroke="#ff0000"/>
<path d="M209.44,435.664l 0.76596, 2.1008" fill="none" stroke="#ff0000"/>
<path d="M198.581,435.664l 0.76596, 2.1008" fill="none" stroke="#ff0000"/>
<g stroke="#ff0000" stroke-width="1" fill="none">
<line x1="212.098" y1="436.714" x2="213.098" y2="436.714"/>
</g>
<path d="M274.953,436.637l 0.707415, 1.94023" fill="none" stroke="#ff0000"/>
<path d="M264.093,436.637l 0.707415, 1.94023" fill="none" stroke="#ff0000"/>
<path d="M253.234,436.637l 0.707415, 1.94023" fill="none" stroke="#ff0000"/>
<path d="M242.374,436.637l 0.707415, 1.94023" fill="none" stroke="#ff0000"/>
<g stroke="#ff0000" stroke-width="1" fill="none">
<line x1="259.343" y1="437.607" x2="260.343" y2="437.607"/>
</g>
<path d="M329.462,437.216l 0.657527, 1.8034" fill="none" stroke="#ff0000"/>
<path d="M318.603,437.216l 0.657527, 1.8034" fill="none" stroke="#ff0000"/>
<path d="M307.743,437.216l 0.657527, 1.8034" fill="none" stroke="#ff0000"/>
<path d="M296.883,437.216l 0.657527, 1.8034" fill="none" stroke="#ff0000"/>
<path d="M286.024,437.216l 0.657527, 1.8034" fill="none" stroke="#ff0000"/>
<g stroke="#ff0000" stroke-width="1" fill="none">
<line x1="306.587" y1="438.118" x2="307.587" y2="438.118"/>
</g>
<path d="M371.996,434.735l 0.815721, 2.23728" fill="none" stroke="#ff0000"/>
<path d="M361.137,434.735l 0.815721, 2.23728" fill="none" stroke="#ff0000"/>
<path d="M350.277,434.735l 0.815721, 2.23728" fill="none" stroke="#ff0000"/>
<path d="M339.417,434.735l 0.815721, 2.23728" fill="none" stroke="#ff0000"/>
<g stroke="#ff0000" stroke-width="1" fill="none">
<line x1="353.831" y1="435.854" x2="354.831" y2="435.854"/>
</g>
<path d="M424.906,430.928l 0.790457, 2.16799" fill="none" stroke="#ff0000"/>
<path d="M414.047,430.928l 1.78846, 4.90522" fill="none" stroke="#ff0000"/>
<path d="M403.187,430.928l 1.78846, 4.90522" fill="none" stroke="#ff0000"/>
<path d="M392.327,430.928l 1.78846, 4.90522" fill="none" stroke="#ff0000"/>
<path d="M381.468,430.928l 1.78846, 4.90522" fill="none" stroke="#ff0000"/>
<g stroke="#ff0000" stroke-width="1" fill="none">
<line x1="401.075" y1="433.381" x2="402.075" y2="433.381"/>
</g>
<path d="M509.833,395.795l 0.902869, 2.47631" fill="none" stroke="#ff0000"/>
<path d="M498.974,395.795l 10.9827, 30.1225" fill="none" stroke="#ff0000"/>
<path d="M488.114,395.795l 10.9827, 30.1225" fill="none" stroke="#ff0000"/>
<path d="M477.254,395.795l 10.9827, 30.1225" fill="none" stroke="#ff0000"/>
<path d="M466.395,395.795l 10.9827, 30.1225" fill="none" stroke="#ff0000"/>
<path d="M455.535,395.795l 10.9827, 30.1225" fill="none" stroke="#ff0000"/>
<path d="M444.676,395.795l 10.9827, 30.1225" fill="none" stroke="#ff0000"/>
<path d="M433.816,395.795l 10.9827, 30.1225" fill="none" stroke="#ff0000"/>
<path d="M425.697,403.311l 8.24213, 22.6057" fill="none" stroke="#ff0000"/>
<g stroke="#ff0000" stroke-width="1" fill="none">
<line x1="467.217" y1="410.856" x2="468.217" y2="410.856"/>
</g>
<path d="M99.7126,441.353v -4.06902" fill="none" stroke="#ff0000" stroke-width="2"/>
<path d="M99.7126,437.284v -4.06902" fill="none" stroke="#ff0000" stroke-width="2"/>
<path d="M57.1929,437.284h 42.5197" fill="none" stroke="#ff0000" stroke-width="2"/>
<path d="M99.7126,437.284h 42.5197" fill="none" stroke="#ff0000" stroke-width="2"/>
<g stroke="#ff0000" stroke-width="1" fill="none">
<line x1="98.7126" y1="437.284" x2="99.7126" y2="437.284"/>
</g>
<path d="M165.854,437.437v -1.75488" fill="none" stroke="#ff0000" stroke-width="2"/>
<path d="M165.854,435.683v -1.75488" fill="none" stroke="#ff0000" stroke-width="2"/>
<path d="M142.232,435.683h 23.622" fill="none" stroke="#ff0000" stroke-width="2"/>
<path d="M165.854,435.683h 23.622" fill="none" stroke="#ff0000" stroke-width="2"/>
<g stroke="#ff0000" stroke-width="1" fill="none">
<line x1="164.854" y1="435.683" x2="165.854" y2="435.683"/>
</g>
<path d="M213.098,437.747v -1.03281" fill="none" stroke="#ff0000" stroke-width="2"/>
<path d="M213.098,436.714v -1.03281" fill="none" stroke="#ff0000" stroke-width="2"/>
<path d="M189.476,436.714h 23.622" fill="none" stroke="#ff0000" stroke-width="2"/>
<path d="M213.098,436.714h 23.622" fill="none" stroke="#ff0000" stroke-width="2"/>
<g stroke="#ff0000" stroke-width="1" fill="none">
<line x1="212.098" y1="436.714" x2="213.098" y2="436.714"/>
</g>
<path d="M260.343,438.424v -0.817222" fill="none" stroke="#ff0000" stroke-width="2"/>
<path d="M260.343,437.607v -0.817222" fill="none" stroke="#ff0000" stroke-width="2"/>
<path d="M236.72,437.607h 23.622" fill="none" stroke="#ff0000" stroke-width="2"/>
<path d="M260.343,437.607h 23.622" fill="none" stroke="#ff0000" stroke-width="2"/>
<g stroke="#ff0000" stroke-width="1" fill="none">
<line x1="259.343" y1="437.607" x2="260.343" y2="437.607"/>
</g>
<path d="M307.587,438.881v -0.762753" fill="none" stroke="#ff0000" stroke-width="2"/>
<path d="M307.587,438.118v -0.762753" fill="none" stroke="#ff0000" stroke-width="2"/>
<path d="M283.965,438.118h 23.622" fill="none" stroke="#ff0000" stroke-width="2"/>
<path d="M307.587,438.118h 23.622" fill="none" stroke="#ff0000" stroke-width="2"/>
<g stroke="#ff0000" stroke-width="1" fill="none">
<line x1="306.587" y1="438.118" x2="307.587" y2="438.118"/>
</g>
<path d="M354.831,436.952v -1.09845" fill="none" stroke="#ff0000" stroke-width="2"/>
<path d="M354.831,435.854v -1.09845" fill="none" stroke="#ff0000" stroke-width="2"/>
<path d="M331.209,435.854h 23.622" fill="none" stroke="#ff0000" stroke-width="2"/>
<path d="M354.831,435.854h 23.622" fill="none" stroke="#ff0000" stroke-width="2"/>
<g stroke="#ff0000" stroke-width="1" fill="none">
<line x1="353.831" y1="435.854" x2="354.831" y2="435.854"/>
</g>
<path d="M402.075,435.298v -1.91767" fill="none" stroke="#ff0000" stroke-width="2"/>
<path d="M402.075,433.381v -1.91767" fill="none" stroke="#ff0000" stroke-width="2"/>
<path d="M378.453,433.381h 23.622" fill="none" stroke="#ff0000" stroke-width="2"/>
<path d="M402.075,433.381h 23.622" fill="none" stroke="#ff0000" stroke-width="2"/>
<g stroke="#ff0000" stroke-width="1" fill="none">
<line x1="401.075" y1="433.381" x2="402.075" y2="433.381"/>
</g>
<path d="M468.217,424.67v -13.8142" fill="none" stroke="#ff0000" stroke-width="2"/>
<path d="M468.217,410.856v -13.8142" fill="none" stroke="#ff0000" stroke-width="2"/>
<path d="M425.697,410.856h 42.5197" fill="none" stroke="#ff0000" stroke-width="2"/>
<path d="M468.217,410.856h 42.5197" fill="none" stroke="#ff0000" stroke-width="2"/>
<g stroke="#ff0000" stroke-width="1" fill="none">
<line x1="467.217" y1="410.856" x2="468.217" y2="410.856"/>
</g></svg>
